%FSLAX34Y34*%
G04 Gerber Fmt 3.4, Leading zero omitted, Abs format*
G04 (created by PCBNEW (2014-03-19 BZR 4756)-product) date Fri 30 May 2014 14:37:37 BST*
%MOIN*%
G01*
G70*
G90*
G04 APERTURE LIST*
%ADD10C,0.005906*%
%ADD11C,0.007874*%
%ADD12R,0.015748X0.039370*%
%ADD13R,0.039370X0.015748*%
%ADD14R,0.098425X0.098425*%
%ADD15C,0.019685*%
%ADD16R,0.015700X0.011800*%
%ADD17R,0.045000X0.025000*%
%ADD18R,0.068000X0.068000*%
%ADD19O,0.068000X0.068000*%
%ADD20R,0.080000X0.068000*%
%ADD21O,0.080000X0.068000*%
%ADD22R,0.023600X0.015700*%
%ADD23C,0.055000*%
%ADD24R,0.055000X0.055000*%
%ADD25R,0.080000X0.080000*%
%ADD26O,0.080000X0.080000*%
%ADD27R,0.133900X0.133900*%
%ADD28C,0.035000*%
%ADD29C,0.010000*%
%ADD30C,0.007087*%
G04 APERTURE END LIST*
G54D10*
G54D11*
X53756Y-33016D02*
X53756Y-32701D01*
X53681Y-32701D01*
X53636Y-32716D01*
X53606Y-32746D01*
X53591Y-32776D01*
X53576Y-32836D01*
X53576Y-32881D01*
X53591Y-32941D01*
X53606Y-32971D01*
X53636Y-33001D01*
X53681Y-33016D01*
X53756Y-33016D01*
X53396Y-32836D02*
X53426Y-32821D01*
X53441Y-32806D01*
X53456Y-32776D01*
X53456Y-32761D01*
X53441Y-32731D01*
X53426Y-32716D01*
X53396Y-32701D01*
X53336Y-32701D01*
X53306Y-32716D01*
X53291Y-32731D01*
X53276Y-32761D01*
X53276Y-32776D01*
X53291Y-32806D01*
X53306Y-32821D01*
X53336Y-32836D01*
X53396Y-32836D01*
X53426Y-32851D01*
X53441Y-32866D01*
X53456Y-32896D01*
X53456Y-32956D01*
X53441Y-32986D01*
X53426Y-33001D01*
X53396Y-33016D01*
X53336Y-33016D01*
X53306Y-33001D01*
X53291Y-32986D01*
X53276Y-32956D01*
X53276Y-32896D01*
X53291Y-32866D01*
X53306Y-32851D01*
X53336Y-32836D01*
X53756Y-31835D02*
X53756Y-31520D01*
X53681Y-31520D01*
X53636Y-31535D01*
X53606Y-31565D01*
X53591Y-31595D01*
X53576Y-31655D01*
X53576Y-31700D01*
X53591Y-31760D01*
X53606Y-31790D01*
X53636Y-31820D01*
X53681Y-31835D01*
X53756Y-31835D01*
X53471Y-31520D02*
X53261Y-31520D01*
X53396Y-31835D01*
X53756Y-30654D02*
X53756Y-30339D01*
X53681Y-30339D01*
X53636Y-30354D01*
X53606Y-30384D01*
X53591Y-30414D01*
X53576Y-30474D01*
X53576Y-30519D01*
X53591Y-30579D01*
X53606Y-30609D01*
X53636Y-30639D01*
X53681Y-30654D01*
X53756Y-30654D01*
X53306Y-30339D02*
X53366Y-30339D01*
X53396Y-30354D01*
X53411Y-30369D01*
X53441Y-30414D01*
X53456Y-30474D01*
X53456Y-30594D01*
X53441Y-30624D01*
X53426Y-30639D01*
X53396Y-30654D01*
X53336Y-30654D01*
X53306Y-30639D01*
X53291Y-30624D01*
X53276Y-30594D01*
X53276Y-30519D01*
X53291Y-30489D01*
X53306Y-30474D01*
X53336Y-30459D01*
X53396Y-30459D01*
X53426Y-30474D01*
X53441Y-30489D01*
X53456Y-30519D01*
X53020Y-35820D02*
X52870Y-35820D01*
X53050Y-35910D02*
X52945Y-35595D01*
X52840Y-35910D01*
X52765Y-35595D02*
X52555Y-35595D01*
X52690Y-35910D01*
X53039Y-39658D02*
X52889Y-39658D01*
X53069Y-39748D02*
X52964Y-39433D01*
X52859Y-39748D01*
X52619Y-39433D02*
X52679Y-39433D01*
X52709Y-39448D01*
X52724Y-39463D01*
X52754Y-39508D01*
X52769Y-39568D01*
X52769Y-39688D01*
X52754Y-39718D01*
X52739Y-39733D01*
X52709Y-39748D01*
X52649Y-39748D01*
X52619Y-39733D01*
X52604Y-39718D01*
X52589Y-39688D01*
X52589Y-39613D01*
X52604Y-39583D01*
X52619Y-39568D01*
X52649Y-39553D01*
X52709Y-39553D01*
X52739Y-39568D01*
X52754Y-39583D01*
X52769Y-39613D01*
X53039Y-43536D02*
X52889Y-43536D01*
X53069Y-43626D02*
X52964Y-43311D01*
X52859Y-43626D01*
X52604Y-43311D02*
X52754Y-43311D01*
X52769Y-43461D01*
X52754Y-43446D01*
X52724Y-43431D01*
X52649Y-43431D01*
X52619Y-43446D01*
X52604Y-43461D01*
X52589Y-43491D01*
X52589Y-43566D01*
X52604Y-43596D01*
X52619Y-43611D01*
X52649Y-43626D01*
X52724Y-43626D01*
X52754Y-43611D01*
X52769Y-43596D01*
G54D12*
X44084Y-37007D03*
X43828Y-37007D03*
X43572Y-37007D03*
X43316Y-37007D03*
G54D13*
X42913Y-37411D03*
X42913Y-37667D03*
X42913Y-37923D03*
X42913Y-38179D03*
G54D12*
X43316Y-38582D03*
X43572Y-38582D03*
X43828Y-38582D03*
X44084Y-38582D03*
G54D13*
X44488Y-38179D03*
X44488Y-37923D03*
X44488Y-37667D03*
X44488Y-37411D03*
G54D14*
X43700Y-37795D03*
G54D15*
X43937Y-37559D03*
X43464Y-37559D03*
X43464Y-38031D03*
X43937Y-38031D03*
G54D16*
X43708Y-36224D03*
X43708Y-35988D03*
G54D17*
X45031Y-36166D03*
X45031Y-35566D03*
G54D18*
X48318Y-38854D03*
G54D19*
X49318Y-38854D03*
X48318Y-39854D03*
X49318Y-39854D03*
X48318Y-40854D03*
X49318Y-40854D03*
X48318Y-41854D03*
X49318Y-41854D03*
G54D20*
X37401Y-39492D03*
G54D21*
X37401Y-38492D03*
X37401Y-37492D03*
X37401Y-36492D03*
G54D20*
X35826Y-33736D03*
G54D21*
X35826Y-34736D03*
X35826Y-35736D03*
X35826Y-36736D03*
G54D20*
X35826Y-38854D03*
G54D21*
X35826Y-39854D03*
X35826Y-40854D03*
X35826Y-41854D03*
G54D22*
X44291Y-35846D03*
X44291Y-36200D03*
G54D23*
X54295Y-42484D03*
X54295Y-44484D03*
X51295Y-42484D03*
X51295Y-44484D03*
X54295Y-38625D03*
X54295Y-40625D03*
X51295Y-38625D03*
X51295Y-40625D03*
X54295Y-34767D03*
X54295Y-36767D03*
X51295Y-34767D03*
X51295Y-36767D03*
X46102Y-44035D03*
X40196Y-43035D03*
X40196Y-42035D03*
X40196Y-41035D03*
X40196Y-40035D03*
X40196Y-39035D03*
X40196Y-38035D03*
X40196Y-37035D03*
X40196Y-36035D03*
X40196Y-35035D03*
X40196Y-34035D03*
X40196Y-33035D03*
X40196Y-32035D03*
X40196Y-31035D03*
X40196Y-30035D03*
G54D24*
X46102Y-30035D03*
G54D23*
X46102Y-31035D03*
X46102Y-32035D03*
X46102Y-33035D03*
X46102Y-34035D03*
X46102Y-35035D03*
X46102Y-36035D03*
X46102Y-37035D03*
X46102Y-38035D03*
X46102Y-39035D03*
X46102Y-40035D03*
X46102Y-41035D03*
X46102Y-42035D03*
X46102Y-43035D03*
X40196Y-44035D03*
G54D25*
X47755Y-34007D03*
G54D26*
X47755Y-35007D03*
G54D27*
X35826Y-31692D03*
X49803Y-31692D03*
X49803Y-43897D03*
X35826Y-43897D03*
G54D25*
X37401Y-31917D03*
G54D26*
X37401Y-30917D03*
G54D28*
X45227Y-37510D03*
X48008Y-33001D03*
X42704Y-42870D03*
X44144Y-40409D03*
X43996Y-39401D03*
X44016Y-39851D03*
X43473Y-40416D03*
X42958Y-36806D03*
X45008Y-38388D03*
G54D29*
X43708Y-36224D02*
X43828Y-36224D01*
X44023Y-36029D02*
X44023Y-35846D01*
X43828Y-36224D02*
X44023Y-36029D01*
X44157Y-35846D02*
X44023Y-35846D01*
X43828Y-37007D02*
X43828Y-36224D01*
X44488Y-37667D02*
X44835Y-37667D01*
X44991Y-37510D02*
X44835Y-37667D01*
X45227Y-37510D02*
X44991Y-37510D01*
X44023Y-34862D02*
X44023Y-35846D01*
X40196Y-31035D02*
X44023Y-34862D01*
X44157Y-35846D02*
X44291Y-35846D01*
X37401Y-36492D02*
X37401Y-35925D01*
X37984Y-30917D02*
X37992Y-30925D01*
X37992Y-30925D02*
X37992Y-35901D01*
X37984Y-30917D02*
X37401Y-30917D01*
X37425Y-35901D02*
X37992Y-35901D01*
X37401Y-35925D02*
X37425Y-35901D01*
X42206Y-36492D02*
X42491Y-36776D01*
X37401Y-36492D02*
X42206Y-36492D01*
X49318Y-41854D02*
X49318Y-41364D01*
X43279Y-35988D02*
X42491Y-36776D01*
X43708Y-35988D02*
X43279Y-35988D01*
X36517Y-43035D02*
X35826Y-42344D01*
X40196Y-43035D02*
X36517Y-43035D01*
X35826Y-41854D02*
X35826Y-42344D01*
X43193Y-37131D02*
X43316Y-37007D01*
X42824Y-37131D02*
X43193Y-37131D01*
X42491Y-36798D02*
X42824Y-37131D01*
X42491Y-36776D02*
X42491Y-36798D01*
X49115Y-41364D02*
X49318Y-41364D01*
X48814Y-41063D02*
X49115Y-41364D01*
X48814Y-35066D02*
X48814Y-41063D01*
X47755Y-34007D02*
X48814Y-35066D01*
X47755Y-34007D02*
X47205Y-34007D01*
X45272Y-35841D02*
X45031Y-35841D01*
X45406Y-35975D02*
X45272Y-35841D01*
X45406Y-36492D02*
X45406Y-35975D01*
X44488Y-37411D02*
X45406Y-36492D01*
X45031Y-35606D02*
X45031Y-35841D01*
X45031Y-35606D02*
X45031Y-35566D01*
X45031Y-35566D02*
X45031Y-35291D01*
X46211Y-34535D02*
X46907Y-33840D01*
X45973Y-34535D02*
X46211Y-34535D01*
X45218Y-35291D02*
X45973Y-34535D01*
X45031Y-35291D02*
X45218Y-35291D01*
X46102Y-33035D02*
X46907Y-33840D01*
X47157Y-33959D02*
X47205Y-34007D01*
X47026Y-33959D02*
X47157Y-33959D01*
X46907Y-33840D02*
X47026Y-33959D01*
X37401Y-37492D02*
X37401Y-37982D01*
X39421Y-40260D02*
X40196Y-41035D01*
X39421Y-39757D02*
X39421Y-40260D01*
X37646Y-37982D02*
X39421Y-39757D01*
X37401Y-37982D02*
X37646Y-37982D01*
X53863Y-42052D02*
X54295Y-42484D01*
X53863Y-39057D02*
X53863Y-42052D01*
X54295Y-38625D02*
X53863Y-39057D01*
X50855Y-38186D02*
X51295Y-38625D01*
X50855Y-35207D02*
X50855Y-38186D01*
X51295Y-34767D02*
X50855Y-35207D01*
X44291Y-36200D02*
X44291Y-36314D01*
X44507Y-36314D02*
X44656Y-36166D01*
X44291Y-36314D02*
X44507Y-36314D01*
X45031Y-36166D02*
X44656Y-36166D01*
X44291Y-36454D02*
X44291Y-36314D01*
X44084Y-36660D02*
X44291Y-36454D01*
X44084Y-37007D02*
X44084Y-36660D01*
X47828Y-39923D02*
X47828Y-39854D01*
X46216Y-41535D02*
X47828Y-39923D01*
X45989Y-41535D02*
X46216Y-41535D01*
X45675Y-41849D02*
X45989Y-41535D01*
X45675Y-43608D02*
X45675Y-41849D01*
X46102Y-44035D02*
X45675Y-43608D01*
X48318Y-39854D02*
X47828Y-39854D01*
X49318Y-39854D02*
X49318Y-39364D01*
X49521Y-39364D02*
X49318Y-39364D01*
X49828Y-39057D02*
X49521Y-39364D01*
X49828Y-35065D02*
X49828Y-39057D01*
X48090Y-33326D02*
X49828Y-35065D01*
X47873Y-33326D02*
X48090Y-33326D01*
X47127Y-32580D02*
X47873Y-33326D01*
X42741Y-32580D02*
X47127Y-32580D01*
X40196Y-30035D02*
X42741Y-32580D01*
X46647Y-42035D02*
X47828Y-40854D01*
X46102Y-42035D02*
X46647Y-42035D01*
X48318Y-40854D02*
X47828Y-40854D01*
X49521Y-40364D02*
X49318Y-40364D01*
X50051Y-39834D02*
X49521Y-40364D01*
X50051Y-35004D02*
X50051Y-39834D01*
X48048Y-33001D02*
X50051Y-35004D01*
X48008Y-33001D02*
X48048Y-33001D01*
X49318Y-40854D02*
X49318Y-40364D01*
X40196Y-37035D02*
X40196Y-37409D01*
X48318Y-42442D02*
X48318Y-41854D01*
X46296Y-44465D02*
X48318Y-42442D01*
X45903Y-44465D02*
X46296Y-44465D01*
X41841Y-40404D02*
X45903Y-44465D01*
X41841Y-39054D02*
X41841Y-40404D01*
X40196Y-37409D02*
X41841Y-39054D01*
X40392Y-40558D02*
X42704Y-42870D01*
X40117Y-40558D02*
X40392Y-40558D01*
X39625Y-40066D02*
X40117Y-40558D01*
X39625Y-39425D02*
X39625Y-40066D01*
X39557Y-39357D02*
X39625Y-39425D01*
X39557Y-38048D02*
X39557Y-39357D01*
X40196Y-37409D02*
X39557Y-38048D01*
X35563Y-40364D02*
X35826Y-40364D01*
X35274Y-40075D02*
X35563Y-40364D01*
X35274Y-36533D02*
X35274Y-40075D01*
X35581Y-36226D02*
X35274Y-36533D01*
X35826Y-36226D02*
X35581Y-36226D01*
X35826Y-35736D02*
X35826Y-36226D01*
X35826Y-40854D02*
X35826Y-40364D01*
X39764Y-38466D02*
X40196Y-38035D01*
X39764Y-39229D02*
X39764Y-38466D01*
X40070Y-39535D02*
X39764Y-39229D01*
X40340Y-39535D02*
X40070Y-39535D01*
X45691Y-44885D02*
X40340Y-39535D01*
X50893Y-44885D02*
X45691Y-44885D01*
X51295Y-44484D02*
X50893Y-44885D01*
X47237Y-44683D02*
X51295Y-40625D01*
X45808Y-44683D02*
X47237Y-44683D01*
X40196Y-39071D02*
X45808Y-44683D01*
X40196Y-39035D02*
X40196Y-39071D01*
X53857Y-37205D02*
X54295Y-36767D01*
X51733Y-37205D02*
X53857Y-37205D01*
X51733Y-37205D02*
X51295Y-36767D01*
X40381Y-40035D02*
X40196Y-40035D01*
X45457Y-45110D02*
X40381Y-40035D01*
X51273Y-45110D02*
X45457Y-45110D01*
X51733Y-44651D02*
X51273Y-45110D01*
X51733Y-37205D02*
X51733Y-44651D01*
X44084Y-38582D02*
X44084Y-38929D01*
X44342Y-39187D02*
X44084Y-38929D01*
X44342Y-40211D02*
X44342Y-39187D01*
X44144Y-40409D02*
X44342Y-40211D01*
X43828Y-39234D02*
X43996Y-39401D01*
X43828Y-38582D02*
X43828Y-39234D01*
X43966Y-39851D02*
X44016Y-39851D01*
X43572Y-39457D02*
X43966Y-39851D01*
X43572Y-38582D02*
X43572Y-39457D01*
X43316Y-40260D02*
X43473Y-40416D01*
X43316Y-38582D02*
X43316Y-40260D01*
X43572Y-37007D02*
X43572Y-36660D01*
X43104Y-36660D02*
X42958Y-36806D01*
X43572Y-36660D02*
X43104Y-36660D01*
X44488Y-37923D02*
X44835Y-37923D01*
X44835Y-38215D02*
X45008Y-38388D01*
X44835Y-37923D02*
X44835Y-38215D01*
X47755Y-35983D02*
X47755Y-35007D01*
X46203Y-37535D02*
X47755Y-35983D01*
X46000Y-37535D02*
X46203Y-37535D01*
X45333Y-38201D02*
X46000Y-37535D01*
X45333Y-38523D02*
X45333Y-38201D01*
X45143Y-38713D02*
X45333Y-38523D01*
X44874Y-38713D02*
X45143Y-38713D01*
X44488Y-38327D02*
X44874Y-38713D01*
X44488Y-38179D02*
X44488Y-38327D01*
G54D10*
G36*
X43338Y-37021D02*
X43330Y-37021D01*
X43330Y-37029D01*
X43303Y-37029D01*
X43303Y-37021D01*
X43295Y-37021D01*
X43295Y-36994D01*
X43303Y-36994D01*
X43303Y-36986D01*
X43330Y-36986D01*
X43330Y-36994D01*
X43338Y-36994D01*
X43338Y-37021D01*
X43338Y-37021D01*
G37*
G54D30*
X43338Y-37021D02*
X43330Y-37021D01*
X43330Y-37029D01*
X43303Y-37029D01*
X43303Y-37021D01*
X43295Y-37021D01*
X43295Y-36994D01*
X43303Y-36994D01*
X43303Y-36986D01*
X43330Y-36986D01*
X43330Y-36994D01*
X43338Y-36994D01*
X43338Y-37021D01*
G54D10*
G36*
X54992Y-45322D02*
X54939Y-45586D01*
X54796Y-45800D01*
X54676Y-45880D01*
X54676Y-44408D01*
X54676Y-42408D01*
X54618Y-42268D01*
X54511Y-42161D01*
X54371Y-42103D01*
X54219Y-42102D01*
X54159Y-42127D01*
X54019Y-41987D01*
X54019Y-40889D01*
X54079Y-40949D01*
X54219Y-41007D01*
X54370Y-41007D01*
X54510Y-40949D01*
X54618Y-40842D01*
X54676Y-40702D01*
X54676Y-40550D01*
X54618Y-40410D01*
X54511Y-40302D01*
X54371Y-40244D01*
X54219Y-40244D01*
X54079Y-40302D01*
X54019Y-40362D01*
X54019Y-39122D01*
X54159Y-38982D01*
X54219Y-39007D01*
X54370Y-39007D01*
X54510Y-38949D01*
X54618Y-38842D01*
X54676Y-38702D01*
X54676Y-38550D01*
X54676Y-36692D01*
X54676Y-34692D01*
X54618Y-34552D01*
X54511Y-34444D01*
X54371Y-34386D01*
X54219Y-34386D01*
X54079Y-34444D01*
X53976Y-34546D01*
X53976Y-33240D01*
X53976Y-32429D01*
X53976Y-32059D01*
X53976Y-31248D01*
X53976Y-30877D01*
X53976Y-30066D01*
X53070Y-30066D01*
X53070Y-30877D01*
X53976Y-30877D01*
X53976Y-31248D01*
X53070Y-31248D01*
X53070Y-32059D01*
X53976Y-32059D01*
X53976Y-32429D01*
X53070Y-32429D01*
X53070Y-33240D01*
X53976Y-33240D01*
X53976Y-34546D01*
X53972Y-34551D01*
X53914Y-34691D01*
X53913Y-34843D01*
X53971Y-34983D01*
X54079Y-35090D01*
X54219Y-35148D01*
X54370Y-35149D01*
X54510Y-35091D01*
X54618Y-34983D01*
X54676Y-34843D01*
X54676Y-34692D01*
X54676Y-36692D01*
X54618Y-36552D01*
X54511Y-36444D01*
X54371Y-36386D01*
X54219Y-36386D01*
X54079Y-36444D01*
X53972Y-36551D01*
X53914Y-36691D01*
X53913Y-36843D01*
X53938Y-36903D01*
X53792Y-37049D01*
X53225Y-37049D01*
X53225Y-36133D01*
X53225Y-35322D01*
X52364Y-35322D01*
X52364Y-36133D01*
X53225Y-36133D01*
X53225Y-37049D01*
X51798Y-37049D01*
X51651Y-36903D01*
X51676Y-36843D01*
X51676Y-36692D01*
X51618Y-36552D01*
X51511Y-36444D01*
X51371Y-36386D01*
X51219Y-36386D01*
X51079Y-36444D01*
X51012Y-36511D01*
X51012Y-35271D01*
X51159Y-35124D01*
X51219Y-35148D01*
X51370Y-35149D01*
X51510Y-35091D01*
X51618Y-34983D01*
X51676Y-34843D01*
X51676Y-34692D01*
X51618Y-34552D01*
X51511Y-34444D01*
X51371Y-34386D01*
X51219Y-34386D01*
X51079Y-34444D01*
X50972Y-34551D01*
X50914Y-34691D01*
X50913Y-34843D01*
X50938Y-34903D01*
X50745Y-35096D01*
X50711Y-35147D01*
X50699Y-35207D01*
X50699Y-38186D01*
X50711Y-38246D01*
X50745Y-38297D01*
X50938Y-38490D01*
X50914Y-38549D01*
X50913Y-38701D01*
X50971Y-38841D01*
X51079Y-38949D01*
X51219Y-39007D01*
X51370Y-39007D01*
X51510Y-38949D01*
X51577Y-38883D01*
X51577Y-40368D01*
X51511Y-40302D01*
X51371Y-40244D01*
X51219Y-40244D01*
X51079Y-40302D01*
X50972Y-40409D01*
X50914Y-40549D01*
X50913Y-40701D01*
X50938Y-40761D01*
X50578Y-41121D01*
X50578Y-32383D01*
X50578Y-32341D01*
X50578Y-31002D01*
X50562Y-30963D01*
X50532Y-30933D01*
X50493Y-30917D01*
X50451Y-30917D01*
X49112Y-30917D01*
X49073Y-30933D01*
X49043Y-30963D01*
X49027Y-31002D01*
X49027Y-31044D01*
X49027Y-32383D01*
X49043Y-32422D01*
X49073Y-32452D01*
X49112Y-32468D01*
X49154Y-32468D01*
X50493Y-32468D01*
X50532Y-32452D01*
X50562Y-32422D01*
X50578Y-32383D01*
X50578Y-41121D01*
X50207Y-41492D01*
X50207Y-39834D01*
X50207Y-35004D01*
X50195Y-34944D01*
X50195Y-34944D01*
X50184Y-34927D01*
X50161Y-34894D01*
X50161Y-34894D01*
X48289Y-33021D01*
X48289Y-32945D01*
X48246Y-32842D01*
X48167Y-32763D01*
X48064Y-32720D01*
X47952Y-32720D01*
X47849Y-32763D01*
X47770Y-32842D01*
X47727Y-32945D01*
X47727Y-32959D01*
X47238Y-32470D01*
X47187Y-32436D01*
X47127Y-32424D01*
X46483Y-32424D01*
X46483Y-31959D01*
X46483Y-30959D01*
X46483Y-30959D01*
X46483Y-30331D01*
X46483Y-30289D01*
X46483Y-29739D01*
X46467Y-29700D01*
X46437Y-29670D01*
X46398Y-29654D01*
X46356Y-29654D01*
X45806Y-29654D01*
X45767Y-29670D01*
X45737Y-29700D01*
X45721Y-29739D01*
X45721Y-29781D01*
X45721Y-30331D01*
X45737Y-30370D01*
X45767Y-30400D01*
X45806Y-30416D01*
X45848Y-30416D01*
X46398Y-30416D01*
X46437Y-30400D01*
X46467Y-30370D01*
X46483Y-30331D01*
X46483Y-30959D01*
X46425Y-30819D01*
X46318Y-30712D01*
X46178Y-30654D01*
X46026Y-30654D01*
X45886Y-30711D01*
X45779Y-30819D01*
X45721Y-30959D01*
X45720Y-31110D01*
X45778Y-31251D01*
X45886Y-31358D01*
X46026Y-31416D01*
X46177Y-31416D01*
X46318Y-31358D01*
X46425Y-31251D01*
X46483Y-31111D01*
X46483Y-30959D01*
X46483Y-31959D01*
X46425Y-31819D01*
X46318Y-31712D01*
X46178Y-31654D01*
X46026Y-31654D01*
X45886Y-31711D01*
X45779Y-31819D01*
X45721Y-31959D01*
X45720Y-32110D01*
X45778Y-32251D01*
X45886Y-32358D01*
X46026Y-32416D01*
X46177Y-32416D01*
X46318Y-32358D01*
X46425Y-32251D01*
X46483Y-32111D01*
X46483Y-31959D01*
X46483Y-32424D01*
X42806Y-32424D01*
X40552Y-30170D01*
X40577Y-30111D01*
X40577Y-29959D01*
X40519Y-29819D01*
X40412Y-29712D01*
X40272Y-29654D01*
X40120Y-29654D01*
X39980Y-29711D01*
X39873Y-29819D01*
X39815Y-29959D01*
X39814Y-30110D01*
X39872Y-30251D01*
X39980Y-30358D01*
X40120Y-30416D01*
X40271Y-30416D01*
X40331Y-30391D01*
X42631Y-32691D01*
X42681Y-32725D01*
X42741Y-32736D01*
X45848Y-32736D01*
X45841Y-32754D01*
X46102Y-33015D01*
X46363Y-32754D01*
X46355Y-32736D01*
X47062Y-32736D01*
X47763Y-33437D01*
X47813Y-33471D01*
X47813Y-33471D01*
X47823Y-33473D01*
X47828Y-33474D01*
X47803Y-33474D01*
X47769Y-33507D01*
X47769Y-33994D01*
X48256Y-33994D01*
X48289Y-33960D01*
X48289Y-33747D01*
X49672Y-35129D01*
X49672Y-38586D01*
X49634Y-38530D01*
X49489Y-38433D01*
X49318Y-38399D01*
X49148Y-38433D01*
X49003Y-38530D01*
X48906Y-38674D01*
X48872Y-38845D01*
X48872Y-38863D01*
X48906Y-39033D01*
X49003Y-39178D01*
X49148Y-39275D01*
X49188Y-39283D01*
X49174Y-39304D01*
X49162Y-39364D01*
X49162Y-39430D01*
X49148Y-39433D01*
X49003Y-39530D01*
X48906Y-39674D01*
X48872Y-39845D01*
X48872Y-39863D01*
X48906Y-40033D01*
X49003Y-40178D01*
X49148Y-40275D01*
X49188Y-40283D01*
X49174Y-40304D01*
X49162Y-40364D01*
X49162Y-40430D01*
X49148Y-40433D01*
X49003Y-40530D01*
X48906Y-40674D01*
X48872Y-40845D01*
X48872Y-40863D01*
X48906Y-41033D01*
X49003Y-41178D01*
X49148Y-41275D01*
X49318Y-41309D01*
X49489Y-41275D01*
X49634Y-41178D01*
X49731Y-41033D01*
X49765Y-40863D01*
X49765Y-40845D01*
X49731Y-40674D01*
X49634Y-40530D01*
X49592Y-40501D01*
X49632Y-40474D01*
X50161Y-39945D01*
X50195Y-39894D01*
X50195Y-39894D01*
X50197Y-39884D01*
X50207Y-39834D01*
X50207Y-39834D01*
X50207Y-41492D01*
X49784Y-41915D01*
X49784Y-41766D01*
X49715Y-41595D01*
X49586Y-41463D01*
X49416Y-41390D01*
X49406Y-41388D01*
X49332Y-41414D01*
X49332Y-41840D01*
X49759Y-41840D01*
X49784Y-41766D01*
X49784Y-41915D01*
X49777Y-41922D01*
X49759Y-41868D01*
X49332Y-41868D01*
X49332Y-42294D01*
X49386Y-42313D01*
X49305Y-42395D01*
X49305Y-42294D01*
X49305Y-41868D01*
X49305Y-41840D01*
X49305Y-41414D01*
X49231Y-41388D01*
X49221Y-41390D01*
X49051Y-41463D01*
X48922Y-41595D01*
X48853Y-41766D01*
X48878Y-41840D01*
X49305Y-41840D01*
X49305Y-41868D01*
X48878Y-41868D01*
X48853Y-41942D01*
X48922Y-42113D01*
X49051Y-42245D01*
X49221Y-42318D01*
X49231Y-42320D01*
X49305Y-42294D01*
X49305Y-42395D01*
X47172Y-44527D01*
X46455Y-44527D01*
X48429Y-42553D01*
X48463Y-42502D01*
X48475Y-42442D01*
X48475Y-42278D01*
X48489Y-42275D01*
X48634Y-42178D01*
X48731Y-42033D01*
X48765Y-41863D01*
X48765Y-41845D01*
X48731Y-41674D01*
X48634Y-41530D01*
X48489Y-41433D01*
X48318Y-41399D01*
X48148Y-41433D01*
X48003Y-41530D01*
X47906Y-41674D01*
X47872Y-41845D01*
X47872Y-41863D01*
X47906Y-42033D01*
X48003Y-42178D01*
X48148Y-42275D01*
X48162Y-42278D01*
X48162Y-42378D01*
X46483Y-44057D01*
X46483Y-43959D01*
X46425Y-43819D01*
X46318Y-43712D01*
X46178Y-43654D01*
X46026Y-43654D01*
X45966Y-43678D01*
X45831Y-43543D01*
X45831Y-43304D01*
X45886Y-43358D01*
X46026Y-43416D01*
X46177Y-43416D01*
X46318Y-43358D01*
X46425Y-43251D01*
X46483Y-43111D01*
X46483Y-42959D01*
X46425Y-42819D01*
X46318Y-42712D01*
X46178Y-42654D01*
X46026Y-42654D01*
X45886Y-42711D01*
X45831Y-42766D01*
X45831Y-42304D01*
X45886Y-42358D01*
X46026Y-42416D01*
X46177Y-42416D01*
X46318Y-42358D01*
X46425Y-42251D01*
X46450Y-42191D01*
X46647Y-42191D01*
X46647Y-42191D01*
X46707Y-42179D01*
X46758Y-42145D01*
X47893Y-41010D01*
X47901Y-41010D01*
X47906Y-41033D01*
X48003Y-41178D01*
X48148Y-41275D01*
X48318Y-41309D01*
X48489Y-41275D01*
X48634Y-41178D01*
X48731Y-41033D01*
X48765Y-40863D01*
X48765Y-40845D01*
X48731Y-40674D01*
X48634Y-40530D01*
X48489Y-40433D01*
X48318Y-40399D01*
X48148Y-40433D01*
X48003Y-40530D01*
X47906Y-40674D01*
X47901Y-40698D01*
X47828Y-40698D01*
X47768Y-40709D01*
X47718Y-40743D01*
X46582Y-41879D01*
X46450Y-41879D01*
X46425Y-41819D01*
X46318Y-41712D01*
X46251Y-41684D01*
X46276Y-41679D01*
X46327Y-41645D01*
X47919Y-40053D01*
X48003Y-40178D01*
X48148Y-40275D01*
X48318Y-40309D01*
X48489Y-40275D01*
X48634Y-40178D01*
X48731Y-40033D01*
X48765Y-39863D01*
X48765Y-39845D01*
X48765Y-39215D01*
X48765Y-39173D01*
X48765Y-38493D01*
X48749Y-38454D01*
X48719Y-38424D01*
X48680Y-38408D01*
X48637Y-38408D01*
X48289Y-38408D01*
X48289Y-34434D01*
X48289Y-34055D01*
X48256Y-34021D01*
X47769Y-34021D01*
X47769Y-34029D01*
X47742Y-34029D01*
X47742Y-34021D01*
X47742Y-33994D01*
X47742Y-33507D01*
X47708Y-33474D01*
X47382Y-33474D01*
X47329Y-33474D01*
X47280Y-33494D01*
X47242Y-33532D01*
X47222Y-33581D01*
X47222Y-33960D01*
X47255Y-33994D01*
X47742Y-33994D01*
X47742Y-34021D01*
X47255Y-34021D01*
X47222Y-34055D01*
X47222Y-34434D01*
X47242Y-34483D01*
X47280Y-34521D01*
X47329Y-34541D01*
X47382Y-34541D01*
X47544Y-34541D01*
X47397Y-34639D01*
X47288Y-34804D01*
X47249Y-34997D01*
X47249Y-35017D01*
X47288Y-35211D01*
X47397Y-35375D01*
X47562Y-35485D01*
X47599Y-35493D01*
X47599Y-35918D01*
X46511Y-37006D01*
X46511Y-32956D01*
X46450Y-32805D01*
X46447Y-32801D01*
X46383Y-32774D01*
X46121Y-33035D01*
X46383Y-33296D01*
X46447Y-33269D01*
X46510Y-33119D01*
X46511Y-32956D01*
X46511Y-37006D01*
X46483Y-37034D01*
X46483Y-36959D01*
X46483Y-35959D01*
X46483Y-34959D01*
X46483Y-33959D01*
X46425Y-33819D01*
X46363Y-33757D01*
X46363Y-33316D01*
X46102Y-33054D01*
X46082Y-33074D01*
X46082Y-33035D01*
X45821Y-32774D01*
X45757Y-32801D01*
X45694Y-32951D01*
X45693Y-33114D01*
X45754Y-33264D01*
X45757Y-33269D01*
X45821Y-33296D01*
X46082Y-33035D01*
X46082Y-33074D01*
X45841Y-33316D01*
X45868Y-33380D01*
X46018Y-33443D01*
X46181Y-33444D01*
X46331Y-33383D01*
X46336Y-33380D01*
X46363Y-33316D01*
X46363Y-33757D01*
X46318Y-33712D01*
X46178Y-33654D01*
X46026Y-33654D01*
X45886Y-33711D01*
X45779Y-33819D01*
X45721Y-33959D01*
X45720Y-34110D01*
X45778Y-34251D01*
X45886Y-34358D01*
X46026Y-34416D01*
X46177Y-34416D01*
X46318Y-34358D01*
X46425Y-34251D01*
X46483Y-34111D01*
X46483Y-33959D01*
X46483Y-34959D01*
X46425Y-34819D01*
X46318Y-34712D01*
X46178Y-34654D01*
X46026Y-34654D01*
X45886Y-34711D01*
X45779Y-34819D01*
X45721Y-34959D01*
X45720Y-35110D01*
X45778Y-35251D01*
X45886Y-35358D01*
X46026Y-35416D01*
X46177Y-35416D01*
X46318Y-35358D01*
X46425Y-35251D01*
X46483Y-35111D01*
X46483Y-34959D01*
X46483Y-35959D01*
X46425Y-35819D01*
X46318Y-35712D01*
X46178Y-35654D01*
X46026Y-35654D01*
X45886Y-35711D01*
X45779Y-35819D01*
X45721Y-35959D01*
X45720Y-36110D01*
X45778Y-36251D01*
X45886Y-36358D01*
X46026Y-36416D01*
X46177Y-36416D01*
X46318Y-36358D01*
X46425Y-36251D01*
X46483Y-36111D01*
X46483Y-35959D01*
X46483Y-36959D01*
X46425Y-36819D01*
X46318Y-36712D01*
X46178Y-36654D01*
X46026Y-36654D01*
X45886Y-36711D01*
X45779Y-36819D01*
X45721Y-36959D01*
X45720Y-37110D01*
X45778Y-37251D01*
X45886Y-37358D01*
X45956Y-37387D01*
X45940Y-37391D01*
X45889Y-37424D01*
X45223Y-38091D01*
X45189Y-38141D01*
X45184Y-38166D01*
X45168Y-38150D01*
X45064Y-38107D01*
X44991Y-38107D01*
X44991Y-37923D01*
X44979Y-37863D01*
X44945Y-37812D01*
X44919Y-37795D01*
X44945Y-37777D01*
X45021Y-37702D01*
X45068Y-37749D01*
X45171Y-37791D01*
X45283Y-37792D01*
X45386Y-37749D01*
X45466Y-37670D01*
X45508Y-37566D01*
X45509Y-37455D01*
X45466Y-37351D01*
X45390Y-37275D01*
X45390Y-35717D01*
X45390Y-35613D01*
X45390Y-35518D01*
X45390Y-35414D01*
X45369Y-35365D01*
X45332Y-35327D01*
X45283Y-35307D01*
X45229Y-35307D01*
X45078Y-35307D01*
X45045Y-35340D01*
X45045Y-35552D01*
X45356Y-35552D01*
X45390Y-35518D01*
X45390Y-35613D01*
X45356Y-35579D01*
X45045Y-35579D01*
X45045Y-35791D01*
X45078Y-35825D01*
X45229Y-35825D01*
X45283Y-35825D01*
X45332Y-35804D01*
X45369Y-35766D01*
X45390Y-35717D01*
X45390Y-37275D01*
X45387Y-37272D01*
X45283Y-37229D01*
X45171Y-37229D01*
X45068Y-37272D01*
X44989Y-37351D01*
X44987Y-37355D01*
X44941Y-37364D01*
X44931Y-37366D01*
X44881Y-37400D01*
X44818Y-37462D01*
X44818Y-37458D01*
X44818Y-37364D01*
X44818Y-37306D01*
X44798Y-37256D01*
X44760Y-37219D01*
X44711Y-37198D01*
X44658Y-37198D01*
X44535Y-37198D01*
X44501Y-37232D01*
X44501Y-37397D01*
X44785Y-37397D01*
X44818Y-37364D01*
X44818Y-37458D01*
X44785Y-37425D01*
X44501Y-37425D01*
X44501Y-37433D01*
X44474Y-37433D01*
X44474Y-37425D01*
X44466Y-37425D01*
X44466Y-37397D01*
X44474Y-37397D01*
X44474Y-37232D01*
X44440Y-37198D01*
X44317Y-37198D01*
X44269Y-37198D01*
X44269Y-37183D01*
X44269Y-36789D01*
X44253Y-36750D01*
X44240Y-36738D01*
X44240Y-36725D01*
X44401Y-36564D01*
X44435Y-36514D01*
X44435Y-36514D01*
X44437Y-36504D01*
X44444Y-36471D01*
X44507Y-36471D01*
X44507Y-36471D01*
X44567Y-36459D01*
X44618Y-36425D01*
X44709Y-36334D01*
X44716Y-36351D01*
X44746Y-36381D01*
X44785Y-36397D01*
X44827Y-36397D01*
X45277Y-36397D01*
X45316Y-36381D01*
X45346Y-36351D01*
X45362Y-36312D01*
X45362Y-36269D01*
X45362Y-36019D01*
X45346Y-35980D01*
X45316Y-35951D01*
X45277Y-35934D01*
X45235Y-35934D01*
X45017Y-35934D01*
X45017Y-35791D01*
X45017Y-35579D01*
X45017Y-35552D01*
X45017Y-35340D01*
X44984Y-35307D01*
X44833Y-35307D01*
X44779Y-35307D01*
X44730Y-35327D01*
X44693Y-35365D01*
X44672Y-35414D01*
X44672Y-35518D01*
X44706Y-35552D01*
X45017Y-35552D01*
X45017Y-35579D01*
X44706Y-35579D01*
X44672Y-35613D01*
X44672Y-35717D01*
X44693Y-35766D01*
X44730Y-35804D01*
X44779Y-35825D01*
X44833Y-35825D01*
X44984Y-35825D01*
X45017Y-35791D01*
X45017Y-35934D01*
X44785Y-35934D01*
X44746Y-35951D01*
X44716Y-35980D01*
X44704Y-36009D01*
X44656Y-36009D01*
X44606Y-36019D01*
X44596Y-36021D01*
X44545Y-36055D01*
X44511Y-36090D01*
X44499Y-36061D01*
X44469Y-36032D01*
X44449Y-36023D01*
X44469Y-36015D01*
X44499Y-35985D01*
X44515Y-35946D01*
X44515Y-35903D01*
X44515Y-35746D01*
X44499Y-35707D01*
X44469Y-35678D01*
X44430Y-35661D01*
X44388Y-35661D01*
X44179Y-35661D01*
X44179Y-34862D01*
X44167Y-34802D01*
X44133Y-34751D01*
X40552Y-31170D01*
X40577Y-31111D01*
X40577Y-30959D01*
X40519Y-30819D01*
X40412Y-30712D01*
X40272Y-30654D01*
X40120Y-30654D01*
X39980Y-30711D01*
X39873Y-30819D01*
X39815Y-30959D01*
X39814Y-31110D01*
X39872Y-31251D01*
X39980Y-31358D01*
X40120Y-31416D01*
X40271Y-31416D01*
X40331Y-31391D01*
X43866Y-34927D01*
X43866Y-35819D01*
X43862Y-35815D01*
X43813Y-35795D01*
X43760Y-35795D01*
X43755Y-35795D01*
X43722Y-35828D01*
X43722Y-35974D01*
X43730Y-35974D01*
X43730Y-36002D01*
X43722Y-36002D01*
X43722Y-36009D01*
X43694Y-36009D01*
X43694Y-36002D01*
X43694Y-35974D01*
X43694Y-35828D01*
X43661Y-35795D01*
X43656Y-35795D01*
X43603Y-35795D01*
X43554Y-35815D01*
X43516Y-35853D01*
X43496Y-35902D01*
X43496Y-35941D01*
X43529Y-35974D01*
X43694Y-35974D01*
X43694Y-36002D01*
X43529Y-36002D01*
X43496Y-36035D01*
X43496Y-36073D01*
X43516Y-36123D01*
X43527Y-36134D01*
X43523Y-36144D01*
X43523Y-36186D01*
X43523Y-36304D01*
X43540Y-36343D01*
X43569Y-36373D01*
X43609Y-36389D01*
X43651Y-36389D01*
X43672Y-36389D01*
X43672Y-36543D01*
X43632Y-36516D01*
X43572Y-36504D01*
X43104Y-36504D01*
X43044Y-36516D01*
X43025Y-36529D01*
X43015Y-36525D01*
X42903Y-36525D01*
X42799Y-36567D01*
X42720Y-36646D01*
X42677Y-36750D01*
X42677Y-36862D01*
X42720Y-36965D01*
X42799Y-37044D01*
X42902Y-37087D01*
X43014Y-37087D01*
X43111Y-37047D01*
X43104Y-37055D01*
X43104Y-37226D01*
X43089Y-37226D01*
X42695Y-37226D01*
X42656Y-37242D01*
X42626Y-37272D01*
X42610Y-37311D01*
X42610Y-37353D01*
X42610Y-37511D01*
X42621Y-37539D01*
X42610Y-37567D01*
X42610Y-37609D01*
X42610Y-37767D01*
X42621Y-37795D01*
X42610Y-37823D01*
X42610Y-37865D01*
X42610Y-38023D01*
X42621Y-38051D01*
X42610Y-38079D01*
X42610Y-38121D01*
X42610Y-38279D01*
X42626Y-38318D01*
X42656Y-38347D01*
X42695Y-38364D01*
X42737Y-38364D01*
X43131Y-38364D01*
X43132Y-38363D01*
X43131Y-38364D01*
X43131Y-38406D01*
X43131Y-38800D01*
X43148Y-38839D01*
X43160Y-38852D01*
X43160Y-40260D01*
X43172Y-40319D01*
X43195Y-40353D01*
X43192Y-40360D01*
X43192Y-40472D01*
X43234Y-40575D01*
X43313Y-40654D01*
X43417Y-40697D01*
X43529Y-40697D01*
X43632Y-40655D01*
X43711Y-40576D01*
X43754Y-40472D01*
X43754Y-40360D01*
X43712Y-40257D01*
X43632Y-40178D01*
X43529Y-40135D01*
X43473Y-40135D01*
X43473Y-39578D01*
X43735Y-39841D01*
X43735Y-39907D01*
X43778Y-40010D01*
X43857Y-40089D01*
X43960Y-40132D01*
X44072Y-40132D01*
X44176Y-40090D01*
X44185Y-40080D01*
X44185Y-40128D01*
X44088Y-40128D01*
X43984Y-40170D01*
X43905Y-40249D01*
X43862Y-40353D01*
X43862Y-40465D01*
X43905Y-40568D01*
X43984Y-40647D01*
X44087Y-40690D01*
X44199Y-40690D01*
X44303Y-40648D01*
X44382Y-40568D01*
X44425Y-40465D01*
X44425Y-40353D01*
X44424Y-40350D01*
X44452Y-40321D01*
X44452Y-40321D01*
X44486Y-40271D01*
X44486Y-40271D01*
X44488Y-40261D01*
X44498Y-40211D01*
X44498Y-40211D01*
X44498Y-39187D01*
X44488Y-39137D01*
X44486Y-39127D01*
X44486Y-39127D01*
X44452Y-39076D01*
X44452Y-39076D01*
X44240Y-38864D01*
X44240Y-38852D01*
X44253Y-38839D01*
X44269Y-38800D01*
X44269Y-38758D01*
X44269Y-38364D01*
X44269Y-38363D01*
X44270Y-38364D01*
X44312Y-38364D01*
X44339Y-38364D01*
X44343Y-38387D01*
X44377Y-38438D01*
X44763Y-38824D01*
X44814Y-38858D01*
X44814Y-38858D01*
X44824Y-38860D01*
X44874Y-38870D01*
X45143Y-38870D01*
X45143Y-38870D01*
X45203Y-38858D01*
X45253Y-38824D01*
X45444Y-38633D01*
X45478Y-38583D01*
X45490Y-38523D01*
X45490Y-38523D01*
X45490Y-38266D01*
X45721Y-38035D01*
X45720Y-38110D01*
X45778Y-38251D01*
X45886Y-38358D01*
X46026Y-38416D01*
X46177Y-38416D01*
X46318Y-38358D01*
X46425Y-38251D01*
X46483Y-38111D01*
X46483Y-37959D01*
X46425Y-37819D01*
X46318Y-37712D01*
X46247Y-37682D01*
X46263Y-37679D01*
X46314Y-37645D01*
X47866Y-36093D01*
X47900Y-36043D01*
X47900Y-36043D01*
X47902Y-36033D01*
X47912Y-35983D01*
X47912Y-35983D01*
X47912Y-35493D01*
X47949Y-35485D01*
X48113Y-35375D01*
X48223Y-35211D01*
X48262Y-35017D01*
X48262Y-34997D01*
X48223Y-34804D01*
X48113Y-34639D01*
X47966Y-34541D01*
X48129Y-34541D01*
X48182Y-34541D01*
X48231Y-34521D01*
X48269Y-34483D01*
X48289Y-34434D01*
X48289Y-38408D01*
X47957Y-38408D01*
X47918Y-38424D01*
X47888Y-38454D01*
X47872Y-38493D01*
X47872Y-38535D01*
X47872Y-39215D01*
X47888Y-39254D01*
X47918Y-39284D01*
X47957Y-39300D01*
X48000Y-39300D01*
X48680Y-39300D01*
X48719Y-39284D01*
X48749Y-39254D01*
X48765Y-39215D01*
X48765Y-39845D01*
X48731Y-39674D01*
X48634Y-39530D01*
X48489Y-39433D01*
X48318Y-39399D01*
X48148Y-39433D01*
X48003Y-39530D01*
X47906Y-39674D01*
X47901Y-39698D01*
X47828Y-39698D01*
X47768Y-39709D01*
X47718Y-39743D01*
X47684Y-39794D01*
X47672Y-39854D01*
X47672Y-39858D01*
X46483Y-41047D01*
X46483Y-40959D01*
X46483Y-39959D01*
X46483Y-38959D01*
X46425Y-38819D01*
X46318Y-38712D01*
X46178Y-38654D01*
X46026Y-38654D01*
X45886Y-38711D01*
X45779Y-38819D01*
X45721Y-38959D01*
X45720Y-39110D01*
X45778Y-39251D01*
X45886Y-39358D01*
X46026Y-39416D01*
X46177Y-39416D01*
X46318Y-39358D01*
X46425Y-39251D01*
X46483Y-39111D01*
X46483Y-38959D01*
X46483Y-39959D01*
X46425Y-39819D01*
X46318Y-39712D01*
X46178Y-39654D01*
X46026Y-39654D01*
X45886Y-39711D01*
X45779Y-39819D01*
X45721Y-39959D01*
X45720Y-40110D01*
X45778Y-40251D01*
X45886Y-40358D01*
X46026Y-40416D01*
X46177Y-40416D01*
X46318Y-40358D01*
X46425Y-40251D01*
X46483Y-40111D01*
X46483Y-39959D01*
X46483Y-40959D01*
X46425Y-40819D01*
X46318Y-40712D01*
X46178Y-40654D01*
X46026Y-40654D01*
X45886Y-40711D01*
X45779Y-40819D01*
X45721Y-40959D01*
X45720Y-41110D01*
X45778Y-41251D01*
X45886Y-41358D01*
X45953Y-41386D01*
X45930Y-41391D01*
X45879Y-41424D01*
X45564Y-41739D01*
X45530Y-41790D01*
X45519Y-41849D01*
X45519Y-43608D01*
X45530Y-43668D01*
X45564Y-43718D01*
X45745Y-43899D01*
X45721Y-43959D01*
X45721Y-44062D01*
X41998Y-40339D01*
X41998Y-39054D01*
X41986Y-38994D01*
X41952Y-38944D01*
X40380Y-37372D01*
X40412Y-37358D01*
X40519Y-37251D01*
X40577Y-37111D01*
X40577Y-36959D01*
X40577Y-35959D01*
X40577Y-34959D01*
X40577Y-33959D01*
X40577Y-32959D01*
X40577Y-31959D01*
X40519Y-31819D01*
X40412Y-31712D01*
X40272Y-31654D01*
X40120Y-31654D01*
X39980Y-31711D01*
X39873Y-31819D01*
X39815Y-31959D01*
X39814Y-32110D01*
X39872Y-32251D01*
X39980Y-32358D01*
X40120Y-32416D01*
X40271Y-32416D01*
X40412Y-32358D01*
X40519Y-32251D01*
X40577Y-32111D01*
X40577Y-31959D01*
X40577Y-32959D01*
X40519Y-32819D01*
X40412Y-32712D01*
X40272Y-32654D01*
X40120Y-32654D01*
X39980Y-32711D01*
X39873Y-32819D01*
X39815Y-32959D01*
X39814Y-33110D01*
X39872Y-33251D01*
X39980Y-33358D01*
X40120Y-33416D01*
X40271Y-33416D01*
X40412Y-33358D01*
X40519Y-33251D01*
X40577Y-33111D01*
X40577Y-32959D01*
X40577Y-33959D01*
X40519Y-33819D01*
X40412Y-33712D01*
X40272Y-33654D01*
X40120Y-33654D01*
X39980Y-33711D01*
X39873Y-33819D01*
X39815Y-33959D01*
X39814Y-34110D01*
X39872Y-34251D01*
X39980Y-34358D01*
X40120Y-34416D01*
X40271Y-34416D01*
X40412Y-34358D01*
X40519Y-34251D01*
X40577Y-34111D01*
X40577Y-33959D01*
X40577Y-34959D01*
X40519Y-34819D01*
X40412Y-34712D01*
X40272Y-34654D01*
X40120Y-34654D01*
X39980Y-34711D01*
X39873Y-34819D01*
X39815Y-34959D01*
X39814Y-35110D01*
X39872Y-35251D01*
X39980Y-35358D01*
X40120Y-35416D01*
X40271Y-35416D01*
X40412Y-35358D01*
X40519Y-35251D01*
X40577Y-35111D01*
X40577Y-34959D01*
X40577Y-35959D01*
X40519Y-35819D01*
X40412Y-35712D01*
X40272Y-35654D01*
X40120Y-35654D01*
X39980Y-35711D01*
X39873Y-35819D01*
X39815Y-35959D01*
X39814Y-36110D01*
X39872Y-36251D01*
X39980Y-36358D01*
X40120Y-36416D01*
X40271Y-36416D01*
X40412Y-36358D01*
X40519Y-36251D01*
X40577Y-36111D01*
X40577Y-35959D01*
X40577Y-36959D01*
X40519Y-36819D01*
X40412Y-36712D01*
X40272Y-36654D01*
X40120Y-36654D01*
X39980Y-36711D01*
X39873Y-36819D01*
X39815Y-36959D01*
X39814Y-37110D01*
X39872Y-37251D01*
X39980Y-37358D01*
X40012Y-37371D01*
X39446Y-37937D01*
X39412Y-37988D01*
X39401Y-38048D01*
X39401Y-39357D01*
X39412Y-39417D01*
X39446Y-39467D01*
X39469Y-39490D01*
X39469Y-39583D01*
X37927Y-38041D01*
X37927Y-36579D01*
X37927Y-36404D01*
X37926Y-36401D01*
X37926Y-31014D01*
X37926Y-30820D01*
X37849Y-30626D01*
X37704Y-30477D01*
X37512Y-30395D01*
X37498Y-30392D01*
X37415Y-30417D01*
X37415Y-30903D01*
X37901Y-30903D01*
X37926Y-30820D01*
X37926Y-31014D01*
X37901Y-30931D01*
X37415Y-30931D01*
X37415Y-30938D01*
X37387Y-30938D01*
X37387Y-30931D01*
X37387Y-30903D01*
X37387Y-30417D01*
X37304Y-30392D01*
X37290Y-30395D01*
X37099Y-30477D01*
X36953Y-30626D01*
X36876Y-30820D01*
X36901Y-30903D01*
X37387Y-30903D01*
X37387Y-30931D01*
X36901Y-30931D01*
X36876Y-31014D01*
X36953Y-31207D01*
X37099Y-31357D01*
X37224Y-31411D01*
X36980Y-31411D01*
X36941Y-31427D01*
X36911Y-31457D01*
X36895Y-31496D01*
X36895Y-31538D01*
X36895Y-32338D01*
X36911Y-32377D01*
X36941Y-32407D01*
X36980Y-32423D01*
X37022Y-32423D01*
X37822Y-32423D01*
X37861Y-32407D01*
X37891Y-32377D01*
X37907Y-32338D01*
X37907Y-32296D01*
X37907Y-31496D01*
X37891Y-31457D01*
X37861Y-31427D01*
X37822Y-31411D01*
X37780Y-31411D01*
X37578Y-31411D01*
X37704Y-31357D01*
X37849Y-31207D01*
X37926Y-31014D01*
X37926Y-36401D01*
X37904Y-36323D01*
X37806Y-36166D01*
X37655Y-36059D01*
X37475Y-36018D01*
X37415Y-36018D01*
X37415Y-36478D01*
X37901Y-36478D01*
X37927Y-36404D01*
X37927Y-36579D01*
X37901Y-36505D01*
X37415Y-36505D01*
X37415Y-36965D01*
X37475Y-36965D01*
X37655Y-36924D01*
X37806Y-36817D01*
X37904Y-36660D01*
X37927Y-36579D01*
X37927Y-38041D01*
X37757Y-37871D01*
X37724Y-37849D01*
X37787Y-37807D01*
X37883Y-37662D01*
X37917Y-37492D01*
X37883Y-37321D01*
X37787Y-37176D01*
X37642Y-37079D01*
X37471Y-37045D01*
X37387Y-37045D01*
X37387Y-36965D01*
X37387Y-36505D01*
X37387Y-36478D01*
X37387Y-36018D01*
X37327Y-36018D01*
X37147Y-36059D01*
X36996Y-36166D01*
X36898Y-36323D01*
X36875Y-36404D01*
X36901Y-36478D01*
X37387Y-36478D01*
X37387Y-36505D01*
X36901Y-36505D01*
X36875Y-36579D01*
X36898Y-36660D01*
X36996Y-36817D01*
X37147Y-36924D01*
X37327Y-36965D01*
X37387Y-36965D01*
X37387Y-37045D01*
X37331Y-37045D01*
X37160Y-37079D01*
X37016Y-37176D01*
X36919Y-37321D01*
X36885Y-37492D01*
X36919Y-37662D01*
X37016Y-37807D01*
X37160Y-37904D01*
X37245Y-37921D01*
X37245Y-37982D01*
X37257Y-38042D01*
X37268Y-38058D01*
X37160Y-38079D01*
X37016Y-38176D01*
X36919Y-38321D01*
X36885Y-38492D01*
X36919Y-38662D01*
X37016Y-38807D01*
X37160Y-38904D01*
X37331Y-38938D01*
X37471Y-38938D01*
X37642Y-38904D01*
X37787Y-38807D01*
X37883Y-38662D01*
X37917Y-38492D01*
X37913Y-38470D01*
X39265Y-39821D01*
X39265Y-40260D01*
X39277Y-40320D01*
X39310Y-40370D01*
X39839Y-40899D01*
X39815Y-40959D01*
X39814Y-41110D01*
X39872Y-41251D01*
X39980Y-41358D01*
X40120Y-41416D01*
X40271Y-41416D01*
X40412Y-41358D01*
X40519Y-41251D01*
X40577Y-41111D01*
X40577Y-40964D01*
X42424Y-42811D01*
X42423Y-42814D01*
X42423Y-42926D01*
X42466Y-43029D01*
X42545Y-43108D01*
X42648Y-43151D01*
X42760Y-43151D01*
X42864Y-43109D01*
X42943Y-43029D01*
X42986Y-42926D01*
X42986Y-42860D01*
X45346Y-45221D01*
X45397Y-45255D01*
X45397Y-45255D01*
X45407Y-45257D01*
X45457Y-45267D01*
X51273Y-45267D01*
X51273Y-45267D01*
X51333Y-45255D01*
X51384Y-45221D01*
X51843Y-44761D01*
X51843Y-44761D01*
X51877Y-44711D01*
X51889Y-44651D01*
X51889Y-37362D01*
X53857Y-37362D01*
X53857Y-37362D01*
X53917Y-37350D01*
X53967Y-37316D01*
X54159Y-37124D01*
X54219Y-37148D01*
X54370Y-37149D01*
X54510Y-37091D01*
X54618Y-36983D01*
X54676Y-36843D01*
X54676Y-36692D01*
X54676Y-38550D01*
X54618Y-38410D01*
X54511Y-38302D01*
X54371Y-38244D01*
X54219Y-38244D01*
X54079Y-38302D01*
X53972Y-38409D01*
X53914Y-38549D01*
X53913Y-38701D01*
X53938Y-38761D01*
X53752Y-38947D01*
X53719Y-38998D01*
X53707Y-39057D01*
X53707Y-42052D01*
X53719Y-42112D01*
X53752Y-42162D01*
X53938Y-42348D01*
X53914Y-42408D01*
X53913Y-42559D01*
X53971Y-42699D01*
X54079Y-42807D01*
X54219Y-42865D01*
X54370Y-42865D01*
X54510Y-42807D01*
X54618Y-42700D01*
X54676Y-42560D01*
X54676Y-42408D01*
X54676Y-44408D01*
X54618Y-44268D01*
X54511Y-44161D01*
X54371Y-44103D01*
X54219Y-44102D01*
X54079Y-44160D01*
X53972Y-44267D01*
X53914Y-44408D01*
X53913Y-44559D01*
X53971Y-44699D01*
X54079Y-44807D01*
X54219Y-44865D01*
X54370Y-44865D01*
X54510Y-44807D01*
X54618Y-44700D01*
X54676Y-44560D01*
X54676Y-44408D01*
X54676Y-45880D01*
X54582Y-45943D01*
X54318Y-45996D01*
X53494Y-45996D01*
X53245Y-45996D01*
X53245Y-43850D01*
X53245Y-43039D01*
X53245Y-39972D01*
X53245Y-39161D01*
X52384Y-39161D01*
X52384Y-39972D01*
X53245Y-39972D01*
X53245Y-43039D01*
X52384Y-43039D01*
X52384Y-43850D01*
X53245Y-43850D01*
X53245Y-45996D01*
X40605Y-45996D01*
X40605Y-42956D01*
X40577Y-42887D01*
X40577Y-41959D01*
X40519Y-41819D01*
X40412Y-41712D01*
X40272Y-41654D01*
X40120Y-41654D01*
X39980Y-41711D01*
X39873Y-41819D01*
X39815Y-41959D01*
X39814Y-42110D01*
X39872Y-42251D01*
X39980Y-42358D01*
X40120Y-42416D01*
X40271Y-42416D01*
X40412Y-42358D01*
X40519Y-42251D01*
X40577Y-42111D01*
X40577Y-41959D01*
X40577Y-42887D01*
X40544Y-42805D01*
X40541Y-42801D01*
X40477Y-42774D01*
X40457Y-42793D01*
X40457Y-42754D01*
X40430Y-42690D01*
X40280Y-42627D01*
X40117Y-42626D01*
X39966Y-42687D01*
X39962Y-42690D01*
X39935Y-42754D01*
X40196Y-43015D01*
X40457Y-42754D01*
X40457Y-42793D01*
X40215Y-43035D01*
X40477Y-43296D01*
X40541Y-43269D01*
X40604Y-43119D01*
X40605Y-42956D01*
X40605Y-45996D01*
X40577Y-45996D01*
X40577Y-43959D01*
X40519Y-43819D01*
X40457Y-43757D01*
X40457Y-43316D01*
X40196Y-43054D01*
X40176Y-43074D01*
X40176Y-43035D01*
X39915Y-42774D01*
X39851Y-42801D01*
X39788Y-42951D01*
X39787Y-43114D01*
X39848Y-43264D01*
X39851Y-43269D01*
X39915Y-43296D01*
X40176Y-43035D01*
X40176Y-43074D01*
X39935Y-43316D01*
X39962Y-43380D01*
X40112Y-43443D01*
X40275Y-43444D01*
X40425Y-43383D01*
X40430Y-43380D01*
X40457Y-43316D01*
X40457Y-43757D01*
X40412Y-43712D01*
X40272Y-43654D01*
X40120Y-43654D01*
X39980Y-43711D01*
X39873Y-43819D01*
X39815Y-43959D01*
X39814Y-44110D01*
X39872Y-44251D01*
X39980Y-44358D01*
X40120Y-44416D01*
X40271Y-44416D01*
X40412Y-44358D01*
X40519Y-44251D01*
X40577Y-44111D01*
X40577Y-43959D01*
X40577Y-45996D01*
X37907Y-45996D01*
X37907Y-39853D01*
X37907Y-39810D01*
X37907Y-39130D01*
X37891Y-39091D01*
X37861Y-39062D01*
X37822Y-39045D01*
X37780Y-39045D01*
X36980Y-39045D01*
X36941Y-39062D01*
X36911Y-39091D01*
X36895Y-39130D01*
X36895Y-39173D01*
X36895Y-39853D01*
X36911Y-39892D01*
X36941Y-39922D01*
X36980Y-39938D01*
X37022Y-39938D01*
X37822Y-39938D01*
X37861Y-39922D01*
X37891Y-39892D01*
X37907Y-39853D01*
X37907Y-45996D01*
X36602Y-45996D01*
X36602Y-44588D01*
X36602Y-44545D01*
X36602Y-43206D01*
X36602Y-32383D01*
X36602Y-32341D01*
X36602Y-31002D01*
X36586Y-30963D01*
X36556Y-30933D01*
X36517Y-30917D01*
X36475Y-30917D01*
X35136Y-30917D01*
X35097Y-30933D01*
X35067Y-30963D01*
X35050Y-31002D01*
X35050Y-31044D01*
X35050Y-32383D01*
X35067Y-32422D01*
X35097Y-32452D01*
X35136Y-32468D01*
X35178Y-32468D01*
X36517Y-32468D01*
X36556Y-32452D01*
X36586Y-32422D01*
X36602Y-32383D01*
X36602Y-43206D01*
X36586Y-43167D01*
X36556Y-43138D01*
X36517Y-43121D01*
X36475Y-43121D01*
X36352Y-43121D01*
X36352Y-41942D01*
X36352Y-41766D01*
X36352Y-36823D01*
X36352Y-36648D01*
X36329Y-36567D01*
X36231Y-36410D01*
X36080Y-36303D01*
X35972Y-36278D01*
X35983Y-36226D01*
X35983Y-36165D01*
X36067Y-36148D01*
X36212Y-36051D01*
X36309Y-35907D01*
X36342Y-35736D01*
X36342Y-34736D01*
X36333Y-34686D01*
X36333Y-34097D01*
X36333Y-34055D01*
X36333Y-33375D01*
X36316Y-33336D01*
X36286Y-33306D01*
X36247Y-33289D01*
X36205Y-33289D01*
X35405Y-33289D01*
X35366Y-33306D01*
X35336Y-33336D01*
X35320Y-33375D01*
X35320Y-33417D01*
X35320Y-34097D01*
X35336Y-34136D01*
X35366Y-34166D01*
X35405Y-34182D01*
X35447Y-34182D01*
X36247Y-34182D01*
X36286Y-34166D01*
X36316Y-34136D01*
X36333Y-34097D01*
X36333Y-34686D01*
X36309Y-34565D01*
X36212Y-34420D01*
X36067Y-34323D01*
X35896Y-34289D01*
X35756Y-34289D01*
X35586Y-34323D01*
X35441Y-34420D01*
X35344Y-34565D01*
X35310Y-34736D01*
X35344Y-34907D01*
X35441Y-35051D01*
X35586Y-35148D01*
X35756Y-35182D01*
X35896Y-35182D01*
X36067Y-35148D01*
X36212Y-35051D01*
X36309Y-34907D01*
X36342Y-34736D01*
X36342Y-35736D01*
X36309Y-35565D01*
X36212Y-35420D01*
X36067Y-35323D01*
X35896Y-35289D01*
X35756Y-35289D01*
X35586Y-35323D01*
X35441Y-35420D01*
X35344Y-35565D01*
X35310Y-35736D01*
X35344Y-35907D01*
X35441Y-36051D01*
X35504Y-36093D01*
X35471Y-36115D01*
X35164Y-36422D01*
X35130Y-36473D01*
X35118Y-36533D01*
X35118Y-40075D01*
X35130Y-40134D01*
X35164Y-40185D01*
X35453Y-40474D01*
X35495Y-40502D01*
X35441Y-40538D01*
X35344Y-40683D01*
X35310Y-40854D01*
X35344Y-41025D01*
X35441Y-41169D01*
X35586Y-41266D01*
X35756Y-41300D01*
X35896Y-41300D01*
X36067Y-41266D01*
X36212Y-41169D01*
X36309Y-41025D01*
X36342Y-40854D01*
X36309Y-40683D01*
X36212Y-40538D01*
X36067Y-40442D01*
X35983Y-40425D01*
X35983Y-40364D01*
X35971Y-40304D01*
X35960Y-40287D01*
X36067Y-40266D01*
X36212Y-40169D01*
X36309Y-40025D01*
X36342Y-39854D01*
X36309Y-39683D01*
X36212Y-39538D01*
X36067Y-39442D01*
X35896Y-39408D01*
X35756Y-39408D01*
X35586Y-39442D01*
X35441Y-39538D01*
X35430Y-39554D01*
X35430Y-39300D01*
X35447Y-39300D01*
X36247Y-39300D01*
X36286Y-39284D01*
X36316Y-39254D01*
X36333Y-39215D01*
X36333Y-39173D01*
X36333Y-38493D01*
X36316Y-38454D01*
X36286Y-38424D01*
X36247Y-38408D01*
X36205Y-38408D01*
X35430Y-38408D01*
X35430Y-37067D01*
X35572Y-37168D01*
X35752Y-37210D01*
X35812Y-37210D01*
X35812Y-36750D01*
X35805Y-36750D01*
X35805Y-36722D01*
X35812Y-36722D01*
X35812Y-36714D01*
X35840Y-36714D01*
X35840Y-36722D01*
X36326Y-36722D01*
X36352Y-36648D01*
X36352Y-36823D01*
X36326Y-36750D01*
X35840Y-36750D01*
X35840Y-37210D01*
X35900Y-37210D01*
X36080Y-37168D01*
X36231Y-37061D01*
X36329Y-36904D01*
X36352Y-36823D01*
X36352Y-41766D01*
X36329Y-41685D01*
X36231Y-41529D01*
X36080Y-41421D01*
X35900Y-41380D01*
X35840Y-41380D01*
X35840Y-41840D01*
X36326Y-41840D01*
X36352Y-41766D01*
X36352Y-41942D01*
X36326Y-41868D01*
X35840Y-41868D01*
X35840Y-42328D01*
X35900Y-42328D01*
X36080Y-42286D01*
X36231Y-42179D01*
X36329Y-42022D01*
X36352Y-41942D01*
X36352Y-43121D01*
X35812Y-43121D01*
X35812Y-42328D01*
X35812Y-41868D01*
X35812Y-41840D01*
X35812Y-41380D01*
X35752Y-41380D01*
X35572Y-41421D01*
X35421Y-41529D01*
X35323Y-41685D01*
X35301Y-41766D01*
X35326Y-41840D01*
X35812Y-41840D01*
X35812Y-41868D01*
X35326Y-41868D01*
X35301Y-41942D01*
X35323Y-42022D01*
X35421Y-42179D01*
X35572Y-42286D01*
X35752Y-42328D01*
X35812Y-42328D01*
X35812Y-43121D01*
X35136Y-43121D01*
X35097Y-43138D01*
X35067Y-43167D01*
X35050Y-43206D01*
X35050Y-43249D01*
X35050Y-44588D01*
X35067Y-44627D01*
X35097Y-44657D01*
X35136Y-44673D01*
X35178Y-44673D01*
X36517Y-44673D01*
X36556Y-44657D01*
X36586Y-44627D01*
X36602Y-44588D01*
X36602Y-45996D01*
X35839Y-45996D01*
X35024Y-45834D01*
X34344Y-45379D01*
X33890Y-44699D01*
X33728Y-43885D01*
X33728Y-31705D01*
X33890Y-30890D01*
X34344Y-30210D01*
X35024Y-29756D01*
X35839Y-29594D01*
X54318Y-29594D01*
X54582Y-29647D01*
X54796Y-29789D01*
X54939Y-30003D01*
X54992Y-30268D01*
X54992Y-45322D01*
X54992Y-45322D01*
G37*
G54D30*
X54992Y-45322D02*
X54939Y-45586D01*
X54796Y-45800D01*
X54676Y-45880D01*
X54676Y-44408D01*
X54676Y-42408D01*
X54618Y-42268D01*
X54511Y-42161D01*
X54371Y-42103D01*
X54219Y-42102D01*
X54159Y-42127D01*
X54019Y-41987D01*
X54019Y-40889D01*
X54079Y-40949D01*
X54219Y-41007D01*
X54370Y-41007D01*
X54510Y-40949D01*
X54618Y-40842D01*
X54676Y-40702D01*
X54676Y-40550D01*
X54618Y-40410D01*
X54511Y-40302D01*
X54371Y-40244D01*
X54219Y-40244D01*
X54079Y-40302D01*
X54019Y-40362D01*
X54019Y-39122D01*
X54159Y-38982D01*
X54219Y-39007D01*
X54370Y-39007D01*
X54510Y-38949D01*
X54618Y-38842D01*
X54676Y-38702D01*
X54676Y-38550D01*
X54676Y-36692D01*
X54676Y-34692D01*
X54618Y-34552D01*
X54511Y-34444D01*
X54371Y-34386D01*
X54219Y-34386D01*
X54079Y-34444D01*
X53976Y-34546D01*
X53976Y-33240D01*
X53976Y-32429D01*
X53976Y-32059D01*
X53976Y-31248D01*
X53976Y-30877D01*
X53976Y-30066D01*
X53070Y-30066D01*
X53070Y-30877D01*
X53976Y-30877D01*
X53976Y-31248D01*
X53070Y-31248D01*
X53070Y-32059D01*
X53976Y-32059D01*
X53976Y-32429D01*
X53070Y-32429D01*
X53070Y-33240D01*
X53976Y-33240D01*
X53976Y-34546D01*
X53972Y-34551D01*
X53914Y-34691D01*
X53913Y-34843D01*
X53971Y-34983D01*
X54079Y-35090D01*
X54219Y-35148D01*
X54370Y-35149D01*
X54510Y-35091D01*
X54618Y-34983D01*
X54676Y-34843D01*
X54676Y-34692D01*
X54676Y-36692D01*
X54618Y-36552D01*
X54511Y-36444D01*
X54371Y-36386D01*
X54219Y-36386D01*
X54079Y-36444D01*
X53972Y-36551D01*
X53914Y-36691D01*
X53913Y-36843D01*
X53938Y-36903D01*
X53792Y-37049D01*
X53225Y-37049D01*
X53225Y-36133D01*
X53225Y-35322D01*
X52364Y-35322D01*
X52364Y-36133D01*
X53225Y-36133D01*
X53225Y-37049D01*
X51798Y-37049D01*
X51651Y-36903D01*
X51676Y-36843D01*
X51676Y-36692D01*
X51618Y-36552D01*
X51511Y-36444D01*
X51371Y-36386D01*
X51219Y-36386D01*
X51079Y-36444D01*
X51012Y-36511D01*
X51012Y-35271D01*
X51159Y-35124D01*
X51219Y-35148D01*
X51370Y-35149D01*
X51510Y-35091D01*
X51618Y-34983D01*
X51676Y-34843D01*
X51676Y-34692D01*
X51618Y-34552D01*
X51511Y-34444D01*
X51371Y-34386D01*
X51219Y-34386D01*
X51079Y-34444D01*
X50972Y-34551D01*
X50914Y-34691D01*
X50913Y-34843D01*
X50938Y-34903D01*
X50745Y-35096D01*
X50711Y-35147D01*
X50699Y-35207D01*
X50699Y-38186D01*
X50711Y-38246D01*
X50745Y-38297D01*
X50938Y-38490D01*
X50914Y-38549D01*
X50913Y-38701D01*
X50971Y-38841D01*
X51079Y-38949D01*
X51219Y-39007D01*
X51370Y-39007D01*
X51510Y-38949D01*
X51577Y-38883D01*
X51577Y-40368D01*
X51511Y-40302D01*
X51371Y-40244D01*
X51219Y-40244D01*
X51079Y-40302D01*
X50972Y-40409D01*
X50914Y-40549D01*
X50913Y-40701D01*
X50938Y-40761D01*
X50578Y-41121D01*
X50578Y-32383D01*
X50578Y-32341D01*
X50578Y-31002D01*
X50562Y-30963D01*
X50532Y-30933D01*
X50493Y-30917D01*
X50451Y-30917D01*
X49112Y-30917D01*
X49073Y-30933D01*
X49043Y-30963D01*
X49027Y-31002D01*
X49027Y-31044D01*
X49027Y-32383D01*
X49043Y-32422D01*
X49073Y-32452D01*
X49112Y-32468D01*
X49154Y-32468D01*
X50493Y-32468D01*
X50532Y-32452D01*
X50562Y-32422D01*
X50578Y-32383D01*
X50578Y-41121D01*
X50207Y-41492D01*
X50207Y-39834D01*
X50207Y-35004D01*
X50195Y-34944D01*
X50195Y-34944D01*
X50184Y-34927D01*
X50161Y-34894D01*
X50161Y-34894D01*
X48289Y-33021D01*
X48289Y-32945D01*
X48246Y-32842D01*
X48167Y-32763D01*
X48064Y-32720D01*
X47952Y-32720D01*
X47849Y-32763D01*
X47770Y-32842D01*
X47727Y-32945D01*
X47727Y-32959D01*
X47238Y-32470D01*
X47187Y-32436D01*
X47127Y-32424D01*
X46483Y-32424D01*
X46483Y-31959D01*
X46483Y-30959D01*
X46483Y-30959D01*
X46483Y-30331D01*
X46483Y-30289D01*
X46483Y-29739D01*
X46467Y-29700D01*
X46437Y-29670D01*
X46398Y-29654D01*
X46356Y-29654D01*
X45806Y-29654D01*
X45767Y-29670D01*
X45737Y-29700D01*
X45721Y-29739D01*
X45721Y-29781D01*
X45721Y-30331D01*
X45737Y-30370D01*
X45767Y-30400D01*
X45806Y-30416D01*
X45848Y-30416D01*
X46398Y-30416D01*
X46437Y-30400D01*
X46467Y-30370D01*
X46483Y-30331D01*
X46483Y-30959D01*
X46425Y-30819D01*
X46318Y-30712D01*
X46178Y-30654D01*
X46026Y-30654D01*
X45886Y-30711D01*
X45779Y-30819D01*
X45721Y-30959D01*
X45720Y-31110D01*
X45778Y-31251D01*
X45886Y-31358D01*
X46026Y-31416D01*
X46177Y-31416D01*
X46318Y-31358D01*
X46425Y-31251D01*
X46483Y-31111D01*
X46483Y-30959D01*
X46483Y-31959D01*
X46425Y-31819D01*
X46318Y-31712D01*
X46178Y-31654D01*
X46026Y-31654D01*
X45886Y-31711D01*
X45779Y-31819D01*
X45721Y-31959D01*
X45720Y-32110D01*
X45778Y-32251D01*
X45886Y-32358D01*
X46026Y-32416D01*
X46177Y-32416D01*
X46318Y-32358D01*
X46425Y-32251D01*
X46483Y-32111D01*
X46483Y-31959D01*
X46483Y-32424D01*
X42806Y-32424D01*
X40552Y-30170D01*
X40577Y-30111D01*
X40577Y-29959D01*
X40519Y-29819D01*
X40412Y-29712D01*
X40272Y-29654D01*
X40120Y-29654D01*
X39980Y-29711D01*
X39873Y-29819D01*
X39815Y-29959D01*
X39814Y-30110D01*
X39872Y-30251D01*
X39980Y-30358D01*
X40120Y-30416D01*
X40271Y-30416D01*
X40331Y-30391D01*
X42631Y-32691D01*
X42681Y-32725D01*
X42741Y-32736D01*
X45848Y-32736D01*
X45841Y-32754D01*
X46102Y-33015D01*
X46363Y-32754D01*
X46355Y-32736D01*
X47062Y-32736D01*
X47763Y-33437D01*
X47813Y-33471D01*
X47813Y-33471D01*
X47823Y-33473D01*
X47828Y-33474D01*
X47803Y-33474D01*
X47769Y-33507D01*
X47769Y-33994D01*
X48256Y-33994D01*
X48289Y-33960D01*
X48289Y-33747D01*
X49672Y-35129D01*
X49672Y-38586D01*
X49634Y-38530D01*
X49489Y-38433D01*
X49318Y-38399D01*
X49148Y-38433D01*
X49003Y-38530D01*
X48906Y-38674D01*
X48872Y-38845D01*
X48872Y-38863D01*
X48906Y-39033D01*
X49003Y-39178D01*
X49148Y-39275D01*
X49188Y-39283D01*
X49174Y-39304D01*
X49162Y-39364D01*
X49162Y-39430D01*
X49148Y-39433D01*
X49003Y-39530D01*
X48906Y-39674D01*
X48872Y-39845D01*
X48872Y-39863D01*
X48906Y-40033D01*
X49003Y-40178D01*
X49148Y-40275D01*
X49188Y-40283D01*
X49174Y-40304D01*
X49162Y-40364D01*
X49162Y-40430D01*
X49148Y-40433D01*
X49003Y-40530D01*
X48906Y-40674D01*
X48872Y-40845D01*
X48872Y-40863D01*
X48906Y-41033D01*
X49003Y-41178D01*
X49148Y-41275D01*
X49318Y-41309D01*
X49489Y-41275D01*
X49634Y-41178D01*
X49731Y-41033D01*
X49765Y-40863D01*
X49765Y-40845D01*
X49731Y-40674D01*
X49634Y-40530D01*
X49592Y-40501D01*
X49632Y-40474D01*
X50161Y-39945D01*
X50195Y-39894D01*
X50195Y-39894D01*
X50197Y-39884D01*
X50207Y-39834D01*
X50207Y-39834D01*
X50207Y-41492D01*
X49784Y-41915D01*
X49784Y-41766D01*
X49715Y-41595D01*
X49586Y-41463D01*
X49416Y-41390D01*
X49406Y-41388D01*
X49332Y-41414D01*
X49332Y-41840D01*
X49759Y-41840D01*
X49784Y-41766D01*
X49784Y-41915D01*
X49777Y-41922D01*
X49759Y-41868D01*
X49332Y-41868D01*
X49332Y-42294D01*
X49386Y-42313D01*
X49305Y-42395D01*
X49305Y-42294D01*
X49305Y-41868D01*
X49305Y-41840D01*
X49305Y-41414D01*
X49231Y-41388D01*
X49221Y-41390D01*
X49051Y-41463D01*
X48922Y-41595D01*
X48853Y-41766D01*
X48878Y-41840D01*
X49305Y-41840D01*
X49305Y-41868D01*
X48878Y-41868D01*
X48853Y-41942D01*
X48922Y-42113D01*
X49051Y-42245D01*
X49221Y-42318D01*
X49231Y-42320D01*
X49305Y-42294D01*
X49305Y-42395D01*
X47172Y-44527D01*
X46455Y-44527D01*
X48429Y-42553D01*
X48463Y-42502D01*
X48475Y-42442D01*
X48475Y-42278D01*
X48489Y-42275D01*
X48634Y-42178D01*
X48731Y-42033D01*
X48765Y-41863D01*
X48765Y-41845D01*
X48731Y-41674D01*
X48634Y-41530D01*
X48489Y-41433D01*
X48318Y-41399D01*
X48148Y-41433D01*
X48003Y-41530D01*
X47906Y-41674D01*
X47872Y-41845D01*
X47872Y-41863D01*
X47906Y-42033D01*
X48003Y-42178D01*
X48148Y-42275D01*
X48162Y-42278D01*
X48162Y-42378D01*
X46483Y-44057D01*
X46483Y-43959D01*
X46425Y-43819D01*
X46318Y-43712D01*
X46178Y-43654D01*
X46026Y-43654D01*
X45966Y-43678D01*
X45831Y-43543D01*
X45831Y-43304D01*
X45886Y-43358D01*
X46026Y-43416D01*
X46177Y-43416D01*
X46318Y-43358D01*
X46425Y-43251D01*
X46483Y-43111D01*
X46483Y-42959D01*
X46425Y-42819D01*
X46318Y-42712D01*
X46178Y-42654D01*
X46026Y-42654D01*
X45886Y-42711D01*
X45831Y-42766D01*
X45831Y-42304D01*
X45886Y-42358D01*
X46026Y-42416D01*
X46177Y-42416D01*
X46318Y-42358D01*
X46425Y-42251D01*
X46450Y-42191D01*
X46647Y-42191D01*
X46647Y-42191D01*
X46707Y-42179D01*
X46758Y-42145D01*
X47893Y-41010D01*
X47901Y-41010D01*
X47906Y-41033D01*
X48003Y-41178D01*
X48148Y-41275D01*
X48318Y-41309D01*
X48489Y-41275D01*
X48634Y-41178D01*
X48731Y-41033D01*
X48765Y-40863D01*
X48765Y-40845D01*
X48731Y-40674D01*
X48634Y-40530D01*
X48489Y-40433D01*
X48318Y-40399D01*
X48148Y-40433D01*
X48003Y-40530D01*
X47906Y-40674D01*
X47901Y-40698D01*
X47828Y-40698D01*
X47768Y-40709D01*
X47718Y-40743D01*
X46582Y-41879D01*
X46450Y-41879D01*
X46425Y-41819D01*
X46318Y-41712D01*
X46251Y-41684D01*
X46276Y-41679D01*
X46327Y-41645D01*
X47919Y-40053D01*
X48003Y-40178D01*
X48148Y-40275D01*
X48318Y-40309D01*
X48489Y-40275D01*
X48634Y-40178D01*
X48731Y-40033D01*
X48765Y-39863D01*
X48765Y-39845D01*
X48765Y-39215D01*
X48765Y-39173D01*
X48765Y-38493D01*
X48749Y-38454D01*
X48719Y-38424D01*
X48680Y-38408D01*
X48637Y-38408D01*
X48289Y-38408D01*
X48289Y-34434D01*
X48289Y-34055D01*
X48256Y-34021D01*
X47769Y-34021D01*
X47769Y-34029D01*
X47742Y-34029D01*
X47742Y-34021D01*
X47742Y-33994D01*
X47742Y-33507D01*
X47708Y-33474D01*
X47382Y-33474D01*
X47329Y-33474D01*
X47280Y-33494D01*
X47242Y-33532D01*
X47222Y-33581D01*
X47222Y-33960D01*
X47255Y-33994D01*
X47742Y-33994D01*
X47742Y-34021D01*
X47255Y-34021D01*
X47222Y-34055D01*
X47222Y-34434D01*
X47242Y-34483D01*
X47280Y-34521D01*
X47329Y-34541D01*
X47382Y-34541D01*
X47544Y-34541D01*
X47397Y-34639D01*
X47288Y-34804D01*
X47249Y-34997D01*
X47249Y-35017D01*
X47288Y-35211D01*
X47397Y-35375D01*
X47562Y-35485D01*
X47599Y-35493D01*
X47599Y-35918D01*
X46511Y-37006D01*
X46511Y-32956D01*
X46450Y-32805D01*
X46447Y-32801D01*
X46383Y-32774D01*
X46121Y-33035D01*
X46383Y-33296D01*
X46447Y-33269D01*
X46510Y-33119D01*
X46511Y-32956D01*
X46511Y-37006D01*
X46483Y-37034D01*
X46483Y-36959D01*
X46483Y-35959D01*
X46483Y-34959D01*
X46483Y-33959D01*
X46425Y-33819D01*
X46363Y-33757D01*
X46363Y-33316D01*
X46102Y-33054D01*
X46082Y-33074D01*
X46082Y-33035D01*
X45821Y-32774D01*
X45757Y-32801D01*
X45694Y-32951D01*
X45693Y-33114D01*
X45754Y-33264D01*
X45757Y-33269D01*
X45821Y-33296D01*
X46082Y-33035D01*
X46082Y-33074D01*
X45841Y-33316D01*
X45868Y-33380D01*
X46018Y-33443D01*
X46181Y-33444D01*
X46331Y-33383D01*
X46336Y-33380D01*
X46363Y-33316D01*
X46363Y-33757D01*
X46318Y-33712D01*
X46178Y-33654D01*
X46026Y-33654D01*
X45886Y-33711D01*
X45779Y-33819D01*
X45721Y-33959D01*
X45720Y-34110D01*
X45778Y-34251D01*
X45886Y-34358D01*
X46026Y-34416D01*
X46177Y-34416D01*
X46318Y-34358D01*
X46425Y-34251D01*
X46483Y-34111D01*
X46483Y-33959D01*
X46483Y-34959D01*
X46425Y-34819D01*
X46318Y-34712D01*
X46178Y-34654D01*
X46026Y-34654D01*
X45886Y-34711D01*
X45779Y-34819D01*
X45721Y-34959D01*
X45720Y-35110D01*
X45778Y-35251D01*
X45886Y-35358D01*
X46026Y-35416D01*
X46177Y-35416D01*
X46318Y-35358D01*
X46425Y-35251D01*
X46483Y-35111D01*
X46483Y-34959D01*
X46483Y-35959D01*
X46425Y-35819D01*
X46318Y-35712D01*
X46178Y-35654D01*
X46026Y-35654D01*
X45886Y-35711D01*
X45779Y-35819D01*
X45721Y-35959D01*
X45720Y-36110D01*
X45778Y-36251D01*
X45886Y-36358D01*
X46026Y-36416D01*
X46177Y-36416D01*
X46318Y-36358D01*
X46425Y-36251D01*
X46483Y-36111D01*
X46483Y-35959D01*
X46483Y-36959D01*
X46425Y-36819D01*
X46318Y-36712D01*
X46178Y-36654D01*
X46026Y-36654D01*
X45886Y-36711D01*
X45779Y-36819D01*
X45721Y-36959D01*
X45720Y-37110D01*
X45778Y-37251D01*
X45886Y-37358D01*
X45956Y-37387D01*
X45940Y-37391D01*
X45889Y-37424D01*
X45223Y-38091D01*
X45189Y-38141D01*
X45184Y-38166D01*
X45168Y-38150D01*
X45064Y-38107D01*
X44991Y-38107D01*
X44991Y-37923D01*
X44979Y-37863D01*
X44945Y-37812D01*
X44919Y-37795D01*
X44945Y-37777D01*
X45021Y-37702D01*
X45068Y-37749D01*
X45171Y-37791D01*
X45283Y-37792D01*
X45386Y-37749D01*
X45466Y-37670D01*
X45508Y-37566D01*
X45509Y-37455D01*
X45466Y-37351D01*
X45390Y-37275D01*
X45390Y-35717D01*
X45390Y-35613D01*
X45390Y-35518D01*
X45390Y-35414D01*
X45369Y-35365D01*
X45332Y-35327D01*
X45283Y-35307D01*
X45229Y-35307D01*
X45078Y-35307D01*
X45045Y-35340D01*
X45045Y-35552D01*
X45356Y-35552D01*
X45390Y-35518D01*
X45390Y-35613D01*
X45356Y-35579D01*
X45045Y-35579D01*
X45045Y-35791D01*
X45078Y-35825D01*
X45229Y-35825D01*
X45283Y-35825D01*
X45332Y-35804D01*
X45369Y-35766D01*
X45390Y-35717D01*
X45390Y-37275D01*
X45387Y-37272D01*
X45283Y-37229D01*
X45171Y-37229D01*
X45068Y-37272D01*
X44989Y-37351D01*
X44987Y-37355D01*
X44941Y-37364D01*
X44931Y-37366D01*
X44881Y-37400D01*
X44818Y-37462D01*
X44818Y-37458D01*
X44818Y-37364D01*
X44818Y-37306D01*
X44798Y-37256D01*
X44760Y-37219D01*
X44711Y-37198D01*
X44658Y-37198D01*
X44535Y-37198D01*
X44501Y-37232D01*
X44501Y-37397D01*
X44785Y-37397D01*
X44818Y-37364D01*
X44818Y-37458D01*
X44785Y-37425D01*
X44501Y-37425D01*
X44501Y-37433D01*
X44474Y-37433D01*
X44474Y-37425D01*
X44466Y-37425D01*
X44466Y-37397D01*
X44474Y-37397D01*
X44474Y-37232D01*
X44440Y-37198D01*
X44317Y-37198D01*
X44269Y-37198D01*
X44269Y-37183D01*
X44269Y-36789D01*
X44253Y-36750D01*
X44240Y-36738D01*
X44240Y-36725D01*
X44401Y-36564D01*
X44435Y-36514D01*
X44435Y-36514D01*
X44437Y-36504D01*
X44444Y-36471D01*
X44507Y-36471D01*
X44507Y-36471D01*
X44567Y-36459D01*
X44618Y-36425D01*
X44709Y-36334D01*
X44716Y-36351D01*
X44746Y-36381D01*
X44785Y-36397D01*
X44827Y-36397D01*
X45277Y-36397D01*
X45316Y-36381D01*
X45346Y-36351D01*
X45362Y-36312D01*
X45362Y-36269D01*
X45362Y-36019D01*
X45346Y-35980D01*
X45316Y-35951D01*
X45277Y-35934D01*
X45235Y-35934D01*
X45017Y-35934D01*
X45017Y-35791D01*
X45017Y-35579D01*
X45017Y-35552D01*
X45017Y-35340D01*
X44984Y-35307D01*
X44833Y-35307D01*
X44779Y-35307D01*
X44730Y-35327D01*
X44693Y-35365D01*
X44672Y-35414D01*
X44672Y-35518D01*
X44706Y-35552D01*
X45017Y-35552D01*
X45017Y-35579D01*
X44706Y-35579D01*
X44672Y-35613D01*
X44672Y-35717D01*
X44693Y-35766D01*
X44730Y-35804D01*
X44779Y-35825D01*
X44833Y-35825D01*
X44984Y-35825D01*
X45017Y-35791D01*
X45017Y-35934D01*
X44785Y-35934D01*
X44746Y-35951D01*
X44716Y-35980D01*
X44704Y-36009D01*
X44656Y-36009D01*
X44606Y-36019D01*
X44596Y-36021D01*
X44545Y-36055D01*
X44511Y-36090D01*
X44499Y-36061D01*
X44469Y-36032D01*
X44449Y-36023D01*
X44469Y-36015D01*
X44499Y-35985D01*
X44515Y-35946D01*
X44515Y-35903D01*
X44515Y-35746D01*
X44499Y-35707D01*
X44469Y-35678D01*
X44430Y-35661D01*
X44388Y-35661D01*
X44179Y-35661D01*
X44179Y-34862D01*
X44167Y-34802D01*
X44133Y-34751D01*
X40552Y-31170D01*
X40577Y-31111D01*
X40577Y-30959D01*
X40519Y-30819D01*
X40412Y-30712D01*
X40272Y-30654D01*
X40120Y-30654D01*
X39980Y-30711D01*
X39873Y-30819D01*
X39815Y-30959D01*
X39814Y-31110D01*
X39872Y-31251D01*
X39980Y-31358D01*
X40120Y-31416D01*
X40271Y-31416D01*
X40331Y-31391D01*
X43866Y-34927D01*
X43866Y-35819D01*
X43862Y-35815D01*
X43813Y-35795D01*
X43760Y-35795D01*
X43755Y-35795D01*
X43722Y-35828D01*
X43722Y-35974D01*
X43730Y-35974D01*
X43730Y-36002D01*
X43722Y-36002D01*
X43722Y-36009D01*
X43694Y-36009D01*
X43694Y-36002D01*
X43694Y-35974D01*
X43694Y-35828D01*
X43661Y-35795D01*
X43656Y-35795D01*
X43603Y-35795D01*
X43554Y-35815D01*
X43516Y-35853D01*
X43496Y-35902D01*
X43496Y-35941D01*
X43529Y-35974D01*
X43694Y-35974D01*
X43694Y-36002D01*
X43529Y-36002D01*
X43496Y-36035D01*
X43496Y-36073D01*
X43516Y-36123D01*
X43527Y-36134D01*
X43523Y-36144D01*
X43523Y-36186D01*
X43523Y-36304D01*
X43540Y-36343D01*
X43569Y-36373D01*
X43609Y-36389D01*
X43651Y-36389D01*
X43672Y-36389D01*
X43672Y-36543D01*
X43632Y-36516D01*
X43572Y-36504D01*
X43104Y-36504D01*
X43044Y-36516D01*
X43025Y-36529D01*
X43015Y-36525D01*
X42903Y-36525D01*
X42799Y-36567D01*
X42720Y-36646D01*
X42677Y-36750D01*
X42677Y-36862D01*
X42720Y-36965D01*
X42799Y-37044D01*
X42902Y-37087D01*
X43014Y-37087D01*
X43111Y-37047D01*
X43104Y-37055D01*
X43104Y-37226D01*
X43089Y-37226D01*
X42695Y-37226D01*
X42656Y-37242D01*
X42626Y-37272D01*
X42610Y-37311D01*
X42610Y-37353D01*
X42610Y-37511D01*
X42621Y-37539D01*
X42610Y-37567D01*
X42610Y-37609D01*
X42610Y-37767D01*
X42621Y-37795D01*
X42610Y-37823D01*
X42610Y-37865D01*
X42610Y-38023D01*
X42621Y-38051D01*
X42610Y-38079D01*
X42610Y-38121D01*
X42610Y-38279D01*
X42626Y-38318D01*
X42656Y-38347D01*
X42695Y-38364D01*
X42737Y-38364D01*
X43131Y-38364D01*
X43132Y-38363D01*
X43131Y-38364D01*
X43131Y-38406D01*
X43131Y-38800D01*
X43148Y-38839D01*
X43160Y-38852D01*
X43160Y-40260D01*
X43172Y-40319D01*
X43195Y-40353D01*
X43192Y-40360D01*
X43192Y-40472D01*
X43234Y-40575D01*
X43313Y-40654D01*
X43417Y-40697D01*
X43529Y-40697D01*
X43632Y-40655D01*
X43711Y-40576D01*
X43754Y-40472D01*
X43754Y-40360D01*
X43712Y-40257D01*
X43632Y-40178D01*
X43529Y-40135D01*
X43473Y-40135D01*
X43473Y-39578D01*
X43735Y-39841D01*
X43735Y-39907D01*
X43778Y-40010D01*
X43857Y-40089D01*
X43960Y-40132D01*
X44072Y-40132D01*
X44176Y-40090D01*
X44185Y-40080D01*
X44185Y-40128D01*
X44088Y-40128D01*
X43984Y-40170D01*
X43905Y-40249D01*
X43862Y-40353D01*
X43862Y-40465D01*
X43905Y-40568D01*
X43984Y-40647D01*
X44087Y-40690D01*
X44199Y-40690D01*
X44303Y-40648D01*
X44382Y-40568D01*
X44425Y-40465D01*
X44425Y-40353D01*
X44424Y-40350D01*
X44452Y-40321D01*
X44452Y-40321D01*
X44486Y-40271D01*
X44486Y-40271D01*
X44488Y-40261D01*
X44498Y-40211D01*
X44498Y-40211D01*
X44498Y-39187D01*
X44488Y-39137D01*
X44486Y-39127D01*
X44486Y-39127D01*
X44452Y-39076D01*
X44452Y-39076D01*
X44240Y-38864D01*
X44240Y-38852D01*
X44253Y-38839D01*
X44269Y-38800D01*
X44269Y-38758D01*
X44269Y-38364D01*
X44269Y-38363D01*
X44270Y-38364D01*
X44312Y-38364D01*
X44339Y-38364D01*
X44343Y-38387D01*
X44377Y-38438D01*
X44763Y-38824D01*
X44814Y-38858D01*
X44814Y-38858D01*
X44824Y-38860D01*
X44874Y-38870D01*
X45143Y-38870D01*
X45143Y-38870D01*
X45203Y-38858D01*
X45253Y-38824D01*
X45444Y-38633D01*
X45478Y-38583D01*
X45490Y-38523D01*
X45490Y-38523D01*
X45490Y-38266D01*
X45721Y-38035D01*
X45720Y-38110D01*
X45778Y-38251D01*
X45886Y-38358D01*
X46026Y-38416D01*
X46177Y-38416D01*
X46318Y-38358D01*
X46425Y-38251D01*
X46483Y-38111D01*
X46483Y-37959D01*
X46425Y-37819D01*
X46318Y-37712D01*
X46247Y-37682D01*
X46263Y-37679D01*
X46314Y-37645D01*
X47866Y-36093D01*
X47900Y-36043D01*
X47900Y-36043D01*
X47902Y-36033D01*
X47912Y-35983D01*
X47912Y-35983D01*
X47912Y-35493D01*
X47949Y-35485D01*
X48113Y-35375D01*
X48223Y-35211D01*
X48262Y-35017D01*
X48262Y-34997D01*
X48223Y-34804D01*
X48113Y-34639D01*
X47966Y-34541D01*
X48129Y-34541D01*
X48182Y-34541D01*
X48231Y-34521D01*
X48269Y-34483D01*
X48289Y-34434D01*
X48289Y-38408D01*
X47957Y-38408D01*
X47918Y-38424D01*
X47888Y-38454D01*
X47872Y-38493D01*
X47872Y-38535D01*
X47872Y-39215D01*
X47888Y-39254D01*
X47918Y-39284D01*
X47957Y-39300D01*
X48000Y-39300D01*
X48680Y-39300D01*
X48719Y-39284D01*
X48749Y-39254D01*
X48765Y-39215D01*
X48765Y-39845D01*
X48731Y-39674D01*
X48634Y-39530D01*
X48489Y-39433D01*
X48318Y-39399D01*
X48148Y-39433D01*
X48003Y-39530D01*
X47906Y-39674D01*
X47901Y-39698D01*
X47828Y-39698D01*
X47768Y-39709D01*
X47718Y-39743D01*
X47684Y-39794D01*
X47672Y-39854D01*
X47672Y-39858D01*
X46483Y-41047D01*
X46483Y-40959D01*
X46483Y-39959D01*
X46483Y-38959D01*
X46425Y-38819D01*
X46318Y-38712D01*
X46178Y-38654D01*
X46026Y-38654D01*
X45886Y-38711D01*
X45779Y-38819D01*
X45721Y-38959D01*
X45720Y-39110D01*
X45778Y-39251D01*
X45886Y-39358D01*
X46026Y-39416D01*
X46177Y-39416D01*
X46318Y-39358D01*
X46425Y-39251D01*
X46483Y-39111D01*
X46483Y-38959D01*
X46483Y-39959D01*
X46425Y-39819D01*
X46318Y-39712D01*
X46178Y-39654D01*
X46026Y-39654D01*
X45886Y-39711D01*
X45779Y-39819D01*
X45721Y-39959D01*
X45720Y-40110D01*
X45778Y-40251D01*
X45886Y-40358D01*
X46026Y-40416D01*
X46177Y-40416D01*
X46318Y-40358D01*
X46425Y-40251D01*
X46483Y-40111D01*
X46483Y-39959D01*
X46483Y-40959D01*
X46425Y-40819D01*
X46318Y-40712D01*
X46178Y-40654D01*
X46026Y-40654D01*
X45886Y-40711D01*
X45779Y-40819D01*
X45721Y-40959D01*
X45720Y-41110D01*
X45778Y-41251D01*
X45886Y-41358D01*
X45953Y-41386D01*
X45930Y-41391D01*
X45879Y-41424D01*
X45564Y-41739D01*
X45530Y-41790D01*
X45519Y-41849D01*
X45519Y-43608D01*
X45530Y-43668D01*
X45564Y-43718D01*
X45745Y-43899D01*
X45721Y-43959D01*
X45721Y-44062D01*
X41998Y-40339D01*
X41998Y-39054D01*
X41986Y-38994D01*
X41952Y-38944D01*
X40380Y-37372D01*
X40412Y-37358D01*
X40519Y-37251D01*
X40577Y-37111D01*
X40577Y-36959D01*
X40577Y-35959D01*
X40577Y-34959D01*
X40577Y-33959D01*
X40577Y-32959D01*
X40577Y-31959D01*
X40519Y-31819D01*
X40412Y-31712D01*
X40272Y-31654D01*
X40120Y-31654D01*
X39980Y-31711D01*
X39873Y-31819D01*
X39815Y-31959D01*
X39814Y-32110D01*
X39872Y-32251D01*
X39980Y-32358D01*
X40120Y-32416D01*
X40271Y-32416D01*
X40412Y-32358D01*
X40519Y-32251D01*
X40577Y-32111D01*
X40577Y-31959D01*
X40577Y-32959D01*
X40519Y-32819D01*
X40412Y-32712D01*
X40272Y-32654D01*
X40120Y-32654D01*
X39980Y-32711D01*
X39873Y-32819D01*
X39815Y-32959D01*
X39814Y-33110D01*
X39872Y-33251D01*
X39980Y-33358D01*
X40120Y-33416D01*
X40271Y-33416D01*
X40412Y-33358D01*
X40519Y-33251D01*
X40577Y-33111D01*
X40577Y-32959D01*
X40577Y-33959D01*
X40519Y-33819D01*
X40412Y-33712D01*
X40272Y-33654D01*
X40120Y-33654D01*
X39980Y-33711D01*
X39873Y-33819D01*
X39815Y-33959D01*
X39814Y-34110D01*
X39872Y-34251D01*
X39980Y-34358D01*
X40120Y-34416D01*
X40271Y-34416D01*
X40412Y-34358D01*
X40519Y-34251D01*
X40577Y-34111D01*
X40577Y-33959D01*
X40577Y-34959D01*
X40519Y-34819D01*
X40412Y-34712D01*
X40272Y-34654D01*
X40120Y-34654D01*
X39980Y-34711D01*
X39873Y-34819D01*
X39815Y-34959D01*
X39814Y-35110D01*
X39872Y-35251D01*
X39980Y-35358D01*
X40120Y-35416D01*
X40271Y-35416D01*
X40412Y-35358D01*
X40519Y-35251D01*
X40577Y-35111D01*
X40577Y-34959D01*
X40577Y-35959D01*
X40519Y-35819D01*
X40412Y-35712D01*
X40272Y-35654D01*
X40120Y-35654D01*
X39980Y-35711D01*
X39873Y-35819D01*
X39815Y-35959D01*
X39814Y-36110D01*
X39872Y-36251D01*
X39980Y-36358D01*
X40120Y-36416D01*
X40271Y-36416D01*
X40412Y-36358D01*
X40519Y-36251D01*
X40577Y-36111D01*
X40577Y-35959D01*
X40577Y-36959D01*
X40519Y-36819D01*
X40412Y-36712D01*
X40272Y-36654D01*
X40120Y-36654D01*
X39980Y-36711D01*
X39873Y-36819D01*
X39815Y-36959D01*
X39814Y-37110D01*
X39872Y-37251D01*
X39980Y-37358D01*
X40012Y-37371D01*
X39446Y-37937D01*
X39412Y-37988D01*
X39401Y-38048D01*
X39401Y-39357D01*
X39412Y-39417D01*
X39446Y-39467D01*
X39469Y-39490D01*
X39469Y-39583D01*
X37927Y-38041D01*
X37927Y-36579D01*
X37927Y-36404D01*
X37926Y-36401D01*
X37926Y-31014D01*
X37926Y-30820D01*
X37849Y-30626D01*
X37704Y-30477D01*
X37512Y-30395D01*
X37498Y-30392D01*
X37415Y-30417D01*
X37415Y-30903D01*
X37901Y-30903D01*
X37926Y-30820D01*
X37926Y-31014D01*
X37901Y-30931D01*
X37415Y-30931D01*
X37415Y-30938D01*
X37387Y-30938D01*
X37387Y-30931D01*
X37387Y-30903D01*
X37387Y-30417D01*
X37304Y-30392D01*
X37290Y-30395D01*
X37099Y-30477D01*
X36953Y-30626D01*
X36876Y-30820D01*
X36901Y-30903D01*
X37387Y-30903D01*
X37387Y-30931D01*
X36901Y-30931D01*
X36876Y-31014D01*
X36953Y-31207D01*
X37099Y-31357D01*
X37224Y-31411D01*
X36980Y-31411D01*
X36941Y-31427D01*
X36911Y-31457D01*
X36895Y-31496D01*
X36895Y-31538D01*
X36895Y-32338D01*
X36911Y-32377D01*
X36941Y-32407D01*
X36980Y-32423D01*
X37022Y-32423D01*
X37822Y-32423D01*
X37861Y-32407D01*
X37891Y-32377D01*
X37907Y-32338D01*
X37907Y-32296D01*
X37907Y-31496D01*
X37891Y-31457D01*
X37861Y-31427D01*
X37822Y-31411D01*
X37780Y-31411D01*
X37578Y-31411D01*
X37704Y-31357D01*
X37849Y-31207D01*
X37926Y-31014D01*
X37926Y-36401D01*
X37904Y-36323D01*
X37806Y-36166D01*
X37655Y-36059D01*
X37475Y-36018D01*
X37415Y-36018D01*
X37415Y-36478D01*
X37901Y-36478D01*
X37927Y-36404D01*
X37927Y-36579D01*
X37901Y-36505D01*
X37415Y-36505D01*
X37415Y-36965D01*
X37475Y-36965D01*
X37655Y-36924D01*
X37806Y-36817D01*
X37904Y-36660D01*
X37927Y-36579D01*
X37927Y-38041D01*
X37757Y-37871D01*
X37724Y-37849D01*
X37787Y-37807D01*
X37883Y-37662D01*
X37917Y-37492D01*
X37883Y-37321D01*
X37787Y-37176D01*
X37642Y-37079D01*
X37471Y-37045D01*
X37387Y-37045D01*
X37387Y-36965D01*
X37387Y-36505D01*
X37387Y-36478D01*
X37387Y-36018D01*
X37327Y-36018D01*
X37147Y-36059D01*
X36996Y-36166D01*
X36898Y-36323D01*
X36875Y-36404D01*
X36901Y-36478D01*
X37387Y-36478D01*
X37387Y-36505D01*
X36901Y-36505D01*
X36875Y-36579D01*
X36898Y-36660D01*
X36996Y-36817D01*
X37147Y-36924D01*
X37327Y-36965D01*
X37387Y-36965D01*
X37387Y-37045D01*
X37331Y-37045D01*
X37160Y-37079D01*
X37016Y-37176D01*
X36919Y-37321D01*
X36885Y-37492D01*
X36919Y-37662D01*
X37016Y-37807D01*
X37160Y-37904D01*
X37245Y-37921D01*
X37245Y-37982D01*
X37257Y-38042D01*
X37268Y-38058D01*
X37160Y-38079D01*
X37016Y-38176D01*
X36919Y-38321D01*
X36885Y-38492D01*
X36919Y-38662D01*
X37016Y-38807D01*
X37160Y-38904D01*
X37331Y-38938D01*
X37471Y-38938D01*
X37642Y-38904D01*
X37787Y-38807D01*
X37883Y-38662D01*
X37917Y-38492D01*
X37913Y-38470D01*
X39265Y-39821D01*
X39265Y-40260D01*
X39277Y-40320D01*
X39310Y-40370D01*
X39839Y-40899D01*
X39815Y-40959D01*
X39814Y-41110D01*
X39872Y-41251D01*
X39980Y-41358D01*
X40120Y-41416D01*
X40271Y-41416D01*
X40412Y-41358D01*
X40519Y-41251D01*
X40577Y-41111D01*
X40577Y-40964D01*
X42424Y-42811D01*
X42423Y-42814D01*
X42423Y-42926D01*
X42466Y-43029D01*
X42545Y-43108D01*
X42648Y-43151D01*
X42760Y-43151D01*
X42864Y-43109D01*
X42943Y-43029D01*
X42986Y-42926D01*
X42986Y-42860D01*
X45346Y-45221D01*
X45397Y-45255D01*
X45397Y-45255D01*
X45407Y-45257D01*
X45457Y-45267D01*
X51273Y-45267D01*
X51273Y-45267D01*
X51333Y-45255D01*
X51384Y-45221D01*
X51843Y-44761D01*
X51843Y-44761D01*
X51877Y-44711D01*
X51889Y-44651D01*
X51889Y-37362D01*
X53857Y-37362D01*
X53857Y-37362D01*
X53917Y-37350D01*
X53967Y-37316D01*
X54159Y-37124D01*
X54219Y-37148D01*
X54370Y-37149D01*
X54510Y-37091D01*
X54618Y-36983D01*
X54676Y-36843D01*
X54676Y-36692D01*
X54676Y-38550D01*
X54618Y-38410D01*
X54511Y-38302D01*
X54371Y-38244D01*
X54219Y-38244D01*
X54079Y-38302D01*
X53972Y-38409D01*
X53914Y-38549D01*
X53913Y-38701D01*
X53938Y-38761D01*
X53752Y-38947D01*
X53719Y-38998D01*
X53707Y-39057D01*
X53707Y-42052D01*
X53719Y-42112D01*
X53752Y-42162D01*
X53938Y-42348D01*
X53914Y-42408D01*
X53913Y-42559D01*
X53971Y-42699D01*
X54079Y-42807D01*
X54219Y-42865D01*
X54370Y-42865D01*
X54510Y-42807D01*
X54618Y-42700D01*
X54676Y-42560D01*
X54676Y-42408D01*
X54676Y-44408D01*
X54618Y-44268D01*
X54511Y-44161D01*
X54371Y-44103D01*
X54219Y-44102D01*
X54079Y-44160D01*
X53972Y-44267D01*
X53914Y-44408D01*
X53913Y-44559D01*
X53971Y-44699D01*
X54079Y-44807D01*
X54219Y-44865D01*
X54370Y-44865D01*
X54510Y-44807D01*
X54618Y-44700D01*
X54676Y-44560D01*
X54676Y-44408D01*
X54676Y-45880D01*
X54582Y-45943D01*
X54318Y-45996D01*
X53494Y-45996D01*
X53245Y-45996D01*
X53245Y-43850D01*
X53245Y-43039D01*
X53245Y-39972D01*
X53245Y-39161D01*
X52384Y-39161D01*
X52384Y-39972D01*
X53245Y-39972D01*
X53245Y-43039D01*
X52384Y-43039D01*
X52384Y-43850D01*
X53245Y-43850D01*
X53245Y-45996D01*
X40605Y-45996D01*
X40605Y-42956D01*
X40577Y-42887D01*
X40577Y-41959D01*
X40519Y-41819D01*
X40412Y-41712D01*
X40272Y-41654D01*
X40120Y-41654D01*
X39980Y-41711D01*
X39873Y-41819D01*
X39815Y-41959D01*
X39814Y-42110D01*
X39872Y-42251D01*
X39980Y-42358D01*
X40120Y-42416D01*
X40271Y-42416D01*
X40412Y-42358D01*
X40519Y-42251D01*
X40577Y-42111D01*
X40577Y-41959D01*
X40577Y-42887D01*
X40544Y-42805D01*
X40541Y-42801D01*
X40477Y-42774D01*
X40457Y-42793D01*
X40457Y-42754D01*
X40430Y-42690D01*
X40280Y-42627D01*
X40117Y-42626D01*
X39966Y-42687D01*
X39962Y-42690D01*
X39935Y-42754D01*
X40196Y-43015D01*
X40457Y-42754D01*
X40457Y-42793D01*
X40215Y-43035D01*
X40477Y-43296D01*
X40541Y-43269D01*
X40604Y-43119D01*
X40605Y-42956D01*
X40605Y-45996D01*
X40577Y-45996D01*
X40577Y-43959D01*
X40519Y-43819D01*
X40457Y-43757D01*
X40457Y-43316D01*
X40196Y-43054D01*
X40176Y-43074D01*
X40176Y-43035D01*
X39915Y-42774D01*
X39851Y-42801D01*
X39788Y-42951D01*
X39787Y-43114D01*
X39848Y-43264D01*
X39851Y-43269D01*
X39915Y-43296D01*
X40176Y-43035D01*
X40176Y-43074D01*
X39935Y-43316D01*
X39962Y-43380D01*
X40112Y-43443D01*
X40275Y-43444D01*
X40425Y-43383D01*
X40430Y-43380D01*
X40457Y-43316D01*
X40457Y-43757D01*
X40412Y-43712D01*
X40272Y-43654D01*
X40120Y-43654D01*
X39980Y-43711D01*
X39873Y-43819D01*
X39815Y-43959D01*
X39814Y-44110D01*
X39872Y-44251D01*
X39980Y-44358D01*
X40120Y-44416D01*
X40271Y-44416D01*
X40412Y-44358D01*
X40519Y-44251D01*
X40577Y-44111D01*
X40577Y-43959D01*
X40577Y-45996D01*
X37907Y-45996D01*
X37907Y-39853D01*
X37907Y-39810D01*
X37907Y-39130D01*
X37891Y-39091D01*
X37861Y-39062D01*
X37822Y-39045D01*
X37780Y-39045D01*
X36980Y-39045D01*
X36941Y-39062D01*
X36911Y-39091D01*
X36895Y-39130D01*
X36895Y-39173D01*
X36895Y-39853D01*
X36911Y-39892D01*
X36941Y-39922D01*
X36980Y-39938D01*
X37022Y-39938D01*
X37822Y-39938D01*
X37861Y-39922D01*
X37891Y-39892D01*
X37907Y-39853D01*
X37907Y-45996D01*
X36602Y-45996D01*
X36602Y-44588D01*
X36602Y-44545D01*
X36602Y-43206D01*
X36602Y-32383D01*
X36602Y-32341D01*
X36602Y-31002D01*
X36586Y-30963D01*
X36556Y-30933D01*
X36517Y-30917D01*
X36475Y-30917D01*
X35136Y-30917D01*
X35097Y-30933D01*
X35067Y-30963D01*
X35050Y-31002D01*
X35050Y-31044D01*
X35050Y-32383D01*
X35067Y-32422D01*
X35097Y-32452D01*
X35136Y-32468D01*
X35178Y-32468D01*
X36517Y-32468D01*
X36556Y-32452D01*
X36586Y-32422D01*
X36602Y-32383D01*
X36602Y-43206D01*
X36586Y-43167D01*
X36556Y-43138D01*
X36517Y-43121D01*
X36475Y-43121D01*
X36352Y-43121D01*
X36352Y-41942D01*
X36352Y-41766D01*
X36352Y-36823D01*
X36352Y-36648D01*
X36329Y-36567D01*
X36231Y-36410D01*
X36080Y-36303D01*
X35972Y-36278D01*
X35983Y-36226D01*
X35983Y-36165D01*
X36067Y-36148D01*
X36212Y-36051D01*
X36309Y-35907D01*
X36342Y-35736D01*
X36342Y-34736D01*
X36333Y-34686D01*
X36333Y-34097D01*
X36333Y-34055D01*
X36333Y-33375D01*
X36316Y-33336D01*
X36286Y-33306D01*
X36247Y-33289D01*
X36205Y-33289D01*
X35405Y-33289D01*
X35366Y-33306D01*
X35336Y-33336D01*
X35320Y-33375D01*
X35320Y-33417D01*
X35320Y-34097D01*
X35336Y-34136D01*
X35366Y-34166D01*
X35405Y-34182D01*
X35447Y-34182D01*
X36247Y-34182D01*
X36286Y-34166D01*
X36316Y-34136D01*
X36333Y-34097D01*
X36333Y-34686D01*
X36309Y-34565D01*
X36212Y-34420D01*
X36067Y-34323D01*
X35896Y-34289D01*
X35756Y-34289D01*
X35586Y-34323D01*
X35441Y-34420D01*
X35344Y-34565D01*
X35310Y-34736D01*
X35344Y-34907D01*
X35441Y-35051D01*
X35586Y-35148D01*
X35756Y-35182D01*
X35896Y-35182D01*
X36067Y-35148D01*
X36212Y-35051D01*
X36309Y-34907D01*
X36342Y-34736D01*
X36342Y-35736D01*
X36309Y-35565D01*
X36212Y-35420D01*
X36067Y-35323D01*
X35896Y-35289D01*
X35756Y-35289D01*
X35586Y-35323D01*
X35441Y-35420D01*
X35344Y-35565D01*
X35310Y-35736D01*
X35344Y-35907D01*
X35441Y-36051D01*
X35504Y-36093D01*
X35471Y-36115D01*
X35164Y-36422D01*
X35130Y-36473D01*
X35118Y-36533D01*
X35118Y-40075D01*
X35130Y-40134D01*
X35164Y-40185D01*
X35453Y-40474D01*
X35495Y-40502D01*
X35441Y-40538D01*
X35344Y-40683D01*
X35310Y-40854D01*
X35344Y-41025D01*
X35441Y-41169D01*
X35586Y-41266D01*
X35756Y-41300D01*
X35896Y-41300D01*
X36067Y-41266D01*
X36212Y-41169D01*
X36309Y-41025D01*
X36342Y-40854D01*
X36309Y-40683D01*
X36212Y-40538D01*
X36067Y-40442D01*
X35983Y-40425D01*
X35983Y-40364D01*
X35971Y-40304D01*
X35960Y-40287D01*
X36067Y-40266D01*
X36212Y-40169D01*
X36309Y-40025D01*
X36342Y-39854D01*
X36309Y-39683D01*
X36212Y-39538D01*
X36067Y-39442D01*
X35896Y-39408D01*
X35756Y-39408D01*
X35586Y-39442D01*
X35441Y-39538D01*
X35430Y-39554D01*
X35430Y-39300D01*
X35447Y-39300D01*
X36247Y-39300D01*
X36286Y-39284D01*
X36316Y-39254D01*
X36333Y-39215D01*
X36333Y-39173D01*
X36333Y-38493D01*
X36316Y-38454D01*
X36286Y-38424D01*
X36247Y-38408D01*
X36205Y-38408D01*
X35430Y-38408D01*
X35430Y-37067D01*
X35572Y-37168D01*
X35752Y-37210D01*
X35812Y-37210D01*
X35812Y-36750D01*
X35805Y-36750D01*
X35805Y-36722D01*
X35812Y-36722D01*
X35812Y-36714D01*
X35840Y-36714D01*
X35840Y-36722D01*
X36326Y-36722D01*
X36352Y-36648D01*
X36352Y-36823D01*
X36326Y-36750D01*
X35840Y-36750D01*
X35840Y-37210D01*
X35900Y-37210D01*
X36080Y-37168D01*
X36231Y-37061D01*
X36329Y-36904D01*
X36352Y-36823D01*
X36352Y-41766D01*
X36329Y-41685D01*
X36231Y-41529D01*
X36080Y-41421D01*
X35900Y-41380D01*
X35840Y-41380D01*
X35840Y-41840D01*
X36326Y-41840D01*
X36352Y-41766D01*
X36352Y-41942D01*
X36326Y-41868D01*
X35840Y-41868D01*
X35840Y-42328D01*
X35900Y-42328D01*
X36080Y-42286D01*
X36231Y-42179D01*
X36329Y-42022D01*
X36352Y-41942D01*
X36352Y-43121D01*
X35812Y-43121D01*
X35812Y-42328D01*
X35812Y-41868D01*
X35812Y-41840D01*
X35812Y-41380D01*
X35752Y-41380D01*
X35572Y-41421D01*
X35421Y-41529D01*
X35323Y-41685D01*
X35301Y-41766D01*
X35326Y-41840D01*
X35812Y-41840D01*
X35812Y-41868D01*
X35326Y-41868D01*
X35301Y-41942D01*
X35323Y-42022D01*
X35421Y-42179D01*
X35572Y-42286D01*
X35752Y-42328D01*
X35812Y-42328D01*
X35812Y-43121D01*
X35136Y-43121D01*
X35097Y-43138D01*
X35067Y-43167D01*
X35050Y-43206D01*
X35050Y-43249D01*
X35050Y-44588D01*
X35067Y-44627D01*
X35097Y-44657D01*
X35136Y-44673D01*
X35178Y-44673D01*
X36517Y-44673D01*
X36556Y-44657D01*
X36586Y-44627D01*
X36602Y-44588D01*
X36602Y-45996D01*
X35839Y-45996D01*
X35024Y-45834D01*
X34344Y-45379D01*
X33890Y-44699D01*
X33728Y-43885D01*
X33728Y-31705D01*
X33890Y-30890D01*
X34344Y-30210D01*
X35024Y-29756D01*
X35839Y-29594D01*
X54318Y-29594D01*
X54582Y-29647D01*
X54796Y-29789D01*
X54939Y-30003D01*
X54992Y-30268D01*
X54992Y-45322D01*
M02*
