%FSLAX34Y34*%
G04 Gerber Fmt 3.4, Leading zero omitted, Abs format*
G04 (created by PCBNEW (2014-03-19 BZR 4756)-product) date Fri 30 May 2014 14:37:37 BST*
%MOIN*%
G01*
G70*
G90*
G04 APERTURE LIST*
%ADD10C,0.005906*%
%ADD11C,0.007874*%
%ADD12C,0.010000*%
%ADD13C,0.005000*%
%ADD14C,0.012000*%
%ADD15C,0.007875*%
%ADD16C,0.007900*%
%ADD17C,0.003000*%
%ADD18C,0.008000*%
%ADD19C,0.010700*%
%ADD20C,0.004500*%
G04 APERTURE END LIST*
G54D10*
G54D11*
X47395Y-38744D02*
X47245Y-38744D01*
X47230Y-38894D01*
X47245Y-38879D01*
X47275Y-38864D01*
X47350Y-38864D01*
X47380Y-38879D01*
X47395Y-38894D01*
X47410Y-38924D01*
X47410Y-38999D01*
X47395Y-39029D01*
X47380Y-39044D01*
X47350Y-39059D01*
X47275Y-39059D01*
X47245Y-39044D01*
X47230Y-39029D01*
X47515Y-38849D02*
X47590Y-39059D01*
X47665Y-38849D01*
X46749Y-40044D02*
X46749Y-39729D01*
X46854Y-39954D01*
X46959Y-39729D01*
X46959Y-40044D01*
X47109Y-40044D02*
X47109Y-39729D01*
X47244Y-40029D02*
X47289Y-40044D01*
X47364Y-40044D01*
X47394Y-40029D01*
X47409Y-40014D01*
X47424Y-39984D01*
X47424Y-39954D01*
X47409Y-39924D01*
X47394Y-39909D01*
X47364Y-39894D01*
X47304Y-39879D01*
X47274Y-39864D01*
X47259Y-39849D01*
X47244Y-39819D01*
X47244Y-39789D01*
X47259Y-39759D01*
X47274Y-39744D01*
X47304Y-39729D01*
X47379Y-39729D01*
X47424Y-39744D01*
X47619Y-39729D02*
X47679Y-39729D01*
X47709Y-39744D01*
X47739Y-39774D01*
X47754Y-39834D01*
X47754Y-39939D01*
X47739Y-39999D01*
X47709Y-40029D01*
X47679Y-40044D01*
X47619Y-40044D01*
X47589Y-40029D01*
X47559Y-39999D01*
X47544Y-39939D01*
X47544Y-39834D01*
X47559Y-39774D01*
X47589Y-39744D01*
X47619Y-39729D01*
X47200Y-41013D02*
X47245Y-41028D01*
X47320Y-41028D01*
X47350Y-41013D01*
X47365Y-40998D01*
X47380Y-40968D01*
X47380Y-40938D01*
X47365Y-40908D01*
X47350Y-40893D01*
X47320Y-40878D01*
X47260Y-40863D01*
X47230Y-40848D01*
X47215Y-40833D01*
X47200Y-40803D01*
X47200Y-40773D01*
X47215Y-40743D01*
X47230Y-40728D01*
X47260Y-40713D01*
X47335Y-40713D01*
X47380Y-40728D01*
X47500Y-41013D02*
X47545Y-41028D01*
X47620Y-41028D01*
X47650Y-41013D01*
X47665Y-40998D01*
X47680Y-40968D01*
X47680Y-40938D01*
X47665Y-40908D01*
X47650Y-40893D01*
X47620Y-40878D01*
X47560Y-40863D01*
X47530Y-40848D01*
X47515Y-40833D01*
X47500Y-40803D01*
X47500Y-40773D01*
X47515Y-40743D01*
X47530Y-40728D01*
X47560Y-40713D01*
X47635Y-40713D01*
X47680Y-40728D01*
X47568Y-42629D02*
X47583Y-42659D01*
X47583Y-42719D01*
X47568Y-42749D01*
X47538Y-42764D01*
X47418Y-42764D01*
X47388Y-42749D01*
X47373Y-42719D01*
X47373Y-42659D01*
X47388Y-42629D01*
X47418Y-42614D01*
X47448Y-42614D01*
X47478Y-42764D01*
X47373Y-42479D02*
X47583Y-42479D01*
X47403Y-42479D02*
X47388Y-42464D01*
X47373Y-42434D01*
X47373Y-42389D01*
X47388Y-42359D01*
X47418Y-42344D01*
X47583Y-42344D01*
X47613Y-42269D02*
X47613Y-42029D01*
X47583Y-41954D02*
X47268Y-41954D01*
X47583Y-41804D02*
X47268Y-41804D01*
X47583Y-41624D01*
X47268Y-41624D01*
X47268Y-41519D02*
X47268Y-41339D01*
X47583Y-41429D02*
X47268Y-41429D01*
X50153Y-41712D02*
X50123Y-41697D01*
X50078Y-41697D01*
X50033Y-41712D01*
X50003Y-41742D01*
X49988Y-41772D01*
X49973Y-41832D01*
X49973Y-41877D01*
X49988Y-41937D01*
X50003Y-41967D01*
X50033Y-41997D01*
X50078Y-42012D01*
X50108Y-42012D01*
X50153Y-41997D01*
X50168Y-41982D01*
X50168Y-41877D01*
X50108Y-41877D01*
X50303Y-42012D02*
X50303Y-41697D01*
X50483Y-42012D01*
X50483Y-41697D01*
X50633Y-42012D02*
X50633Y-41697D01*
X50708Y-41697D01*
X50753Y-41712D01*
X50783Y-41742D01*
X50798Y-41772D01*
X50813Y-41832D01*
X50813Y-41877D01*
X50798Y-41937D01*
X50783Y-41967D01*
X50753Y-41997D01*
X50708Y-42012D01*
X50633Y-42012D01*
X50108Y-41028D02*
X50108Y-40713D01*
X50258Y-41028D02*
X50258Y-40713D01*
X50438Y-41028D01*
X50438Y-40713D01*
X50543Y-40713D02*
X50723Y-40713D01*
X50633Y-41028D02*
X50633Y-40713D01*
X49988Y-39930D02*
X50033Y-39945D01*
X50108Y-39945D01*
X50138Y-39930D01*
X50153Y-39915D01*
X50168Y-39885D01*
X50168Y-39855D01*
X50153Y-39825D01*
X50138Y-39810D01*
X50108Y-39795D01*
X50048Y-39780D01*
X50018Y-39765D01*
X50003Y-39750D01*
X49988Y-39720D01*
X49988Y-39690D01*
X50003Y-39660D01*
X50018Y-39645D01*
X50048Y-39630D01*
X50123Y-39630D01*
X50168Y-39645D01*
X50483Y-39915D02*
X50468Y-39930D01*
X50423Y-39945D01*
X50393Y-39945D01*
X50348Y-39930D01*
X50318Y-39900D01*
X50303Y-39870D01*
X50288Y-39810D01*
X50288Y-39765D01*
X50303Y-39705D01*
X50318Y-39675D01*
X50348Y-39645D01*
X50393Y-39630D01*
X50423Y-39630D01*
X50468Y-39645D01*
X50483Y-39660D01*
X50618Y-39945D02*
X50618Y-39630D01*
X50798Y-39945D02*
X50663Y-39765D01*
X50798Y-39630D02*
X50618Y-39810D01*
X49898Y-39059D02*
X49898Y-38744D01*
X50003Y-38969D01*
X50108Y-38744D01*
X50108Y-39059D01*
X50318Y-38744D02*
X50378Y-38744D01*
X50408Y-38759D01*
X50438Y-38789D01*
X50453Y-38849D01*
X50453Y-38954D01*
X50438Y-39014D01*
X50408Y-39044D01*
X50378Y-39059D01*
X50318Y-39059D01*
X50288Y-39044D01*
X50258Y-39014D01*
X50243Y-38954D01*
X50243Y-38849D01*
X50258Y-38789D01*
X50288Y-38759D01*
X50318Y-38744D01*
X50573Y-39044D02*
X50618Y-39059D01*
X50693Y-39059D01*
X50723Y-39044D01*
X50738Y-39029D01*
X50753Y-38999D01*
X50753Y-38969D01*
X50738Y-38939D01*
X50723Y-38924D01*
X50693Y-38909D01*
X50633Y-38894D01*
X50603Y-38879D01*
X50588Y-38864D01*
X50573Y-38834D01*
X50573Y-38804D01*
X50588Y-38774D01*
X50603Y-38759D01*
X50633Y-38744D01*
X50708Y-38744D01*
X50753Y-38759D01*
X50888Y-39059D02*
X50888Y-38744D01*
X38360Y-30767D02*
X38330Y-30752D01*
X38285Y-30752D01*
X38240Y-30767D01*
X38210Y-30797D01*
X38195Y-30827D01*
X38180Y-30887D01*
X38180Y-30932D01*
X38195Y-30992D01*
X38210Y-31022D01*
X38240Y-31052D01*
X38285Y-31067D01*
X38315Y-31067D01*
X38360Y-31052D01*
X38375Y-31037D01*
X38375Y-30932D01*
X38315Y-30932D01*
X38510Y-30857D02*
X38510Y-31067D01*
X38510Y-30887D02*
X38525Y-30872D01*
X38555Y-30857D01*
X38600Y-30857D01*
X38630Y-30872D01*
X38645Y-30902D01*
X38645Y-31067D01*
X38930Y-31067D02*
X38930Y-30752D01*
X38930Y-31052D02*
X38900Y-31067D01*
X38840Y-31067D01*
X38810Y-31052D01*
X38795Y-31037D01*
X38780Y-31007D01*
X38780Y-30917D01*
X38795Y-30887D01*
X38810Y-30872D01*
X38840Y-30857D01*
X38900Y-30857D01*
X38930Y-30872D01*
X38168Y-31776D02*
X38363Y-31776D01*
X38258Y-31896D01*
X38303Y-31896D01*
X38333Y-31911D01*
X38348Y-31926D01*
X38363Y-31956D01*
X38363Y-32031D01*
X38348Y-32061D01*
X38333Y-32076D01*
X38303Y-32091D01*
X38213Y-32091D01*
X38183Y-32076D01*
X38168Y-32061D01*
X38468Y-31881D02*
X38543Y-32091D01*
X38618Y-31881D01*
X38708Y-31776D02*
X38903Y-31776D01*
X38798Y-31896D01*
X38843Y-31896D01*
X38873Y-31911D01*
X38888Y-31926D01*
X38903Y-31956D01*
X38903Y-32031D01*
X38888Y-32061D01*
X38873Y-32076D01*
X38843Y-32091D01*
X38753Y-32091D01*
X38723Y-32076D01*
X38708Y-32061D01*
X52005Y-37878D02*
X52005Y-37563D01*
X52125Y-37563D01*
X52155Y-37578D01*
X52170Y-37593D01*
X52185Y-37623D01*
X52185Y-37668D01*
X52170Y-37698D01*
X52155Y-37713D01*
X52125Y-37728D01*
X52005Y-37728D01*
X52455Y-37878D02*
X52455Y-37713D01*
X52440Y-37683D01*
X52410Y-37668D01*
X52350Y-37668D01*
X52320Y-37683D01*
X52455Y-37863D02*
X52425Y-37878D01*
X52350Y-37878D01*
X52320Y-37863D01*
X52305Y-37833D01*
X52305Y-37803D01*
X52320Y-37773D01*
X52350Y-37758D01*
X52425Y-37758D01*
X52455Y-37743D01*
X52589Y-37863D02*
X52619Y-37878D01*
X52679Y-37878D01*
X52709Y-37863D01*
X52724Y-37833D01*
X52724Y-37818D01*
X52709Y-37788D01*
X52679Y-37773D01*
X52634Y-37773D01*
X52604Y-37758D01*
X52589Y-37728D01*
X52589Y-37713D01*
X52604Y-37683D01*
X52634Y-37668D01*
X52679Y-37668D01*
X52709Y-37683D01*
X52844Y-37863D02*
X52874Y-37878D01*
X52934Y-37878D01*
X52964Y-37863D01*
X52979Y-37833D01*
X52979Y-37818D01*
X52964Y-37788D01*
X52934Y-37773D01*
X52889Y-37773D01*
X52859Y-37758D01*
X52844Y-37728D01*
X52844Y-37713D01*
X52859Y-37683D01*
X52889Y-37668D01*
X52934Y-37668D01*
X52964Y-37683D01*
X53114Y-37878D02*
X53114Y-37668D01*
X53114Y-37563D02*
X53099Y-37578D01*
X53114Y-37593D01*
X53129Y-37578D01*
X53114Y-37563D01*
X53114Y-37593D01*
X53234Y-37668D02*
X53309Y-37878D01*
X53384Y-37668D01*
X53624Y-37863D02*
X53594Y-37878D01*
X53534Y-37878D01*
X53504Y-37863D01*
X53489Y-37833D01*
X53489Y-37713D01*
X53504Y-37683D01*
X53534Y-37668D01*
X53594Y-37668D01*
X53624Y-37683D01*
X53639Y-37713D01*
X53639Y-37743D01*
X53489Y-37773D01*
X51985Y-41687D02*
X51970Y-41702D01*
X51925Y-41717D01*
X51895Y-41717D01*
X51850Y-41702D01*
X51820Y-41672D01*
X51805Y-41642D01*
X51790Y-41582D01*
X51790Y-41537D01*
X51805Y-41477D01*
X51820Y-41447D01*
X51850Y-41417D01*
X51895Y-41402D01*
X51925Y-41402D01*
X51970Y-41417D01*
X51985Y-41432D01*
X52255Y-41717D02*
X52255Y-41552D01*
X52240Y-41522D01*
X52210Y-41507D01*
X52150Y-41507D01*
X52120Y-41522D01*
X52255Y-41702D02*
X52225Y-41717D01*
X52150Y-41717D01*
X52120Y-41702D01*
X52105Y-41672D01*
X52105Y-41642D01*
X52120Y-41612D01*
X52150Y-41597D01*
X52225Y-41597D01*
X52255Y-41582D01*
X52450Y-41717D02*
X52420Y-41702D01*
X52405Y-41672D01*
X52405Y-41402D01*
X52570Y-41717D02*
X52570Y-41507D01*
X52570Y-41402D02*
X52555Y-41417D01*
X52570Y-41432D01*
X52585Y-41417D01*
X52570Y-41402D01*
X52570Y-41432D01*
X52720Y-41717D02*
X52720Y-41402D01*
X52720Y-41522D02*
X52750Y-41507D01*
X52810Y-41507D01*
X52840Y-41522D01*
X52855Y-41537D01*
X52870Y-41567D01*
X52870Y-41657D01*
X52855Y-41687D01*
X52840Y-41702D01*
X52810Y-41717D01*
X52750Y-41717D01*
X52720Y-41702D01*
X53005Y-41717D02*
X53005Y-41507D01*
X53005Y-41567D02*
X53020Y-41537D01*
X53035Y-41522D01*
X53065Y-41507D01*
X53095Y-41507D01*
X53335Y-41717D02*
X53335Y-41552D01*
X53320Y-41522D01*
X53290Y-41507D01*
X53230Y-41507D01*
X53200Y-41522D01*
X53335Y-41702D02*
X53305Y-41717D01*
X53230Y-41717D01*
X53200Y-41702D01*
X53185Y-41672D01*
X53185Y-41642D01*
X53200Y-41612D01*
X53230Y-41597D01*
X53305Y-41597D01*
X53335Y-41582D01*
X53440Y-41507D02*
X53560Y-41507D01*
X53485Y-41402D02*
X53485Y-41672D01*
X53500Y-41702D01*
X53530Y-41717D01*
X53560Y-41717D01*
X53785Y-41702D02*
X53755Y-41717D01*
X53695Y-41717D01*
X53665Y-41702D01*
X53650Y-41672D01*
X53650Y-41552D01*
X53665Y-41522D01*
X53695Y-41507D01*
X53755Y-41507D01*
X53785Y-41522D01*
X53800Y-41552D01*
X53800Y-41582D01*
X53650Y-41612D01*
X52217Y-45536D02*
X52217Y-45221D01*
X52217Y-45371D02*
X52397Y-45371D01*
X52397Y-45536D02*
X52397Y-45221D01*
X52592Y-45536D02*
X52562Y-45521D01*
X52547Y-45506D01*
X52532Y-45476D01*
X52532Y-45386D01*
X52547Y-45356D01*
X52562Y-45341D01*
X52592Y-45326D01*
X52637Y-45326D01*
X52667Y-45341D01*
X52682Y-45356D01*
X52697Y-45386D01*
X52697Y-45476D01*
X52682Y-45506D01*
X52667Y-45521D01*
X52637Y-45536D01*
X52592Y-45536D01*
X52832Y-45536D02*
X52832Y-45326D01*
X52832Y-45356D02*
X52847Y-45341D01*
X52877Y-45326D01*
X52922Y-45326D01*
X52952Y-45341D01*
X52967Y-45371D01*
X52967Y-45536D01*
X52967Y-45371D02*
X52982Y-45341D01*
X53012Y-45326D01*
X53057Y-45326D01*
X53087Y-45341D01*
X53102Y-45371D01*
X53102Y-45536D01*
X53372Y-45521D02*
X53342Y-45536D01*
X53282Y-45536D01*
X53252Y-45521D01*
X53237Y-45491D01*
X53237Y-45371D01*
X53252Y-45341D01*
X53282Y-45326D01*
X53342Y-45326D01*
X53372Y-45341D01*
X53387Y-45371D01*
X53387Y-45401D01*
X53237Y-45431D01*
X38342Y-36299D02*
X38312Y-36284D01*
X38267Y-36284D01*
X38222Y-36299D01*
X38192Y-36329D01*
X38177Y-36359D01*
X38162Y-36419D01*
X38162Y-36464D01*
X38177Y-36524D01*
X38192Y-36554D01*
X38222Y-36584D01*
X38267Y-36599D01*
X38297Y-36599D01*
X38342Y-36584D01*
X38357Y-36569D01*
X38357Y-36464D01*
X38297Y-36464D01*
X38492Y-36599D02*
X38492Y-36284D01*
X38672Y-36599D01*
X38672Y-36284D01*
X38822Y-36599D02*
X38822Y-36284D01*
X38897Y-36284D01*
X38942Y-36299D01*
X38972Y-36329D01*
X38987Y-36359D01*
X39002Y-36419D01*
X39002Y-36464D01*
X38987Y-36524D01*
X38972Y-36554D01*
X38942Y-36584D01*
X38897Y-36599D01*
X38822Y-36599D01*
X38522Y-37366D02*
X38372Y-37366D01*
X38357Y-37516D01*
X38372Y-37501D01*
X38402Y-37486D01*
X38477Y-37486D01*
X38507Y-37501D01*
X38522Y-37516D01*
X38537Y-37546D01*
X38537Y-37621D01*
X38522Y-37651D01*
X38507Y-37666D01*
X38477Y-37681D01*
X38402Y-37681D01*
X38372Y-37666D01*
X38357Y-37651D01*
X38627Y-37366D02*
X38732Y-37681D01*
X38837Y-37366D01*
X38200Y-38552D02*
X38245Y-38567D01*
X38320Y-38567D01*
X38350Y-38552D01*
X38365Y-38537D01*
X38380Y-38507D01*
X38380Y-38477D01*
X38365Y-38447D01*
X38350Y-38432D01*
X38320Y-38417D01*
X38260Y-38402D01*
X38230Y-38387D01*
X38215Y-38372D01*
X38200Y-38342D01*
X38200Y-38312D01*
X38215Y-38282D01*
X38230Y-38267D01*
X38260Y-38252D01*
X38335Y-38252D01*
X38380Y-38267D01*
X38515Y-38567D02*
X38515Y-38252D01*
X38590Y-38252D01*
X38635Y-38267D01*
X38665Y-38297D01*
X38680Y-38327D01*
X38695Y-38387D01*
X38695Y-38432D01*
X38680Y-38492D01*
X38665Y-38522D01*
X38635Y-38552D01*
X38590Y-38567D01*
X38515Y-38567D01*
X38815Y-38477D02*
X38965Y-38477D01*
X38785Y-38567D02*
X38890Y-38252D01*
X38995Y-38567D01*
X38207Y-39635D02*
X38252Y-39650D01*
X38327Y-39650D01*
X38357Y-39635D01*
X38372Y-39620D01*
X38387Y-39590D01*
X38387Y-39560D01*
X38372Y-39530D01*
X38357Y-39515D01*
X38327Y-39500D01*
X38267Y-39485D01*
X38237Y-39470D01*
X38222Y-39455D01*
X38207Y-39425D01*
X38207Y-39395D01*
X38222Y-39365D01*
X38237Y-39350D01*
X38267Y-39335D01*
X38342Y-39335D01*
X38387Y-39350D01*
X38702Y-39620D02*
X38687Y-39635D01*
X38642Y-39650D01*
X38612Y-39650D01*
X38567Y-39635D01*
X38537Y-39605D01*
X38522Y-39575D01*
X38507Y-39515D01*
X38507Y-39470D01*
X38522Y-39410D01*
X38537Y-39380D01*
X38567Y-39350D01*
X38612Y-39335D01*
X38642Y-39335D01*
X38687Y-39350D01*
X38702Y-39365D01*
X38987Y-39650D02*
X38837Y-39650D01*
X38837Y-39335D01*
X35287Y-32642D02*
X35347Y-32642D01*
X35377Y-32657D01*
X35407Y-32687D01*
X35422Y-32747D01*
X35422Y-32852D01*
X35407Y-32912D01*
X35377Y-32942D01*
X35347Y-32957D01*
X35287Y-32957D01*
X35257Y-32942D01*
X35227Y-32912D01*
X35212Y-32852D01*
X35212Y-32747D01*
X35227Y-32687D01*
X35257Y-32657D01*
X35287Y-32642D01*
X35692Y-32747D02*
X35692Y-32957D01*
X35557Y-32747D02*
X35557Y-32912D01*
X35572Y-32942D01*
X35602Y-32957D01*
X35647Y-32957D01*
X35677Y-32942D01*
X35692Y-32927D01*
X35797Y-32747D02*
X35917Y-32747D01*
X35842Y-32642D02*
X35842Y-32912D01*
X35857Y-32942D01*
X35887Y-32957D01*
X35917Y-32957D01*
X36022Y-32747D02*
X36022Y-33062D01*
X36022Y-32762D02*
X36052Y-32747D01*
X36112Y-32747D01*
X36142Y-32762D01*
X36157Y-32777D01*
X36172Y-32807D01*
X36172Y-32897D01*
X36157Y-32927D01*
X36142Y-32942D01*
X36112Y-32957D01*
X36052Y-32957D01*
X36022Y-32942D01*
X36442Y-32747D02*
X36442Y-32957D01*
X36307Y-32747D02*
X36307Y-32912D01*
X36322Y-32942D01*
X36352Y-32957D01*
X36397Y-32957D01*
X36427Y-32942D01*
X36442Y-32927D01*
X36547Y-32747D02*
X36667Y-32747D01*
X36592Y-32642D02*
X36592Y-32912D01*
X36607Y-32942D01*
X36637Y-32957D01*
X36667Y-32957D01*
X34188Y-33828D02*
X34233Y-33843D01*
X34308Y-33843D01*
X34338Y-33828D01*
X34353Y-33813D01*
X34368Y-33783D01*
X34368Y-33753D01*
X34353Y-33723D01*
X34338Y-33708D01*
X34308Y-33693D01*
X34248Y-33678D01*
X34218Y-33663D01*
X34203Y-33648D01*
X34188Y-33618D01*
X34188Y-33588D01*
X34203Y-33558D01*
X34218Y-33543D01*
X34248Y-33528D01*
X34323Y-33528D01*
X34368Y-33543D01*
X34458Y-33633D02*
X34578Y-33633D01*
X34503Y-33528D02*
X34503Y-33798D01*
X34518Y-33828D01*
X34548Y-33843D01*
X34578Y-33843D01*
X34803Y-33828D02*
X34773Y-33843D01*
X34713Y-33843D01*
X34683Y-33828D01*
X34668Y-33798D01*
X34668Y-33678D01*
X34683Y-33648D01*
X34713Y-33633D01*
X34773Y-33633D01*
X34803Y-33648D01*
X34818Y-33678D01*
X34818Y-33708D01*
X34668Y-33738D01*
X34953Y-33633D02*
X34953Y-33948D01*
X34953Y-33648D02*
X34983Y-33633D01*
X35043Y-33633D01*
X35073Y-33648D01*
X35088Y-33663D01*
X35103Y-33693D01*
X35103Y-33783D01*
X35088Y-33813D01*
X35073Y-33828D01*
X35043Y-33843D01*
X34983Y-33843D01*
X34953Y-33828D01*
X34390Y-34827D02*
X34390Y-34512D01*
X34465Y-34512D01*
X34510Y-34527D01*
X34540Y-34557D01*
X34555Y-34587D01*
X34570Y-34647D01*
X34570Y-34692D01*
X34555Y-34752D01*
X34540Y-34782D01*
X34510Y-34812D01*
X34465Y-34827D01*
X34390Y-34827D01*
X34705Y-34827D02*
X34705Y-34617D01*
X34705Y-34512D02*
X34690Y-34527D01*
X34705Y-34542D01*
X34720Y-34527D01*
X34705Y-34512D01*
X34705Y-34542D01*
X34855Y-34827D02*
X34855Y-34617D01*
X34855Y-34677D02*
X34870Y-34647D01*
X34885Y-34632D01*
X34915Y-34617D01*
X34945Y-34617D01*
X34534Y-35745D02*
X34639Y-35745D01*
X34684Y-35910D02*
X34534Y-35910D01*
X34534Y-35595D01*
X34684Y-35595D01*
X34819Y-35700D02*
X34819Y-35910D01*
X34819Y-35730D02*
X34834Y-35715D01*
X34864Y-35700D01*
X34909Y-35700D01*
X34939Y-35715D01*
X34954Y-35745D01*
X34954Y-35910D01*
X34443Y-36594D02*
X34413Y-36579D01*
X34368Y-36579D01*
X34323Y-36594D01*
X34293Y-36624D01*
X34278Y-36654D01*
X34263Y-36714D01*
X34263Y-36759D01*
X34278Y-36819D01*
X34293Y-36849D01*
X34323Y-36879D01*
X34368Y-36894D01*
X34398Y-36894D01*
X34443Y-36879D01*
X34458Y-36864D01*
X34458Y-36759D01*
X34398Y-36759D01*
X34593Y-36684D02*
X34593Y-36894D01*
X34593Y-36714D02*
X34608Y-36699D01*
X34638Y-36684D01*
X34683Y-36684D01*
X34713Y-36699D01*
X34728Y-36729D01*
X34728Y-36894D01*
X35013Y-36894D02*
X35013Y-36579D01*
X35013Y-36879D02*
X34983Y-36894D01*
X34923Y-36894D01*
X34893Y-36879D01*
X34878Y-36864D01*
X34863Y-36834D01*
X34863Y-36744D01*
X34878Y-36714D01*
X34893Y-36699D01*
X34923Y-36684D01*
X34983Y-36684D01*
X35013Y-36699D01*
X35309Y-38075D02*
X35309Y-37760D01*
X35459Y-37865D02*
X35459Y-38075D01*
X35459Y-37895D02*
X35474Y-37880D01*
X35504Y-37865D01*
X35549Y-37865D01*
X35579Y-37880D01*
X35594Y-37910D01*
X35594Y-38075D01*
X35744Y-37865D02*
X35744Y-38180D01*
X35744Y-37880D02*
X35774Y-37865D01*
X35834Y-37865D01*
X35864Y-37880D01*
X35879Y-37895D01*
X35894Y-37925D01*
X35894Y-38015D01*
X35879Y-38045D01*
X35864Y-38060D01*
X35834Y-38075D01*
X35774Y-38075D01*
X35744Y-38060D01*
X36164Y-37865D02*
X36164Y-38075D01*
X36029Y-37865D02*
X36029Y-38030D01*
X36044Y-38060D01*
X36074Y-38075D01*
X36119Y-38075D01*
X36149Y-38060D01*
X36164Y-38045D01*
X36269Y-37865D02*
X36389Y-37865D01*
X36314Y-37760D02*
X36314Y-38030D01*
X36329Y-38060D01*
X36359Y-38075D01*
X36389Y-38075D01*
X34482Y-41712D02*
X34452Y-41697D01*
X34407Y-41697D01*
X34362Y-41712D01*
X34332Y-41742D01*
X34317Y-41772D01*
X34302Y-41832D01*
X34302Y-41877D01*
X34317Y-41937D01*
X34332Y-41967D01*
X34362Y-41997D01*
X34407Y-42012D01*
X34437Y-42012D01*
X34482Y-41997D01*
X34497Y-41982D01*
X34497Y-41877D01*
X34437Y-41877D01*
X34632Y-41802D02*
X34632Y-42012D01*
X34632Y-41832D02*
X34647Y-41817D01*
X34677Y-41802D01*
X34722Y-41802D01*
X34752Y-41817D01*
X34767Y-41847D01*
X34767Y-42012D01*
X35052Y-42012D02*
X35052Y-41697D01*
X35052Y-41997D02*
X35022Y-42012D01*
X34962Y-42012D01*
X34932Y-41997D01*
X34917Y-41982D01*
X34902Y-41952D01*
X34902Y-41862D01*
X34917Y-41832D01*
X34932Y-41817D01*
X34962Y-41802D01*
X35022Y-41802D01*
X35052Y-41817D01*
X34573Y-40863D02*
X34678Y-40863D01*
X34723Y-41028D02*
X34573Y-41028D01*
X34573Y-40713D01*
X34723Y-40713D01*
X34858Y-40818D02*
X34858Y-41028D01*
X34858Y-40848D02*
X34873Y-40833D01*
X34903Y-40818D01*
X34948Y-40818D01*
X34978Y-40833D01*
X34993Y-40863D01*
X34993Y-41028D01*
X34430Y-39945D02*
X34430Y-39630D01*
X34505Y-39630D01*
X34550Y-39645D01*
X34580Y-39675D01*
X34595Y-39705D01*
X34610Y-39765D01*
X34610Y-39810D01*
X34595Y-39870D01*
X34580Y-39900D01*
X34550Y-39930D01*
X34505Y-39945D01*
X34430Y-39945D01*
X34745Y-39945D02*
X34745Y-39735D01*
X34745Y-39630D02*
X34730Y-39645D01*
X34745Y-39660D01*
X34760Y-39645D01*
X34745Y-39630D01*
X34745Y-39660D01*
X34895Y-39945D02*
X34895Y-39735D01*
X34895Y-39795D02*
X34910Y-39765D01*
X34925Y-39750D01*
X34955Y-39735D01*
X34985Y-39735D01*
X34148Y-38985D02*
X34193Y-39000D01*
X34268Y-39000D01*
X34298Y-38985D01*
X34313Y-38970D01*
X34328Y-38940D01*
X34328Y-38910D01*
X34313Y-38880D01*
X34298Y-38865D01*
X34268Y-38850D01*
X34208Y-38835D01*
X34178Y-38820D01*
X34163Y-38805D01*
X34148Y-38775D01*
X34148Y-38745D01*
X34163Y-38715D01*
X34178Y-38700D01*
X34208Y-38685D01*
X34283Y-38685D01*
X34328Y-38700D01*
X34418Y-38790D02*
X34538Y-38790D01*
X34463Y-38685D02*
X34463Y-38955D01*
X34478Y-38985D01*
X34508Y-39000D01*
X34538Y-39000D01*
X34763Y-38985D02*
X34733Y-39000D01*
X34673Y-39000D01*
X34643Y-38985D01*
X34628Y-38955D01*
X34628Y-38835D01*
X34643Y-38805D01*
X34673Y-38790D01*
X34733Y-38790D01*
X34763Y-38805D01*
X34778Y-38835D01*
X34778Y-38865D01*
X34628Y-38895D01*
X34913Y-38790D02*
X34913Y-39105D01*
X34913Y-38805D02*
X34943Y-38790D01*
X35003Y-38790D01*
X35033Y-38805D01*
X35048Y-38820D01*
X35063Y-38850D01*
X35063Y-38940D01*
X35048Y-38970D01*
X35033Y-38985D01*
X35003Y-39000D01*
X34943Y-39000D01*
X34913Y-38985D01*
X47109Y-35792D02*
X47289Y-35792D01*
X47199Y-36107D02*
X47199Y-35792D01*
X47514Y-36092D02*
X47484Y-36107D01*
X47424Y-36107D01*
X47394Y-36092D01*
X47379Y-36062D01*
X47379Y-35942D01*
X47394Y-35912D01*
X47424Y-35897D01*
X47484Y-35897D01*
X47514Y-35912D01*
X47529Y-35942D01*
X47529Y-35972D01*
X47379Y-36002D01*
X47649Y-36092D02*
X47679Y-36107D01*
X47739Y-36107D01*
X47769Y-36092D01*
X47784Y-36062D01*
X47784Y-36047D01*
X47769Y-36017D01*
X47739Y-36002D01*
X47694Y-36002D01*
X47664Y-35987D01*
X47649Y-35957D01*
X47649Y-35942D01*
X47664Y-35912D01*
X47694Y-35897D01*
X47739Y-35897D01*
X47769Y-35912D01*
X47874Y-35897D02*
X47994Y-35897D01*
X47919Y-35792D02*
X47919Y-36062D01*
X47934Y-36092D01*
X47964Y-36107D01*
X47994Y-36107D01*
X48338Y-35897D02*
X48338Y-36212D01*
X48338Y-35912D02*
X48368Y-35897D01*
X48428Y-35897D01*
X48458Y-35912D01*
X48473Y-35927D01*
X48488Y-35957D01*
X48488Y-36047D01*
X48473Y-36077D01*
X48458Y-36092D01*
X48428Y-36107D01*
X48368Y-36107D01*
X48338Y-36092D01*
X48623Y-36107D02*
X48623Y-35897D01*
X48623Y-35792D02*
X48608Y-35807D01*
X48623Y-35822D01*
X48638Y-35807D01*
X48623Y-35792D01*
X48623Y-35822D01*
X48773Y-35897D02*
X48773Y-36107D01*
X48773Y-35927D02*
X48788Y-35912D01*
X48818Y-35897D01*
X48863Y-35897D01*
X48893Y-35912D01*
X48908Y-35942D01*
X48908Y-36107D01*
G54D10*
X43700Y-42244D02*
G75*
G03X44251Y-42795I551J0D01*
G74*
G01*
X44251Y-41692D02*
G75*
G03X43700Y-42244I0J-551D01*
G74*
G01*
X44251Y-40590D02*
X44251Y-43897D01*
X44251Y-43897D02*
X41653Y-43897D01*
X41653Y-43897D02*
X41653Y-40590D01*
X41653Y-40590D02*
X44251Y-40590D01*
X43218Y-39852D02*
X42805Y-39852D01*
X42805Y-39852D02*
X42805Y-40462D01*
X42805Y-40462D02*
X43218Y-40462D01*
X43218Y-39852D02*
X43218Y-40462D01*
X43257Y-44517D02*
X43257Y-44104D01*
X43257Y-44104D02*
X42647Y-44104D01*
X42647Y-44104D02*
X42647Y-44517D01*
X43257Y-44517D02*
X42647Y-44517D01*
G54D12*
X47818Y-39354D02*
X47818Y-42354D01*
X47818Y-42354D02*
X49818Y-42354D01*
X49818Y-42354D02*
X49818Y-38354D01*
X49818Y-38354D02*
X48818Y-38354D01*
X47818Y-38354D02*
X47818Y-39354D01*
X48818Y-38354D02*
X48818Y-39354D01*
X48818Y-39354D02*
X47818Y-39354D01*
X47818Y-38354D02*
X48818Y-38354D01*
X37901Y-38992D02*
X37901Y-35992D01*
X36901Y-38992D02*
X36901Y-35992D01*
X36901Y-39992D02*
X36901Y-38992D01*
X37901Y-35992D02*
X36901Y-35992D01*
X36901Y-38992D02*
X37901Y-38992D01*
X36901Y-39992D02*
X37901Y-39992D01*
X37901Y-39992D02*
X37901Y-38992D01*
X35326Y-34236D02*
X35326Y-37236D01*
X36326Y-34236D02*
X36326Y-37236D01*
X36326Y-33236D02*
X36326Y-34236D01*
X35326Y-37236D02*
X36326Y-37236D01*
X36326Y-34236D02*
X35326Y-34236D01*
X36326Y-33236D02*
X35326Y-33236D01*
X35326Y-33236D02*
X35326Y-34236D01*
X35326Y-39354D02*
X35326Y-42354D01*
X36326Y-39354D02*
X36326Y-42354D01*
X36326Y-38354D02*
X36326Y-39354D01*
X35326Y-42354D02*
X36326Y-42354D01*
X36326Y-39354D02*
X35326Y-39354D01*
X36326Y-38354D02*
X35326Y-38354D01*
X35326Y-38354D02*
X35326Y-39354D01*
G54D10*
X52352Y-30265D02*
X51584Y-30265D01*
X51584Y-30265D02*
X51584Y-30757D01*
X51584Y-30757D02*
X52352Y-30757D01*
X52352Y-30757D02*
X52352Y-30265D01*
X52352Y-32627D02*
X51584Y-32627D01*
X51584Y-32627D02*
X51584Y-33120D01*
X51584Y-33120D02*
X52352Y-33120D01*
X52352Y-33120D02*
X52352Y-32627D01*
X52352Y-31446D02*
X51584Y-31446D01*
X51584Y-31446D02*
X51584Y-31938D01*
X51584Y-31938D02*
X52352Y-31938D01*
X52352Y-31938D02*
X52352Y-31446D01*
X41033Y-40127D02*
X41801Y-40127D01*
X41801Y-40127D02*
X41801Y-39635D01*
X41801Y-39635D02*
X41033Y-39635D01*
X41033Y-39635D02*
X41033Y-40127D01*
X40994Y-40659D02*
X40994Y-41427D01*
X40994Y-41427D02*
X41486Y-41427D01*
X41486Y-41427D02*
X41486Y-40659D01*
X41486Y-40659D02*
X40994Y-40659D01*
X45403Y-41643D02*
X44635Y-41643D01*
X44635Y-41643D02*
X44635Y-42135D01*
X44635Y-42135D02*
X45403Y-42135D01*
X45403Y-42135D02*
X45403Y-41643D01*
G54D13*
X53795Y-43484D02*
G75*
G03X53795Y-43484I-1000J0D01*
G74*
G01*
X51295Y-41984D02*
X54295Y-41984D01*
X54295Y-41984D02*
X54295Y-44984D01*
X54295Y-44984D02*
X51295Y-44984D01*
X51295Y-41984D02*
X51295Y-44984D01*
X53795Y-39625D02*
G75*
G03X53795Y-39625I-1000J0D01*
G74*
G01*
X51295Y-38125D02*
X54295Y-38125D01*
X54295Y-38125D02*
X54295Y-41125D01*
X54295Y-41125D02*
X51295Y-41125D01*
X51295Y-38125D02*
X51295Y-41125D01*
X53795Y-35767D02*
G75*
G03X53795Y-35767I-1000J0D01*
G74*
G01*
X51295Y-34267D02*
X54295Y-34267D01*
X54295Y-34267D02*
X54295Y-37267D01*
X54295Y-37267D02*
X51295Y-37267D01*
X51295Y-34267D02*
X51295Y-37267D01*
G54D14*
X41074Y-31141D02*
G75*
G03X42255Y-29960I0J1181D01*
G74*
G01*
X46606Y-44460D02*
X46606Y-44523D01*
X39665Y-43531D02*
X39665Y-44527D01*
X39665Y-44527D02*
X40665Y-44527D01*
X40665Y-43527D02*
X40665Y-44527D01*
X45602Y-43531D02*
X45602Y-44523D01*
X45602Y-44523D02*
X46602Y-44523D01*
X46606Y-43535D02*
X46606Y-44484D01*
X39666Y-29526D02*
X40666Y-29526D01*
X39666Y-43526D02*
X39666Y-29526D01*
X40666Y-29526D02*
X40666Y-43526D01*
X46602Y-29535D02*
X46602Y-43535D01*
X45602Y-43535D02*
X45602Y-29535D01*
X45602Y-29535D02*
X46602Y-29535D01*
G54D10*
X52992Y-30157D02*
X52854Y-30157D01*
X52854Y-30157D02*
X52854Y-30866D01*
X52854Y-30866D02*
X52992Y-30866D01*
X52992Y-30866D02*
X54094Y-30866D01*
X54094Y-30866D02*
X54094Y-30157D01*
X54094Y-30157D02*
X52992Y-30157D01*
X52992Y-30157D02*
X52992Y-30866D01*
X52992Y-31338D02*
X52854Y-31338D01*
X52854Y-31338D02*
X52854Y-32047D01*
X52854Y-32047D02*
X52992Y-32047D01*
X52992Y-32047D02*
X54094Y-32047D01*
X54094Y-32047D02*
X54094Y-31338D01*
X54094Y-31338D02*
X52992Y-31338D01*
X52992Y-31338D02*
X52992Y-32047D01*
X52992Y-32519D02*
X52854Y-32519D01*
X52854Y-32519D02*
X52854Y-33228D01*
X52854Y-33228D02*
X52992Y-33228D01*
X52992Y-33228D02*
X54094Y-33228D01*
X54094Y-33228D02*
X54094Y-32519D01*
X54094Y-32519D02*
X52992Y-32519D01*
X52992Y-32519D02*
X52992Y-33228D01*
G54D12*
X48255Y-34507D02*
X47255Y-34507D01*
X48255Y-33507D02*
X47255Y-33507D01*
X47255Y-33507D02*
X47255Y-34507D01*
X47255Y-34507D02*
X47255Y-35507D01*
X47255Y-35507D02*
X48255Y-35507D01*
X48255Y-35507D02*
X48255Y-33507D01*
X36901Y-31417D02*
X37901Y-31417D01*
X36901Y-32417D02*
X37901Y-32417D01*
X37901Y-32417D02*
X37901Y-31417D01*
X37901Y-31417D02*
X37901Y-30417D01*
X37901Y-30417D02*
X36901Y-30417D01*
X36901Y-30417D02*
X36901Y-32417D01*
G54D15*
X41116Y-44028D02*
X41116Y-43848D01*
X41431Y-43938D02*
X41116Y-43938D01*
X41116Y-43773D02*
X41431Y-43563D01*
X41116Y-43563D02*
X41431Y-43773D01*
X41266Y-43338D02*
X41281Y-43293D01*
X41296Y-43278D01*
X41326Y-43263D01*
X41371Y-43263D01*
X41401Y-43278D01*
X41416Y-43293D01*
X41431Y-43323D01*
X41431Y-43443D01*
X41116Y-43443D01*
X41116Y-43338D01*
X41131Y-43308D01*
X41146Y-43293D01*
X41176Y-43278D01*
X41206Y-43278D01*
X41236Y-43293D01*
X41251Y-43308D01*
X41266Y-43338D01*
X41266Y-43443D01*
X41116Y-43068D02*
X41116Y-43038D01*
X41131Y-43008D01*
X41146Y-42993D01*
X41176Y-42978D01*
X41236Y-42963D01*
X41311Y-42963D01*
X41371Y-42978D01*
X41401Y-42993D01*
X41416Y-43008D01*
X41431Y-43038D01*
X41431Y-43068D01*
X41416Y-43098D01*
X41401Y-43113D01*
X41371Y-43128D01*
X41311Y-43143D01*
X41236Y-43143D01*
X41176Y-43128D01*
X41146Y-43113D01*
X41131Y-43098D01*
X41116Y-43068D01*
X41431Y-42663D02*
X41431Y-42843D01*
X41431Y-42753D02*
X41116Y-42753D01*
X41161Y-42783D01*
X41191Y-42813D01*
X41206Y-42843D01*
X41116Y-42468D02*
X41116Y-42438D01*
X41131Y-42408D01*
X41146Y-42393D01*
X41176Y-42378D01*
X41236Y-42363D01*
X41311Y-42363D01*
X41371Y-42378D01*
X41401Y-42393D01*
X41416Y-42408D01*
X41431Y-42438D01*
X41431Y-42468D01*
X41416Y-42498D01*
X41401Y-42513D01*
X41371Y-42528D01*
X41311Y-42543D01*
X41236Y-42543D01*
X41176Y-42528D01*
X41146Y-42513D01*
X41131Y-42498D01*
X41116Y-42468D01*
X41251Y-42183D02*
X41236Y-42213D01*
X41221Y-42228D01*
X41191Y-42243D01*
X41176Y-42243D01*
X41146Y-42228D01*
X41131Y-42213D01*
X41116Y-42183D01*
X41116Y-42123D01*
X41131Y-42093D01*
X41146Y-42078D01*
X41176Y-42063D01*
X41191Y-42063D01*
X41221Y-42078D01*
X41236Y-42093D01*
X41251Y-42123D01*
X41251Y-42183D01*
X41266Y-42213D01*
X41281Y-42228D01*
X41311Y-42243D01*
X41371Y-42243D01*
X41401Y-42228D01*
X41416Y-42213D01*
X41431Y-42183D01*
X41431Y-42123D01*
X41416Y-42093D01*
X41401Y-42078D01*
X41371Y-42063D01*
X41311Y-42063D01*
X41281Y-42078D01*
X41266Y-42093D01*
X41251Y-42123D01*
G54D16*
G54D17*
X42700Y-40157D02*
X42706Y-40163D01*
X42711Y-40180D01*
X42711Y-40192D01*
X42706Y-40209D01*
X42694Y-40220D01*
X42683Y-40226D01*
X42660Y-40232D01*
X42643Y-40232D01*
X42620Y-40226D01*
X42608Y-40220D01*
X42597Y-40209D01*
X42591Y-40192D01*
X42591Y-40180D01*
X42597Y-40163D01*
X42603Y-40157D01*
X42711Y-40043D02*
X42711Y-40112D01*
X42711Y-40077D02*
X42591Y-40077D01*
X42608Y-40089D01*
X42620Y-40100D01*
X42626Y-40112D01*
X42932Y-44688D02*
X42927Y-44694D01*
X42909Y-44699D01*
X42898Y-44699D01*
X42881Y-44694D01*
X42869Y-44682D01*
X42864Y-44671D01*
X42858Y-44648D01*
X42858Y-44631D01*
X42864Y-44608D01*
X42869Y-44597D01*
X42881Y-44585D01*
X42898Y-44579D01*
X42909Y-44579D01*
X42927Y-44585D01*
X42932Y-44591D01*
X42978Y-44591D02*
X42984Y-44585D01*
X42995Y-44579D01*
X43024Y-44579D01*
X43035Y-44585D01*
X43041Y-44591D01*
X43047Y-44602D01*
X43047Y-44614D01*
X43041Y-44631D01*
X42972Y-44699D01*
X43047Y-44699D01*
G54D18*
X48449Y-38041D02*
X48449Y-37541D01*
X48640Y-37541D01*
X48687Y-37564D01*
X48711Y-37588D01*
X48735Y-37636D01*
X48735Y-37707D01*
X48711Y-37755D01*
X48687Y-37779D01*
X48640Y-37803D01*
X48449Y-37803D01*
X49211Y-38041D02*
X48926Y-38041D01*
X49068Y-38041D02*
X49068Y-37541D01*
X49021Y-37612D01*
X48973Y-37660D01*
X48926Y-37684D01*
X37032Y-35797D02*
X37032Y-35297D01*
X37223Y-35297D01*
X37270Y-35320D01*
X37294Y-35344D01*
X37318Y-35392D01*
X37318Y-35463D01*
X37294Y-35511D01*
X37270Y-35535D01*
X37223Y-35558D01*
X37032Y-35558D01*
X37508Y-35344D02*
X37532Y-35320D01*
X37580Y-35297D01*
X37699Y-35297D01*
X37746Y-35320D01*
X37770Y-35344D01*
X37794Y-35392D01*
X37794Y-35439D01*
X37770Y-35511D01*
X37484Y-35797D01*
X37794Y-35797D01*
X37056Y-34010D02*
X36556Y-34010D01*
X36556Y-33820D01*
X36580Y-33772D01*
X36604Y-33748D01*
X36652Y-33725D01*
X36723Y-33725D01*
X36771Y-33748D01*
X36794Y-33772D01*
X36818Y-33820D01*
X36818Y-34010D01*
X36556Y-33558D02*
X36556Y-33248D01*
X36747Y-33415D01*
X36747Y-33344D01*
X36771Y-33296D01*
X36794Y-33272D01*
X36842Y-33248D01*
X36961Y-33248D01*
X37009Y-33272D01*
X37033Y-33296D01*
X37056Y-33344D01*
X37056Y-33486D01*
X37033Y-33534D01*
X37009Y-33558D01*
X37056Y-42317D02*
X36556Y-42317D01*
X36556Y-42127D01*
X36580Y-42079D01*
X36604Y-42055D01*
X36652Y-42032D01*
X36723Y-42032D01*
X36771Y-42055D01*
X36794Y-42079D01*
X36818Y-42127D01*
X36818Y-42317D01*
X36723Y-41603D02*
X37056Y-41603D01*
X36533Y-41722D02*
X36890Y-41841D01*
X36890Y-41532D01*
G54D17*
X51948Y-30142D02*
X51908Y-30085D01*
X51879Y-30142D02*
X51879Y-30022D01*
X51925Y-30022D01*
X51937Y-30028D01*
X51942Y-30034D01*
X51948Y-30045D01*
X51948Y-30062D01*
X51942Y-30074D01*
X51937Y-30080D01*
X51925Y-30085D01*
X51879Y-30085D01*
X52062Y-30142D02*
X51994Y-30142D01*
X52028Y-30142D02*
X52028Y-30022D01*
X52017Y-30040D01*
X52005Y-30051D01*
X51994Y-30057D01*
X51948Y-32505D02*
X51908Y-32447D01*
X51879Y-32505D02*
X51879Y-32385D01*
X51925Y-32385D01*
X51937Y-32390D01*
X51942Y-32396D01*
X51948Y-32407D01*
X51948Y-32425D01*
X51942Y-32436D01*
X51937Y-32442D01*
X51925Y-32447D01*
X51879Y-32447D01*
X51994Y-32396D02*
X51999Y-32390D01*
X52011Y-32385D01*
X52039Y-32385D01*
X52051Y-32390D01*
X52057Y-32396D01*
X52062Y-32407D01*
X52062Y-32419D01*
X52057Y-32436D01*
X51988Y-32505D01*
X52062Y-32505D01*
X51948Y-31323D02*
X51908Y-31266D01*
X51879Y-31323D02*
X51879Y-31203D01*
X51925Y-31203D01*
X51937Y-31209D01*
X51942Y-31215D01*
X51948Y-31226D01*
X51948Y-31243D01*
X51942Y-31255D01*
X51937Y-31261D01*
X51925Y-31266D01*
X51879Y-31266D01*
X51988Y-31203D02*
X52062Y-31203D01*
X52022Y-31249D01*
X52039Y-31249D01*
X52051Y-31255D01*
X52057Y-31261D01*
X52062Y-31272D01*
X52062Y-31301D01*
X52057Y-31312D01*
X52051Y-31318D01*
X52039Y-31323D01*
X52005Y-31323D01*
X51994Y-31318D01*
X51988Y-31312D01*
X41397Y-40359D02*
X41357Y-40302D01*
X41328Y-40359D02*
X41328Y-40239D01*
X41374Y-40239D01*
X41385Y-40245D01*
X41391Y-40250D01*
X41397Y-40262D01*
X41397Y-40279D01*
X41391Y-40290D01*
X41385Y-40296D01*
X41374Y-40302D01*
X41328Y-40302D01*
X41500Y-40279D02*
X41500Y-40359D01*
X41471Y-40233D02*
X41443Y-40319D01*
X41517Y-40319D01*
X40871Y-41063D02*
X40814Y-41103D01*
X40871Y-41131D02*
X40751Y-41131D01*
X40751Y-41086D01*
X40756Y-41074D01*
X40762Y-41069D01*
X40774Y-41063D01*
X40791Y-41063D01*
X40802Y-41069D01*
X40808Y-41074D01*
X40814Y-41086D01*
X40814Y-41131D01*
X40751Y-40954D02*
X40751Y-41011D01*
X40808Y-41017D01*
X40802Y-41011D01*
X40796Y-41000D01*
X40796Y-40971D01*
X40802Y-40960D01*
X40808Y-40954D01*
X40819Y-40949D01*
X40848Y-40949D01*
X40859Y-40954D01*
X40865Y-40960D01*
X40871Y-40971D01*
X40871Y-41000D01*
X40865Y-41011D01*
X40859Y-41017D01*
X44999Y-41520D02*
X44959Y-41463D01*
X44931Y-41520D02*
X44931Y-41400D01*
X44976Y-41400D01*
X44988Y-41406D01*
X44993Y-41412D01*
X44999Y-41423D01*
X44999Y-41440D01*
X44993Y-41452D01*
X44988Y-41457D01*
X44976Y-41463D01*
X44931Y-41463D01*
X45102Y-41400D02*
X45079Y-41400D01*
X45068Y-41406D01*
X45062Y-41412D01*
X45051Y-41429D01*
X45045Y-41452D01*
X45045Y-41497D01*
X45051Y-41509D01*
X45056Y-41515D01*
X45068Y-41520D01*
X45091Y-41520D01*
X45102Y-41515D01*
X45108Y-41509D01*
X45113Y-41497D01*
X45113Y-41469D01*
X45108Y-41457D01*
X45102Y-41452D01*
X45091Y-41446D01*
X45068Y-41446D01*
X45056Y-41452D01*
X45051Y-41457D01*
X45045Y-41469D01*
G54D18*
X52261Y-43346D02*
X52319Y-43365D01*
X52414Y-43365D01*
X52452Y-43346D01*
X52471Y-43327D01*
X52490Y-43289D01*
X52490Y-43250D01*
X52471Y-43212D01*
X52452Y-43193D01*
X52414Y-43174D01*
X52338Y-43155D01*
X52300Y-43136D01*
X52280Y-43117D01*
X52261Y-43079D01*
X52261Y-43041D01*
X52280Y-43003D01*
X52300Y-42984D01*
X52338Y-42965D01*
X52433Y-42965D01*
X52490Y-42984D01*
X52623Y-42965D02*
X52719Y-43365D01*
X52795Y-43079D01*
X52871Y-43365D01*
X52966Y-42965D01*
X53328Y-43365D02*
X53100Y-43365D01*
X53214Y-43365D02*
X53214Y-42965D01*
X53176Y-43022D01*
X53138Y-43060D01*
X53100Y-43079D01*
X52261Y-39487D02*
X52319Y-39506D01*
X52414Y-39506D01*
X52452Y-39487D01*
X52471Y-39468D01*
X52490Y-39430D01*
X52490Y-39392D01*
X52471Y-39354D01*
X52452Y-39335D01*
X52414Y-39316D01*
X52338Y-39297D01*
X52300Y-39278D01*
X52280Y-39259D01*
X52261Y-39221D01*
X52261Y-39183D01*
X52280Y-39145D01*
X52300Y-39125D01*
X52338Y-39106D01*
X52433Y-39106D01*
X52490Y-39125D01*
X52623Y-39106D02*
X52719Y-39506D01*
X52795Y-39221D01*
X52871Y-39506D01*
X52966Y-39106D01*
X53100Y-39145D02*
X53119Y-39125D01*
X53157Y-39106D01*
X53252Y-39106D01*
X53290Y-39125D01*
X53309Y-39145D01*
X53328Y-39183D01*
X53328Y-39221D01*
X53309Y-39278D01*
X53080Y-39506D01*
X53328Y-39506D01*
X52261Y-35629D02*
X52319Y-35648D01*
X52414Y-35648D01*
X52452Y-35629D01*
X52471Y-35610D01*
X52490Y-35572D01*
X52490Y-35534D01*
X52471Y-35496D01*
X52452Y-35477D01*
X52414Y-35458D01*
X52338Y-35439D01*
X52300Y-35420D01*
X52280Y-35401D01*
X52261Y-35362D01*
X52261Y-35324D01*
X52280Y-35286D01*
X52300Y-35267D01*
X52338Y-35248D01*
X52433Y-35248D01*
X52490Y-35267D01*
X52623Y-35248D02*
X52719Y-35648D01*
X52795Y-35362D01*
X52871Y-35648D01*
X52966Y-35248D01*
X53080Y-35248D02*
X53328Y-35248D01*
X53195Y-35401D01*
X53252Y-35401D01*
X53290Y-35420D01*
X53309Y-35439D01*
X53328Y-35477D01*
X53328Y-35572D01*
X53309Y-35610D01*
X53290Y-35629D01*
X53252Y-35648D01*
X53138Y-35648D01*
X53100Y-35629D01*
X53080Y-35610D01*
G54D19*
X46729Y-32861D02*
X47280Y-32861D01*
X47345Y-32841D01*
X47378Y-32820D01*
X47410Y-32780D01*
X47410Y-32698D01*
X47378Y-32657D01*
X47345Y-32637D01*
X47280Y-32616D01*
X46729Y-32616D01*
X47410Y-32188D02*
X47410Y-32433D01*
X47410Y-32311D02*
X46729Y-32311D01*
X46826Y-32352D01*
X46891Y-32392D01*
X46924Y-32433D01*
G54D12*
X41438Y-38647D02*
X41438Y-38457D01*
X41610Y-38685D02*
X41010Y-38552D01*
X41610Y-38419D01*
X41610Y-38057D02*
X41324Y-38190D01*
X41610Y-38285D02*
X41010Y-38285D01*
X41010Y-38133D01*
X41038Y-38095D01*
X41067Y-38076D01*
X41124Y-38057D01*
X41210Y-38057D01*
X41267Y-38076D01*
X41295Y-38095D01*
X41324Y-38133D01*
X41324Y-38285D01*
X41610Y-37885D02*
X41010Y-37885D01*
X41010Y-37790D01*
X41038Y-37733D01*
X41095Y-37695D01*
X41152Y-37676D01*
X41267Y-37657D01*
X41352Y-37657D01*
X41467Y-37676D01*
X41524Y-37695D01*
X41581Y-37733D01*
X41610Y-37790D01*
X41610Y-37885D01*
X41010Y-37485D02*
X41495Y-37485D01*
X41552Y-37466D01*
X41581Y-37447D01*
X41610Y-37409D01*
X41610Y-37333D01*
X41581Y-37295D01*
X41552Y-37276D01*
X41495Y-37257D01*
X41010Y-37257D01*
X41610Y-37066D02*
X41010Y-37066D01*
X41610Y-36876D02*
X41010Y-36876D01*
X41610Y-36647D01*
X41010Y-36647D01*
X41010Y-36381D02*
X41010Y-36304D01*
X41038Y-36266D01*
X41095Y-36228D01*
X41210Y-36209D01*
X41410Y-36209D01*
X41524Y-36228D01*
X41581Y-36266D01*
X41610Y-36304D01*
X41610Y-36381D01*
X41581Y-36419D01*
X41524Y-36457D01*
X41410Y-36476D01*
X41210Y-36476D01*
X41095Y-36457D01*
X41038Y-36419D01*
X41010Y-36381D01*
X41667Y-36133D02*
X41667Y-35828D01*
X41610Y-35733D02*
X41010Y-35733D01*
X41610Y-35504D01*
X41010Y-35504D01*
X41438Y-35333D02*
X41438Y-35143D01*
X41610Y-35371D02*
X41010Y-35238D01*
X41610Y-35104D01*
X41610Y-34971D02*
X41010Y-34971D01*
X41610Y-34743D01*
X41010Y-34743D01*
X41010Y-34476D02*
X41010Y-34400D01*
X41038Y-34362D01*
X41095Y-34323D01*
X41210Y-34304D01*
X41410Y-34304D01*
X41524Y-34323D01*
X41581Y-34362D01*
X41610Y-34400D01*
X41610Y-34476D01*
X41581Y-34514D01*
X41524Y-34552D01*
X41410Y-34571D01*
X41210Y-34571D01*
X41095Y-34552D01*
X41038Y-34514D01*
X41010Y-34476D01*
G54D20*
X53410Y-30031D02*
X53410Y-29831D01*
X53453Y-29831D01*
X53479Y-29840D01*
X53496Y-29859D01*
X53504Y-29879D01*
X53513Y-29917D01*
X53513Y-29945D01*
X53504Y-29983D01*
X53496Y-30002D01*
X53479Y-30021D01*
X53453Y-30031D01*
X53410Y-30031D01*
X53684Y-30031D02*
X53581Y-30031D01*
X53633Y-30031D02*
X53633Y-29831D01*
X53616Y-29859D01*
X53599Y-29879D01*
X53581Y-29888D01*
X53410Y-31212D02*
X53410Y-31012D01*
X53453Y-31012D01*
X53479Y-31022D01*
X53496Y-31041D01*
X53504Y-31060D01*
X53513Y-31098D01*
X53513Y-31126D01*
X53504Y-31164D01*
X53496Y-31183D01*
X53479Y-31202D01*
X53453Y-31212D01*
X53410Y-31212D01*
X53581Y-31031D02*
X53590Y-31022D01*
X53607Y-31012D01*
X53650Y-31012D01*
X53667Y-31022D01*
X53676Y-31031D01*
X53684Y-31050D01*
X53684Y-31069D01*
X53676Y-31098D01*
X53573Y-31212D01*
X53684Y-31212D01*
X53410Y-32393D02*
X53410Y-32193D01*
X53453Y-32193D01*
X53479Y-32203D01*
X53496Y-32222D01*
X53504Y-32241D01*
X53513Y-32279D01*
X53513Y-32307D01*
X53504Y-32346D01*
X53496Y-32365D01*
X53479Y-32384D01*
X53453Y-32393D01*
X53410Y-32393D01*
X53573Y-32193D02*
X53684Y-32193D01*
X53624Y-32269D01*
X53650Y-32269D01*
X53667Y-32279D01*
X53676Y-32288D01*
X53684Y-32307D01*
X53684Y-32355D01*
X53676Y-32374D01*
X53667Y-32384D01*
X53650Y-32393D01*
X53599Y-32393D01*
X53581Y-32384D01*
X53573Y-32374D01*
G54D18*
X48382Y-34924D02*
X48739Y-34924D01*
X48810Y-34948D01*
X48858Y-34995D01*
X48882Y-35067D01*
X48882Y-35115D01*
X48882Y-34686D02*
X48382Y-34686D01*
X48382Y-34495D01*
X48405Y-34448D01*
X48429Y-34424D01*
X48477Y-34400D01*
X48548Y-34400D01*
X48596Y-34424D01*
X48620Y-34448D01*
X48644Y-34495D01*
X48644Y-34686D01*
X48882Y-33924D02*
X48882Y-34210D01*
X48882Y-34067D02*
X48382Y-34067D01*
X48453Y-34115D01*
X48501Y-34162D01*
X48524Y-34210D01*
G54D11*
X37188Y-30299D02*
X37188Y-29985D01*
X37308Y-29985D01*
X37338Y-30000D01*
X37353Y-30014D01*
X37368Y-30044D01*
X37368Y-30089D01*
X37353Y-30119D01*
X37338Y-30134D01*
X37308Y-30149D01*
X37188Y-30149D01*
X37653Y-29985D02*
X37503Y-29985D01*
X37488Y-30134D01*
X37503Y-30119D01*
X37533Y-30104D01*
X37608Y-30104D01*
X37638Y-30119D01*
X37653Y-30134D01*
X37668Y-30164D01*
X37668Y-30239D01*
X37653Y-30269D01*
X37638Y-30284D01*
X37608Y-30299D01*
X37533Y-30299D01*
X37503Y-30284D01*
X37488Y-30269D01*
M02*
