%FSLAX34Y34*%
G04 Gerber Fmt 3.4, Leading zero omitted, Abs format*
G04 (created by PCBNEW (2014-03-19 BZR 4756)-product) date Fri 30 May 2014 14:37:37 BST*
%MOIN*%
G01*
G70*
G90*
G04 APERTURE LIST*
%ADD10C,0.005906*%
%ADD11C,0.007874*%
%ADD12C,0.003000*%
%ADD13C,0.004500*%
G04 APERTURE END LIST*
G54D10*
G54D11*
X54330Y-32657D02*
X54330Y-33090D01*
X54330Y-32913D02*
X54330Y-32657D01*
X54488Y-33070D02*
X54330Y-32913D01*
X54488Y-32696D02*
X54488Y-33070D01*
X54311Y-32874D02*
X54488Y-32696D01*
X54133Y-32874D02*
X54783Y-32874D01*
X54114Y-31692D02*
X54763Y-31692D01*
X54291Y-31692D02*
X54468Y-31515D01*
X54468Y-31515D02*
X54468Y-31889D01*
X54468Y-31889D02*
X54311Y-31732D01*
X54311Y-31732D02*
X54311Y-31476D01*
X54311Y-31476D02*
X54311Y-31909D01*
X54330Y-30295D02*
X54330Y-30728D01*
X54330Y-30551D02*
X54330Y-30295D01*
X54488Y-30708D02*
X54330Y-30551D01*
X54488Y-30334D02*
X54488Y-30708D01*
X54311Y-30511D02*
X54488Y-30334D01*
X54133Y-30531D02*
X54783Y-30531D01*
X53811Y-35748D02*
G75*
G03X53811Y-35748I-1016J0D01*
G74*
G01*
X53823Y-39625D02*
G75*
G03X53823Y-39625I-988J0D01*
G74*
G01*
X53779Y-43484D02*
G75*
G03X53779Y-43484I-984J0D01*
G74*
G01*
X40898Y-39602D02*
X41153Y-39602D01*
X41183Y-39617D01*
X41198Y-39632D01*
X41213Y-39662D01*
X41213Y-39722D01*
X41198Y-39752D01*
X41183Y-39767D01*
X41153Y-39782D01*
X40898Y-39782D01*
X41198Y-39917D02*
X41213Y-39947D01*
X41213Y-40007D01*
X41198Y-40037D01*
X41168Y-40052D01*
X41153Y-40052D01*
X41123Y-40037D01*
X41108Y-40007D01*
X41108Y-39962D01*
X41093Y-39932D01*
X41063Y-39917D01*
X41048Y-39917D01*
X41018Y-39932D01*
X41003Y-39962D01*
X41003Y-40007D01*
X41018Y-40037D01*
X41198Y-40307D02*
X41213Y-40277D01*
X41213Y-40217D01*
X41198Y-40187D01*
X41168Y-40172D01*
X41048Y-40172D01*
X41018Y-40187D01*
X41003Y-40217D01*
X41003Y-40277D01*
X41018Y-40307D01*
X41048Y-40322D01*
X41078Y-40322D01*
X41108Y-40172D01*
X41213Y-40832D02*
X41048Y-40832D01*
X41018Y-40817D01*
X41003Y-40787D01*
X41003Y-40727D01*
X41018Y-40697D01*
X41198Y-40832D02*
X41213Y-40802D01*
X41213Y-40727D01*
X41198Y-40697D01*
X41168Y-40682D01*
X41138Y-40682D01*
X41108Y-40697D01*
X41093Y-40727D01*
X41093Y-40802D01*
X41078Y-40832D01*
X41213Y-41357D02*
X40898Y-41357D01*
X41198Y-41357D02*
X41213Y-41327D01*
X41213Y-41267D01*
X41198Y-41237D01*
X41183Y-41222D01*
X41153Y-41207D01*
X41063Y-41207D01*
X41033Y-41222D01*
X41018Y-41237D01*
X41003Y-41267D01*
X41003Y-41327D01*
X41018Y-41357D01*
X41213Y-41507D02*
X41003Y-41507D01*
X40898Y-41507D02*
X40913Y-41492D01*
X40928Y-41507D01*
X40913Y-41522D01*
X40898Y-41507D01*
X40928Y-41507D01*
X41213Y-41792D02*
X41048Y-41792D01*
X41018Y-41777D01*
X41003Y-41747D01*
X41003Y-41687D01*
X41018Y-41657D01*
X41198Y-41792D02*
X41213Y-41762D01*
X41213Y-41687D01*
X41198Y-41657D01*
X41168Y-41642D01*
X41138Y-41642D01*
X41108Y-41657D01*
X41093Y-41687D01*
X41093Y-41762D01*
X41078Y-41792D01*
X41213Y-41942D02*
X41003Y-41942D01*
X41033Y-41942D02*
X41018Y-41957D01*
X41003Y-41987D01*
X41003Y-42032D01*
X41018Y-42062D01*
X41048Y-42077D01*
X41213Y-42077D01*
X41048Y-42077D02*
X41018Y-42092D01*
X41003Y-42122D01*
X41003Y-42167D01*
X41018Y-42197D01*
X41048Y-42212D01*
X41213Y-42212D01*
X41198Y-42482D02*
X41213Y-42452D01*
X41213Y-42392D01*
X41198Y-42362D01*
X41168Y-42347D01*
X41048Y-42347D01*
X41018Y-42362D01*
X41003Y-42392D01*
X41003Y-42452D01*
X41018Y-42482D01*
X41048Y-42497D01*
X41078Y-42497D01*
X41108Y-42347D01*
X41003Y-42587D02*
X41003Y-42707D01*
X40898Y-42632D02*
X41168Y-42632D01*
X41198Y-42647D01*
X41213Y-42677D01*
X41213Y-42707D01*
X41213Y-42812D02*
X41003Y-42812D01*
X41063Y-42812D02*
X41033Y-42827D01*
X41018Y-42842D01*
X41003Y-42872D01*
X41003Y-42902D01*
X41213Y-43007D02*
X41003Y-43007D01*
X40898Y-43007D02*
X40913Y-42992D01*
X40928Y-43007D01*
X40913Y-43022D01*
X40898Y-43007D01*
X40928Y-43007D01*
X41198Y-43292D02*
X41213Y-43262D01*
X41213Y-43202D01*
X41198Y-43172D01*
X41183Y-43157D01*
X41153Y-43142D01*
X41063Y-43142D01*
X41033Y-43157D01*
X41018Y-43172D01*
X41003Y-43202D01*
X41003Y-43262D01*
X41018Y-43292D01*
X41213Y-43562D02*
X41048Y-43562D01*
X41018Y-43547D01*
X41003Y-43517D01*
X41003Y-43457D01*
X41018Y-43427D01*
X41198Y-43562D02*
X41213Y-43532D01*
X41213Y-43457D01*
X41198Y-43427D01*
X41168Y-43412D01*
X41138Y-43412D01*
X41108Y-43427D01*
X41093Y-43457D01*
X41093Y-43532D01*
X41078Y-43562D01*
X41213Y-43757D02*
X41198Y-43727D01*
X41168Y-43712D01*
X40898Y-43712D01*
X41213Y-43922D02*
X41198Y-43892D01*
X41168Y-43877D01*
X40898Y-43877D01*
X41003Y-44011D02*
X41213Y-44086D01*
X41003Y-44161D02*
X41213Y-44086D01*
X41288Y-44056D01*
X41303Y-44041D01*
X41318Y-44011D01*
X41733Y-39602D02*
X41523Y-39602D01*
X41553Y-39602D02*
X41538Y-39617D01*
X41523Y-39647D01*
X41523Y-39692D01*
X41538Y-39722D01*
X41568Y-39737D01*
X41733Y-39737D01*
X41568Y-39737D02*
X41538Y-39752D01*
X41523Y-39782D01*
X41523Y-39827D01*
X41538Y-39857D01*
X41568Y-39872D01*
X41733Y-39872D01*
X41733Y-40157D02*
X41568Y-40157D01*
X41538Y-40142D01*
X41523Y-40112D01*
X41523Y-40052D01*
X41538Y-40022D01*
X41718Y-40157D02*
X41733Y-40127D01*
X41733Y-40052D01*
X41718Y-40022D01*
X41688Y-40007D01*
X41658Y-40007D01*
X41628Y-40022D01*
X41613Y-40052D01*
X41613Y-40127D01*
X41598Y-40157D01*
X41523Y-40442D02*
X41778Y-40442D01*
X41808Y-40427D01*
X41823Y-40412D01*
X41838Y-40382D01*
X41838Y-40337D01*
X41823Y-40307D01*
X41718Y-40442D02*
X41733Y-40412D01*
X41733Y-40352D01*
X41718Y-40322D01*
X41703Y-40307D01*
X41673Y-40292D01*
X41583Y-40292D01*
X41553Y-40307D01*
X41538Y-40322D01*
X41523Y-40352D01*
X41523Y-40412D01*
X41538Y-40442D01*
X41523Y-40592D02*
X41733Y-40592D01*
X41553Y-40592D02*
X41538Y-40607D01*
X41523Y-40637D01*
X41523Y-40682D01*
X41538Y-40712D01*
X41568Y-40727D01*
X41733Y-40727D01*
X41718Y-40997D02*
X41733Y-40967D01*
X41733Y-40907D01*
X41718Y-40877D01*
X41688Y-40862D01*
X41568Y-40862D01*
X41538Y-40877D01*
X41523Y-40907D01*
X41523Y-40967D01*
X41538Y-40997D01*
X41568Y-41012D01*
X41598Y-41012D01*
X41628Y-40862D01*
X41523Y-41102D02*
X41523Y-41222D01*
X41418Y-41147D02*
X41688Y-41147D01*
X41718Y-41162D01*
X41733Y-41192D01*
X41733Y-41222D01*
X41733Y-41327D02*
X41523Y-41327D01*
X41418Y-41327D02*
X41433Y-41312D01*
X41448Y-41327D01*
X41433Y-41342D01*
X41418Y-41327D01*
X41448Y-41327D01*
X41718Y-41462D02*
X41733Y-41492D01*
X41733Y-41552D01*
X41718Y-41582D01*
X41688Y-41597D01*
X41673Y-41597D01*
X41643Y-41582D01*
X41628Y-41552D01*
X41628Y-41507D01*
X41613Y-41477D01*
X41583Y-41462D01*
X41568Y-41462D01*
X41538Y-41477D01*
X41523Y-41507D01*
X41523Y-41552D01*
X41538Y-41582D01*
X41718Y-41852D02*
X41733Y-41822D01*
X41733Y-41762D01*
X41718Y-41732D01*
X41688Y-41717D01*
X41568Y-41717D01*
X41538Y-41732D01*
X41523Y-41762D01*
X41523Y-41822D01*
X41538Y-41852D01*
X41568Y-41867D01*
X41598Y-41867D01*
X41628Y-41717D01*
X41733Y-42137D02*
X41418Y-42137D01*
X41718Y-42137D02*
X41733Y-42107D01*
X41733Y-42047D01*
X41718Y-42017D01*
X41703Y-42002D01*
X41673Y-41987D01*
X41583Y-41987D01*
X41553Y-42002D01*
X41538Y-42017D01*
X41523Y-42047D01*
X41523Y-42107D01*
X41538Y-42137D01*
X41418Y-42662D02*
X41418Y-42602D01*
X41433Y-42572D01*
X41448Y-42557D01*
X41493Y-42527D01*
X41553Y-42512D01*
X41673Y-42512D01*
X41703Y-42527D01*
X41718Y-42542D01*
X41733Y-42572D01*
X41733Y-42632D01*
X41718Y-42662D01*
X41703Y-42677D01*
X41673Y-42692D01*
X41598Y-42692D01*
X41568Y-42677D01*
X41553Y-42662D01*
X41538Y-42632D01*
X41538Y-42572D01*
X41553Y-42542D01*
X41568Y-42527D01*
X41598Y-42512D01*
X41733Y-42827D02*
X41523Y-42827D01*
X41553Y-42827D02*
X41538Y-42842D01*
X41523Y-42872D01*
X41523Y-42917D01*
X41538Y-42947D01*
X41568Y-42962D01*
X41733Y-42962D01*
X41568Y-42962D02*
X41538Y-42977D01*
X41523Y-43007D01*
X41523Y-43052D01*
X41538Y-43082D01*
X41568Y-43097D01*
X41733Y-43097D01*
X41733Y-43247D02*
X41523Y-43247D01*
X41553Y-43247D02*
X41538Y-43262D01*
X41523Y-43292D01*
X41523Y-43337D01*
X41538Y-43367D01*
X41568Y-43382D01*
X41733Y-43382D01*
X41568Y-43382D02*
X41538Y-43397D01*
X41523Y-43427D01*
X41523Y-43472D01*
X41538Y-43502D01*
X41568Y-43517D01*
X41733Y-43517D01*
X42252Y-39602D02*
X42042Y-39602D01*
X42072Y-39602D02*
X42057Y-39617D01*
X42042Y-39647D01*
X42042Y-39692D01*
X42057Y-39722D01*
X42087Y-39737D01*
X42252Y-39737D01*
X42087Y-39737D02*
X42057Y-39752D01*
X42042Y-39782D01*
X42042Y-39827D01*
X42057Y-39857D01*
X42087Y-39872D01*
X42252Y-39872D01*
X42252Y-40157D02*
X42087Y-40157D01*
X42057Y-40142D01*
X42042Y-40112D01*
X42042Y-40052D01*
X42057Y-40022D01*
X42237Y-40157D02*
X42252Y-40127D01*
X42252Y-40052D01*
X42237Y-40022D01*
X42207Y-40007D01*
X42177Y-40007D01*
X42147Y-40022D01*
X42132Y-40052D01*
X42132Y-40127D01*
X42117Y-40157D01*
X42042Y-40442D02*
X42297Y-40442D01*
X42327Y-40427D01*
X42342Y-40412D01*
X42357Y-40382D01*
X42357Y-40337D01*
X42342Y-40307D01*
X42237Y-40442D02*
X42252Y-40412D01*
X42252Y-40352D01*
X42237Y-40322D01*
X42222Y-40307D01*
X42192Y-40292D01*
X42102Y-40292D01*
X42072Y-40307D01*
X42057Y-40322D01*
X42042Y-40352D01*
X42042Y-40412D01*
X42057Y-40442D01*
X42042Y-40592D02*
X42252Y-40592D01*
X42072Y-40592D02*
X42057Y-40607D01*
X42042Y-40637D01*
X42042Y-40682D01*
X42057Y-40712D01*
X42087Y-40727D01*
X42252Y-40727D01*
X42237Y-40997D02*
X42252Y-40967D01*
X42252Y-40907D01*
X42237Y-40877D01*
X42207Y-40862D01*
X42087Y-40862D01*
X42057Y-40877D01*
X42042Y-40907D01*
X42042Y-40967D01*
X42057Y-40997D01*
X42087Y-41012D01*
X42117Y-41012D01*
X42147Y-40862D01*
X42042Y-41102D02*
X42042Y-41222D01*
X41937Y-41147D02*
X42207Y-41147D01*
X42237Y-41162D01*
X42252Y-41192D01*
X42252Y-41222D01*
X42252Y-41702D02*
X41937Y-41702D01*
X42237Y-41702D02*
X42252Y-41672D01*
X42252Y-41612D01*
X42237Y-41582D01*
X42222Y-41567D01*
X42192Y-41552D01*
X42102Y-41552D01*
X42072Y-41567D01*
X42057Y-41582D01*
X42042Y-41612D01*
X42042Y-41672D01*
X42057Y-41702D01*
X42252Y-41852D02*
X42042Y-41852D01*
X41937Y-41852D02*
X41952Y-41837D01*
X41967Y-41852D01*
X41952Y-41867D01*
X41937Y-41852D01*
X41967Y-41852D01*
X42252Y-42002D02*
X42042Y-42002D01*
X42102Y-42002D02*
X42072Y-42017D01*
X42057Y-42032D01*
X42042Y-42062D01*
X42042Y-42092D01*
X42237Y-42317D02*
X42252Y-42287D01*
X42252Y-42227D01*
X42237Y-42197D01*
X42207Y-42182D01*
X42087Y-42182D01*
X42057Y-42197D01*
X42042Y-42227D01*
X42042Y-42287D01*
X42057Y-42317D01*
X42087Y-42332D01*
X42117Y-42332D01*
X42147Y-42182D01*
X42237Y-42602D02*
X42252Y-42572D01*
X42252Y-42512D01*
X42237Y-42482D01*
X42222Y-42467D01*
X42192Y-42452D01*
X42102Y-42452D01*
X42072Y-42467D01*
X42057Y-42482D01*
X42042Y-42512D01*
X42042Y-42572D01*
X42057Y-42602D01*
X42042Y-42692D02*
X42042Y-42812D01*
X41937Y-42737D02*
X42207Y-42737D01*
X42237Y-42752D01*
X42252Y-42782D01*
X42252Y-42812D01*
X42252Y-42962D02*
X42237Y-42932D01*
X42207Y-42917D01*
X41937Y-42917D01*
X42042Y-43052D02*
X42252Y-43127D01*
X42042Y-43202D02*
X42252Y-43127D01*
X42327Y-43097D01*
X42342Y-43082D01*
X42357Y-43052D01*
X42772Y-39647D02*
X42757Y-39617D01*
X42742Y-39602D01*
X42712Y-39587D01*
X42622Y-39587D01*
X42592Y-39602D01*
X42577Y-39617D01*
X42562Y-39647D01*
X42562Y-39692D01*
X42577Y-39722D01*
X42592Y-39737D01*
X42622Y-39752D01*
X42712Y-39752D01*
X42742Y-39737D01*
X42757Y-39722D01*
X42772Y-39692D01*
X42772Y-39647D01*
X42562Y-39857D02*
X42772Y-39932D01*
X42562Y-40007D01*
X42757Y-40247D02*
X42772Y-40217D01*
X42772Y-40157D01*
X42757Y-40127D01*
X42727Y-40112D01*
X42607Y-40112D01*
X42577Y-40127D01*
X42562Y-40157D01*
X42562Y-40217D01*
X42577Y-40247D01*
X42607Y-40262D01*
X42637Y-40262D01*
X42667Y-40112D01*
X42772Y-40397D02*
X42562Y-40397D01*
X42622Y-40397D02*
X42592Y-40412D01*
X42577Y-40427D01*
X42562Y-40457D01*
X42562Y-40487D01*
X42757Y-40817D02*
X42772Y-40847D01*
X42772Y-40907D01*
X42757Y-40937D01*
X42727Y-40952D01*
X42712Y-40952D01*
X42682Y-40937D01*
X42667Y-40907D01*
X42667Y-40862D01*
X42652Y-40832D01*
X42622Y-40817D01*
X42607Y-40817D01*
X42577Y-40832D01*
X42562Y-40862D01*
X42562Y-40907D01*
X42577Y-40937D01*
X42757Y-41207D02*
X42772Y-41177D01*
X42772Y-41117D01*
X42757Y-41087D01*
X42727Y-41072D01*
X42607Y-41072D01*
X42577Y-41087D01*
X42562Y-41117D01*
X42562Y-41177D01*
X42577Y-41207D01*
X42607Y-41222D01*
X42637Y-41222D01*
X42667Y-41072D01*
X42562Y-41357D02*
X42772Y-41357D01*
X42592Y-41357D02*
X42577Y-41372D01*
X42562Y-41402D01*
X42562Y-41447D01*
X42577Y-41477D01*
X42607Y-41492D01*
X42772Y-41492D01*
X42757Y-41627D02*
X42772Y-41657D01*
X42772Y-41717D01*
X42757Y-41747D01*
X42727Y-41762D01*
X42712Y-41762D01*
X42682Y-41747D01*
X42667Y-41717D01*
X42667Y-41672D01*
X42652Y-41642D01*
X42622Y-41627D01*
X42607Y-41627D01*
X42577Y-41642D01*
X42562Y-41672D01*
X42562Y-41717D01*
X42577Y-41747D01*
X42772Y-41942D02*
X42757Y-41912D01*
X42742Y-41897D01*
X42712Y-41882D01*
X42622Y-41882D01*
X42592Y-41897D01*
X42577Y-41912D01*
X42562Y-41942D01*
X42562Y-41987D01*
X42577Y-42017D01*
X42592Y-42032D01*
X42622Y-42047D01*
X42712Y-42047D01*
X42742Y-42032D01*
X42757Y-42017D01*
X42772Y-41987D01*
X42772Y-41942D01*
X42772Y-42182D02*
X42562Y-42182D01*
X42622Y-42182D02*
X42592Y-42197D01*
X42577Y-42212D01*
X42562Y-42242D01*
X42562Y-42272D01*
X42742Y-42377D02*
X42757Y-42392D01*
X42772Y-42377D01*
X42757Y-42362D01*
X42742Y-42377D01*
X42772Y-42377D01*
X36646Y-40660D02*
X36646Y-40810D01*
X36736Y-40630D02*
X36422Y-40735D01*
X36736Y-40840D01*
X36452Y-40930D02*
X36437Y-40945D01*
X36422Y-40975D01*
X36422Y-41050D01*
X36437Y-41080D01*
X36452Y-41095D01*
X36482Y-41110D01*
X36511Y-41110D01*
X36556Y-41095D01*
X36736Y-40915D01*
X36736Y-41110D01*
X36646Y-39617D02*
X36646Y-39767D01*
X36736Y-39587D02*
X36422Y-39692D01*
X36736Y-39797D01*
X36422Y-39872D02*
X36422Y-40067D01*
X36541Y-39962D01*
X36541Y-40007D01*
X36556Y-40037D01*
X36571Y-40052D01*
X36601Y-40067D01*
X36676Y-40067D01*
X36706Y-40052D01*
X36721Y-40037D01*
X36736Y-40007D01*
X36736Y-39917D01*
X36721Y-39887D01*
X36706Y-39872D01*
X36736Y-38586D02*
X36422Y-38586D01*
X36422Y-38661D01*
X36437Y-38706D01*
X36467Y-38736D01*
X36497Y-38751D01*
X36556Y-38766D01*
X36601Y-38766D01*
X36661Y-38751D01*
X36691Y-38736D01*
X36721Y-38706D01*
X36736Y-38661D01*
X36736Y-38586D01*
X36422Y-38871D02*
X36422Y-39066D01*
X36541Y-38961D01*
X36541Y-39006D01*
X36556Y-39036D01*
X36571Y-39051D01*
X36601Y-39066D01*
X36676Y-39066D01*
X36706Y-39051D01*
X36721Y-39036D01*
X36736Y-39006D01*
X36736Y-38916D01*
X36721Y-38886D01*
X36706Y-38871D01*
X36646Y-35542D02*
X36646Y-35692D01*
X36736Y-35512D02*
X36422Y-35617D01*
X36736Y-35722D01*
X36452Y-35812D02*
X36437Y-35827D01*
X36422Y-35857D01*
X36422Y-35932D01*
X36437Y-35962D01*
X36452Y-35977D01*
X36482Y-35992D01*
X36511Y-35992D01*
X36556Y-35977D01*
X36736Y-35797D01*
X36736Y-35992D01*
X36646Y-34499D02*
X36646Y-34649D01*
X36736Y-34469D02*
X36422Y-34574D01*
X36736Y-34679D01*
X36736Y-34949D02*
X36736Y-34769D01*
X36736Y-34859D02*
X36422Y-34859D01*
X36467Y-34829D01*
X36497Y-34799D01*
X36511Y-34769D01*
X36646Y-33475D02*
X36646Y-33625D01*
X36736Y-33445D02*
X36422Y-33550D01*
X36736Y-33655D01*
X36422Y-33820D02*
X36422Y-33850D01*
X36437Y-33880D01*
X36452Y-33895D01*
X36482Y-33910D01*
X36541Y-33925D01*
X36616Y-33925D01*
X36676Y-33910D01*
X36706Y-33895D01*
X36721Y-33880D01*
X36736Y-33850D01*
X36736Y-33820D01*
X36721Y-33790D01*
X36706Y-33775D01*
X36676Y-33760D01*
X36616Y-33745D01*
X36541Y-33745D01*
X36482Y-33760D01*
X36452Y-33775D01*
X36437Y-33790D01*
X36422Y-33820D01*
X38745Y-30767D02*
X38775Y-30752D01*
X38820Y-30752D01*
X38865Y-30767D01*
X38895Y-30797D01*
X38910Y-30827D01*
X38925Y-30887D01*
X38925Y-30932D01*
X38910Y-30992D01*
X38895Y-31022D01*
X38865Y-31052D01*
X38820Y-31067D01*
X38790Y-31067D01*
X38745Y-31052D01*
X38730Y-31037D01*
X38730Y-30932D01*
X38790Y-30932D01*
X38595Y-30857D02*
X38595Y-31067D01*
X38595Y-30887D02*
X38580Y-30872D01*
X38550Y-30857D01*
X38505Y-30857D01*
X38475Y-30872D01*
X38460Y-30902D01*
X38460Y-31067D01*
X38175Y-31067D02*
X38175Y-30752D01*
X38175Y-31052D02*
X38205Y-31067D01*
X38265Y-31067D01*
X38295Y-31052D01*
X38310Y-31037D01*
X38325Y-31007D01*
X38325Y-30917D01*
X38310Y-30887D01*
X38295Y-30872D01*
X38265Y-30857D01*
X38205Y-30857D01*
X38175Y-30872D01*
X38898Y-31776D02*
X38703Y-31776D01*
X38808Y-31896D01*
X38763Y-31896D01*
X38733Y-31911D01*
X38718Y-31926D01*
X38703Y-31956D01*
X38703Y-32031D01*
X38718Y-32061D01*
X38733Y-32076D01*
X38763Y-32091D01*
X38853Y-32091D01*
X38883Y-32076D01*
X38898Y-32061D01*
X38598Y-31881D02*
X38523Y-32091D01*
X38448Y-31881D01*
X38358Y-31776D02*
X38163Y-31776D01*
X38268Y-31896D01*
X38223Y-31896D01*
X38193Y-31911D01*
X38178Y-31926D01*
X38163Y-31956D01*
X38163Y-32031D01*
X38178Y-32061D01*
X38193Y-32076D01*
X38223Y-32091D01*
X38313Y-32091D01*
X38343Y-32076D01*
X38358Y-32061D01*
X41103Y-29961D02*
X41103Y-30111D01*
X41193Y-29931D02*
X40878Y-30036D01*
X41193Y-30141D01*
X41178Y-30231D02*
X41193Y-30276D01*
X41193Y-30351D01*
X41178Y-30381D01*
X41163Y-30396D01*
X41133Y-30411D01*
X41103Y-30411D01*
X41073Y-30396D01*
X41058Y-30381D01*
X41043Y-30351D01*
X41028Y-30291D01*
X41013Y-30261D01*
X40998Y-30246D01*
X40968Y-30231D01*
X40938Y-30231D01*
X40908Y-30246D01*
X40893Y-30261D01*
X40878Y-30291D01*
X40878Y-30366D01*
X40893Y-30411D01*
X40878Y-30696D02*
X40878Y-30546D01*
X41028Y-30531D01*
X41013Y-30546D01*
X40998Y-30576D01*
X40998Y-30651D01*
X41013Y-30681D01*
X41028Y-30696D01*
X41058Y-30711D01*
X41133Y-30711D01*
X41163Y-30696D01*
X41178Y-30681D01*
X41193Y-30651D01*
X41193Y-30576D01*
X41178Y-30546D01*
X41163Y-30531D01*
X40878Y-30906D02*
X40878Y-30936D01*
X40893Y-30966D01*
X40908Y-30981D01*
X40938Y-30996D01*
X40998Y-31011D01*
X41073Y-31011D01*
X41133Y-30996D01*
X41163Y-30981D01*
X41178Y-30966D01*
X41193Y-30936D01*
X41193Y-30906D01*
X41178Y-30876D01*
X41163Y-30861D01*
X41133Y-30846D01*
X41073Y-30831D01*
X40998Y-30831D01*
X40938Y-30846D01*
X40908Y-30861D01*
X40893Y-30876D01*
X40878Y-30906D01*
X40878Y-31296D02*
X40878Y-31146D01*
X41028Y-31131D01*
X41013Y-31146D01*
X40998Y-31176D01*
X40998Y-31251D01*
X41013Y-31281D01*
X41028Y-31296D01*
X41058Y-31311D01*
X41133Y-31311D01*
X41163Y-31296D01*
X41178Y-31281D01*
X41193Y-31251D01*
X41193Y-31176D01*
X41178Y-31146D01*
X41163Y-31131D01*
X40878Y-31596D02*
X40878Y-31446D01*
X41028Y-31431D01*
X41013Y-31446D01*
X40998Y-31476D01*
X40998Y-31551D01*
X41013Y-31581D01*
X41028Y-31596D01*
X41058Y-31611D01*
X41133Y-31611D01*
X41163Y-31596D01*
X41178Y-31581D01*
X41193Y-31551D01*
X41193Y-31476D01*
X41178Y-31446D01*
X41163Y-31431D01*
X41103Y-31731D02*
X41103Y-31881D01*
X41193Y-31701D02*
X40878Y-31806D01*
X41193Y-31911D01*
X41193Y-32256D02*
X40878Y-32256D01*
X40998Y-32256D02*
X40983Y-32286D01*
X40983Y-32346D01*
X40998Y-32376D01*
X41013Y-32391D01*
X41043Y-32406D01*
X41133Y-32406D01*
X41163Y-32391D01*
X41178Y-32376D01*
X41193Y-32346D01*
X41193Y-32286D01*
X41178Y-32256D01*
X41193Y-32541D02*
X40983Y-32541D01*
X41043Y-32541D02*
X41013Y-32556D01*
X40998Y-32571D01*
X40983Y-32601D01*
X40983Y-32631D01*
X41178Y-32856D02*
X41193Y-32826D01*
X41193Y-32766D01*
X41178Y-32736D01*
X41148Y-32721D01*
X41028Y-32721D01*
X40998Y-32736D01*
X40983Y-32766D01*
X40983Y-32826D01*
X40998Y-32856D01*
X41028Y-32871D01*
X41058Y-32871D01*
X41088Y-32721D01*
X41193Y-33141D02*
X41028Y-33141D01*
X40998Y-33126D01*
X40983Y-33096D01*
X40983Y-33036D01*
X40998Y-33006D01*
X41178Y-33141D02*
X41193Y-33111D01*
X41193Y-33036D01*
X41178Y-33006D01*
X41148Y-32991D01*
X41118Y-32991D01*
X41088Y-33006D01*
X41073Y-33036D01*
X41073Y-33111D01*
X41058Y-33141D01*
X41193Y-33291D02*
X40878Y-33291D01*
X41073Y-33321D02*
X41193Y-33411D01*
X40983Y-33411D02*
X41103Y-33291D01*
X41193Y-33591D02*
X41178Y-33561D01*
X41163Y-33546D01*
X41133Y-33531D01*
X41043Y-33531D01*
X41013Y-33546D01*
X40998Y-33561D01*
X40983Y-33591D01*
X40983Y-33636D01*
X40998Y-33666D01*
X41013Y-33681D01*
X41043Y-33696D01*
X41133Y-33696D01*
X41163Y-33681D01*
X41178Y-33666D01*
X41193Y-33636D01*
X41193Y-33591D01*
X40983Y-33966D02*
X41193Y-33966D01*
X40983Y-33831D02*
X41148Y-33831D01*
X41178Y-33846D01*
X41193Y-33876D01*
X41193Y-33921D01*
X41178Y-33951D01*
X41163Y-33966D01*
X40983Y-34071D02*
X40983Y-34191D01*
X40878Y-34116D02*
X41148Y-34116D01*
X41178Y-34131D01*
X41193Y-34161D01*
X41193Y-34191D01*
X41193Y-34535D02*
X40878Y-34535D01*
X40998Y-34535D02*
X40983Y-34565D01*
X40983Y-34625D01*
X40998Y-34655D01*
X41013Y-34670D01*
X41043Y-34685D01*
X41133Y-34685D01*
X41163Y-34670D01*
X41178Y-34655D01*
X41193Y-34625D01*
X41193Y-34565D01*
X41178Y-34535D01*
X41193Y-34865D02*
X41178Y-34835D01*
X41163Y-34820D01*
X41133Y-34805D01*
X41043Y-34805D01*
X41013Y-34820D01*
X40998Y-34835D01*
X40983Y-34865D01*
X40983Y-34910D01*
X40998Y-34940D01*
X41013Y-34955D01*
X41043Y-34970D01*
X41133Y-34970D01*
X41163Y-34955D01*
X41178Y-34940D01*
X41193Y-34910D01*
X41193Y-34865D01*
X41193Y-35240D02*
X41028Y-35240D01*
X40998Y-35225D01*
X40983Y-35195D01*
X40983Y-35135D01*
X40998Y-35105D01*
X41178Y-35240D02*
X41193Y-35210D01*
X41193Y-35135D01*
X41178Y-35105D01*
X41148Y-35090D01*
X41118Y-35090D01*
X41088Y-35105D01*
X41073Y-35135D01*
X41073Y-35210D01*
X41058Y-35240D01*
X41193Y-35390D02*
X40983Y-35390D01*
X41043Y-35390D02*
X41013Y-35405D01*
X40998Y-35420D01*
X40983Y-35450D01*
X40983Y-35480D01*
X41193Y-35720D02*
X40878Y-35720D01*
X41178Y-35720D02*
X41193Y-35690D01*
X41193Y-35630D01*
X41178Y-35600D01*
X41163Y-35585D01*
X41133Y-35570D01*
X41043Y-35570D01*
X41013Y-35585D01*
X40998Y-35600D01*
X40983Y-35630D01*
X40983Y-35690D01*
X40998Y-35720D01*
X41503Y-29946D02*
X41713Y-30021D01*
X41503Y-30096D01*
X41398Y-30276D02*
X41398Y-30306D01*
X41413Y-30336D01*
X41428Y-30351D01*
X41458Y-30366D01*
X41518Y-30381D01*
X41593Y-30381D01*
X41653Y-30366D01*
X41683Y-30351D01*
X41698Y-30336D01*
X41713Y-30306D01*
X41713Y-30276D01*
X41698Y-30246D01*
X41683Y-30231D01*
X41653Y-30216D01*
X41593Y-30201D01*
X41518Y-30201D01*
X41458Y-30216D01*
X41428Y-30231D01*
X41413Y-30246D01*
X41398Y-30276D01*
X41683Y-30516D02*
X41698Y-30531D01*
X41713Y-30516D01*
X41698Y-30501D01*
X41683Y-30516D01*
X41713Y-30516D01*
X41713Y-30831D02*
X41713Y-30651D01*
X41713Y-30741D02*
X41398Y-30741D01*
X41443Y-30711D01*
X41473Y-30681D01*
X41488Y-30651D01*
X42233Y-29976D02*
X41918Y-29976D01*
X41918Y-30096D01*
X41933Y-30126D01*
X41948Y-30141D01*
X41978Y-30156D01*
X42023Y-30156D01*
X42053Y-30141D01*
X42068Y-30126D01*
X42083Y-30096D01*
X42083Y-29976D01*
X42233Y-30291D02*
X42023Y-30291D01*
X41918Y-30291D02*
X41933Y-30276D01*
X41948Y-30291D01*
X41933Y-30306D01*
X41918Y-30291D01*
X41948Y-30291D01*
X42023Y-30441D02*
X42233Y-30441D01*
X42053Y-30441D02*
X42038Y-30456D01*
X42023Y-30486D01*
X42023Y-30531D01*
X42038Y-30561D01*
X42068Y-30576D01*
X42233Y-30576D01*
X42233Y-30966D02*
X41918Y-30966D01*
X42143Y-31071D01*
X41918Y-31176D01*
X42233Y-31176D01*
X42233Y-31461D02*
X42068Y-31461D01*
X42038Y-31446D01*
X42023Y-31416D01*
X42023Y-31356D01*
X42038Y-31326D01*
X42218Y-31461D02*
X42233Y-31431D01*
X42233Y-31356D01*
X42218Y-31326D01*
X42188Y-31311D01*
X42158Y-31311D01*
X42128Y-31326D01*
X42113Y-31356D01*
X42113Y-31431D01*
X42098Y-31461D01*
X42023Y-31611D02*
X42338Y-31611D01*
X42038Y-31611D02*
X42023Y-31641D01*
X42023Y-31701D01*
X42038Y-31731D01*
X42053Y-31746D01*
X42083Y-31761D01*
X42173Y-31761D01*
X42203Y-31746D01*
X42218Y-31731D01*
X42233Y-31701D01*
X42233Y-31641D01*
X42218Y-31611D01*
X42023Y-31896D02*
X42338Y-31896D01*
X42038Y-31896D02*
X42023Y-31926D01*
X42023Y-31986D01*
X42038Y-32016D01*
X42053Y-32031D01*
X42083Y-32046D01*
X42173Y-32046D01*
X42203Y-32031D01*
X42218Y-32016D01*
X42233Y-31986D01*
X42233Y-31926D01*
X42218Y-31896D01*
X42233Y-32181D02*
X42023Y-32181D01*
X41918Y-32181D02*
X41933Y-32166D01*
X41948Y-32181D01*
X41933Y-32196D01*
X41918Y-32181D01*
X41948Y-32181D01*
X42023Y-32331D02*
X42233Y-32331D01*
X42053Y-32331D02*
X42038Y-32346D01*
X42023Y-32376D01*
X42023Y-32421D01*
X42038Y-32451D01*
X42068Y-32466D01*
X42233Y-32466D01*
X42023Y-32751D02*
X42278Y-32751D01*
X42308Y-32736D01*
X42323Y-32721D01*
X42338Y-32691D01*
X42338Y-32646D01*
X42323Y-32616D01*
X42218Y-32751D02*
X42233Y-32721D01*
X42233Y-32661D01*
X42218Y-32631D01*
X42203Y-32616D01*
X42173Y-32601D01*
X42083Y-32601D01*
X42053Y-32616D01*
X42038Y-32631D01*
X42023Y-32661D01*
X42023Y-32721D01*
X42038Y-32751D01*
X42752Y-29976D02*
X42437Y-29976D01*
X42752Y-30126D02*
X42437Y-30126D01*
X42752Y-30306D01*
X42437Y-30306D01*
X42437Y-30411D02*
X42437Y-30591D01*
X42752Y-30501D02*
X42437Y-30501D01*
X42722Y-30936D02*
X42737Y-30951D01*
X42752Y-30936D01*
X42737Y-30921D01*
X42722Y-30936D01*
X42752Y-30936D01*
X42557Y-30936D02*
X42572Y-30951D01*
X42587Y-30936D01*
X42572Y-30921D01*
X42557Y-30936D01*
X42587Y-30936D01*
X42752Y-31326D02*
X42437Y-31326D01*
X42437Y-31401D01*
X42452Y-31446D01*
X42482Y-31476D01*
X42512Y-31491D01*
X42572Y-31506D01*
X42617Y-31506D01*
X42677Y-31491D01*
X42707Y-31476D01*
X42737Y-31446D01*
X42752Y-31401D01*
X42752Y-31326D01*
X42467Y-31626D02*
X42452Y-31641D01*
X42437Y-31671D01*
X42437Y-31746D01*
X42452Y-31776D01*
X42467Y-31791D01*
X42497Y-31806D01*
X42527Y-31806D01*
X42572Y-31791D01*
X42752Y-31611D01*
X42752Y-31806D01*
X43257Y-29961D02*
X43272Y-30006D01*
X43272Y-30081D01*
X43257Y-30111D01*
X43242Y-30126D01*
X43212Y-30141D01*
X43182Y-30141D01*
X43152Y-30126D01*
X43137Y-30111D01*
X43122Y-30081D01*
X43107Y-30021D01*
X43092Y-29991D01*
X43077Y-29976D01*
X43047Y-29961D01*
X43017Y-29961D01*
X42987Y-29976D01*
X42972Y-29991D01*
X42957Y-30021D01*
X42957Y-30096D01*
X42972Y-30141D01*
X43257Y-30261D02*
X43272Y-30306D01*
X43272Y-30381D01*
X43257Y-30411D01*
X43242Y-30426D01*
X43212Y-30441D01*
X43182Y-30441D01*
X43152Y-30426D01*
X43137Y-30411D01*
X43122Y-30381D01*
X43107Y-30321D01*
X43092Y-30291D01*
X43077Y-30276D01*
X43047Y-30261D01*
X43017Y-30261D01*
X42987Y-30276D01*
X42972Y-30291D01*
X42957Y-30321D01*
X42957Y-30396D01*
X42972Y-30441D01*
X43242Y-30816D02*
X43257Y-30831D01*
X43272Y-30816D01*
X43257Y-30801D01*
X43242Y-30816D01*
X43272Y-30816D01*
X43077Y-30816D02*
X43092Y-30831D01*
X43107Y-30816D01*
X43092Y-30801D01*
X43077Y-30816D01*
X43107Y-30816D01*
X43272Y-31206D02*
X42957Y-31206D01*
X42957Y-31281D01*
X42972Y-31326D01*
X43002Y-31356D01*
X43032Y-31371D01*
X43092Y-31386D01*
X43137Y-31386D01*
X43197Y-31371D01*
X43227Y-31356D01*
X43257Y-31326D01*
X43272Y-31281D01*
X43272Y-31206D01*
X43272Y-31686D02*
X43272Y-31506D01*
X43272Y-31596D02*
X42957Y-31596D01*
X43002Y-31566D01*
X43032Y-31536D01*
X43047Y-31506D01*
X42957Y-31881D02*
X42957Y-31911D01*
X42972Y-31941D01*
X42987Y-31956D01*
X43017Y-31971D01*
X43077Y-31986D01*
X43152Y-31986D01*
X43212Y-31971D01*
X43242Y-31956D01*
X43257Y-31941D01*
X43272Y-31911D01*
X43272Y-31881D01*
X43257Y-31851D01*
X43242Y-31836D01*
X43212Y-31821D01*
X43152Y-31806D01*
X43077Y-31806D01*
X43017Y-31821D01*
X42987Y-31836D01*
X42972Y-31851D01*
X42957Y-31881D01*
X43792Y-29976D02*
X43477Y-29976D01*
X43702Y-30081D01*
X43477Y-30186D01*
X43792Y-30186D01*
X43477Y-30396D02*
X43477Y-30456D01*
X43492Y-30486D01*
X43522Y-30516D01*
X43582Y-30531D01*
X43687Y-30531D01*
X43747Y-30516D01*
X43777Y-30486D01*
X43792Y-30456D01*
X43792Y-30396D01*
X43777Y-30366D01*
X43747Y-30336D01*
X43687Y-30321D01*
X43582Y-30321D01*
X43522Y-30336D01*
X43492Y-30366D01*
X43477Y-30396D01*
X43777Y-30651D02*
X43792Y-30696D01*
X43792Y-30771D01*
X43777Y-30801D01*
X43762Y-30816D01*
X43732Y-30831D01*
X43702Y-30831D01*
X43672Y-30816D01*
X43657Y-30801D01*
X43642Y-30771D01*
X43627Y-30711D01*
X43612Y-30681D01*
X43597Y-30666D01*
X43567Y-30651D01*
X43537Y-30651D01*
X43507Y-30666D01*
X43492Y-30681D01*
X43477Y-30711D01*
X43477Y-30786D01*
X43492Y-30831D01*
X43792Y-30966D02*
X43477Y-30966D01*
X43762Y-31356D02*
X43777Y-31371D01*
X43792Y-31356D01*
X43777Y-31341D01*
X43762Y-31356D01*
X43792Y-31356D01*
X43597Y-31356D02*
X43612Y-31371D01*
X43627Y-31356D01*
X43612Y-31341D01*
X43597Y-31356D01*
X43627Y-31356D01*
X43792Y-31746D02*
X43477Y-31746D01*
X43477Y-31821D01*
X43492Y-31866D01*
X43522Y-31896D01*
X43552Y-31911D01*
X43612Y-31926D01*
X43657Y-31926D01*
X43717Y-31911D01*
X43747Y-31896D01*
X43777Y-31866D01*
X43792Y-31821D01*
X43792Y-31746D01*
X43792Y-32226D02*
X43792Y-32046D01*
X43792Y-32136D02*
X43477Y-32136D01*
X43522Y-32106D01*
X43552Y-32076D01*
X43567Y-32046D01*
X43792Y-32526D02*
X43792Y-32346D01*
X43792Y-32436D02*
X43477Y-32436D01*
X43522Y-32406D01*
X43552Y-32376D01*
X43567Y-32346D01*
X44311Y-29976D02*
X43996Y-29976D01*
X44221Y-30081D01*
X43996Y-30186D01*
X44311Y-30186D01*
X44311Y-30336D02*
X43996Y-30336D01*
X44296Y-30471D02*
X44311Y-30516D01*
X44311Y-30591D01*
X44296Y-30621D01*
X44281Y-30636D01*
X44251Y-30651D01*
X44221Y-30651D01*
X44191Y-30636D01*
X44176Y-30621D01*
X44161Y-30591D01*
X44146Y-30531D01*
X44131Y-30501D01*
X44116Y-30486D01*
X44086Y-30471D01*
X44056Y-30471D01*
X44026Y-30486D01*
X44011Y-30501D01*
X43996Y-30531D01*
X43996Y-30606D01*
X44011Y-30651D01*
X43996Y-30846D02*
X43996Y-30906D01*
X44011Y-30936D01*
X44041Y-30966D01*
X44101Y-30981D01*
X44206Y-30981D01*
X44266Y-30966D01*
X44296Y-30936D01*
X44311Y-30906D01*
X44311Y-30846D01*
X44296Y-30816D01*
X44266Y-30786D01*
X44206Y-30771D01*
X44101Y-30771D01*
X44041Y-30786D01*
X44011Y-30816D01*
X43996Y-30846D01*
X44281Y-31356D02*
X44296Y-31371D01*
X44311Y-31356D01*
X44296Y-31341D01*
X44281Y-31356D01*
X44311Y-31356D01*
X44116Y-31356D02*
X44131Y-31371D01*
X44146Y-31356D01*
X44131Y-31341D01*
X44116Y-31356D01*
X44146Y-31356D01*
X44311Y-31746D02*
X43996Y-31746D01*
X43996Y-31821D01*
X44011Y-31866D01*
X44041Y-31896D01*
X44071Y-31911D01*
X44131Y-31926D01*
X44176Y-31926D01*
X44236Y-31911D01*
X44266Y-31896D01*
X44296Y-31866D01*
X44311Y-31821D01*
X44311Y-31746D01*
X44311Y-32226D02*
X44311Y-32046D01*
X44311Y-32136D02*
X43996Y-32136D01*
X44041Y-32106D01*
X44071Y-32076D01*
X44086Y-32046D01*
X44026Y-32346D02*
X44011Y-32361D01*
X43996Y-32391D01*
X43996Y-32466D01*
X44011Y-32496D01*
X44026Y-32511D01*
X44056Y-32526D01*
X44086Y-32526D01*
X44131Y-32511D01*
X44311Y-32331D01*
X44311Y-32526D01*
X44816Y-29961D02*
X44831Y-30006D01*
X44831Y-30081D01*
X44816Y-30111D01*
X44801Y-30126D01*
X44771Y-30141D01*
X44741Y-30141D01*
X44711Y-30126D01*
X44696Y-30111D01*
X44681Y-30081D01*
X44666Y-30021D01*
X44651Y-29991D01*
X44636Y-29976D01*
X44606Y-29961D01*
X44576Y-29961D01*
X44546Y-29976D01*
X44531Y-29991D01*
X44516Y-30021D01*
X44516Y-30096D01*
X44531Y-30141D01*
X44801Y-30456D02*
X44816Y-30441D01*
X44831Y-30396D01*
X44831Y-30366D01*
X44816Y-30321D01*
X44786Y-30291D01*
X44756Y-30276D01*
X44696Y-30261D01*
X44651Y-30261D01*
X44591Y-30276D01*
X44561Y-30291D01*
X44531Y-30321D01*
X44516Y-30366D01*
X44516Y-30396D01*
X44531Y-30441D01*
X44546Y-30456D01*
X44831Y-30591D02*
X44516Y-30591D01*
X44831Y-30771D02*
X44651Y-30636D01*
X44516Y-30771D02*
X44696Y-30591D01*
X44801Y-31146D02*
X44816Y-31161D01*
X44831Y-31146D01*
X44816Y-31131D01*
X44801Y-31146D01*
X44831Y-31146D01*
X44636Y-31146D02*
X44651Y-31161D01*
X44666Y-31146D01*
X44651Y-31131D01*
X44636Y-31146D01*
X44666Y-31146D01*
X44831Y-31536D02*
X44516Y-31536D01*
X44516Y-31611D01*
X44531Y-31656D01*
X44561Y-31686D01*
X44591Y-31701D01*
X44651Y-31716D01*
X44696Y-31716D01*
X44756Y-31701D01*
X44786Y-31686D01*
X44816Y-31656D01*
X44831Y-31611D01*
X44831Y-31536D01*
X44831Y-32016D02*
X44831Y-31836D01*
X44831Y-31926D02*
X44516Y-31926D01*
X44561Y-31896D01*
X44591Y-31866D01*
X44606Y-31836D01*
X44516Y-32121D02*
X44516Y-32316D01*
X44636Y-32211D01*
X44636Y-32256D01*
X44651Y-32286D01*
X44666Y-32301D01*
X44696Y-32316D01*
X44771Y-32316D01*
X44801Y-32301D01*
X44816Y-32286D01*
X44831Y-32256D01*
X44831Y-32166D01*
X44816Y-32136D01*
X44801Y-32121D01*
X45186Y-29976D02*
X45186Y-30081D01*
X45351Y-30126D02*
X45351Y-29976D01*
X45036Y-29976D01*
X45036Y-30126D01*
X45141Y-30261D02*
X45351Y-30261D01*
X45171Y-30261D02*
X45156Y-30276D01*
X45141Y-30306D01*
X45141Y-30351D01*
X45156Y-30381D01*
X45186Y-30396D01*
X45351Y-30396D01*
X45351Y-30681D02*
X45186Y-30681D01*
X45156Y-30666D01*
X45141Y-30636D01*
X45141Y-30576D01*
X45156Y-30546D01*
X45336Y-30681D02*
X45351Y-30651D01*
X45351Y-30576D01*
X45336Y-30546D01*
X45306Y-30531D01*
X45276Y-30531D01*
X45246Y-30546D01*
X45231Y-30576D01*
X45231Y-30651D01*
X45216Y-30681D01*
X45351Y-30831D02*
X45036Y-30831D01*
X45156Y-30831D02*
X45141Y-30861D01*
X45141Y-30921D01*
X45156Y-30951D01*
X45171Y-30966D01*
X45201Y-30981D01*
X45291Y-30981D01*
X45321Y-30966D01*
X45336Y-30951D01*
X45351Y-30921D01*
X45351Y-30861D01*
X45336Y-30831D01*
X45351Y-31161D02*
X45336Y-31131D01*
X45306Y-31116D01*
X45036Y-31116D01*
X45336Y-31401D02*
X45351Y-31371D01*
X45351Y-31311D01*
X45336Y-31281D01*
X45306Y-31266D01*
X45186Y-31266D01*
X45156Y-31281D01*
X45141Y-31311D01*
X45141Y-31371D01*
X45156Y-31401D01*
X45186Y-31416D01*
X45216Y-31416D01*
X45246Y-31266D01*
X45351Y-31791D02*
X45036Y-31791D01*
X45141Y-31941D02*
X45351Y-31941D01*
X45171Y-31941D02*
X45156Y-31956D01*
X45141Y-31986D01*
X45141Y-32031D01*
X45156Y-32061D01*
X45186Y-32076D01*
X45351Y-32076D01*
X45141Y-32181D02*
X45141Y-32301D01*
X45036Y-32226D02*
X45306Y-32226D01*
X45336Y-32241D01*
X45351Y-32271D01*
X45351Y-32301D01*
X45336Y-32526D02*
X45351Y-32496D01*
X45351Y-32436D01*
X45336Y-32406D01*
X45306Y-32391D01*
X45186Y-32391D01*
X45156Y-32406D01*
X45141Y-32436D01*
X45141Y-32496D01*
X45156Y-32526D01*
X45186Y-32541D01*
X45216Y-32541D01*
X45246Y-32391D01*
X45351Y-32676D02*
X45141Y-32676D01*
X45201Y-32676D02*
X45171Y-32691D01*
X45156Y-32706D01*
X45141Y-32736D01*
X45141Y-32766D01*
X45141Y-33006D02*
X45351Y-33006D01*
X45141Y-32871D02*
X45306Y-32871D01*
X45336Y-32886D01*
X45351Y-32916D01*
X45351Y-32961D01*
X45336Y-32991D01*
X45321Y-33006D01*
X45141Y-33156D02*
X45456Y-33156D01*
X45156Y-33156D02*
X45141Y-33186D01*
X45141Y-33246D01*
X45156Y-33276D01*
X45171Y-33291D01*
X45201Y-33306D01*
X45291Y-33306D01*
X45321Y-33291D01*
X45336Y-33276D01*
X45351Y-33246D01*
X45351Y-33186D01*
X45336Y-33156D01*
X45141Y-33396D02*
X45141Y-33516D01*
X45036Y-33441D02*
X45306Y-33441D01*
X45336Y-33456D01*
X45351Y-33486D01*
X45351Y-33516D01*
X45321Y-33861D02*
X45336Y-33876D01*
X45351Y-33861D01*
X45336Y-33846D01*
X45321Y-33861D01*
X45351Y-33861D01*
X45156Y-33861D02*
X45171Y-33876D01*
X45186Y-33861D01*
X45171Y-33846D01*
X45156Y-33861D01*
X45186Y-33861D01*
X45261Y-34236D02*
X45261Y-34386D01*
X45351Y-34206D02*
X45036Y-34311D01*
X45351Y-34416D01*
X45066Y-34506D02*
X45051Y-34520D01*
X45036Y-34550D01*
X45036Y-34625D01*
X45051Y-34655D01*
X45066Y-34670D01*
X45096Y-34685D01*
X45126Y-34685D01*
X45171Y-34670D01*
X45351Y-34491D01*
X45351Y-34685D01*
X47568Y-41504D02*
X47583Y-41474D01*
X47583Y-41414D01*
X47568Y-41384D01*
X47538Y-41369D01*
X47418Y-41369D01*
X47388Y-41384D01*
X47373Y-41414D01*
X47373Y-41474D01*
X47388Y-41504D01*
X47418Y-41519D01*
X47448Y-41519D01*
X47478Y-41369D01*
X47373Y-41654D02*
X47583Y-41654D01*
X47403Y-41654D02*
X47388Y-41669D01*
X47373Y-41699D01*
X47373Y-41744D01*
X47388Y-41774D01*
X47418Y-41789D01*
X47583Y-41789D01*
X47613Y-41864D02*
X47613Y-42104D01*
X47583Y-42179D02*
X47268Y-42179D01*
X47583Y-42329D02*
X47268Y-42329D01*
X47583Y-42509D01*
X47268Y-42509D01*
X47268Y-42614D02*
X47268Y-42794D01*
X47583Y-42704D02*
X47268Y-42704D01*
X47680Y-41013D02*
X47635Y-41028D01*
X47560Y-41028D01*
X47530Y-41013D01*
X47515Y-40998D01*
X47500Y-40968D01*
X47500Y-40938D01*
X47515Y-40908D01*
X47530Y-40893D01*
X47560Y-40878D01*
X47620Y-40863D01*
X47650Y-40848D01*
X47665Y-40833D01*
X47680Y-40803D01*
X47680Y-40773D01*
X47665Y-40743D01*
X47650Y-40728D01*
X47620Y-40713D01*
X47545Y-40713D01*
X47500Y-40728D01*
X47380Y-41013D02*
X47335Y-41028D01*
X47260Y-41028D01*
X47230Y-41013D01*
X47215Y-40998D01*
X47200Y-40968D01*
X47200Y-40938D01*
X47215Y-40908D01*
X47230Y-40893D01*
X47260Y-40878D01*
X47320Y-40863D01*
X47350Y-40848D01*
X47365Y-40833D01*
X47380Y-40803D01*
X47380Y-40773D01*
X47365Y-40743D01*
X47350Y-40728D01*
X47320Y-40713D01*
X47245Y-40713D01*
X47200Y-40728D01*
X50633Y-41712D02*
X50663Y-41697D01*
X50708Y-41697D01*
X50753Y-41712D01*
X50783Y-41742D01*
X50798Y-41772D01*
X50813Y-41832D01*
X50813Y-41877D01*
X50798Y-41937D01*
X50783Y-41967D01*
X50753Y-41997D01*
X50708Y-42012D01*
X50678Y-42012D01*
X50633Y-41997D01*
X50618Y-41982D01*
X50618Y-41877D01*
X50678Y-41877D01*
X50483Y-42012D02*
X50483Y-41697D01*
X50303Y-42012D01*
X50303Y-41697D01*
X50153Y-42012D02*
X50153Y-41697D01*
X50078Y-41697D01*
X50033Y-41712D01*
X50003Y-41742D01*
X49988Y-41772D01*
X49973Y-41832D01*
X49973Y-41877D01*
X49988Y-41937D01*
X50003Y-41967D01*
X50033Y-41997D01*
X50078Y-42012D01*
X50153Y-42012D01*
X50678Y-41028D02*
X50678Y-40713D01*
X50528Y-41028D02*
X50528Y-40713D01*
X50348Y-41028D01*
X50348Y-40713D01*
X50243Y-40713D02*
X50063Y-40713D01*
X50153Y-41028D02*
X50153Y-40713D01*
X50798Y-39930D02*
X50753Y-39945D01*
X50678Y-39945D01*
X50648Y-39930D01*
X50633Y-39915D01*
X50618Y-39885D01*
X50618Y-39855D01*
X50633Y-39825D01*
X50648Y-39810D01*
X50678Y-39795D01*
X50738Y-39780D01*
X50768Y-39765D01*
X50783Y-39750D01*
X50798Y-39720D01*
X50798Y-39690D01*
X50783Y-39660D01*
X50768Y-39645D01*
X50738Y-39630D01*
X50663Y-39630D01*
X50618Y-39645D01*
X50303Y-39915D02*
X50318Y-39930D01*
X50363Y-39945D01*
X50393Y-39945D01*
X50438Y-39930D01*
X50468Y-39900D01*
X50483Y-39870D01*
X50498Y-39810D01*
X50498Y-39765D01*
X50483Y-39705D01*
X50468Y-39675D01*
X50438Y-39645D01*
X50393Y-39630D01*
X50363Y-39630D01*
X50318Y-39645D01*
X50303Y-39660D01*
X50168Y-39945D02*
X50168Y-39630D01*
X49988Y-39945D02*
X50123Y-39765D01*
X49988Y-39630D02*
X50168Y-39810D01*
X50888Y-39059D02*
X50888Y-38744D01*
X50783Y-38969D01*
X50678Y-38744D01*
X50678Y-39059D01*
X50468Y-38744D02*
X50408Y-38744D01*
X50378Y-38759D01*
X50348Y-38789D01*
X50333Y-38849D01*
X50333Y-38954D01*
X50348Y-39014D01*
X50378Y-39044D01*
X50408Y-39059D01*
X50468Y-39059D01*
X50498Y-39044D01*
X50528Y-39014D01*
X50543Y-38954D01*
X50543Y-38849D01*
X50528Y-38789D01*
X50498Y-38759D01*
X50468Y-38744D01*
X50213Y-39044D02*
X50168Y-39059D01*
X50093Y-39059D01*
X50063Y-39044D01*
X50048Y-39029D01*
X50033Y-38999D01*
X50033Y-38969D01*
X50048Y-38939D01*
X50063Y-38924D01*
X50093Y-38909D01*
X50153Y-38894D01*
X50183Y-38879D01*
X50198Y-38864D01*
X50213Y-38834D01*
X50213Y-38804D01*
X50198Y-38774D01*
X50183Y-38759D01*
X50153Y-38744D01*
X50078Y-38744D01*
X50033Y-38759D01*
X49898Y-39059D02*
X49898Y-38744D01*
X47739Y-40044D02*
X47739Y-39729D01*
X47634Y-39954D01*
X47529Y-39729D01*
X47529Y-40044D01*
X47379Y-40044D02*
X47379Y-39729D01*
X47244Y-40029D02*
X47199Y-40044D01*
X47124Y-40044D01*
X47094Y-40029D01*
X47079Y-40014D01*
X47064Y-39984D01*
X47064Y-39954D01*
X47079Y-39924D01*
X47094Y-39909D01*
X47124Y-39894D01*
X47184Y-39879D01*
X47214Y-39864D01*
X47229Y-39849D01*
X47244Y-39819D01*
X47244Y-39789D01*
X47229Y-39759D01*
X47214Y-39744D01*
X47184Y-39729D01*
X47109Y-39729D01*
X47064Y-39744D01*
X46869Y-39729D02*
X46809Y-39729D01*
X46779Y-39744D01*
X46749Y-39774D01*
X46734Y-39834D01*
X46734Y-39939D01*
X46749Y-39999D01*
X46779Y-40029D01*
X46809Y-40044D01*
X46869Y-40044D01*
X46899Y-40029D01*
X46929Y-39999D01*
X46944Y-39939D01*
X46944Y-39834D01*
X46929Y-39774D01*
X46899Y-39744D01*
X46869Y-39729D01*
X47485Y-38744D02*
X47635Y-38744D01*
X47650Y-38894D01*
X47635Y-38879D01*
X47605Y-38864D01*
X47530Y-38864D01*
X47500Y-38879D01*
X47485Y-38894D01*
X47470Y-38924D01*
X47470Y-38999D01*
X47485Y-39029D01*
X47500Y-39044D01*
X47530Y-39059D01*
X47605Y-39059D01*
X47635Y-39044D01*
X47650Y-39029D01*
X47365Y-38849D02*
X47290Y-39059D01*
X47215Y-38849D01*
X38822Y-36299D02*
X38852Y-36284D01*
X38897Y-36284D01*
X38942Y-36299D01*
X38972Y-36329D01*
X38987Y-36359D01*
X39002Y-36419D01*
X39002Y-36464D01*
X38987Y-36524D01*
X38972Y-36554D01*
X38942Y-36584D01*
X38897Y-36599D01*
X38867Y-36599D01*
X38822Y-36584D01*
X38807Y-36569D01*
X38807Y-36464D01*
X38867Y-36464D01*
X38672Y-36599D02*
X38672Y-36284D01*
X38492Y-36599D01*
X38492Y-36284D01*
X38342Y-36599D02*
X38342Y-36284D01*
X38267Y-36284D01*
X38222Y-36299D01*
X38192Y-36329D01*
X38177Y-36359D01*
X38162Y-36419D01*
X38162Y-36464D01*
X38177Y-36524D01*
X38192Y-36554D01*
X38222Y-36584D01*
X38267Y-36599D01*
X38342Y-36599D01*
X38642Y-37366D02*
X38792Y-37366D01*
X38807Y-37516D01*
X38792Y-37501D01*
X38762Y-37486D01*
X38687Y-37486D01*
X38657Y-37501D01*
X38642Y-37516D01*
X38627Y-37546D01*
X38627Y-37621D01*
X38642Y-37651D01*
X38657Y-37666D01*
X38687Y-37681D01*
X38762Y-37681D01*
X38792Y-37666D01*
X38807Y-37651D01*
X38537Y-37366D02*
X38432Y-37681D01*
X38327Y-37366D01*
X38965Y-38552D02*
X38920Y-38567D01*
X38845Y-38567D01*
X38815Y-38552D01*
X38800Y-38537D01*
X38785Y-38507D01*
X38785Y-38477D01*
X38800Y-38447D01*
X38815Y-38432D01*
X38845Y-38417D01*
X38905Y-38402D01*
X38935Y-38387D01*
X38950Y-38372D01*
X38965Y-38342D01*
X38965Y-38312D01*
X38950Y-38282D01*
X38935Y-38267D01*
X38905Y-38252D01*
X38830Y-38252D01*
X38785Y-38267D01*
X38650Y-38567D02*
X38650Y-38252D01*
X38575Y-38252D01*
X38530Y-38267D01*
X38500Y-38297D01*
X38485Y-38327D01*
X38470Y-38387D01*
X38470Y-38432D01*
X38485Y-38492D01*
X38500Y-38522D01*
X38530Y-38552D01*
X38575Y-38567D01*
X38650Y-38567D01*
X38350Y-38477D02*
X38200Y-38477D01*
X38380Y-38567D02*
X38275Y-38252D01*
X38170Y-38567D01*
X38957Y-39635D02*
X38912Y-39650D01*
X38837Y-39650D01*
X38807Y-39635D01*
X38792Y-39620D01*
X38777Y-39590D01*
X38777Y-39560D01*
X38792Y-39530D01*
X38807Y-39515D01*
X38837Y-39500D01*
X38897Y-39485D01*
X38927Y-39470D01*
X38942Y-39455D01*
X38957Y-39425D01*
X38957Y-39395D01*
X38942Y-39365D01*
X38927Y-39350D01*
X38897Y-39335D01*
X38822Y-39335D01*
X38777Y-39350D01*
X38462Y-39620D02*
X38477Y-39635D01*
X38522Y-39650D01*
X38552Y-39650D01*
X38597Y-39635D01*
X38627Y-39605D01*
X38642Y-39575D01*
X38657Y-39515D01*
X38657Y-39470D01*
X38642Y-39410D01*
X38627Y-39380D01*
X38597Y-39350D01*
X38552Y-39335D01*
X38522Y-39335D01*
X38477Y-39350D01*
X38462Y-39365D01*
X38177Y-39650D02*
X38327Y-39650D01*
X38327Y-39335D01*
X36344Y-38075D02*
X36344Y-37760D01*
X36194Y-37865D02*
X36194Y-38075D01*
X36194Y-37895D02*
X36179Y-37880D01*
X36149Y-37865D01*
X36104Y-37865D01*
X36074Y-37880D01*
X36059Y-37910D01*
X36059Y-38075D01*
X35909Y-37865D02*
X35909Y-38180D01*
X35909Y-37880D02*
X35879Y-37865D01*
X35819Y-37865D01*
X35789Y-37880D01*
X35774Y-37895D01*
X35759Y-37925D01*
X35759Y-38015D01*
X35774Y-38045D01*
X35789Y-38060D01*
X35819Y-38075D01*
X35879Y-38075D01*
X35909Y-38060D01*
X35489Y-37865D02*
X35489Y-38075D01*
X35624Y-37865D02*
X35624Y-38030D01*
X35609Y-38060D01*
X35579Y-38075D01*
X35534Y-38075D01*
X35504Y-38060D01*
X35489Y-38045D01*
X35384Y-37865D02*
X35264Y-37865D01*
X35339Y-37760D02*
X35339Y-38030D01*
X35324Y-38060D01*
X35294Y-38075D01*
X35264Y-38075D01*
X36562Y-32642D02*
X36502Y-32642D01*
X36472Y-32657D01*
X36442Y-32687D01*
X36427Y-32747D01*
X36427Y-32852D01*
X36442Y-32912D01*
X36472Y-32942D01*
X36502Y-32957D01*
X36562Y-32957D01*
X36592Y-32942D01*
X36622Y-32912D01*
X36637Y-32852D01*
X36637Y-32747D01*
X36622Y-32687D01*
X36592Y-32657D01*
X36562Y-32642D01*
X36157Y-32747D02*
X36157Y-32957D01*
X36292Y-32747D02*
X36292Y-32912D01*
X36277Y-32942D01*
X36247Y-32957D01*
X36202Y-32957D01*
X36172Y-32942D01*
X36157Y-32927D01*
X36052Y-32747D02*
X35932Y-32747D01*
X36007Y-32642D02*
X36007Y-32912D01*
X35992Y-32942D01*
X35962Y-32957D01*
X35932Y-32957D01*
X35827Y-32747D02*
X35827Y-33062D01*
X35827Y-32762D02*
X35797Y-32747D01*
X35737Y-32747D01*
X35707Y-32762D01*
X35692Y-32777D01*
X35677Y-32807D01*
X35677Y-32897D01*
X35692Y-32927D01*
X35707Y-32942D01*
X35737Y-32957D01*
X35797Y-32957D01*
X35827Y-32942D01*
X35407Y-32747D02*
X35407Y-32957D01*
X35542Y-32747D02*
X35542Y-32912D01*
X35527Y-32942D01*
X35497Y-32957D01*
X35452Y-32957D01*
X35422Y-32942D01*
X35407Y-32927D01*
X35302Y-32747D02*
X35182Y-32747D01*
X35257Y-32642D02*
X35257Y-32912D01*
X35242Y-32942D01*
X35212Y-32957D01*
X35182Y-32957D01*
X35063Y-38985D02*
X35018Y-39000D01*
X34943Y-39000D01*
X34913Y-38985D01*
X34898Y-38970D01*
X34883Y-38940D01*
X34883Y-38910D01*
X34898Y-38880D01*
X34913Y-38865D01*
X34943Y-38850D01*
X35003Y-38835D01*
X35033Y-38820D01*
X35048Y-38805D01*
X35063Y-38775D01*
X35063Y-38745D01*
X35048Y-38715D01*
X35033Y-38700D01*
X35003Y-38685D01*
X34928Y-38685D01*
X34883Y-38700D01*
X34793Y-38790D02*
X34673Y-38790D01*
X34748Y-38685D02*
X34748Y-38955D01*
X34733Y-38985D01*
X34703Y-39000D01*
X34673Y-39000D01*
X34448Y-38985D02*
X34478Y-39000D01*
X34538Y-39000D01*
X34568Y-38985D01*
X34583Y-38955D01*
X34583Y-38835D01*
X34568Y-38805D01*
X34538Y-38790D01*
X34478Y-38790D01*
X34448Y-38805D01*
X34433Y-38835D01*
X34433Y-38865D01*
X34583Y-38895D01*
X34298Y-38790D02*
X34298Y-39105D01*
X34298Y-38805D02*
X34268Y-38790D01*
X34208Y-38790D01*
X34178Y-38805D01*
X34163Y-38820D01*
X34148Y-38850D01*
X34148Y-38940D01*
X34163Y-38970D01*
X34178Y-38985D01*
X34208Y-39000D01*
X34268Y-39000D01*
X34298Y-38985D01*
X34940Y-39945D02*
X34940Y-39630D01*
X34865Y-39630D01*
X34820Y-39645D01*
X34790Y-39675D01*
X34775Y-39705D01*
X34760Y-39765D01*
X34760Y-39810D01*
X34775Y-39870D01*
X34790Y-39900D01*
X34820Y-39930D01*
X34865Y-39945D01*
X34940Y-39945D01*
X34625Y-39945D02*
X34625Y-39735D01*
X34625Y-39630D02*
X34640Y-39645D01*
X34625Y-39660D01*
X34610Y-39645D01*
X34625Y-39630D01*
X34625Y-39660D01*
X34475Y-39945D02*
X34475Y-39735D01*
X34475Y-39795D02*
X34460Y-39765D01*
X34445Y-39750D01*
X34415Y-39735D01*
X34385Y-39735D01*
X34993Y-40863D02*
X34888Y-40863D01*
X34843Y-41028D02*
X34993Y-41028D01*
X34993Y-40713D01*
X34843Y-40713D01*
X34708Y-40818D02*
X34708Y-41028D01*
X34708Y-40848D02*
X34693Y-40833D01*
X34663Y-40818D01*
X34618Y-40818D01*
X34588Y-40833D01*
X34573Y-40863D01*
X34573Y-41028D01*
X34887Y-41712D02*
X34917Y-41697D01*
X34962Y-41697D01*
X35007Y-41712D01*
X35037Y-41742D01*
X35052Y-41772D01*
X35067Y-41832D01*
X35067Y-41877D01*
X35052Y-41937D01*
X35037Y-41967D01*
X35007Y-41997D01*
X34962Y-42012D01*
X34932Y-42012D01*
X34887Y-41997D01*
X34872Y-41982D01*
X34872Y-41877D01*
X34932Y-41877D01*
X34737Y-41802D02*
X34737Y-42012D01*
X34737Y-41832D02*
X34722Y-41817D01*
X34692Y-41802D01*
X34647Y-41802D01*
X34617Y-41817D01*
X34602Y-41847D01*
X34602Y-42012D01*
X34317Y-42012D02*
X34317Y-41697D01*
X34317Y-41997D02*
X34347Y-42012D01*
X34407Y-42012D01*
X34437Y-41997D01*
X34452Y-41982D01*
X34467Y-41952D01*
X34467Y-41862D01*
X34452Y-41832D01*
X34437Y-41817D01*
X34407Y-41802D01*
X34347Y-41802D01*
X34317Y-41817D01*
X34848Y-36594D02*
X34878Y-36579D01*
X34923Y-36579D01*
X34968Y-36594D01*
X34998Y-36624D01*
X35013Y-36654D01*
X35028Y-36714D01*
X35028Y-36759D01*
X35013Y-36819D01*
X34998Y-36849D01*
X34968Y-36879D01*
X34923Y-36894D01*
X34893Y-36894D01*
X34848Y-36879D01*
X34833Y-36864D01*
X34833Y-36759D01*
X34893Y-36759D01*
X34698Y-36684D02*
X34698Y-36894D01*
X34698Y-36714D02*
X34683Y-36699D01*
X34653Y-36684D01*
X34608Y-36684D01*
X34578Y-36699D01*
X34563Y-36729D01*
X34563Y-36894D01*
X34278Y-36894D02*
X34278Y-36579D01*
X34278Y-36879D02*
X34308Y-36894D01*
X34368Y-36894D01*
X34398Y-36879D01*
X34413Y-36864D01*
X34428Y-36834D01*
X34428Y-36744D01*
X34413Y-36714D01*
X34398Y-36699D01*
X34368Y-36684D01*
X34308Y-36684D01*
X34278Y-36699D01*
X34954Y-35745D02*
X34849Y-35745D01*
X34804Y-35910D02*
X34954Y-35910D01*
X34954Y-35595D01*
X34804Y-35595D01*
X34669Y-35700D02*
X34669Y-35910D01*
X34669Y-35730D02*
X34654Y-35715D01*
X34624Y-35700D01*
X34579Y-35700D01*
X34549Y-35715D01*
X34534Y-35745D01*
X34534Y-35910D01*
X34900Y-34827D02*
X34900Y-34512D01*
X34825Y-34512D01*
X34780Y-34527D01*
X34750Y-34557D01*
X34735Y-34587D01*
X34720Y-34647D01*
X34720Y-34692D01*
X34735Y-34752D01*
X34750Y-34782D01*
X34780Y-34812D01*
X34825Y-34827D01*
X34900Y-34827D01*
X34585Y-34827D02*
X34585Y-34617D01*
X34585Y-34512D02*
X34600Y-34527D01*
X34585Y-34542D01*
X34570Y-34527D01*
X34585Y-34512D01*
X34585Y-34542D01*
X34435Y-34827D02*
X34435Y-34617D01*
X34435Y-34677D02*
X34420Y-34647D01*
X34405Y-34632D01*
X34375Y-34617D01*
X34345Y-34617D01*
X35103Y-33828D02*
X35058Y-33843D01*
X34983Y-33843D01*
X34953Y-33828D01*
X34938Y-33813D01*
X34923Y-33783D01*
X34923Y-33753D01*
X34938Y-33723D01*
X34953Y-33708D01*
X34983Y-33693D01*
X35043Y-33678D01*
X35073Y-33663D01*
X35088Y-33648D01*
X35103Y-33618D01*
X35103Y-33588D01*
X35088Y-33558D01*
X35073Y-33543D01*
X35043Y-33528D01*
X34968Y-33528D01*
X34923Y-33543D01*
X34833Y-33633D02*
X34713Y-33633D01*
X34788Y-33528D02*
X34788Y-33798D01*
X34773Y-33828D01*
X34743Y-33843D01*
X34713Y-33843D01*
X34488Y-33828D02*
X34518Y-33843D01*
X34578Y-33843D01*
X34608Y-33828D01*
X34623Y-33798D01*
X34623Y-33678D01*
X34608Y-33648D01*
X34578Y-33633D01*
X34518Y-33633D01*
X34488Y-33648D01*
X34473Y-33678D01*
X34473Y-33708D01*
X34623Y-33738D01*
X34338Y-33633D02*
X34338Y-33948D01*
X34338Y-33648D02*
X34308Y-33633D01*
X34248Y-33633D01*
X34218Y-33648D01*
X34203Y-33663D01*
X34188Y-33693D01*
X34188Y-33783D01*
X34203Y-33813D01*
X34218Y-33828D01*
X34248Y-33843D01*
X34308Y-33843D01*
X34338Y-33828D01*
G54D10*
X44409Y-38976D02*
G75*
G02X44881Y-38503I472J0D01*
G74*
G01*
X44881Y-38976D02*
X44881Y-36614D01*
X44881Y-36614D02*
X42519Y-36614D01*
X42519Y-36614D02*
X42519Y-38976D01*
X42519Y-38976D02*
X44881Y-38976D01*
X43501Y-35801D02*
X43915Y-35801D01*
X43915Y-35801D02*
X43915Y-36411D01*
X43915Y-36411D02*
X43501Y-36411D01*
X43501Y-35801D02*
X43501Y-36411D01*
X44677Y-36417D02*
X44677Y-35314D01*
X44677Y-35314D02*
X45385Y-35314D01*
X45385Y-35314D02*
X45385Y-36417D01*
X45385Y-36417D02*
X44677Y-36417D01*
X44537Y-35639D02*
X44537Y-36407D01*
X44537Y-36407D02*
X44045Y-36407D01*
X44045Y-36407D02*
X44045Y-35639D01*
X44045Y-35639D02*
X44537Y-35639D01*
X45024Y-39115D02*
X45024Y-39433D01*
X45005Y-39471D01*
X44986Y-39490D01*
X44949Y-39508D01*
X44874Y-39508D01*
X44836Y-39490D01*
X44818Y-39471D01*
X44799Y-39433D01*
X44799Y-39115D01*
X44649Y-39115D02*
X44405Y-39115D01*
X44536Y-39265D01*
X44480Y-39265D01*
X44443Y-39283D01*
X44424Y-39302D01*
X44405Y-39340D01*
X44405Y-39433D01*
X44424Y-39471D01*
X44443Y-39490D01*
X44480Y-39508D01*
X44593Y-39508D01*
X44630Y-39490D01*
X44649Y-39471D01*
X42191Y-36595D02*
X42191Y-36782D01*
X42304Y-36557D02*
X41910Y-36689D01*
X42304Y-36820D01*
X42285Y-36932D02*
X42304Y-36989D01*
X42304Y-37082D01*
X42285Y-37120D01*
X42266Y-37139D01*
X42229Y-37157D01*
X42191Y-37157D01*
X42154Y-37139D01*
X42135Y-37120D01*
X42116Y-37082D01*
X42097Y-37007D01*
X42079Y-36970D01*
X42060Y-36951D01*
X42022Y-36932D01*
X41985Y-36932D01*
X41947Y-36951D01*
X41929Y-36970D01*
X41910Y-37007D01*
X41910Y-37101D01*
X41929Y-37157D01*
X41910Y-37514D02*
X41910Y-37326D01*
X42097Y-37307D01*
X42079Y-37326D01*
X42060Y-37364D01*
X42060Y-37457D01*
X42079Y-37495D01*
X42097Y-37514D01*
X42135Y-37532D01*
X42229Y-37532D01*
X42266Y-37514D01*
X42285Y-37495D01*
X42304Y-37457D01*
X42304Y-37364D01*
X42285Y-37326D01*
X42266Y-37307D01*
X41910Y-37776D02*
X41910Y-37814D01*
X41929Y-37851D01*
X41947Y-37870D01*
X41985Y-37889D01*
X42060Y-37907D01*
X42154Y-37907D01*
X42229Y-37889D01*
X42266Y-37870D01*
X42285Y-37851D01*
X42304Y-37814D01*
X42304Y-37776D01*
X42285Y-37739D01*
X42266Y-37720D01*
X42229Y-37701D01*
X42154Y-37682D01*
X42060Y-37682D01*
X41985Y-37701D01*
X41947Y-37720D01*
X41929Y-37739D01*
X41910Y-37776D01*
X41910Y-38263D02*
X41910Y-38076D01*
X42097Y-38057D01*
X42079Y-38076D01*
X42060Y-38113D01*
X42060Y-38207D01*
X42079Y-38245D01*
X42097Y-38263D01*
X42135Y-38282D01*
X42229Y-38282D01*
X42266Y-38263D01*
X42285Y-38245D01*
X42304Y-38207D01*
X42304Y-38113D01*
X42285Y-38076D01*
X42266Y-38057D01*
X41910Y-38638D02*
X41910Y-38451D01*
X42097Y-38432D01*
X42079Y-38451D01*
X42060Y-38488D01*
X42060Y-38582D01*
X42079Y-38620D01*
X42097Y-38638D01*
X42135Y-38657D01*
X42229Y-38657D01*
X42266Y-38638D01*
X42285Y-38620D01*
X42304Y-38582D01*
X42304Y-38488D01*
X42285Y-38451D01*
X42266Y-38432D01*
X42191Y-38807D02*
X42191Y-38995D01*
X42304Y-38770D02*
X41910Y-38901D01*
X42304Y-39032D01*
G54D12*
X43740Y-35692D02*
X43746Y-35698D01*
X43763Y-35703D01*
X43774Y-35703D01*
X43791Y-35698D01*
X43803Y-35686D01*
X43809Y-35675D01*
X43814Y-35652D01*
X43814Y-35635D01*
X43809Y-35612D01*
X43803Y-35601D01*
X43791Y-35589D01*
X43774Y-35583D01*
X43763Y-35583D01*
X43746Y-35589D01*
X43740Y-35595D01*
X43700Y-35583D02*
X43626Y-35583D01*
X43666Y-35629D01*
X43649Y-35629D01*
X43637Y-35635D01*
X43631Y-35641D01*
X43626Y-35652D01*
X43626Y-35681D01*
X43631Y-35692D01*
X43637Y-35698D01*
X43649Y-35703D01*
X43683Y-35703D01*
X43694Y-35698D01*
X43700Y-35692D01*
G54D13*
X45673Y-35836D02*
X45683Y-35827D01*
X45692Y-35801D01*
X45692Y-35784D01*
X45683Y-35758D01*
X45664Y-35741D01*
X45645Y-35733D01*
X45607Y-35724D01*
X45578Y-35724D01*
X45540Y-35733D01*
X45521Y-35741D01*
X45502Y-35758D01*
X45492Y-35784D01*
X45492Y-35801D01*
X45502Y-35827D01*
X45511Y-35836D01*
X45559Y-35990D02*
X45692Y-35990D01*
X45483Y-35947D02*
X45626Y-35904D01*
X45626Y-36016D01*
G54D12*
X44311Y-35526D02*
X44351Y-35469D01*
X44379Y-35526D02*
X44379Y-35406D01*
X44334Y-35406D01*
X44322Y-35412D01*
X44317Y-35418D01*
X44311Y-35429D01*
X44311Y-35446D01*
X44317Y-35458D01*
X44322Y-35463D01*
X44334Y-35469D01*
X44379Y-35469D01*
X44271Y-35406D02*
X44191Y-35406D01*
X44242Y-35526D01*
M02*
