%FSLAX34Y34*%
G04 Gerber Fmt 3.4, Leading zero omitted, Abs format*
G04 (created by PCBNEW (2014-03-19 BZR 4756)-product) date Sun 01 Jun 2014 22:24:43 BST*
%MOIN*%
G01*
G70*
G90*
G04 APERTURE LIST*
%ADD10C,0.005906*%
%ADD11C,0.007874*%
%ADD12C,0.011811*%
%ADD13C,0.019685*%
%ADD14R,0.015700X0.011800*%
%ADD15R,0.011800X0.015700*%
%ADD16R,0.068000X0.068000*%
%ADD17O,0.068000X0.068000*%
%ADD18R,0.080000X0.068000*%
%ADD19O,0.080000X0.068000*%
%ADD20R,0.015700X0.023600*%
%ADD21R,0.023600X0.015700*%
%ADD22C,0.055000*%
%ADD23R,0.055000X0.055000*%
%ADD24R,0.025000X0.045000*%
%ADD25R,0.080000X0.080000*%
%ADD26O,0.080000X0.080000*%
%ADD27R,0.133900X0.133900*%
%ADD28C,0.035000*%
%ADD29C,0.010000*%
%ADD30C,0.007087*%
G04 APERTURE END LIST*
G54D10*
G54D11*
X48815Y-30079D02*
X48815Y-29764D01*
X48995Y-30079D01*
X48995Y-29764D01*
X49265Y-30064D02*
X49235Y-30079D01*
X49175Y-30079D01*
X49145Y-30064D01*
X49130Y-30034D01*
X49130Y-29914D01*
X49145Y-29884D01*
X49175Y-29869D01*
X49235Y-29869D01*
X49265Y-29884D01*
X49280Y-29914D01*
X49280Y-29944D01*
X49130Y-29974D01*
X49415Y-30079D02*
X49415Y-29869D01*
X49415Y-29899D02*
X49430Y-29884D01*
X49460Y-29869D01*
X49505Y-29869D01*
X49535Y-29884D01*
X49550Y-29914D01*
X49550Y-30079D01*
X49550Y-29914D02*
X49565Y-29884D01*
X49595Y-29869D01*
X49640Y-29869D01*
X49670Y-29884D01*
X49685Y-29914D01*
X49685Y-30079D01*
X49970Y-30079D02*
X49970Y-29914D01*
X49955Y-29884D01*
X49925Y-29869D01*
X49865Y-29869D01*
X49835Y-29884D01*
X49970Y-30064D02*
X49940Y-30079D01*
X49865Y-30079D01*
X49835Y-30064D01*
X49820Y-30034D01*
X49820Y-30004D01*
X49835Y-29974D01*
X49865Y-29959D01*
X49940Y-29959D01*
X49970Y-29944D01*
X50524Y-30079D02*
X50344Y-30079D01*
X50434Y-30079D02*
X50434Y-29764D01*
X50404Y-29809D01*
X50374Y-29839D01*
X50344Y-29854D01*
X50629Y-29764D02*
X50839Y-29764D01*
X50704Y-30079D01*
X48815Y-30599D02*
X48815Y-30389D01*
X48815Y-30419D02*
X48830Y-30404D01*
X48860Y-30389D01*
X48905Y-30389D01*
X48935Y-30404D01*
X48950Y-30434D01*
X48950Y-30599D01*
X48950Y-30434D02*
X48965Y-30404D01*
X48995Y-30389D01*
X49040Y-30389D01*
X49070Y-30404D01*
X49085Y-30434D01*
X49085Y-30599D01*
X49280Y-30599D02*
X49250Y-30584D01*
X49235Y-30569D01*
X49220Y-30539D01*
X49220Y-30449D01*
X49235Y-30419D01*
X49250Y-30404D01*
X49280Y-30389D01*
X49325Y-30389D01*
X49355Y-30404D01*
X49370Y-30419D01*
X49385Y-30449D01*
X49385Y-30539D01*
X49370Y-30569D01*
X49355Y-30584D01*
X49325Y-30599D01*
X49280Y-30599D01*
X49655Y-30389D02*
X49655Y-30599D01*
X49520Y-30389D02*
X49520Y-30554D01*
X49535Y-30584D01*
X49565Y-30599D01*
X49610Y-30599D01*
X49640Y-30584D01*
X49655Y-30569D01*
X49805Y-30389D02*
X49805Y-30599D01*
X49805Y-30419D02*
X49820Y-30404D01*
X49850Y-30389D01*
X49895Y-30389D01*
X49925Y-30404D01*
X49940Y-30434D01*
X49940Y-30599D01*
X50044Y-30389D02*
X50164Y-30389D01*
X50089Y-30284D02*
X50089Y-30554D01*
X50104Y-30584D01*
X50134Y-30599D01*
X50164Y-30599D01*
X50269Y-30599D02*
X50269Y-30389D01*
X50269Y-30284D02*
X50254Y-30299D01*
X50269Y-30314D01*
X50284Y-30299D01*
X50269Y-30284D01*
X50269Y-30314D01*
X50419Y-30389D02*
X50419Y-30599D01*
X50419Y-30419D02*
X50434Y-30404D01*
X50464Y-30389D01*
X50509Y-30389D01*
X50539Y-30404D01*
X50554Y-30434D01*
X50554Y-30599D01*
X50839Y-30389D02*
X50839Y-30644D01*
X50824Y-30674D01*
X50809Y-30689D01*
X50779Y-30704D01*
X50734Y-30704D01*
X50704Y-30689D01*
X50839Y-30584D02*
X50809Y-30599D01*
X50749Y-30599D01*
X50719Y-30584D01*
X50704Y-30569D01*
X50689Y-30539D01*
X50689Y-30449D01*
X50704Y-30419D01*
X50719Y-30404D01*
X50749Y-30389D01*
X50809Y-30389D01*
X50839Y-30404D01*
G54D12*
X36895Y-45778D02*
X36557Y-45778D01*
X36726Y-45778D02*
X36726Y-45188D01*
X36670Y-45272D01*
X36614Y-45329D01*
X36557Y-45357D01*
X37260Y-45188D02*
X37317Y-45188D01*
X37373Y-45216D01*
X37401Y-45244D01*
X37429Y-45300D01*
X37457Y-45413D01*
X37457Y-45553D01*
X37429Y-45666D01*
X37401Y-45722D01*
X37373Y-45750D01*
X37317Y-45778D01*
X37260Y-45778D01*
X37204Y-45750D01*
X37176Y-45722D01*
X37148Y-45666D01*
X37120Y-45553D01*
X37120Y-45413D01*
X37148Y-45300D01*
X37176Y-45244D01*
X37204Y-45216D01*
X37260Y-45188D01*
X37626Y-45385D02*
X37851Y-45385D01*
X37710Y-45188D02*
X37710Y-45694D01*
X37739Y-45750D01*
X37795Y-45778D01*
X37851Y-45778D01*
X38132Y-45778D02*
X38076Y-45750D01*
X38048Y-45722D01*
X38020Y-45666D01*
X38020Y-45497D01*
X38048Y-45441D01*
X38076Y-45413D01*
X38132Y-45385D01*
X38217Y-45385D01*
X38273Y-45413D01*
X38301Y-45441D01*
X38329Y-45497D01*
X38329Y-45666D01*
X38301Y-45722D01*
X38273Y-45750D01*
X38217Y-45778D01*
X38132Y-45778D01*
X38526Y-45188D02*
X38920Y-45188D01*
X38667Y-45778D01*
X39145Y-45722D02*
X39173Y-45750D01*
X39145Y-45778D01*
X39116Y-45750D01*
X39145Y-45722D01*
X39145Y-45778D01*
X39679Y-45750D02*
X39623Y-45778D01*
X39510Y-45778D01*
X39454Y-45750D01*
X39426Y-45722D01*
X39398Y-45666D01*
X39398Y-45497D01*
X39426Y-45441D01*
X39454Y-45413D01*
X39510Y-45385D01*
X39623Y-45385D01*
X39679Y-45413D01*
X40016Y-45778D02*
X39960Y-45750D01*
X39932Y-45722D01*
X39904Y-45666D01*
X39904Y-45497D01*
X39932Y-45441D01*
X39960Y-45413D01*
X40016Y-45385D01*
X40101Y-45385D01*
X40157Y-45413D01*
X40185Y-45441D01*
X40213Y-45497D01*
X40213Y-45666D01*
X40185Y-45722D01*
X40157Y-45750D01*
X40101Y-45778D01*
X40016Y-45778D01*
X40466Y-45778D02*
X40466Y-45385D01*
X40466Y-45441D02*
X40494Y-45413D01*
X40551Y-45385D01*
X40635Y-45385D01*
X40691Y-45413D01*
X40719Y-45469D01*
X40719Y-45778D01*
X40719Y-45469D02*
X40748Y-45413D01*
X40804Y-45385D01*
X40888Y-45385D01*
X40944Y-45413D01*
X40973Y-45469D01*
X40973Y-45778D01*
G54D10*
G36*
X41751Y-43149D02*
X41870Y-43149D01*
X41870Y-43779D01*
X41751Y-43779D01*
X41751Y-43149D01*
X41751Y-43149D01*
G37*
G36*
X41978Y-43149D02*
X42096Y-43149D01*
X42096Y-43779D01*
X41978Y-43779D01*
X41978Y-43149D01*
X41978Y-43149D01*
G37*
G36*
X42234Y-43149D02*
X42352Y-43149D01*
X42352Y-43779D01*
X42234Y-43779D01*
X42234Y-43149D01*
X42234Y-43149D01*
G37*
G36*
X42490Y-43149D02*
X42608Y-43149D01*
X42608Y-43779D01*
X42490Y-43779D01*
X42490Y-43149D01*
X42490Y-43149D01*
G37*
G36*
X42746Y-43149D02*
X42864Y-43149D01*
X42864Y-43779D01*
X42746Y-43779D01*
X42746Y-43149D01*
X42746Y-43149D01*
G37*
G36*
X43001Y-43149D02*
X43120Y-43149D01*
X43120Y-43779D01*
X43001Y-43779D01*
X43001Y-43149D01*
X43001Y-43149D01*
G37*
G36*
X44025Y-40709D02*
X44143Y-40709D01*
X44143Y-41339D01*
X44025Y-41339D01*
X44025Y-40709D01*
X44025Y-40709D01*
G37*
G36*
X43769Y-40709D02*
X43887Y-40709D01*
X43887Y-41339D01*
X43769Y-41339D01*
X43769Y-40709D01*
X43769Y-40709D01*
G37*
G36*
X43513Y-40709D02*
X43631Y-40709D01*
X43631Y-41339D01*
X43513Y-41339D01*
X43513Y-40709D01*
X43513Y-40709D01*
G37*
G36*
X43257Y-40709D02*
X43375Y-40709D01*
X43375Y-41339D01*
X43257Y-41339D01*
X43257Y-40709D01*
X43257Y-40709D01*
G37*
G36*
X43257Y-43149D02*
X43375Y-43149D01*
X43375Y-43779D01*
X43257Y-43779D01*
X43257Y-43149D01*
X43257Y-43149D01*
G37*
G36*
X43513Y-43149D02*
X43631Y-43149D01*
X43631Y-43779D01*
X43513Y-43779D01*
X43513Y-43149D01*
X43513Y-43149D01*
G37*
G36*
X43769Y-43149D02*
X43887Y-43149D01*
X43887Y-43779D01*
X43769Y-43779D01*
X43769Y-43149D01*
X43769Y-43149D01*
G37*
G36*
X44025Y-43149D02*
X44143Y-43149D01*
X44143Y-43779D01*
X44025Y-43779D01*
X44025Y-43149D01*
X44025Y-43149D01*
G37*
G36*
X43001Y-40709D02*
X43120Y-40709D01*
X43120Y-41339D01*
X43001Y-41339D01*
X43001Y-40709D01*
X43001Y-40709D01*
G37*
G36*
X42746Y-40709D02*
X42864Y-40709D01*
X42864Y-41339D01*
X42746Y-41339D01*
X42746Y-40709D01*
X42746Y-40709D01*
G37*
G36*
X42490Y-40709D02*
X42608Y-40709D01*
X42608Y-41339D01*
X42490Y-41339D01*
X42490Y-40709D01*
X42490Y-40709D01*
G37*
G36*
X42234Y-40709D02*
X42352Y-40709D01*
X42352Y-41339D01*
X42234Y-41339D01*
X42234Y-40709D01*
X42234Y-40709D01*
G37*
G36*
X41978Y-40709D02*
X42096Y-40709D01*
X42096Y-41339D01*
X41978Y-41339D01*
X41978Y-40709D01*
X41978Y-40709D01*
G37*
G36*
X41722Y-40709D02*
X41840Y-40709D01*
X41840Y-41339D01*
X41722Y-41339D01*
X41722Y-40709D01*
X41722Y-40709D01*
G37*
G54D13*
X43937Y-37559D03*
X43464Y-37559D03*
X43464Y-38031D03*
X43937Y-38031D03*
G54D14*
X43011Y-40275D03*
X43011Y-40039D03*
G54D15*
X42834Y-44311D03*
X43070Y-44311D03*
G54D16*
X48318Y-38854D03*
G54D17*
X49318Y-38854D03*
X48318Y-39854D03*
X49318Y-39854D03*
X48318Y-40854D03*
X49318Y-40854D03*
X48318Y-41854D03*
X49318Y-41854D03*
G54D18*
X37401Y-39492D03*
G54D19*
X37401Y-38492D03*
X37401Y-37492D03*
X37401Y-36492D03*
G54D18*
X35826Y-33736D03*
G54D19*
X35826Y-34736D03*
X35826Y-35736D03*
X35826Y-36736D03*
G54D18*
X35826Y-38854D03*
G54D19*
X35826Y-39854D03*
X35826Y-40854D03*
X35826Y-41854D03*
G54D20*
X52145Y-30511D03*
X51791Y-30511D03*
X52145Y-32874D03*
X51791Y-32874D03*
X52145Y-31692D03*
X51791Y-31692D03*
X41240Y-39881D03*
X41594Y-39881D03*
G54D21*
X41240Y-40866D03*
X41240Y-41220D03*
G54D20*
X45196Y-41889D03*
X44842Y-41889D03*
G54D22*
X54295Y-42484D03*
X54295Y-44484D03*
X51295Y-42484D03*
X51295Y-44484D03*
X54295Y-38625D03*
X54295Y-40625D03*
X51295Y-38625D03*
X51295Y-40625D03*
X54295Y-34767D03*
X54295Y-36767D03*
X51295Y-34767D03*
X51295Y-36767D03*
X46102Y-44035D03*
X40196Y-43035D03*
X40196Y-42035D03*
X40196Y-41035D03*
X40196Y-40035D03*
X40196Y-39035D03*
X40196Y-38035D03*
X40196Y-37035D03*
X40196Y-36035D03*
X40196Y-35035D03*
X40196Y-34035D03*
X40196Y-33035D03*
X40196Y-32035D03*
X40196Y-31035D03*
X40196Y-30035D03*
G54D23*
X46102Y-30035D03*
G54D22*
X46102Y-31035D03*
X46102Y-32035D03*
X46102Y-33035D03*
X46102Y-34035D03*
X46102Y-35035D03*
X46102Y-36035D03*
X46102Y-37035D03*
X46102Y-38035D03*
X46102Y-39035D03*
X46102Y-40035D03*
X46102Y-41035D03*
X46102Y-42035D03*
X46102Y-43035D03*
X40196Y-44035D03*
G54D24*
X53243Y-30511D03*
X53843Y-30511D03*
X53243Y-31692D03*
X53843Y-31692D03*
X53243Y-32874D03*
X53843Y-32874D03*
G54D25*
X47755Y-34007D03*
G54D26*
X47755Y-35007D03*
G54D27*
X35826Y-31692D03*
X49803Y-31692D03*
X49803Y-43897D03*
X35826Y-43897D03*
G54D25*
X37401Y-31917D03*
G54D26*
X37401Y-30917D03*
G54D28*
X45227Y-37510D03*
X48008Y-33001D03*
X42704Y-42870D03*
X44144Y-40409D03*
X43996Y-39401D03*
X44016Y-39851D03*
X43473Y-40416D03*
X42958Y-36806D03*
X45008Y-38388D03*
G54D29*
X40196Y-31035D02*
X43696Y-34535D01*
X43696Y-34535D02*
X46210Y-34535D01*
X46210Y-34535D02*
X46527Y-34852D01*
X46527Y-34852D02*
X46527Y-37211D01*
X46527Y-37211D02*
X46228Y-37510D01*
X46228Y-37510D02*
X45227Y-37510D01*
X45227Y-37510D02*
X45108Y-37510D01*
X45108Y-37510D02*
X42783Y-39836D01*
X42783Y-39836D02*
X42783Y-40275D01*
X43011Y-40275D02*
X42783Y-40275D01*
X43011Y-40275D02*
X43011Y-40484D01*
X43011Y-41024D02*
X43061Y-41024D01*
X42805Y-41024D02*
X43011Y-41024D01*
X43011Y-41024D02*
X43011Y-40484D01*
X38614Y-31917D02*
X39496Y-31035D01*
X39496Y-31035D02*
X40196Y-31035D01*
X37401Y-31917D02*
X38614Y-31917D01*
X35826Y-36736D02*
X35826Y-37226D01*
X35826Y-41854D02*
X35826Y-41364D01*
X35826Y-41364D02*
X35581Y-41364D01*
X35581Y-41364D02*
X35276Y-41059D01*
X35276Y-41059D02*
X35276Y-37776D01*
X35276Y-37776D02*
X35826Y-37226D01*
X45802Y-38706D02*
X44968Y-39540D01*
X44968Y-39540D02*
X44968Y-41496D01*
X44968Y-41496D02*
X44842Y-41621D01*
X47755Y-34007D02*
X47205Y-34557D01*
X47205Y-34557D02*
X47205Y-37533D01*
X47205Y-37533D02*
X46133Y-38605D01*
X46133Y-38605D02*
X45903Y-38605D01*
X45903Y-38605D02*
X45802Y-38706D01*
X43011Y-40039D02*
X43011Y-39890D01*
X43011Y-39890D02*
X44847Y-38054D01*
X44847Y-38054D02*
X45149Y-38054D01*
X45149Y-38054D02*
X45802Y-38706D01*
X44842Y-41889D02*
X44842Y-41621D01*
X41835Y-41671D02*
X42054Y-41889D01*
X42054Y-41889D02*
X44614Y-41889D01*
X41594Y-39881D02*
X41594Y-40150D01*
X44842Y-41889D02*
X44614Y-41889D01*
X42834Y-44311D02*
X42834Y-44082D01*
X42805Y-43940D02*
X42805Y-43464D01*
X42834Y-44082D02*
X42805Y-44052D01*
X42805Y-44052D02*
X42805Y-43940D01*
X40632Y-42874D02*
X41698Y-43940D01*
X41698Y-43940D02*
X42805Y-43940D01*
X40632Y-42874D02*
X40471Y-43035D01*
X40471Y-43035D02*
X40196Y-43035D01*
X41835Y-41671D02*
X40632Y-42874D01*
X41835Y-41671D02*
X41508Y-41343D01*
X41508Y-41343D02*
X41508Y-41220D01*
X35826Y-36736D02*
X36607Y-36736D01*
X36607Y-36736D02*
X36851Y-36492D01*
X41240Y-41220D02*
X41508Y-41220D01*
X41594Y-40150D02*
X41508Y-40236D01*
X41508Y-40236D02*
X41508Y-41220D01*
X37401Y-36492D02*
X36851Y-36492D01*
X43279Y-44311D02*
X43429Y-44461D01*
X43429Y-44461D02*
X47169Y-44461D01*
X47169Y-44461D02*
X48946Y-42684D01*
X48946Y-42684D02*
X51095Y-42684D01*
X51095Y-42684D02*
X51295Y-42484D01*
X54295Y-38625D02*
X51295Y-38625D01*
X51295Y-38625D02*
X51033Y-38364D01*
X51033Y-38364D02*
X49115Y-38364D01*
X49115Y-38364D02*
X48809Y-38670D01*
X48809Y-38670D02*
X48809Y-38854D01*
X43070Y-44311D02*
X43279Y-44311D01*
X54295Y-42484D02*
X51295Y-42484D01*
X43070Y-44311D02*
X43070Y-44539D01*
X40196Y-41035D02*
X39769Y-41462D01*
X39769Y-41462D02*
X39769Y-43220D01*
X39769Y-43220D02*
X40083Y-43535D01*
X40083Y-43535D02*
X40309Y-43535D01*
X40309Y-43535D02*
X41313Y-44539D01*
X41313Y-44539D02*
X43070Y-44539D01*
X53843Y-34315D02*
X54295Y-34767D01*
X53843Y-32874D02*
X53843Y-34315D01*
X53843Y-34315D02*
X51747Y-34315D01*
X51747Y-34315D02*
X51295Y-34767D01*
X48318Y-38854D02*
X48809Y-38854D01*
X43070Y-44311D02*
X43070Y-44082D01*
X43061Y-43464D02*
X43061Y-44072D01*
X43061Y-44072D02*
X43070Y-44082D01*
X53843Y-31692D02*
X53843Y-32874D01*
X53843Y-31692D02*
X53843Y-30511D01*
X53243Y-30511D02*
X52145Y-30511D01*
X53243Y-31692D02*
X52145Y-31692D01*
X49318Y-39344D02*
X49502Y-39344D01*
X49502Y-39344D02*
X50019Y-39861D01*
X50019Y-39861D02*
X50019Y-41847D01*
X50019Y-41847D02*
X49483Y-42384D01*
X49483Y-42384D02*
X48963Y-42384D01*
X48963Y-42384D02*
X48312Y-43035D01*
X48312Y-43035D02*
X46102Y-43035D01*
X49318Y-38854D02*
X49318Y-39344D01*
X46102Y-43035D02*
X46065Y-42999D01*
X46065Y-42999D02*
X44084Y-42999D01*
X44084Y-43464D02*
X44084Y-42999D01*
X43828Y-43464D02*
X43828Y-43929D01*
X46102Y-44035D02*
X43935Y-44035D01*
X43935Y-44035D02*
X43828Y-43929D01*
X49318Y-40344D02*
X49502Y-40344D01*
X49502Y-40344D02*
X49813Y-40655D01*
X49813Y-40655D02*
X49813Y-41065D01*
X49813Y-41065D02*
X49524Y-41354D01*
X49524Y-41354D02*
X49090Y-41354D01*
X49090Y-41354D02*
X48818Y-41626D01*
X48818Y-41626D02*
X48818Y-42051D01*
X48818Y-42051D02*
X48331Y-42538D01*
X48331Y-42538D02*
X45997Y-42538D01*
X45997Y-42538D02*
X45768Y-42767D01*
X45768Y-42767D02*
X43933Y-42767D01*
X43933Y-42767D02*
X43572Y-43128D01*
X43572Y-43128D02*
X43572Y-43464D01*
X49318Y-39854D02*
X49318Y-40344D01*
X43316Y-42999D02*
X43778Y-42537D01*
X43778Y-42537D02*
X45600Y-42537D01*
X45600Y-42537D02*
X46102Y-42035D01*
X43316Y-43464D02*
X43316Y-42999D01*
X46102Y-34035D02*
X47136Y-33001D01*
X47136Y-33001D02*
X48008Y-33001D01*
X42293Y-42999D02*
X42293Y-42794D01*
X42293Y-42794D02*
X42797Y-42290D01*
X42797Y-42290D02*
X45220Y-42290D01*
X45220Y-42290D02*
X45924Y-41585D01*
X45924Y-41585D02*
X47249Y-41585D01*
X47249Y-41585D02*
X47490Y-41344D01*
X47490Y-41344D02*
X48554Y-41344D01*
X48554Y-41344D02*
X48828Y-41069D01*
X48828Y-41069D02*
X48828Y-40854D01*
X42293Y-43464D02*
X42293Y-42999D01*
X49318Y-40854D02*
X48828Y-40854D01*
X42704Y-42870D02*
X42576Y-42999D01*
X42576Y-42999D02*
X42549Y-42999D01*
X42549Y-43464D02*
X42549Y-42999D01*
X37401Y-39492D02*
X37401Y-39002D01*
X46102Y-37035D02*
X45546Y-36479D01*
X45546Y-36479D02*
X42562Y-36479D01*
X42562Y-36479D02*
X41506Y-37535D01*
X41506Y-37535D02*
X39358Y-37535D01*
X39358Y-37535D02*
X37891Y-39002D01*
X37891Y-39002D02*
X37401Y-39002D01*
X46102Y-36035D02*
X40871Y-36035D01*
X40871Y-36035D02*
X40411Y-36494D01*
X40411Y-36494D02*
X40115Y-36494D01*
X40115Y-36494D02*
X38118Y-38492D01*
X38118Y-38492D02*
X37401Y-38492D01*
X35826Y-33736D02*
X35826Y-33246D01*
X40196Y-33035D02*
X36037Y-33035D01*
X36037Y-33035D02*
X35826Y-33246D01*
X35826Y-34736D02*
X35826Y-34246D01*
X40196Y-34035D02*
X39985Y-34246D01*
X39985Y-34246D02*
X35826Y-34246D01*
X46102Y-35035D02*
X45602Y-35535D01*
X45602Y-35535D02*
X39862Y-35535D01*
X39862Y-35535D02*
X38405Y-36992D01*
X38405Y-36992D02*
X37141Y-36992D01*
X37141Y-36992D02*
X35826Y-38306D01*
X35826Y-38306D02*
X35826Y-38854D01*
X40196Y-36035D02*
X38239Y-37992D01*
X38239Y-37992D02*
X37125Y-37992D01*
X37125Y-37992D02*
X36851Y-38266D01*
X36851Y-38266D02*
X36851Y-38801D01*
X36851Y-38801D02*
X36288Y-39364D01*
X36288Y-39364D02*
X35826Y-39364D01*
X35826Y-39854D02*
X35826Y-39364D01*
X35826Y-35736D02*
X35826Y-35246D01*
X40196Y-35035D02*
X39985Y-35246D01*
X39985Y-35246D02*
X35826Y-35246D01*
X46102Y-38035D02*
X46810Y-37327D01*
X46810Y-37327D02*
X46810Y-33940D01*
X46810Y-33940D02*
X47323Y-33428D01*
X47323Y-33428D02*
X49622Y-33428D01*
X49622Y-33428D02*
X51791Y-31259D01*
X51791Y-31259D02*
X51791Y-30511D01*
X46102Y-39035D02*
X51791Y-33346D01*
X51791Y-33346D02*
X51791Y-32874D01*
X51791Y-31692D02*
X51791Y-31961D01*
X46102Y-40035D02*
X46102Y-39883D01*
X46102Y-39883D02*
X48628Y-37357D01*
X48628Y-37357D02*
X48628Y-36833D01*
X48628Y-36833D02*
X51779Y-33682D01*
X51779Y-33682D02*
X53010Y-33682D01*
X53010Y-33682D02*
X53518Y-33174D01*
X53518Y-33174D02*
X53518Y-32583D01*
X53518Y-32583D02*
X52896Y-31961D01*
X52896Y-31961D02*
X51791Y-31961D01*
X51295Y-44484D02*
X54295Y-44484D01*
X40196Y-38035D02*
X41240Y-39079D01*
X41240Y-39079D02*
X41240Y-39881D01*
X51295Y-40625D02*
X54295Y-40625D01*
X41240Y-40866D02*
X41240Y-40637D01*
X40196Y-39035D02*
X41011Y-39850D01*
X41011Y-39850D02*
X41011Y-40409D01*
X41011Y-40409D02*
X41240Y-40637D01*
X45196Y-41621D02*
X45196Y-41329D01*
X45196Y-41329D02*
X45991Y-40535D01*
X45991Y-40535D02*
X46230Y-40535D01*
X46230Y-40535D02*
X47180Y-39585D01*
X47180Y-39585D02*
X47180Y-39088D01*
X47180Y-39088D02*
X49501Y-36767D01*
X49501Y-36767D02*
X51295Y-36767D01*
X45196Y-41889D02*
X45196Y-41621D01*
X44084Y-40559D02*
X44144Y-40499D01*
X44144Y-40499D02*
X44144Y-40409D01*
X44084Y-41024D02*
X44084Y-40559D01*
X43828Y-40559D02*
X43818Y-40549D01*
X43818Y-40549D02*
X43818Y-40146D01*
X43818Y-40146D02*
X43676Y-40004D01*
X43676Y-40004D02*
X43676Y-39720D01*
X43676Y-39720D02*
X43996Y-39401D01*
X43828Y-41024D02*
X43828Y-40559D01*
X43572Y-41489D02*
X44225Y-41489D01*
X44225Y-41489D02*
X44473Y-41241D01*
X44473Y-41241D02*
X44473Y-40270D01*
X44473Y-40270D02*
X44054Y-39851D01*
X44054Y-39851D02*
X44016Y-39851D01*
X43572Y-41024D02*
X43572Y-41489D01*
X43316Y-40559D02*
X43330Y-40559D01*
X43330Y-40559D02*
X43473Y-40416D01*
X43316Y-41024D02*
X43316Y-40559D01*
X42549Y-41024D02*
X42549Y-37216D01*
X42549Y-37216D02*
X42958Y-36806D01*
X42293Y-41489D02*
X42493Y-41689D01*
X42493Y-41689D02*
X44309Y-41689D01*
X44309Y-41689D02*
X44742Y-41256D01*
X44742Y-41256D02*
X44742Y-38654D01*
X44742Y-38654D02*
X45008Y-38388D01*
X42293Y-41024D02*
X42293Y-41489D01*
X53243Y-32874D02*
X52145Y-32874D01*
G54D10*
G36*
X49340Y-41868D02*
X49332Y-41868D01*
X49332Y-41875D01*
X49305Y-41875D01*
X49305Y-41868D01*
X49297Y-41868D01*
X49297Y-41840D01*
X49305Y-41840D01*
X49305Y-41832D01*
X49332Y-41832D01*
X49332Y-41840D01*
X49340Y-41840D01*
X49340Y-41868D01*
X49340Y-41868D01*
G37*
G54D30*
X49340Y-41868D02*
X49332Y-41868D01*
X49332Y-41875D01*
X49305Y-41875D01*
X49305Y-41868D01*
X49297Y-41868D01*
X49297Y-41840D01*
X49305Y-41840D01*
X49305Y-41832D01*
X49332Y-41832D01*
X49332Y-41840D01*
X49340Y-41840D01*
X49340Y-41868D01*
G54D10*
G36*
X54992Y-45322D02*
X54939Y-45586D01*
X54796Y-45800D01*
X54676Y-45880D01*
X54676Y-44408D01*
X54676Y-42408D01*
X54676Y-40550D01*
X54618Y-40410D01*
X54511Y-40302D01*
X54371Y-40244D01*
X54219Y-40244D01*
X54079Y-40302D01*
X53972Y-40409D01*
X53947Y-40469D01*
X51643Y-40469D01*
X51618Y-40410D01*
X51511Y-40302D01*
X51371Y-40244D01*
X51219Y-40244D01*
X51079Y-40302D01*
X50972Y-40409D01*
X50914Y-40549D01*
X50913Y-40701D01*
X50971Y-40841D01*
X51079Y-40949D01*
X51219Y-41007D01*
X51370Y-41007D01*
X51510Y-40949D01*
X51618Y-40842D01*
X51643Y-40782D01*
X53947Y-40782D01*
X53971Y-40841D01*
X54079Y-40949D01*
X54219Y-41007D01*
X54370Y-41007D01*
X54510Y-40949D01*
X54618Y-40842D01*
X54676Y-40702D01*
X54676Y-40550D01*
X54676Y-42408D01*
X54618Y-42268D01*
X54511Y-42161D01*
X54371Y-42103D01*
X54219Y-42102D01*
X54079Y-42160D01*
X53972Y-42267D01*
X53947Y-42327D01*
X51643Y-42327D01*
X51618Y-42268D01*
X51511Y-42161D01*
X51371Y-42103D01*
X51219Y-42102D01*
X51079Y-42160D01*
X50972Y-42267D01*
X50914Y-42408D01*
X50913Y-42528D01*
X49543Y-42528D01*
X49593Y-42494D01*
X50130Y-41958D01*
X50130Y-41958D01*
X50164Y-41907D01*
X50176Y-41847D01*
X50176Y-39861D01*
X50166Y-39811D01*
X50164Y-39801D01*
X50164Y-39801D01*
X50130Y-39751D01*
X50130Y-39751D01*
X49613Y-39233D01*
X49582Y-39213D01*
X49634Y-39178D01*
X49731Y-39033D01*
X49765Y-38863D01*
X49765Y-38845D01*
X49731Y-38674D01*
X49634Y-38530D01*
X49620Y-38520D01*
X50926Y-38520D01*
X50914Y-38549D01*
X50913Y-38701D01*
X50971Y-38841D01*
X51079Y-38949D01*
X51219Y-39007D01*
X51370Y-39007D01*
X51510Y-38949D01*
X51618Y-38842D01*
X51643Y-38782D01*
X53947Y-38782D01*
X53971Y-38841D01*
X54079Y-38949D01*
X54219Y-39007D01*
X54370Y-39007D01*
X54510Y-38949D01*
X54618Y-38842D01*
X54676Y-38702D01*
X54676Y-38550D01*
X54676Y-36692D01*
X54618Y-36552D01*
X54511Y-36444D01*
X54371Y-36386D01*
X54219Y-36386D01*
X54079Y-36444D01*
X53972Y-36551D01*
X53914Y-36691D01*
X53913Y-36843D01*
X53971Y-36983D01*
X54079Y-37090D01*
X54219Y-37148D01*
X54370Y-37149D01*
X54510Y-37091D01*
X54618Y-36983D01*
X54676Y-36843D01*
X54676Y-36692D01*
X54676Y-38550D01*
X54618Y-38410D01*
X54511Y-38302D01*
X54371Y-38244D01*
X54219Y-38244D01*
X54079Y-38302D01*
X53972Y-38409D01*
X53947Y-38469D01*
X51643Y-38469D01*
X51618Y-38410D01*
X51511Y-38302D01*
X51371Y-38244D01*
X51219Y-38244D01*
X51159Y-38269D01*
X51144Y-38253D01*
X51093Y-38219D01*
X51033Y-38207D01*
X49115Y-38207D01*
X49065Y-38217D01*
X49055Y-38219D01*
X49004Y-38253D01*
X48765Y-38493D01*
X48765Y-38493D01*
X48749Y-38454D01*
X48719Y-38424D01*
X48680Y-38408D01*
X48637Y-38408D01*
X48081Y-38408D01*
X49565Y-36924D01*
X50947Y-36924D01*
X50971Y-36983D01*
X51079Y-37090D01*
X51219Y-37148D01*
X51370Y-37149D01*
X51510Y-37091D01*
X51618Y-36983D01*
X51676Y-36843D01*
X51676Y-36692D01*
X51618Y-36552D01*
X51511Y-36444D01*
X51371Y-36386D01*
X51219Y-36386D01*
X51079Y-36444D01*
X50972Y-36551D01*
X50947Y-36611D01*
X49501Y-36611D01*
X49451Y-36621D01*
X49441Y-36623D01*
X49390Y-36657D01*
X48784Y-37263D01*
X48784Y-36898D01*
X50913Y-34768D01*
X50913Y-34843D01*
X50971Y-34983D01*
X51079Y-35090D01*
X51219Y-35148D01*
X51370Y-35149D01*
X51510Y-35091D01*
X51618Y-34983D01*
X51676Y-34843D01*
X51676Y-34692D01*
X51651Y-34632D01*
X51811Y-34472D01*
X53778Y-34472D01*
X53938Y-34632D01*
X53914Y-34691D01*
X53913Y-34843D01*
X53971Y-34983D01*
X54079Y-35090D01*
X54219Y-35148D01*
X54370Y-35149D01*
X54510Y-35091D01*
X54618Y-34983D01*
X54676Y-34843D01*
X54676Y-34692D01*
X54618Y-34552D01*
X54511Y-34444D01*
X54371Y-34386D01*
X54219Y-34386D01*
X54159Y-34411D01*
X53999Y-34251D01*
X53999Y-33201D01*
X54028Y-33189D01*
X54058Y-33159D01*
X54074Y-33120D01*
X54074Y-33077D01*
X54074Y-32627D01*
X54058Y-32588D01*
X54028Y-32558D01*
X53999Y-32546D01*
X53999Y-32020D01*
X54028Y-32008D01*
X54058Y-31978D01*
X54074Y-31939D01*
X54074Y-31896D01*
X54074Y-31446D01*
X54058Y-31407D01*
X54028Y-31377D01*
X53999Y-31365D01*
X53999Y-30838D01*
X54028Y-30826D01*
X54058Y-30797D01*
X54074Y-30757D01*
X54074Y-30715D01*
X54074Y-30265D01*
X54058Y-30226D01*
X54028Y-30196D01*
X53989Y-30180D01*
X53947Y-30180D01*
X53697Y-30180D01*
X53658Y-30196D01*
X53628Y-30226D01*
X53612Y-30265D01*
X53612Y-30307D01*
X53612Y-30757D01*
X53628Y-30797D01*
X53658Y-30826D01*
X53687Y-30838D01*
X53687Y-31365D01*
X53658Y-31377D01*
X53628Y-31407D01*
X53612Y-31446D01*
X53612Y-31489D01*
X53612Y-31939D01*
X53628Y-31978D01*
X53658Y-32008D01*
X53687Y-32020D01*
X53687Y-32546D01*
X53669Y-32554D01*
X53662Y-32523D01*
X53628Y-32472D01*
X53180Y-32024D01*
X53389Y-32024D01*
X53428Y-32008D01*
X53458Y-31978D01*
X53474Y-31939D01*
X53474Y-31896D01*
X53474Y-31446D01*
X53458Y-31407D01*
X53428Y-31377D01*
X53389Y-31361D01*
X53347Y-31361D01*
X53097Y-31361D01*
X53058Y-31377D01*
X53028Y-31407D01*
X53012Y-31446D01*
X53012Y-31489D01*
X53012Y-31536D01*
X52323Y-31536D01*
X52314Y-31514D01*
X52284Y-31484D01*
X52245Y-31468D01*
X52202Y-31468D01*
X52045Y-31468D01*
X52006Y-31484D01*
X51976Y-31514D01*
X51968Y-31534D01*
X51960Y-31514D01*
X51930Y-31484D01*
X51891Y-31468D01*
X51848Y-31468D01*
X51803Y-31468D01*
X51902Y-31370D01*
X51902Y-31370D01*
X51935Y-31319D01*
X51947Y-31259D01*
X51947Y-30702D01*
X51960Y-30690D01*
X51968Y-30669D01*
X51976Y-30690D01*
X52006Y-30719D01*
X52045Y-30736D01*
X52088Y-30736D01*
X52245Y-30736D01*
X52284Y-30719D01*
X52314Y-30690D01*
X52323Y-30668D01*
X53012Y-30668D01*
X53012Y-30757D01*
X53028Y-30797D01*
X53058Y-30826D01*
X53097Y-30843D01*
X53139Y-30843D01*
X53389Y-30843D01*
X53428Y-30826D01*
X53458Y-30797D01*
X53474Y-30757D01*
X53474Y-30715D01*
X53474Y-30265D01*
X53458Y-30226D01*
X53428Y-30196D01*
X53389Y-30180D01*
X53347Y-30180D01*
X53097Y-30180D01*
X53058Y-30196D01*
X53028Y-30226D01*
X53012Y-30265D01*
X53012Y-30307D01*
X53012Y-30355D01*
X52323Y-30355D01*
X52314Y-30333D01*
X52284Y-30303D01*
X52245Y-30287D01*
X52202Y-30287D01*
X52045Y-30287D01*
X52006Y-30303D01*
X51976Y-30333D01*
X51968Y-30353D01*
X51960Y-30333D01*
X51930Y-30303D01*
X51891Y-30287D01*
X51848Y-30287D01*
X51691Y-30287D01*
X51652Y-30303D01*
X51622Y-30333D01*
X51606Y-30372D01*
X51606Y-30414D01*
X51606Y-30650D01*
X51622Y-30690D01*
X51635Y-30702D01*
X51635Y-31194D01*
X50578Y-32251D01*
X50578Y-31002D01*
X50562Y-30963D01*
X50532Y-30933D01*
X50493Y-30917D01*
X50451Y-30917D01*
X49112Y-30917D01*
X49073Y-30933D01*
X49043Y-30963D01*
X49027Y-31002D01*
X49027Y-31044D01*
X49027Y-32383D01*
X49043Y-32422D01*
X49073Y-32452D01*
X49112Y-32468D01*
X49154Y-32468D01*
X50361Y-32468D01*
X49558Y-33272D01*
X48090Y-33272D01*
X48167Y-33240D01*
X48246Y-33161D01*
X48289Y-33057D01*
X48289Y-32945D01*
X48246Y-32842D01*
X48167Y-32763D01*
X48064Y-32720D01*
X47952Y-32720D01*
X47849Y-32763D01*
X47770Y-32842D01*
X47768Y-32845D01*
X47136Y-32845D01*
X47086Y-32855D01*
X47076Y-32857D01*
X47025Y-32891D01*
X46511Y-33405D01*
X46511Y-32956D01*
X46483Y-32887D01*
X46483Y-31959D01*
X46483Y-30959D01*
X46483Y-30959D01*
X46483Y-30331D01*
X46483Y-30289D01*
X46483Y-29739D01*
X46467Y-29700D01*
X46437Y-29670D01*
X46398Y-29654D01*
X46356Y-29654D01*
X45806Y-29654D01*
X45767Y-29670D01*
X45737Y-29700D01*
X45721Y-29739D01*
X45721Y-29781D01*
X45721Y-30331D01*
X45737Y-30370D01*
X45767Y-30400D01*
X45806Y-30416D01*
X45848Y-30416D01*
X46398Y-30416D01*
X46437Y-30400D01*
X46467Y-30370D01*
X46483Y-30331D01*
X46483Y-30959D01*
X46425Y-30819D01*
X46318Y-30712D01*
X46178Y-30654D01*
X46026Y-30654D01*
X45886Y-30711D01*
X45779Y-30819D01*
X45721Y-30959D01*
X45720Y-31110D01*
X45778Y-31251D01*
X45886Y-31358D01*
X46026Y-31416D01*
X46177Y-31416D01*
X46318Y-31358D01*
X46425Y-31251D01*
X46483Y-31111D01*
X46483Y-30959D01*
X46483Y-31959D01*
X46425Y-31819D01*
X46318Y-31712D01*
X46178Y-31654D01*
X46026Y-31654D01*
X45886Y-31711D01*
X45779Y-31819D01*
X45721Y-31959D01*
X45720Y-32110D01*
X45778Y-32251D01*
X45886Y-32358D01*
X46026Y-32416D01*
X46177Y-32416D01*
X46318Y-32358D01*
X46425Y-32251D01*
X46483Y-32111D01*
X46483Y-31959D01*
X46483Y-32887D01*
X46450Y-32805D01*
X46447Y-32801D01*
X46383Y-32774D01*
X46363Y-32793D01*
X46363Y-32754D01*
X46336Y-32690D01*
X46186Y-32627D01*
X46023Y-32626D01*
X45872Y-32687D01*
X45868Y-32690D01*
X45841Y-32754D01*
X46102Y-33015D01*
X46363Y-32754D01*
X46363Y-32793D01*
X46121Y-33035D01*
X46383Y-33296D01*
X46447Y-33269D01*
X46510Y-33119D01*
X46511Y-32956D01*
X46511Y-33405D01*
X46363Y-33553D01*
X46363Y-33316D01*
X46102Y-33054D01*
X46082Y-33074D01*
X46082Y-33035D01*
X45821Y-32774D01*
X45757Y-32801D01*
X45694Y-32951D01*
X45693Y-33114D01*
X45754Y-33264D01*
X45757Y-33269D01*
X45821Y-33296D01*
X46082Y-33035D01*
X46082Y-33074D01*
X45841Y-33316D01*
X45868Y-33380D01*
X46018Y-33443D01*
X46181Y-33444D01*
X46331Y-33383D01*
X46336Y-33380D01*
X46363Y-33316D01*
X46363Y-33553D01*
X46237Y-33678D01*
X46178Y-33654D01*
X46026Y-33654D01*
X45886Y-33711D01*
X45779Y-33819D01*
X45721Y-33959D01*
X45720Y-34110D01*
X45778Y-34251D01*
X45886Y-34358D01*
X45935Y-34379D01*
X43761Y-34379D01*
X40552Y-31170D01*
X40577Y-31111D01*
X40577Y-30959D01*
X40577Y-29959D01*
X40519Y-29819D01*
X40412Y-29712D01*
X40272Y-29654D01*
X40120Y-29654D01*
X39980Y-29711D01*
X39873Y-29819D01*
X39815Y-29959D01*
X39814Y-30110D01*
X39872Y-30251D01*
X39980Y-30358D01*
X40120Y-30416D01*
X40271Y-30416D01*
X40412Y-30358D01*
X40519Y-30251D01*
X40577Y-30111D01*
X40577Y-29959D01*
X40577Y-30959D01*
X40519Y-30819D01*
X40412Y-30712D01*
X40272Y-30654D01*
X40120Y-30654D01*
X39980Y-30711D01*
X39873Y-30819D01*
X39848Y-30879D01*
X39496Y-30879D01*
X39446Y-30889D01*
X39436Y-30891D01*
X39385Y-30924D01*
X38549Y-31761D01*
X37907Y-31761D01*
X37907Y-31496D01*
X37891Y-31457D01*
X37861Y-31427D01*
X37822Y-31411D01*
X37780Y-31411D01*
X37578Y-31411D01*
X37704Y-31357D01*
X37849Y-31207D01*
X37926Y-31014D01*
X37926Y-30820D01*
X37849Y-30626D01*
X37704Y-30477D01*
X37512Y-30395D01*
X37498Y-30392D01*
X37415Y-30417D01*
X37415Y-30903D01*
X37901Y-30903D01*
X37926Y-30820D01*
X37926Y-31014D01*
X37901Y-30931D01*
X37415Y-30931D01*
X37415Y-30938D01*
X37387Y-30938D01*
X37387Y-30931D01*
X37387Y-30903D01*
X37387Y-30417D01*
X37304Y-30392D01*
X37290Y-30395D01*
X37099Y-30477D01*
X36953Y-30626D01*
X36876Y-30820D01*
X36901Y-30903D01*
X37387Y-30903D01*
X37387Y-30931D01*
X36901Y-30931D01*
X36876Y-31014D01*
X36953Y-31207D01*
X37099Y-31357D01*
X37224Y-31411D01*
X36980Y-31411D01*
X36941Y-31427D01*
X36911Y-31457D01*
X36895Y-31496D01*
X36895Y-31538D01*
X36895Y-32338D01*
X36911Y-32377D01*
X36941Y-32407D01*
X36980Y-32423D01*
X37022Y-32423D01*
X37822Y-32423D01*
X37861Y-32407D01*
X37891Y-32377D01*
X37907Y-32338D01*
X37907Y-32296D01*
X37907Y-32073D01*
X38614Y-32073D01*
X38614Y-32073D01*
X38673Y-32061D01*
X38724Y-32027D01*
X39560Y-31191D01*
X39848Y-31191D01*
X39872Y-31251D01*
X39980Y-31358D01*
X40120Y-31416D01*
X40271Y-31416D01*
X40331Y-31391D01*
X43585Y-34645D01*
X43636Y-34679D01*
X43696Y-34691D01*
X45935Y-34691D01*
X45886Y-34711D01*
X45779Y-34819D01*
X45721Y-34959D01*
X45720Y-35110D01*
X45745Y-35170D01*
X45537Y-35379D01*
X40363Y-35379D01*
X40412Y-35358D01*
X40519Y-35251D01*
X40577Y-35111D01*
X40577Y-34959D01*
X40519Y-34819D01*
X40412Y-34712D01*
X40272Y-34654D01*
X40120Y-34654D01*
X39980Y-34711D01*
X39873Y-34819D01*
X39815Y-34959D01*
X39815Y-35089D01*
X36155Y-35089D01*
X36212Y-35051D01*
X36309Y-34907D01*
X36342Y-34736D01*
X36309Y-34565D01*
X36212Y-34420D01*
X36184Y-34402D01*
X39985Y-34402D01*
X39985Y-34402D01*
X40045Y-34390D01*
X40049Y-34387D01*
X40120Y-34416D01*
X40271Y-34416D01*
X40412Y-34358D01*
X40519Y-34251D01*
X40577Y-34111D01*
X40577Y-33959D01*
X40519Y-33819D01*
X40412Y-33712D01*
X40272Y-33654D01*
X40120Y-33654D01*
X39980Y-33711D01*
X39873Y-33819D01*
X39815Y-33959D01*
X39815Y-34089D01*
X36333Y-34089D01*
X36333Y-34055D01*
X36333Y-33375D01*
X36316Y-33336D01*
X36286Y-33306D01*
X36247Y-33289D01*
X36205Y-33289D01*
X36003Y-33289D01*
X36102Y-33191D01*
X39848Y-33191D01*
X39872Y-33251D01*
X39980Y-33358D01*
X40120Y-33416D01*
X40271Y-33416D01*
X40412Y-33358D01*
X40519Y-33251D01*
X40577Y-33111D01*
X40577Y-32959D01*
X40577Y-31959D01*
X40519Y-31819D01*
X40412Y-31712D01*
X40272Y-31654D01*
X40120Y-31654D01*
X39980Y-31711D01*
X39873Y-31819D01*
X39815Y-31959D01*
X39814Y-32110D01*
X39872Y-32251D01*
X39980Y-32358D01*
X40120Y-32416D01*
X40271Y-32416D01*
X40412Y-32358D01*
X40519Y-32251D01*
X40577Y-32111D01*
X40577Y-31959D01*
X40577Y-32959D01*
X40519Y-32819D01*
X40412Y-32712D01*
X40272Y-32654D01*
X40120Y-32654D01*
X39980Y-32711D01*
X39873Y-32819D01*
X39848Y-32879D01*
X36602Y-32879D01*
X36602Y-32383D01*
X36602Y-32341D01*
X36602Y-31002D01*
X36586Y-30963D01*
X36556Y-30933D01*
X36517Y-30917D01*
X36475Y-30917D01*
X35136Y-30917D01*
X35097Y-30933D01*
X35067Y-30963D01*
X35050Y-31002D01*
X35050Y-31044D01*
X35050Y-32383D01*
X35067Y-32422D01*
X35097Y-32452D01*
X35136Y-32468D01*
X35178Y-32468D01*
X36517Y-32468D01*
X36556Y-32452D01*
X36586Y-32422D01*
X36602Y-32383D01*
X36602Y-32879D01*
X36037Y-32879D01*
X35977Y-32891D01*
X35926Y-32924D01*
X35716Y-33135D01*
X35682Y-33186D01*
X35670Y-33246D01*
X35670Y-33289D01*
X35405Y-33289D01*
X35366Y-33306D01*
X35336Y-33336D01*
X35320Y-33375D01*
X35320Y-33417D01*
X35320Y-34097D01*
X35336Y-34136D01*
X35366Y-34166D01*
X35405Y-34182D01*
X35447Y-34182D01*
X35684Y-34182D01*
X35682Y-34186D01*
X35670Y-34246D01*
X35670Y-34307D01*
X35586Y-34323D01*
X35441Y-34420D01*
X35344Y-34565D01*
X35310Y-34736D01*
X35344Y-34907D01*
X35441Y-35051D01*
X35586Y-35148D01*
X35693Y-35169D01*
X35682Y-35186D01*
X35670Y-35246D01*
X35670Y-35307D01*
X35586Y-35323D01*
X35441Y-35420D01*
X35344Y-35565D01*
X35310Y-35736D01*
X35344Y-35907D01*
X35441Y-36051D01*
X35586Y-36148D01*
X35756Y-36182D01*
X35896Y-36182D01*
X36067Y-36148D01*
X36212Y-36051D01*
X36309Y-35907D01*
X36342Y-35736D01*
X36309Y-35565D01*
X36212Y-35420D01*
X36184Y-35402D01*
X39785Y-35402D01*
X39751Y-35424D01*
X38341Y-36835D01*
X37780Y-36835D01*
X37806Y-36817D01*
X37904Y-36660D01*
X37927Y-36579D01*
X37927Y-36404D01*
X37904Y-36323D01*
X37806Y-36166D01*
X37655Y-36059D01*
X37475Y-36018D01*
X37415Y-36018D01*
X37415Y-36478D01*
X37901Y-36478D01*
X37927Y-36404D01*
X37927Y-36579D01*
X37901Y-36505D01*
X37415Y-36505D01*
X37415Y-36513D01*
X37387Y-36513D01*
X37387Y-36505D01*
X37387Y-36478D01*
X37387Y-36018D01*
X37327Y-36018D01*
X37147Y-36059D01*
X36996Y-36166D01*
X36898Y-36323D01*
X36875Y-36404D01*
X36901Y-36478D01*
X37387Y-36478D01*
X37387Y-36505D01*
X36901Y-36505D01*
X36875Y-36579D01*
X36898Y-36660D01*
X36996Y-36817D01*
X37059Y-36862D01*
X37031Y-36881D01*
X36352Y-37560D01*
X36352Y-36823D01*
X36352Y-36648D01*
X36329Y-36567D01*
X36231Y-36410D01*
X36080Y-36303D01*
X35900Y-36262D01*
X35840Y-36262D01*
X35840Y-36722D01*
X36326Y-36722D01*
X36352Y-36648D01*
X36352Y-36823D01*
X36326Y-36750D01*
X35840Y-36750D01*
X35840Y-37210D01*
X35900Y-37210D01*
X36080Y-37168D01*
X36231Y-37061D01*
X36329Y-36904D01*
X36352Y-36823D01*
X36352Y-37560D01*
X35812Y-38099D01*
X35812Y-37210D01*
X35812Y-36750D01*
X35812Y-36722D01*
X35812Y-36262D01*
X35752Y-36262D01*
X35572Y-36303D01*
X35421Y-36410D01*
X35323Y-36567D01*
X35301Y-36648D01*
X35326Y-36722D01*
X35812Y-36722D01*
X35812Y-36750D01*
X35326Y-36750D01*
X35301Y-36823D01*
X35323Y-36904D01*
X35421Y-37061D01*
X35572Y-37168D01*
X35752Y-37210D01*
X35812Y-37210D01*
X35812Y-38099D01*
X35716Y-38196D01*
X35682Y-38247D01*
X35670Y-38306D01*
X35670Y-38408D01*
X35405Y-38408D01*
X35366Y-38424D01*
X35336Y-38454D01*
X35320Y-38493D01*
X35320Y-38535D01*
X35320Y-39215D01*
X35336Y-39254D01*
X35366Y-39284D01*
X35405Y-39300D01*
X35447Y-39300D01*
X35684Y-39300D01*
X35682Y-39304D01*
X35670Y-39364D01*
X35670Y-39425D01*
X35586Y-39442D01*
X35441Y-39538D01*
X35344Y-39683D01*
X35310Y-39854D01*
X35344Y-40025D01*
X35441Y-40169D01*
X35586Y-40266D01*
X35756Y-40300D01*
X35896Y-40300D01*
X36067Y-40266D01*
X36212Y-40169D01*
X36309Y-40025D01*
X36342Y-39854D01*
X36309Y-39683D01*
X36212Y-39538D01*
X36184Y-39520D01*
X36288Y-39520D01*
X36288Y-39520D01*
X36348Y-39508D01*
X36399Y-39474D01*
X36961Y-38911D01*
X36961Y-38911D01*
X36995Y-38861D01*
X37007Y-38801D01*
X37007Y-38795D01*
X37016Y-38807D01*
X37160Y-38904D01*
X37268Y-38925D01*
X37257Y-38942D01*
X37245Y-39002D01*
X37245Y-39045D01*
X36980Y-39045D01*
X36941Y-39062D01*
X36911Y-39091D01*
X36895Y-39130D01*
X36895Y-39173D01*
X36895Y-39853D01*
X36911Y-39892D01*
X36941Y-39922D01*
X36980Y-39938D01*
X37022Y-39938D01*
X37822Y-39938D01*
X37861Y-39922D01*
X37891Y-39892D01*
X37907Y-39853D01*
X37907Y-39810D01*
X37907Y-39155D01*
X37951Y-39146D01*
X38002Y-39112D01*
X39423Y-37691D01*
X40029Y-37691D01*
X39980Y-37711D01*
X39873Y-37819D01*
X39815Y-37959D01*
X39814Y-38110D01*
X39872Y-38251D01*
X39980Y-38358D01*
X40120Y-38416D01*
X40271Y-38416D01*
X40331Y-38391D01*
X41084Y-39144D01*
X41084Y-39691D01*
X41078Y-39696D01*
X40552Y-39170D01*
X40577Y-39111D01*
X40577Y-38959D01*
X40519Y-38819D01*
X40412Y-38712D01*
X40272Y-38654D01*
X40120Y-38654D01*
X39980Y-38711D01*
X39873Y-38819D01*
X39815Y-38959D01*
X39814Y-39110D01*
X39872Y-39251D01*
X39980Y-39358D01*
X40120Y-39416D01*
X40271Y-39416D01*
X40331Y-39391D01*
X40855Y-39915D01*
X40855Y-40409D01*
X40867Y-40468D01*
X40901Y-40519D01*
X41074Y-40692D01*
X41061Y-40697D01*
X41032Y-40727D01*
X41015Y-40766D01*
X41015Y-40808D01*
X41015Y-40965D01*
X41032Y-41005D01*
X41052Y-41025D01*
X41046Y-41028D01*
X41008Y-41065D01*
X40988Y-41115D01*
X40988Y-41173D01*
X41021Y-41206D01*
X41226Y-41206D01*
X41226Y-41198D01*
X41253Y-41198D01*
X41253Y-41206D01*
X41458Y-41206D01*
X41492Y-41173D01*
X41492Y-41115D01*
X41471Y-41065D01*
X41433Y-41028D01*
X41427Y-41025D01*
X41448Y-41005D01*
X41464Y-40965D01*
X41464Y-40923D01*
X41464Y-40766D01*
X41448Y-40727D01*
X41418Y-40697D01*
X41396Y-40688D01*
X41396Y-40637D01*
X41384Y-40577D01*
X41350Y-40527D01*
X41167Y-40344D01*
X41167Y-40106D01*
X41182Y-40106D01*
X41339Y-40106D01*
X41379Y-40090D01*
X41399Y-40069D01*
X41402Y-40075D01*
X41439Y-40113D01*
X41489Y-40133D01*
X41547Y-40133D01*
X41580Y-40100D01*
X41580Y-39895D01*
X41572Y-39895D01*
X41572Y-39868D01*
X41580Y-39868D01*
X41580Y-39663D01*
X41547Y-39630D01*
X41489Y-39630D01*
X41439Y-39650D01*
X41402Y-39688D01*
X41399Y-39694D01*
X41396Y-39691D01*
X41396Y-39079D01*
X41384Y-39019D01*
X41350Y-38968D01*
X40552Y-38170D01*
X40577Y-38111D01*
X40577Y-37959D01*
X40519Y-37819D01*
X40412Y-37712D01*
X40362Y-37691D01*
X41506Y-37691D01*
X41506Y-37691D01*
X41566Y-37679D01*
X41617Y-37645D01*
X42627Y-36635D01*
X42731Y-36635D01*
X42720Y-36646D01*
X42677Y-36750D01*
X42677Y-36862D01*
X42678Y-36865D01*
X42438Y-37105D01*
X42404Y-37156D01*
X42392Y-37216D01*
X42392Y-40610D01*
X42373Y-40602D01*
X42331Y-40602D01*
X42213Y-40602D01*
X42174Y-40619D01*
X42165Y-40627D01*
X42156Y-40619D01*
X42117Y-40602D01*
X42075Y-40602D01*
X41957Y-40602D01*
X41918Y-40619D01*
X41909Y-40627D01*
X41900Y-40619D01*
X41861Y-40602D01*
X41819Y-40602D01*
X41806Y-40602D01*
X41806Y-40026D01*
X41806Y-39973D01*
X41806Y-39929D01*
X41806Y-39834D01*
X41806Y-39790D01*
X41806Y-39737D01*
X41786Y-39688D01*
X41748Y-39650D01*
X41699Y-39630D01*
X41641Y-39630D01*
X41608Y-39663D01*
X41608Y-39868D01*
X41773Y-39868D01*
X41806Y-39834D01*
X41806Y-39929D01*
X41773Y-39895D01*
X41608Y-39895D01*
X41608Y-40100D01*
X41641Y-40133D01*
X41699Y-40133D01*
X41748Y-40113D01*
X41786Y-40075D01*
X41806Y-40026D01*
X41806Y-40602D01*
X41701Y-40602D01*
X41662Y-40619D01*
X41632Y-40648D01*
X41616Y-40687D01*
X41616Y-40730D01*
X41616Y-41360D01*
X41632Y-41399D01*
X41662Y-41429D01*
X41701Y-41445D01*
X41743Y-41445D01*
X41861Y-41445D01*
X41900Y-41429D01*
X41909Y-41420D01*
X41918Y-41429D01*
X41957Y-41445D01*
X41999Y-41445D01*
X42117Y-41445D01*
X42137Y-41437D01*
X42137Y-41489D01*
X42148Y-41548D01*
X42182Y-41599D01*
X42383Y-41800D01*
X42433Y-41834D01*
X42433Y-41834D01*
X42443Y-41835D01*
X42493Y-41845D01*
X44309Y-41845D01*
X44309Y-41845D01*
X44369Y-41834D01*
X44420Y-41800D01*
X44853Y-41367D01*
X44853Y-41367D01*
X44875Y-41333D01*
X44887Y-41316D01*
X44887Y-41316D01*
X44898Y-41256D01*
X44898Y-41256D01*
X44898Y-38719D01*
X44949Y-38668D01*
X44952Y-38669D01*
X45064Y-38670D01*
X45167Y-38627D01*
X45247Y-38548D01*
X45289Y-38444D01*
X45290Y-38333D01*
X45247Y-38229D01*
X45168Y-38150D01*
X45064Y-38107D01*
X44953Y-38107D01*
X44849Y-38150D01*
X44770Y-38229D01*
X44727Y-38332D01*
X44727Y-38444D01*
X44728Y-38447D01*
X44632Y-38544D01*
X44598Y-38595D01*
X44586Y-38654D01*
X44586Y-40163D01*
X44583Y-40159D01*
X44583Y-40159D01*
X44298Y-39874D01*
X44298Y-39795D01*
X44255Y-39692D01*
X44179Y-39615D01*
X44234Y-39560D01*
X44277Y-39457D01*
X44277Y-39345D01*
X44234Y-39242D01*
X44155Y-39163D01*
X44052Y-39120D01*
X43940Y-39120D01*
X43836Y-39162D01*
X43757Y-39241D01*
X43714Y-39345D01*
X43714Y-39457D01*
X43716Y-39460D01*
X43566Y-39610D01*
X43532Y-39660D01*
X43520Y-39720D01*
X43520Y-40004D01*
X43532Y-40064D01*
X43566Y-40114D01*
X43626Y-40175D01*
X43529Y-40135D01*
X43417Y-40135D01*
X43314Y-40177D01*
X43235Y-40256D01*
X43196Y-40349D01*
X43196Y-40313D01*
X43196Y-40195D01*
X43192Y-40185D01*
X43203Y-40174D01*
X43224Y-40125D01*
X43224Y-40086D01*
X43224Y-39992D01*
X43224Y-39953D01*
X43203Y-39904D01*
X43166Y-39867D01*
X43116Y-39846D01*
X43063Y-39846D01*
X43059Y-39846D01*
X43025Y-39880D01*
X43025Y-40025D01*
X43190Y-40025D01*
X43224Y-39992D01*
X43224Y-40086D01*
X43190Y-40053D01*
X43025Y-40053D01*
X43025Y-40061D01*
X42998Y-40061D01*
X42998Y-40053D01*
X42990Y-40053D01*
X42990Y-40025D01*
X42998Y-40025D01*
X42998Y-39880D01*
X42979Y-39861D01*
X45084Y-37755D01*
X45171Y-37791D01*
X45283Y-37792D01*
X45386Y-37749D01*
X45466Y-37670D01*
X45467Y-37667D01*
X45995Y-37667D01*
X45886Y-37711D01*
X45779Y-37819D01*
X45721Y-37959D01*
X45720Y-38110D01*
X45778Y-38251D01*
X45886Y-38358D01*
X46026Y-38416D01*
X46177Y-38416D01*
X46318Y-38358D01*
X46425Y-38251D01*
X46483Y-38111D01*
X46483Y-37959D01*
X46458Y-37899D01*
X46921Y-37437D01*
X46921Y-37437D01*
X46954Y-37387D01*
X46954Y-37387D01*
X46956Y-37377D01*
X46966Y-37327D01*
X46966Y-37327D01*
X46966Y-34005D01*
X47222Y-33750D01*
X47222Y-33960D01*
X47255Y-33994D01*
X47742Y-33994D01*
X47742Y-33986D01*
X47769Y-33986D01*
X47769Y-33994D01*
X48256Y-33994D01*
X48289Y-33960D01*
X48289Y-33584D01*
X49622Y-33584D01*
X49622Y-33584D01*
X49682Y-33572D01*
X49733Y-33538D01*
X51606Y-31665D01*
X51606Y-31832D01*
X51622Y-31871D01*
X51635Y-31883D01*
X51635Y-31961D01*
X51647Y-32020D01*
X51680Y-32071D01*
X51731Y-32105D01*
X51791Y-32117D01*
X52831Y-32117D01*
X53256Y-32542D01*
X53097Y-32542D01*
X53058Y-32558D01*
X53028Y-32588D01*
X53012Y-32627D01*
X53012Y-32670D01*
X53012Y-32717D01*
X52323Y-32717D01*
X52314Y-32695D01*
X52284Y-32665D01*
X52245Y-32649D01*
X52202Y-32649D01*
X52045Y-32649D01*
X52006Y-32665D01*
X51976Y-32695D01*
X51968Y-32716D01*
X51960Y-32695D01*
X51930Y-32665D01*
X51891Y-32649D01*
X51848Y-32649D01*
X51691Y-32649D01*
X51652Y-32665D01*
X51622Y-32695D01*
X51606Y-32734D01*
X51606Y-32777D01*
X51606Y-33013D01*
X51622Y-33052D01*
X51635Y-33064D01*
X51635Y-33281D01*
X48289Y-36626D01*
X48289Y-34434D01*
X48289Y-34055D01*
X48256Y-34021D01*
X47769Y-34021D01*
X47769Y-34029D01*
X47742Y-34029D01*
X47742Y-34021D01*
X47255Y-34021D01*
X47222Y-34055D01*
X47222Y-34434D01*
X47242Y-34483D01*
X47280Y-34521D01*
X47329Y-34541D01*
X47382Y-34541D01*
X47544Y-34541D01*
X47397Y-34639D01*
X47288Y-34804D01*
X47249Y-34997D01*
X47249Y-35017D01*
X47288Y-35211D01*
X47397Y-35375D01*
X47562Y-35485D01*
X47755Y-35524D01*
X47949Y-35485D01*
X48113Y-35375D01*
X48223Y-35211D01*
X48262Y-35017D01*
X48262Y-34997D01*
X48223Y-34804D01*
X48113Y-34639D01*
X47966Y-34541D01*
X48129Y-34541D01*
X48182Y-34541D01*
X48231Y-34521D01*
X48269Y-34483D01*
X48289Y-34434D01*
X48289Y-36626D01*
X46237Y-38678D01*
X46178Y-38654D01*
X46026Y-38654D01*
X45886Y-38711D01*
X45779Y-38819D01*
X45721Y-38959D01*
X45720Y-39110D01*
X45778Y-39251D01*
X45886Y-39358D01*
X46026Y-39416D01*
X46177Y-39416D01*
X46318Y-39358D01*
X46425Y-39251D01*
X46483Y-39111D01*
X46483Y-38959D01*
X46458Y-38899D01*
X48471Y-36887D01*
X48471Y-37293D01*
X46110Y-39654D01*
X46026Y-39654D01*
X45886Y-39711D01*
X45779Y-39819D01*
X45721Y-39959D01*
X45720Y-40110D01*
X45778Y-40251D01*
X45886Y-40358D01*
X45953Y-40386D01*
X45941Y-40389D01*
X45931Y-40391D01*
X45880Y-40424D01*
X45086Y-41219D01*
X45052Y-41270D01*
X45040Y-41329D01*
X45040Y-41621D01*
X45040Y-41699D01*
X45037Y-41702D01*
X45034Y-41695D01*
X44997Y-41658D01*
X44947Y-41637D01*
X44889Y-41637D01*
X44856Y-41671D01*
X44856Y-41875D01*
X44864Y-41875D01*
X44864Y-41903D01*
X44856Y-41903D01*
X44856Y-41911D01*
X44828Y-41911D01*
X44828Y-41903D01*
X44828Y-41875D01*
X44828Y-41671D01*
X44795Y-41637D01*
X44737Y-41637D01*
X44688Y-41658D01*
X44650Y-41695D01*
X44630Y-41745D01*
X44630Y-41798D01*
X44630Y-41842D01*
X44663Y-41875D01*
X44828Y-41875D01*
X44828Y-41903D01*
X44663Y-41903D01*
X44630Y-41937D01*
X44630Y-41981D01*
X44630Y-42034D01*
X44650Y-42083D01*
X44688Y-42121D01*
X44718Y-42133D01*
X42797Y-42133D01*
X42737Y-42145D01*
X42687Y-42179D01*
X42182Y-42683D01*
X42148Y-42734D01*
X42137Y-42794D01*
X42137Y-42999D01*
X42137Y-43050D01*
X42117Y-43042D01*
X42075Y-43042D01*
X41957Y-43042D01*
X41924Y-43056D01*
X41891Y-43042D01*
X41848Y-43042D01*
X41730Y-43042D01*
X41691Y-43059D01*
X41661Y-43088D01*
X41645Y-43127D01*
X41645Y-43170D01*
X41645Y-43800D01*
X41661Y-43839D01*
X41691Y-43869D01*
X41730Y-43885D01*
X41773Y-43885D01*
X41891Y-43885D01*
X41924Y-43871D01*
X41957Y-43885D01*
X41999Y-43885D01*
X42117Y-43885D01*
X42156Y-43869D01*
X42165Y-43860D01*
X42174Y-43869D01*
X42213Y-43885D01*
X42255Y-43885D01*
X42373Y-43885D01*
X42412Y-43869D01*
X42421Y-43860D01*
X42429Y-43869D01*
X42469Y-43885D01*
X42511Y-43885D01*
X42629Y-43885D01*
X42668Y-43869D01*
X42677Y-43860D01*
X42685Y-43869D01*
X42724Y-43885D01*
X42767Y-43885D01*
X42885Y-43885D01*
X42904Y-43877D01*
X42904Y-44072D01*
X42909Y-44098D01*
X42882Y-44098D01*
X42848Y-44132D01*
X42848Y-44297D01*
X42856Y-44297D01*
X42856Y-44324D01*
X42848Y-44324D01*
X42848Y-44332D01*
X42820Y-44332D01*
X42820Y-44324D01*
X42820Y-44297D01*
X42820Y-44132D01*
X42787Y-44098D01*
X42749Y-44098D01*
X42699Y-44119D01*
X42662Y-44156D01*
X42641Y-44205D01*
X42641Y-44259D01*
X42641Y-44263D01*
X42675Y-44297D01*
X42820Y-44297D01*
X42820Y-44324D01*
X42675Y-44324D01*
X42641Y-44358D01*
X42641Y-44362D01*
X42641Y-44383D01*
X41492Y-44383D01*
X41492Y-41325D01*
X41492Y-41267D01*
X41458Y-41234D01*
X41253Y-41234D01*
X41253Y-41399D01*
X41287Y-41432D01*
X41331Y-41432D01*
X41384Y-41432D01*
X41433Y-41412D01*
X41471Y-41374D01*
X41492Y-41325D01*
X41492Y-44383D01*
X41378Y-44383D01*
X41226Y-44231D01*
X41226Y-41399D01*
X41226Y-41234D01*
X41021Y-41234D01*
X40988Y-41267D01*
X40988Y-41325D01*
X41008Y-41374D01*
X41046Y-41412D01*
X41095Y-41432D01*
X41148Y-41432D01*
X41192Y-41432D01*
X41226Y-41399D01*
X41226Y-44231D01*
X40605Y-43610D01*
X40605Y-42956D01*
X40544Y-42805D01*
X40541Y-42801D01*
X40477Y-42774D01*
X40457Y-42793D01*
X40215Y-43035D01*
X40477Y-43296D01*
X40541Y-43269D01*
X40604Y-43119D01*
X40605Y-42956D01*
X40605Y-43610D01*
X40419Y-43424D01*
X40383Y-43400D01*
X40425Y-43383D01*
X40430Y-43380D01*
X40457Y-43316D01*
X40196Y-43054D01*
X40190Y-43060D01*
X40171Y-43041D01*
X40176Y-43035D01*
X40171Y-43029D01*
X40190Y-43010D01*
X40196Y-43015D01*
X40457Y-42754D01*
X40430Y-42690D01*
X40280Y-42627D01*
X40117Y-42626D01*
X39966Y-42687D01*
X39962Y-42690D01*
X39935Y-42754D01*
X39925Y-42745D01*
X39925Y-42304D01*
X39980Y-42358D01*
X40120Y-42416D01*
X40271Y-42416D01*
X40412Y-42358D01*
X40519Y-42251D01*
X40577Y-42111D01*
X40577Y-41959D01*
X40519Y-41819D01*
X40412Y-41712D01*
X40272Y-41654D01*
X40120Y-41654D01*
X39980Y-41711D01*
X39925Y-41766D01*
X39925Y-41527D01*
X40060Y-41392D01*
X40120Y-41416D01*
X40271Y-41416D01*
X40412Y-41358D01*
X40519Y-41251D01*
X40577Y-41111D01*
X40577Y-40959D01*
X40577Y-39959D01*
X40519Y-39819D01*
X40412Y-39712D01*
X40272Y-39654D01*
X40120Y-39654D01*
X39980Y-39711D01*
X39873Y-39819D01*
X39815Y-39959D01*
X39814Y-40110D01*
X39872Y-40251D01*
X39980Y-40358D01*
X40120Y-40416D01*
X40271Y-40416D01*
X40412Y-40358D01*
X40519Y-40251D01*
X40577Y-40111D01*
X40577Y-39959D01*
X40577Y-40959D01*
X40519Y-40819D01*
X40412Y-40712D01*
X40272Y-40654D01*
X40120Y-40654D01*
X39980Y-40711D01*
X39873Y-40819D01*
X39815Y-40959D01*
X39814Y-41110D01*
X39839Y-41170D01*
X39658Y-41351D01*
X39625Y-41402D01*
X39613Y-41462D01*
X39613Y-43220D01*
X39625Y-43280D01*
X39658Y-43331D01*
X39973Y-43645D01*
X40024Y-43679D01*
X40047Y-43684D01*
X39980Y-43711D01*
X39873Y-43819D01*
X39815Y-43959D01*
X39814Y-44110D01*
X39872Y-44251D01*
X39980Y-44358D01*
X40120Y-44416D01*
X40271Y-44416D01*
X40412Y-44358D01*
X40519Y-44251D01*
X40577Y-44111D01*
X40577Y-44024D01*
X41202Y-44650D01*
X41253Y-44684D01*
X41313Y-44695D01*
X43070Y-44695D01*
X43130Y-44684D01*
X43181Y-44650D01*
X43215Y-44599D01*
X43227Y-44539D01*
X43227Y-44479D01*
X43319Y-44571D01*
X43319Y-44571D01*
X43370Y-44605D01*
X43370Y-44605D01*
X43380Y-44607D01*
X43429Y-44617D01*
X47169Y-44617D01*
X47169Y-44617D01*
X47229Y-44605D01*
X47280Y-44571D01*
X49011Y-42840D01*
X51095Y-42840D01*
X51095Y-42840D01*
X51138Y-42832D01*
X51219Y-42865D01*
X51370Y-42865D01*
X51510Y-42807D01*
X51618Y-42700D01*
X51643Y-42640D01*
X53947Y-42640D01*
X53971Y-42699D01*
X54079Y-42807D01*
X54219Y-42865D01*
X54370Y-42865D01*
X54510Y-42807D01*
X54618Y-42700D01*
X54676Y-42560D01*
X54676Y-42408D01*
X54676Y-44408D01*
X54618Y-44268D01*
X54511Y-44161D01*
X54371Y-44103D01*
X54219Y-44102D01*
X54079Y-44160D01*
X53972Y-44267D01*
X53947Y-44327D01*
X51643Y-44327D01*
X51618Y-44268D01*
X51511Y-44161D01*
X51371Y-44103D01*
X51219Y-44102D01*
X51079Y-44160D01*
X50972Y-44267D01*
X50914Y-44408D01*
X50913Y-44559D01*
X50971Y-44699D01*
X51079Y-44807D01*
X51219Y-44865D01*
X51370Y-44865D01*
X51510Y-44807D01*
X51618Y-44700D01*
X51643Y-44640D01*
X53947Y-44640D01*
X53971Y-44699D01*
X54079Y-44807D01*
X54219Y-44865D01*
X54370Y-44865D01*
X54510Y-44807D01*
X54618Y-44700D01*
X54676Y-44560D01*
X54676Y-44408D01*
X54676Y-45880D01*
X54582Y-45943D01*
X54318Y-45996D01*
X53494Y-45996D01*
X50578Y-45996D01*
X50578Y-44588D01*
X50578Y-44545D01*
X50578Y-43206D01*
X50562Y-43167D01*
X50532Y-43138D01*
X50493Y-43121D01*
X50451Y-43121D01*
X49112Y-43121D01*
X49073Y-43138D01*
X49043Y-43167D01*
X49027Y-43206D01*
X49027Y-43249D01*
X49027Y-44588D01*
X49043Y-44627D01*
X49073Y-44657D01*
X49112Y-44673D01*
X49154Y-44673D01*
X50493Y-44673D01*
X50532Y-44657D01*
X50562Y-44627D01*
X50578Y-44588D01*
X50578Y-45996D01*
X41278Y-45996D01*
X41278Y-44814D01*
X36602Y-44814D01*
X36602Y-44588D01*
X36602Y-44545D01*
X36602Y-43206D01*
X36586Y-43167D01*
X36556Y-43138D01*
X36517Y-43121D01*
X36475Y-43121D01*
X36352Y-43121D01*
X36352Y-41942D01*
X36352Y-41766D01*
X36342Y-41732D01*
X36342Y-40854D01*
X36309Y-40683D01*
X36212Y-40538D01*
X36067Y-40442D01*
X35896Y-40408D01*
X35756Y-40408D01*
X35586Y-40442D01*
X35441Y-40538D01*
X35344Y-40683D01*
X35310Y-40854D01*
X35344Y-41025D01*
X35441Y-41169D01*
X35586Y-41266D01*
X35756Y-41300D01*
X35896Y-41300D01*
X36067Y-41266D01*
X36212Y-41169D01*
X36309Y-41025D01*
X36342Y-40854D01*
X36342Y-41732D01*
X36329Y-41685D01*
X36231Y-41529D01*
X36080Y-41421D01*
X35900Y-41380D01*
X35840Y-41380D01*
X35840Y-41840D01*
X36326Y-41840D01*
X36352Y-41766D01*
X36352Y-41942D01*
X36326Y-41868D01*
X35840Y-41868D01*
X35840Y-42328D01*
X35900Y-42328D01*
X36080Y-42286D01*
X36231Y-42179D01*
X36329Y-42022D01*
X36352Y-41942D01*
X36352Y-43121D01*
X35812Y-43121D01*
X35812Y-42328D01*
X35812Y-41868D01*
X35812Y-41840D01*
X35812Y-41380D01*
X35752Y-41380D01*
X35572Y-41421D01*
X35421Y-41529D01*
X35323Y-41685D01*
X35301Y-41766D01*
X35326Y-41840D01*
X35812Y-41840D01*
X35812Y-41868D01*
X35326Y-41868D01*
X35301Y-41942D01*
X35323Y-42022D01*
X35421Y-42179D01*
X35572Y-42286D01*
X35752Y-42328D01*
X35812Y-42328D01*
X35812Y-43121D01*
X35136Y-43121D01*
X35097Y-43138D01*
X35067Y-43167D01*
X35050Y-43206D01*
X35050Y-43249D01*
X35050Y-44588D01*
X35067Y-44627D01*
X35097Y-44657D01*
X35136Y-44673D01*
X35178Y-44673D01*
X36517Y-44673D01*
X36556Y-44657D01*
X36586Y-44627D01*
X36602Y-44588D01*
X36602Y-44814D01*
X36280Y-44814D01*
X36280Y-45996D01*
X35839Y-45996D01*
X35024Y-45834D01*
X34344Y-45379D01*
X33890Y-44699D01*
X33728Y-43885D01*
X33728Y-31705D01*
X33890Y-30890D01*
X34344Y-30210D01*
X35024Y-29756D01*
X35839Y-29594D01*
X48594Y-29594D01*
X48594Y-30822D01*
X51060Y-30822D01*
X51060Y-29594D01*
X54318Y-29594D01*
X54582Y-29647D01*
X54796Y-29789D01*
X54939Y-30003D01*
X54992Y-30268D01*
X54992Y-45322D01*
X54992Y-45322D01*
G37*
G54D30*
X54992Y-45322D02*
X54939Y-45586D01*
X54796Y-45800D01*
X54676Y-45880D01*
X54676Y-44408D01*
X54676Y-42408D01*
X54676Y-40550D01*
X54618Y-40410D01*
X54511Y-40302D01*
X54371Y-40244D01*
X54219Y-40244D01*
X54079Y-40302D01*
X53972Y-40409D01*
X53947Y-40469D01*
X51643Y-40469D01*
X51618Y-40410D01*
X51511Y-40302D01*
X51371Y-40244D01*
X51219Y-40244D01*
X51079Y-40302D01*
X50972Y-40409D01*
X50914Y-40549D01*
X50913Y-40701D01*
X50971Y-40841D01*
X51079Y-40949D01*
X51219Y-41007D01*
X51370Y-41007D01*
X51510Y-40949D01*
X51618Y-40842D01*
X51643Y-40782D01*
X53947Y-40782D01*
X53971Y-40841D01*
X54079Y-40949D01*
X54219Y-41007D01*
X54370Y-41007D01*
X54510Y-40949D01*
X54618Y-40842D01*
X54676Y-40702D01*
X54676Y-40550D01*
X54676Y-42408D01*
X54618Y-42268D01*
X54511Y-42161D01*
X54371Y-42103D01*
X54219Y-42102D01*
X54079Y-42160D01*
X53972Y-42267D01*
X53947Y-42327D01*
X51643Y-42327D01*
X51618Y-42268D01*
X51511Y-42161D01*
X51371Y-42103D01*
X51219Y-42102D01*
X51079Y-42160D01*
X50972Y-42267D01*
X50914Y-42408D01*
X50913Y-42528D01*
X49543Y-42528D01*
X49593Y-42494D01*
X50130Y-41958D01*
X50130Y-41958D01*
X50164Y-41907D01*
X50176Y-41847D01*
X50176Y-39861D01*
X50166Y-39811D01*
X50164Y-39801D01*
X50164Y-39801D01*
X50130Y-39751D01*
X50130Y-39751D01*
X49613Y-39233D01*
X49582Y-39213D01*
X49634Y-39178D01*
X49731Y-39033D01*
X49765Y-38863D01*
X49765Y-38845D01*
X49731Y-38674D01*
X49634Y-38530D01*
X49620Y-38520D01*
X50926Y-38520D01*
X50914Y-38549D01*
X50913Y-38701D01*
X50971Y-38841D01*
X51079Y-38949D01*
X51219Y-39007D01*
X51370Y-39007D01*
X51510Y-38949D01*
X51618Y-38842D01*
X51643Y-38782D01*
X53947Y-38782D01*
X53971Y-38841D01*
X54079Y-38949D01*
X54219Y-39007D01*
X54370Y-39007D01*
X54510Y-38949D01*
X54618Y-38842D01*
X54676Y-38702D01*
X54676Y-38550D01*
X54676Y-36692D01*
X54618Y-36552D01*
X54511Y-36444D01*
X54371Y-36386D01*
X54219Y-36386D01*
X54079Y-36444D01*
X53972Y-36551D01*
X53914Y-36691D01*
X53913Y-36843D01*
X53971Y-36983D01*
X54079Y-37090D01*
X54219Y-37148D01*
X54370Y-37149D01*
X54510Y-37091D01*
X54618Y-36983D01*
X54676Y-36843D01*
X54676Y-36692D01*
X54676Y-38550D01*
X54618Y-38410D01*
X54511Y-38302D01*
X54371Y-38244D01*
X54219Y-38244D01*
X54079Y-38302D01*
X53972Y-38409D01*
X53947Y-38469D01*
X51643Y-38469D01*
X51618Y-38410D01*
X51511Y-38302D01*
X51371Y-38244D01*
X51219Y-38244D01*
X51159Y-38269D01*
X51144Y-38253D01*
X51093Y-38219D01*
X51033Y-38207D01*
X49115Y-38207D01*
X49065Y-38217D01*
X49055Y-38219D01*
X49004Y-38253D01*
X48765Y-38493D01*
X48765Y-38493D01*
X48749Y-38454D01*
X48719Y-38424D01*
X48680Y-38408D01*
X48637Y-38408D01*
X48081Y-38408D01*
X49565Y-36924D01*
X50947Y-36924D01*
X50971Y-36983D01*
X51079Y-37090D01*
X51219Y-37148D01*
X51370Y-37149D01*
X51510Y-37091D01*
X51618Y-36983D01*
X51676Y-36843D01*
X51676Y-36692D01*
X51618Y-36552D01*
X51511Y-36444D01*
X51371Y-36386D01*
X51219Y-36386D01*
X51079Y-36444D01*
X50972Y-36551D01*
X50947Y-36611D01*
X49501Y-36611D01*
X49451Y-36621D01*
X49441Y-36623D01*
X49390Y-36657D01*
X48784Y-37263D01*
X48784Y-36898D01*
X50913Y-34768D01*
X50913Y-34843D01*
X50971Y-34983D01*
X51079Y-35090D01*
X51219Y-35148D01*
X51370Y-35149D01*
X51510Y-35091D01*
X51618Y-34983D01*
X51676Y-34843D01*
X51676Y-34692D01*
X51651Y-34632D01*
X51811Y-34472D01*
X53778Y-34472D01*
X53938Y-34632D01*
X53914Y-34691D01*
X53913Y-34843D01*
X53971Y-34983D01*
X54079Y-35090D01*
X54219Y-35148D01*
X54370Y-35149D01*
X54510Y-35091D01*
X54618Y-34983D01*
X54676Y-34843D01*
X54676Y-34692D01*
X54618Y-34552D01*
X54511Y-34444D01*
X54371Y-34386D01*
X54219Y-34386D01*
X54159Y-34411D01*
X53999Y-34251D01*
X53999Y-33201D01*
X54028Y-33189D01*
X54058Y-33159D01*
X54074Y-33120D01*
X54074Y-33077D01*
X54074Y-32627D01*
X54058Y-32588D01*
X54028Y-32558D01*
X53999Y-32546D01*
X53999Y-32020D01*
X54028Y-32008D01*
X54058Y-31978D01*
X54074Y-31939D01*
X54074Y-31896D01*
X54074Y-31446D01*
X54058Y-31407D01*
X54028Y-31377D01*
X53999Y-31365D01*
X53999Y-30838D01*
X54028Y-30826D01*
X54058Y-30797D01*
X54074Y-30757D01*
X54074Y-30715D01*
X54074Y-30265D01*
X54058Y-30226D01*
X54028Y-30196D01*
X53989Y-30180D01*
X53947Y-30180D01*
X53697Y-30180D01*
X53658Y-30196D01*
X53628Y-30226D01*
X53612Y-30265D01*
X53612Y-30307D01*
X53612Y-30757D01*
X53628Y-30797D01*
X53658Y-30826D01*
X53687Y-30838D01*
X53687Y-31365D01*
X53658Y-31377D01*
X53628Y-31407D01*
X53612Y-31446D01*
X53612Y-31489D01*
X53612Y-31939D01*
X53628Y-31978D01*
X53658Y-32008D01*
X53687Y-32020D01*
X53687Y-32546D01*
X53669Y-32554D01*
X53662Y-32523D01*
X53628Y-32472D01*
X53180Y-32024D01*
X53389Y-32024D01*
X53428Y-32008D01*
X53458Y-31978D01*
X53474Y-31939D01*
X53474Y-31896D01*
X53474Y-31446D01*
X53458Y-31407D01*
X53428Y-31377D01*
X53389Y-31361D01*
X53347Y-31361D01*
X53097Y-31361D01*
X53058Y-31377D01*
X53028Y-31407D01*
X53012Y-31446D01*
X53012Y-31489D01*
X53012Y-31536D01*
X52323Y-31536D01*
X52314Y-31514D01*
X52284Y-31484D01*
X52245Y-31468D01*
X52202Y-31468D01*
X52045Y-31468D01*
X52006Y-31484D01*
X51976Y-31514D01*
X51968Y-31534D01*
X51960Y-31514D01*
X51930Y-31484D01*
X51891Y-31468D01*
X51848Y-31468D01*
X51803Y-31468D01*
X51902Y-31370D01*
X51902Y-31370D01*
X51935Y-31319D01*
X51947Y-31259D01*
X51947Y-30702D01*
X51960Y-30690D01*
X51968Y-30669D01*
X51976Y-30690D01*
X52006Y-30719D01*
X52045Y-30736D01*
X52088Y-30736D01*
X52245Y-30736D01*
X52284Y-30719D01*
X52314Y-30690D01*
X52323Y-30668D01*
X53012Y-30668D01*
X53012Y-30757D01*
X53028Y-30797D01*
X53058Y-30826D01*
X53097Y-30843D01*
X53139Y-30843D01*
X53389Y-30843D01*
X53428Y-30826D01*
X53458Y-30797D01*
X53474Y-30757D01*
X53474Y-30715D01*
X53474Y-30265D01*
X53458Y-30226D01*
X53428Y-30196D01*
X53389Y-30180D01*
X53347Y-30180D01*
X53097Y-30180D01*
X53058Y-30196D01*
X53028Y-30226D01*
X53012Y-30265D01*
X53012Y-30307D01*
X53012Y-30355D01*
X52323Y-30355D01*
X52314Y-30333D01*
X52284Y-30303D01*
X52245Y-30287D01*
X52202Y-30287D01*
X52045Y-30287D01*
X52006Y-30303D01*
X51976Y-30333D01*
X51968Y-30353D01*
X51960Y-30333D01*
X51930Y-30303D01*
X51891Y-30287D01*
X51848Y-30287D01*
X51691Y-30287D01*
X51652Y-30303D01*
X51622Y-30333D01*
X51606Y-30372D01*
X51606Y-30414D01*
X51606Y-30650D01*
X51622Y-30690D01*
X51635Y-30702D01*
X51635Y-31194D01*
X50578Y-32251D01*
X50578Y-31002D01*
X50562Y-30963D01*
X50532Y-30933D01*
X50493Y-30917D01*
X50451Y-30917D01*
X49112Y-30917D01*
X49073Y-30933D01*
X49043Y-30963D01*
X49027Y-31002D01*
X49027Y-31044D01*
X49027Y-32383D01*
X49043Y-32422D01*
X49073Y-32452D01*
X49112Y-32468D01*
X49154Y-32468D01*
X50361Y-32468D01*
X49558Y-33272D01*
X48090Y-33272D01*
X48167Y-33240D01*
X48246Y-33161D01*
X48289Y-33057D01*
X48289Y-32945D01*
X48246Y-32842D01*
X48167Y-32763D01*
X48064Y-32720D01*
X47952Y-32720D01*
X47849Y-32763D01*
X47770Y-32842D01*
X47768Y-32845D01*
X47136Y-32845D01*
X47086Y-32855D01*
X47076Y-32857D01*
X47025Y-32891D01*
X46511Y-33405D01*
X46511Y-32956D01*
X46483Y-32887D01*
X46483Y-31959D01*
X46483Y-30959D01*
X46483Y-30959D01*
X46483Y-30331D01*
X46483Y-30289D01*
X46483Y-29739D01*
X46467Y-29700D01*
X46437Y-29670D01*
X46398Y-29654D01*
X46356Y-29654D01*
X45806Y-29654D01*
X45767Y-29670D01*
X45737Y-29700D01*
X45721Y-29739D01*
X45721Y-29781D01*
X45721Y-30331D01*
X45737Y-30370D01*
X45767Y-30400D01*
X45806Y-30416D01*
X45848Y-30416D01*
X46398Y-30416D01*
X46437Y-30400D01*
X46467Y-30370D01*
X46483Y-30331D01*
X46483Y-30959D01*
X46425Y-30819D01*
X46318Y-30712D01*
X46178Y-30654D01*
X46026Y-30654D01*
X45886Y-30711D01*
X45779Y-30819D01*
X45721Y-30959D01*
X45720Y-31110D01*
X45778Y-31251D01*
X45886Y-31358D01*
X46026Y-31416D01*
X46177Y-31416D01*
X46318Y-31358D01*
X46425Y-31251D01*
X46483Y-31111D01*
X46483Y-30959D01*
X46483Y-31959D01*
X46425Y-31819D01*
X46318Y-31712D01*
X46178Y-31654D01*
X46026Y-31654D01*
X45886Y-31711D01*
X45779Y-31819D01*
X45721Y-31959D01*
X45720Y-32110D01*
X45778Y-32251D01*
X45886Y-32358D01*
X46026Y-32416D01*
X46177Y-32416D01*
X46318Y-32358D01*
X46425Y-32251D01*
X46483Y-32111D01*
X46483Y-31959D01*
X46483Y-32887D01*
X46450Y-32805D01*
X46447Y-32801D01*
X46383Y-32774D01*
X46363Y-32793D01*
X46363Y-32754D01*
X46336Y-32690D01*
X46186Y-32627D01*
X46023Y-32626D01*
X45872Y-32687D01*
X45868Y-32690D01*
X45841Y-32754D01*
X46102Y-33015D01*
X46363Y-32754D01*
X46363Y-32793D01*
X46121Y-33035D01*
X46383Y-33296D01*
X46447Y-33269D01*
X46510Y-33119D01*
X46511Y-32956D01*
X46511Y-33405D01*
X46363Y-33553D01*
X46363Y-33316D01*
X46102Y-33054D01*
X46082Y-33074D01*
X46082Y-33035D01*
X45821Y-32774D01*
X45757Y-32801D01*
X45694Y-32951D01*
X45693Y-33114D01*
X45754Y-33264D01*
X45757Y-33269D01*
X45821Y-33296D01*
X46082Y-33035D01*
X46082Y-33074D01*
X45841Y-33316D01*
X45868Y-33380D01*
X46018Y-33443D01*
X46181Y-33444D01*
X46331Y-33383D01*
X46336Y-33380D01*
X46363Y-33316D01*
X46363Y-33553D01*
X46237Y-33678D01*
X46178Y-33654D01*
X46026Y-33654D01*
X45886Y-33711D01*
X45779Y-33819D01*
X45721Y-33959D01*
X45720Y-34110D01*
X45778Y-34251D01*
X45886Y-34358D01*
X45935Y-34379D01*
X43761Y-34379D01*
X40552Y-31170D01*
X40577Y-31111D01*
X40577Y-30959D01*
X40577Y-29959D01*
X40519Y-29819D01*
X40412Y-29712D01*
X40272Y-29654D01*
X40120Y-29654D01*
X39980Y-29711D01*
X39873Y-29819D01*
X39815Y-29959D01*
X39814Y-30110D01*
X39872Y-30251D01*
X39980Y-30358D01*
X40120Y-30416D01*
X40271Y-30416D01*
X40412Y-30358D01*
X40519Y-30251D01*
X40577Y-30111D01*
X40577Y-29959D01*
X40577Y-30959D01*
X40519Y-30819D01*
X40412Y-30712D01*
X40272Y-30654D01*
X40120Y-30654D01*
X39980Y-30711D01*
X39873Y-30819D01*
X39848Y-30879D01*
X39496Y-30879D01*
X39446Y-30889D01*
X39436Y-30891D01*
X39385Y-30924D01*
X38549Y-31761D01*
X37907Y-31761D01*
X37907Y-31496D01*
X37891Y-31457D01*
X37861Y-31427D01*
X37822Y-31411D01*
X37780Y-31411D01*
X37578Y-31411D01*
X37704Y-31357D01*
X37849Y-31207D01*
X37926Y-31014D01*
X37926Y-30820D01*
X37849Y-30626D01*
X37704Y-30477D01*
X37512Y-30395D01*
X37498Y-30392D01*
X37415Y-30417D01*
X37415Y-30903D01*
X37901Y-30903D01*
X37926Y-30820D01*
X37926Y-31014D01*
X37901Y-30931D01*
X37415Y-30931D01*
X37415Y-30938D01*
X37387Y-30938D01*
X37387Y-30931D01*
X37387Y-30903D01*
X37387Y-30417D01*
X37304Y-30392D01*
X37290Y-30395D01*
X37099Y-30477D01*
X36953Y-30626D01*
X36876Y-30820D01*
X36901Y-30903D01*
X37387Y-30903D01*
X37387Y-30931D01*
X36901Y-30931D01*
X36876Y-31014D01*
X36953Y-31207D01*
X37099Y-31357D01*
X37224Y-31411D01*
X36980Y-31411D01*
X36941Y-31427D01*
X36911Y-31457D01*
X36895Y-31496D01*
X36895Y-31538D01*
X36895Y-32338D01*
X36911Y-32377D01*
X36941Y-32407D01*
X36980Y-32423D01*
X37022Y-32423D01*
X37822Y-32423D01*
X37861Y-32407D01*
X37891Y-32377D01*
X37907Y-32338D01*
X37907Y-32296D01*
X37907Y-32073D01*
X38614Y-32073D01*
X38614Y-32073D01*
X38673Y-32061D01*
X38724Y-32027D01*
X39560Y-31191D01*
X39848Y-31191D01*
X39872Y-31251D01*
X39980Y-31358D01*
X40120Y-31416D01*
X40271Y-31416D01*
X40331Y-31391D01*
X43585Y-34645D01*
X43636Y-34679D01*
X43696Y-34691D01*
X45935Y-34691D01*
X45886Y-34711D01*
X45779Y-34819D01*
X45721Y-34959D01*
X45720Y-35110D01*
X45745Y-35170D01*
X45537Y-35379D01*
X40363Y-35379D01*
X40412Y-35358D01*
X40519Y-35251D01*
X40577Y-35111D01*
X40577Y-34959D01*
X40519Y-34819D01*
X40412Y-34712D01*
X40272Y-34654D01*
X40120Y-34654D01*
X39980Y-34711D01*
X39873Y-34819D01*
X39815Y-34959D01*
X39815Y-35089D01*
X36155Y-35089D01*
X36212Y-35051D01*
X36309Y-34907D01*
X36342Y-34736D01*
X36309Y-34565D01*
X36212Y-34420D01*
X36184Y-34402D01*
X39985Y-34402D01*
X39985Y-34402D01*
X40045Y-34390D01*
X40049Y-34387D01*
X40120Y-34416D01*
X40271Y-34416D01*
X40412Y-34358D01*
X40519Y-34251D01*
X40577Y-34111D01*
X40577Y-33959D01*
X40519Y-33819D01*
X40412Y-33712D01*
X40272Y-33654D01*
X40120Y-33654D01*
X39980Y-33711D01*
X39873Y-33819D01*
X39815Y-33959D01*
X39815Y-34089D01*
X36333Y-34089D01*
X36333Y-34055D01*
X36333Y-33375D01*
X36316Y-33336D01*
X36286Y-33306D01*
X36247Y-33289D01*
X36205Y-33289D01*
X36003Y-33289D01*
X36102Y-33191D01*
X39848Y-33191D01*
X39872Y-33251D01*
X39980Y-33358D01*
X40120Y-33416D01*
X40271Y-33416D01*
X40412Y-33358D01*
X40519Y-33251D01*
X40577Y-33111D01*
X40577Y-32959D01*
X40577Y-31959D01*
X40519Y-31819D01*
X40412Y-31712D01*
X40272Y-31654D01*
X40120Y-31654D01*
X39980Y-31711D01*
X39873Y-31819D01*
X39815Y-31959D01*
X39814Y-32110D01*
X39872Y-32251D01*
X39980Y-32358D01*
X40120Y-32416D01*
X40271Y-32416D01*
X40412Y-32358D01*
X40519Y-32251D01*
X40577Y-32111D01*
X40577Y-31959D01*
X40577Y-32959D01*
X40519Y-32819D01*
X40412Y-32712D01*
X40272Y-32654D01*
X40120Y-32654D01*
X39980Y-32711D01*
X39873Y-32819D01*
X39848Y-32879D01*
X36602Y-32879D01*
X36602Y-32383D01*
X36602Y-32341D01*
X36602Y-31002D01*
X36586Y-30963D01*
X36556Y-30933D01*
X36517Y-30917D01*
X36475Y-30917D01*
X35136Y-30917D01*
X35097Y-30933D01*
X35067Y-30963D01*
X35050Y-31002D01*
X35050Y-31044D01*
X35050Y-32383D01*
X35067Y-32422D01*
X35097Y-32452D01*
X35136Y-32468D01*
X35178Y-32468D01*
X36517Y-32468D01*
X36556Y-32452D01*
X36586Y-32422D01*
X36602Y-32383D01*
X36602Y-32879D01*
X36037Y-32879D01*
X35977Y-32891D01*
X35926Y-32924D01*
X35716Y-33135D01*
X35682Y-33186D01*
X35670Y-33246D01*
X35670Y-33289D01*
X35405Y-33289D01*
X35366Y-33306D01*
X35336Y-33336D01*
X35320Y-33375D01*
X35320Y-33417D01*
X35320Y-34097D01*
X35336Y-34136D01*
X35366Y-34166D01*
X35405Y-34182D01*
X35447Y-34182D01*
X35684Y-34182D01*
X35682Y-34186D01*
X35670Y-34246D01*
X35670Y-34307D01*
X35586Y-34323D01*
X35441Y-34420D01*
X35344Y-34565D01*
X35310Y-34736D01*
X35344Y-34907D01*
X35441Y-35051D01*
X35586Y-35148D01*
X35693Y-35169D01*
X35682Y-35186D01*
X35670Y-35246D01*
X35670Y-35307D01*
X35586Y-35323D01*
X35441Y-35420D01*
X35344Y-35565D01*
X35310Y-35736D01*
X35344Y-35907D01*
X35441Y-36051D01*
X35586Y-36148D01*
X35756Y-36182D01*
X35896Y-36182D01*
X36067Y-36148D01*
X36212Y-36051D01*
X36309Y-35907D01*
X36342Y-35736D01*
X36309Y-35565D01*
X36212Y-35420D01*
X36184Y-35402D01*
X39785Y-35402D01*
X39751Y-35424D01*
X38341Y-36835D01*
X37780Y-36835D01*
X37806Y-36817D01*
X37904Y-36660D01*
X37927Y-36579D01*
X37927Y-36404D01*
X37904Y-36323D01*
X37806Y-36166D01*
X37655Y-36059D01*
X37475Y-36018D01*
X37415Y-36018D01*
X37415Y-36478D01*
X37901Y-36478D01*
X37927Y-36404D01*
X37927Y-36579D01*
X37901Y-36505D01*
X37415Y-36505D01*
X37415Y-36513D01*
X37387Y-36513D01*
X37387Y-36505D01*
X37387Y-36478D01*
X37387Y-36018D01*
X37327Y-36018D01*
X37147Y-36059D01*
X36996Y-36166D01*
X36898Y-36323D01*
X36875Y-36404D01*
X36901Y-36478D01*
X37387Y-36478D01*
X37387Y-36505D01*
X36901Y-36505D01*
X36875Y-36579D01*
X36898Y-36660D01*
X36996Y-36817D01*
X37059Y-36862D01*
X37031Y-36881D01*
X36352Y-37560D01*
X36352Y-36823D01*
X36352Y-36648D01*
X36329Y-36567D01*
X36231Y-36410D01*
X36080Y-36303D01*
X35900Y-36262D01*
X35840Y-36262D01*
X35840Y-36722D01*
X36326Y-36722D01*
X36352Y-36648D01*
X36352Y-36823D01*
X36326Y-36750D01*
X35840Y-36750D01*
X35840Y-37210D01*
X35900Y-37210D01*
X36080Y-37168D01*
X36231Y-37061D01*
X36329Y-36904D01*
X36352Y-36823D01*
X36352Y-37560D01*
X35812Y-38099D01*
X35812Y-37210D01*
X35812Y-36750D01*
X35812Y-36722D01*
X35812Y-36262D01*
X35752Y-36262D01*
X35572Y-36303D01*
X35421Y-36410D01*
X35323Y-36567D01*
X35301Y-36648D01*
X35326Y-36722D01*
X35812Y-36722D01*
X35812Y-36750D01*
X35326Y-36750D01*
X35301Y-36823D01*
X35323Y-36904D01*
X35421Y-37061D01*
X35572Y-37168D01*
X35752Y-37210D01*
X35812Y-37210D01*
X35812Y-38099D01*
X35716Y-38196D01*
X35682Y-38247D01*
X35670Y-38306D01*
X35670Y-38408D01*
X35405Y-38408D01*
X35366Y-38424D01*
X35336Y-38454D01*
X35320Y-38493D01*
X35320Y-38535D01*
X35320Y-39215D01*
X35336Y-39254D01*
X35366Y-39284D01*
X35405Y-39300D01*
X35447Y-39300D01*
X35684Y-39300D01*
X35682Y-39304D01*
X35670Y-39364D01*
X35670Y-39425D01*
X35586Y-39442D01*
X35441Y-39538D01*
X35344Y-39683D01*
X35310Y-39854D01*
X35344Y-40025D01*
X35441Y-40169D01*
X35586Y-40266D01*
X35756Y-40300D01*
X35896Y-40300D01*
X36067Y-40266D01*
X36212Y-40169D01*
X36309Y-40025D01*
X36342Y-39854D01*
X36309Y-39683D01*
X36212Y-39538D01*
X36184Y-39520D01*
X36288Y-39520D01*
X36288Y-39520D01*
X36348Y-39508D01*
X36399Y-39474D01*
X36961Y-38911D01*
X36961Y-38911D01*
X36995Y-38861D01*
X37007Y-38801D01*
X37007Y-38795D01*
X37016Y-38807D01*
X37160Y-38904D01*
X37268Y-38925D01*
X37257Y-38942D01*
X37245Y-39002D01*
X37245Y-39045D01*
X36980Y-39045D01*
X36941Y-39062D01*
X36911Y-39091D01*
X36895Y-39130D01*
X36895Y-39173D01*
X36895Y-39853D01*
X36911Y-39892D01*
X36941Y-39922D01*
X36980Y-39938D01*
X37022Y-39938D01*
X37822Y-39938D01*
X37861Y-39922D01*
X37891Y-39892D01*
X37907Y-39853D01*
X37907Y-39810D01*
X37907Y-39155D01*
X37951Y-39146D01*
X38002Y-39112D01*
X39423Y-37691D01*
X40029Y-37691D01*
X39980Y-37711D01*
X39873Y-37819D01*
X39815Y-37959D01*
X39814Y-38110D01*
X39872Y-38251D01*
X39980Y-38358D01*
X40120Y-38416D01*
X40271Y-38416D01*
X40331Y-38391D01*
X41084Y-39144D01*
X41084Y-39691D01*
X41078Y-39696D01*
X40552Y-39170D01*
X40577Y-39111D01*
X40577Y-38959D01*
X40519Y-38819D01*
X40412Y-38712D01*
X40272Y-38654D01*
X40120Y-38654D01*
X39980Y-38711D01*
X39873Y-38819D01*
X39815Y-38959D01*
X39814Y-39110D01*
X39872Y-39251D01*
X39980Y-39358D01*
X40120Y-39416D01*
X40271Y-39416D01*
X40331Y-39391D01*
X40855Y-39915D01*
X40855Y-40409D01*
X40867Y-40468D01*
X40901Y-40519D01*
X41074Y-40692D01*
X41061Y-40697D01*
X41032Y-40727D01*
X41015Y-40766D01*
X41015Y-40808D01*
X41015Y-40965D01*
X41032Y-41005D01*
X41052Y-41025D01*
X41046Y-41028D01*
X41008Y-41065D01*
X40988Y-41115D01*
X40988Y-41173D01*
X41021Y-41206D01*
X41226Y-41206D01*
X41226Y-41198D01*
X41253Y-41198D01*
X41253Y-41206D01*
X41458Y-41206D01*
X41492Y-41173D01*
X41492Y-41115D01*
X41471Y-41065D01*
X41433Y-41028D01*
X41427Y-41025D01*
X41448Y-41005D01*
X41464Y-40965D01*
X41464Y-40923D01*
X41464Y-40766D01*
X41448Y-40727D01*
X41418Y-40697D01*
X41396Y-40688D01*
X41396Y-40637D01*
X41384Y-40577D01*
X41350Y-40527D01*
X41167Y-40344D01*
X41167Y-40106D01*
X41182Y-40106D01*
X41339Y-40106D01*
X41379Y-40090D01*
X41399Y-40069D01*
X41402Y-40075D01*
X41439Y-40113D01*
X41489Y-40133D01*
X41547Y-40133D01*
X41580Y-40100D01*
X41580Y-39895D01*
X41572Y-39895D01*
X41572Y-39868D01*
X41580Y-39868D01*
X41580Y-39663D01*
X41547Y-39630D01*
X41489Y-39630D01*
X41439Y-39650D01*
X41402Y-39688D01*
X41399Y-39694D01*
X41396Y-39691D01*
X41396Y-39079D01*
X41384Y-39019D01*
X41350Y-38968D01*
X40552Y-38170D01*
X40577Y-38111D01*
X40577Y-37959D01*
X40519Y-37819D01*
X40412Y-37712D01*
X40362Y-37691D01*
X41506Y-37691D01*
X41506Y-37691D01*
X41566Y-37679D01*
X41617Y-37645D01*
X42627Y-36635D01*
X42731Y-36635D01*
X42720Y-36646D01*
X42677Y-36750D01*
X42677Y-36862D01*
X42678Y-36865D01*
X42438Y-37105D01*
X42404Y-37156D01*
X42392Y-37216D01*
X42392Y-40610D01*
X42373Y-40602D01*
X42331Y-40602D01*
X42213Y-40602D01*
X42174Y-40619D01*
X42165Y-40627D01*
X42156Y-40619D01*
X42117Y-40602D01*
X42075Y-40602D01*
X41957Y-40602D01*
X41918Y-40619D01*
X41909Y-40627D01*
X41900Y-40619D01*
X41861Y-40602D01*
X41819Y-40602D01*
X41806Y-40602D01*
X41806Y-40026D01*
X41806Y-39973D01*
X41806Y-39929D01*
X41806Y-39834D01*
X41806Y-39790D01*
X41806Y-39737D01*
X41786Y-39688D01*
X41748Y-39650D01*
X41699Y-39630D01*
X41641Y-39630D01*
X41608Y-39663D01*
X41608Y-39868D01*
X41773Y-39868D01*
X41806Y-39834D01*
X41806Y-39929D01*
X41773Y-39895D01*
X41608Y-39895D01*
X41608Y-40100D01*
X41641Y-40133D01*
X41699Y-40133D01*
X41748Y-40113D01*
X41786Y-40075D01*
X41806Y-40026D01*
X41806Y-40602D01*
X41701Y-40602D01*
X41662Y-40619D01*
X41632Y-40648D01*
X41616Y-40687D01*
X41616Y-40730D01*
X41616Y-41360D01*
X41632Y-41399D01*
X41662Y-41429D01*
X41701Y-41445D01*
X41743Y-41445D01*
X41861Y-41445D01*
X41900Y-41429D01*
X41909Y-41420D01*
X41918Y-41429D01*
X41957Y-41445D01*
X41999Y-41445D01*
X42117Y-41445D01*
X42137Y-41437D01*
X42137Y-41489D01*
X42148Y-41548D01*
X42182Y-41599D01*
X42383Y-41800D01*
X42433Y-41834D01*
X42433Y-41834D01*
X42443Y-41835D01*
X42493Y-41845D01*
X44309Y-41845D01*
X44309Y-41845D01*
X44369Y-41834D01*
X44420Y-41800D01*
X44853Y-41367D01*
X44853Y-41367D01*
X44875Y-41333D01*
X44887Y-41316D01*
X44887Y-41316D01*
X44898Y-41256D01*
X44898Y-41256D01*
X44898Y-38719D01*
X44949Y-38668D01*
X44952Y-38669D01*
X45064Y-38670D01*
X45167Y-38627D01*
X45247Y-38548D01*
X45289Y-38444D01*
X45290Y-38333D01*
X45247Y-38229D01*
X45168Y-38150D01*
X45064Y-38107D01*
X44953Y-38107D01*
X44849Y-38150D01*
X44770Y-38229D01*
X44727Y-38332D01*
X44727Y-38444D01*
X44728Y-38447D01*
X44632Y-38544D01*
X44598Y-38595D01*
X44586Y-38654D01*
X44586Y-40163D01*
X44583Y-40159D01*
X44583Y-40159D01*
X44298Y-39874D01*
X44298Y-39795D01*
X44255Y-39692D01*
X44179Y-39615D01*
X44234Y-39560D01*
X44277Y-39457D01*
X44277Y-39345D01*
X44234Y-39242D01*
X44155Y-39163D01*
X44052Y-39120D01*
X43940Y-39120D01*
X43836Y-39162D01*
X43757Y-39241D01*
X43714Y-39345D01*
X43714Y-39457D01*
X43716Y-39460D01*
X43566Y-39610D01*
X43532Y-39660D01*
X43520Y-39720D01*
X43520Y-40004D01*
X43532Y-40064D01*
X43566Y-40114D01*
X43626Y-40175D01*
X43529Y-40135D01*
X43417Y-40135D01*
X43314Y-40177D01*
X43235Y-40256D01*
X43196Y-40349D01*
X43196Y-40313D01*
X43196Y-40195D01*
X43192Y-40185D01*
X43203Y-40174D01*
X43224Y-40125D01*
X43224Y-40086D01*
X43224Y-39992D01*
X43224Y-39953D01*
X43203Y-39904D01*
X43166Y-39867D01*
X43116Y-39846D01*
X43063Y-39846D01*
X43059Y-39846D01*
X43025Y-39880D01*
X43025Y-40025D01*
X43190Y-40025D01*
X43224Y-39992D01*
X43224Y-40086D01*
X43190Y-40053D01*
X43025Y-40053D01*
X43025Y-40061D01*
X42998Y-40061D01*
X42998Y-40053D01*
X42990Y-40053D01*
X42990Y-40025D01*
X42998Y-40025D01*
X42998Y-39880D01*
X42979Y-39861D01*
X45084Y-37755D01*
X45171Y-37791D01*
X45283Y-37792D01*
X45386Y-37749D01*
X45466Y-37670D01*
X45467Y-37667D01*
X45995Y-37667D01*
X45886Y-37711D01*
X45779Y-37819D01*
X45721Y-37959D01*
X45720Y-38110D01*
X45778Y-38251D01*
X45886Y-38358D01*
X46026Y-38416D01*
X46177Y-38416D01*
X46318Y-38358D01*
X46425Y-38251D01*
X46483Y-38111D01*
X46483Y-37959D01*
X46458Y-37899D01*
X46921Y-37437D01*
X46921Y-37437D01*
X46954Y-37387D01*
X46954Y-37387D01*
X46956Y-37377D01*
X46966Y-37327D01*
X46966Y-37327D01*
X46966Y-34005D01*
X47222Y-33750D01*
X47222Y-33960D01*
X47255Y-33994D01*
X47742Y-33994D01*
X47742Y-33986D01*
X47769Y-33986D01*
X47769Y-33994D01*
X48256Y-33994D01*
X48289Y-33960D01*
X48289Y-33584D01*
X49622Y-33584D01*
X49622Y-33584D01*
X49682Y-33572D01*
X49733Y-33538D01*
X51606Y-31665D01*
X51606Y-31832D01*
X51622Y-31871D01*
X51635Y-31883D01*
X51635Y-31961D01*
X51647Y-32020D01*
X51680Y-32071D01*
X51731Y-32105D01*
X51791Y-32117D01*
X52831Y-32117D01*
X53256Y-32542D01*
X53097Y-32542D01*
X53058Y-32558D01*
X53028Y-32588D01*
X53012Y-32627D01*
X53012Y-32670D01*
X53012Y-32717D01*
X52323Y-32717D01*
X52314Y-32695D01*
X52284Y-32665D01*
X52245Y-32649D01*
X52202Y-32649D01*
X52045Y-32649D01*
X52006Y-32665D01*
X51976Y-32695D01*
X51968Y-32716D01*
X51960Y-32695D01*
X51930Y-32665D01*
X51891Y-32649D01*
X51848Y-32649D01*
X51691Y-32649D01*
X51652Y-32665D01*
X51622Y-32695D01*
X51606Y-32734D01*
X51606Y-32777D01*
X51606Y-33013D01*
X51622Y-33052D01*
X51635Y-33064D01*
X51635Y-33281D01*
X48289Y-36626D01*
X48289Y-34434D01*
X48289Y-34055D01*
X48256Y-34021D01*
X47769Y-34021D01*
X47769Y-34029D01*
X47742Y-34029D01*
X47742Y-34021D01*
X47255Y-34021D01*
X47222Y-34055D01*
X47222Y-34434D01*
X47242Y-34483D01*
X47280Y-34521D01*
X47329Y-34541D01*
X47382Y-34541D01*
X47544Y-34541D01*
X47397Y-34639D01*
X47288Y-34804D01*
X47249Y-34997D01*
X47249Y-35017D01*
X47288Y-35211D01*
X47397Y-35375D01*
X47562Y-35485D01*
X47755Y-35524D01*
X47949Y-35485D01*
X48113Y-35375D01*
X48223Y-35211D01*
X48262Y-35017D01*
X48262Y-34997D01*
X48223Y-34804D01*
X48113Y-34639D01*
X47966Y-34541D01*
X48129Y-34541D01*
X48182Y-34541D01*
X48231Y-34521D01*
X48269Y-34483D01*
X48289Y-34434D01*
X48289Y-36626D01*
X46237Y-38678D01*
X46178Y-38654D01*
X46026Y-38654D01*
X45886Y-38711D01*
X45779Y-38819D01*
X45721Y-38959D01*
X45720Y-39110D01*
X45778Y-39251D01*
X45886Y-39358D01*
X46026Y-39416D01*
X46177Y-39416D01*
X46318Y-39358D01*
X46425Y-39251D01*
X46483Y-39111D01*
X46483Y-38959D01*
X46458Y-38899D01*
X48471Y-36887D01*
X48471Y-37293D01*
X46110Y-39654D01*
X46026Y-39654D01*
X45886Y-39711D01*
X45779Y-39819D01*
X45721Y-39959D01*
X45720Y-40110D01*
X45778Y-40251D01*
X45886Y-40358D01*
X45953Y-40386D01*
X45941Y-40389D01*
X45931Y-40391D01*
X45880Y-40424D01*
X45086Y-41219D01*
X45052Y-41270D01*
X45040Y-41329D01*
X45040Y-41621D01*
X45040Y-41699D01*
X45037Y-41702D01*
X45034Y-41695D01*
X44997Y-41658D01*
X44947Y-41637D01*
X44889Y-41637D01*
X44856Y-41671D01*
X44856Y-41875D01*
X44864Y-41875D01*
X44864Y-41903D01*
X44856Y-41903D01*
X44856Y-41911D01*
X44828Y-41911D01*
X44828Y-41903D01*
X44828Y-41875D01*
X44828Y-41671D01*
X44795Y-41637D01*
X44737Y-41637D01*
X44688Y-41658D01*
X44650Y-41695D01*
X44630Y-41745D01*
X44630Y-41798D01*
X44630Y-41842D01*
X44663Y-41875D01*
X44828Y-41875D01*
X44828Y-41903D01*
X44663Y-41903D01*
X44630Y-41937D01*
X44630Y-41981D01*
X44630Y-42034D01*
X44650Y-42083D01*
X44688Y-42121D01*
X44718Y-42133D01*
X42797Y-42133D01*
X42737Y-42145D01*
X42687Y-42179D01*
X42182Y-42683D01*
X42148Y-42734D01*
X42137Y-42794D01*
X42137Y-42999D01*
X42137Y-43050D01*
X42117Y-43042D01*
X42075Y-43042D01*
X41957Y-43042D01*
X41924Y-43056D01*
X41891Y-43042D01*
X41848Y-43042D01*
X41730Y-43042D01*
X41691Y-43059D01*
X41661Y-43088D01*
X41645Y-43127D01*
X41645Y-43170D01*
X41645Y-43800D01*
X41661Y-43839D01*
X41691Y-43869D01*
X41730Y-43885D01*
X41773Y-43885D01*
X41891Y-43885D01*
X41924Y-43871D01*
X41957Y-43885D01*
X41999Y-43885D01*
X42117Y-43885D01*
X42156Y-43869D01*
X42165Y-43860D01*
X42174Y-43869D01*
X42213Y-43885D01*
X42255Y-43885D01*
X42373Y-43885D01*
X42412Y-43869D01*
X42421Y-43860D01*
X42429Y-43869D01*
X42469Y-43885D01*
X42511Y-43885D01*
X42629Y-43885D01*
X42668Y-43869D01*
X42677Y-43860D01*
X42685Y-43869D01*
X42724Y-43885D01*
X42767Y-43885D01*
X42885Y-43885D01*
X42904Y-43877D01*
X42904Y-44072D01*
X42909Y-44098D01*
X42882Y-44098D01*
X42848Y-44132D01*
X42848Y-44297D01*
X42856Y-44297D01*
X42856Y-44324D01*
X42848Y-44324D01*
X42848Y-44332D01*
X42820Y-44332D01*
X42820Y-44324D01*
X42820Y-44297D01*
X42820Y-44132D01*
X42787Y-44098D01*
X42749Y-44098D01*
X42699Y-44119D01*
X42662Y-44156D01*
X42641Y-44205D01*
X42641Y-44259D01*
X42641Y-44263D01*
X42675Y-44297D01*
X42820Y-44297D01*
X42820Y-44324D01*
X42675Y-44324D01*
X42641Y-44358D01*
X42641Y-44362D01*
X42641Y-44383D01*
X41492Y-44383D01*
X41492Y-41325D01*
X41492Y-41267D01*
X41458Y-41234D01*
X41253Y-41234D01*
X41253Y-41399D01*
X41287Y-41432D01*
X41331Y-41432D01*
X41384Y-41432D01*
X41433Y-41412D01*
X41471Y-41374D01*
X41492Y-41325D01*
X41492Y-44383D01*
X41378Y-44383D01*
X41226Y-44231D01*
X41226Y-41399D01*
X41226Y-41234D01*
X41021Y-41234D01*
X40988Y-41267D01*
X40988Y-41325D01*
X41008Y-41374D01*
X41046Y-41412D01*
X41095Y-41432D01*
X41148Y-41432D01*
X41192Y-41432D01*
X41226Y-41399D01*
X41226Y-44231D01*
X40605Y-43610D01*
X40605Y-42956D01*
X40544Y-42805D01*
X40541Y-42801D01*
X40477Y-42774D01*
X40457Y-42793D01*
X40215Y-43035D01*
X40477Y-43296D01*
X40541Y-43269D01*
X40604Y-43119D01*
X40605Y-42956D01*
X40605Y-43610D01*
X40419Y-43424D01*
X40383Y-43400D01*
X40425Y-43383D01*
X40430Y-43380D01*
X40457Y-43316D01*
X40196Y-43054D01*
X40190Y-43060D01*
X40171Y-43041D01*
X40176Y-43035D01*
X40171Y-43029D01*
X40190Y-43010D01*
X40196Y-43015D01*
X40457Y-42754D01*
X40430Y-42690D01*
X40280Y-42627D01*
X40117Y-42626D01*
X39966Y-42687D01*
X39962Y-42690D01*
X39935Y-42754D01*
X39925Y-42745D01*
X39925Y-42304D01*
X39980Y-42358D01*
X40120Y-42416D01*
X40271Y-42416D01*
X40412Y-42358D01*
X40519Y-42251D01*
X40577Y-42111D01*
X40577Y-41959D01*
X40519Y-41819D01*
X40412Y-41712D01*
X40272Y-41654D01*
X40120Y-41654D01*
X39980Y-41711D01*
X39925Y-41766D01*
X39925Y-41527D01*
X40060Y-41392D01*
X40120Y-41416D01*
X40271Y-41416D01*
X40412Y-41358D01*
X40519Y-41251D01*
X40577Y-41111D01*
X40577Y-40959D01*
X40577Y-39959D01*
X40519Y-39819D01*
X40412Y-39712D01*
X40272Y-39654D01*
X40120Y-39654D01*
X39980Y-39711D01*
X39873Y-39819D01*
X39815Y-39959D01*
X39814Y-40110D01*
X39872Y-40251D01*
X39980Y-40358D01*
X40120Y-40416D01*
X40271Y-40416D01*
X40412Y-40358D01*
X40519Y-40251D01*
X40577Y-40111D01*
X40577Y-39959D01*
X40577Y-40959D01*
X40519Y-40819D01*
X40412Y-40712D01*
X40272Y-40654D01*
X40120Y-40654D01*
X39980Y-40711D01*
X39873Y-40819D01*
X39815Y-40959D01*
X39814Y-41110D01*
X39839Y-41170D01*
X39658Y-41351D01*
X39625Y-41402D01*
X39613Y-41462D01*
X39613Y-43220D01*
X39625Y-43280D01*
X39658Y-43331D01*
X39973Y-43645D01*
X40024Y-43679D01*
X40047Y-43684D01*
X39980Y-43711D01*
X39873Y-43819D01*
X39815Y-43959D01*
X39814Y-44110D01*
X39872Y-44251D01*
X39980Y-44358D01*
X40120Y-44416D01*
X40271Y-44416D01*
X40412Y-44358D01*
X40519Y-44251D01*
X40577Y-44111D01*
X40577Y-44024D01*
X41202Y-44650D01*
X41253Y-44684D01*
X41313Y-44695D01*
X43070Y-44695D01*
X43130Y-44684D01*
X43181Y-44650D01*
X43215Y-44599D01*
X43227Y-44539D01*
X43227Y-44479D01*
X43319Y-44571D01*
X43319Y-44571D01*
X43370Y-44605D01*
X43370Y-44605D01*
X43380Y-44607D01*
X43429Y-44617D01*
X47169Y-44617D01*
X47169Y-44617D01*
X47229Y-44605D01*
X47280Y-44571D01*
X49011Y-42840D01*
X51095Y-42840D01*
X51095Y-42840D01*
X51138Y-42832D01*
X51219Y-42865D01*
X51370Y-42865D01*
X51510Y-42807D01*
X51618Y-42700D01*
X51643Y-42640D01*
X53947Y-42640D01*
X53971Y-42699D01*
X54079Y-42807D01*
X54219Y-42865D01*
X54370Y-42865D01*
X54510Y-42807D01*
X54618Y-42700D01*
X54676Y-42560D01*
X54676Y-42408D01*
X54676Y-44408D01*
X54618Y-44268D01*
X54511Y-44161D01*
X54371Y-44103D01*
X54219Y-44102D01*
X54079Y-44160D01*
X53972Y-44267D01*
X53947Y-44327D01*
X51643Y-44327D01*
X51618Y-44268D01*
X51511Y-44161D01*
X51371Y-44103D01*
X51219Y-44102D01*
X51079Y-44160D01*
X50972Y-44267D01*
X50914Y-44408D01*
X50913Y-44559D01*
X50971Y-44699D01*
X51079Y-44807D01*
X51219Y-44865D01*
X51370Y-44865D01*
X51510Y-44807D01*
X51618Y-44700D01*
X51643Y-44640D01*
X53947Y-44640D01*
X53971Y-44699D01*
X54079Y-44807D01*
X54219Y-44865D01*
X54370Y-44865D01*
X54510Y-44807D01*
X54618Y-44700D01*
X54676Y-44560D01*
X54676Y-44408D01*
X54676Y-45880D01*
X54582Y-45943D01*
X54318Y-45996D01*
X53494Y-45996D01*
X50578Y-45996D01*
X50578Y-44588D01*
X50578Y-44545D01*
X50578Y-43206D01*
X50562Y-43167D01*
X50532Y-43138D01*
X50493Y-43121D01*
X50451Y-43121D01*
X49112Y-43121D01*
X49073Y-43138D01*
X49043Y-43167D01*
X49027Y-43206D01*
X49027Y-43249D01*
X49027Y-44588D01*
X49043Y-44627D01*
X49073Y-44657D01*
X49112Y-44673D01*
X49154Y-44673D01*
X50493Y-44673D01*
X50532Y-44657D01*
X50562Y-44627D01*
X50578Y-44588D01*
X50578Y-45996D01*
X41278Y-45996D01*
X41278Y-44814D01*
X36602Y-44814D01*
X36602Y-44588D01*
X36602Y-44545D01*
X36602Y-43206D01*
X36586Y-43167D01*
X36556Y-43138D01*
X36517Y-43121D01*
X36475Y-43121D01*
X36352Y-43121D01*
X36352Y-41942D01*
X36352Y-41766D01*
X36342Y-41732D01*
X36342Y-40854D01*
X36309Y-40683D01*
X36212Y-40538D01*
X36067Y-40442D01*
X35896Y-40408D01*
X35756Y-40408D01*
X35586Y-40442D01*
X35441Y-40538D01*
X35344Y-40683D01*
X35310Y-40854D01*
X35344Y-41025D01*
X35441Y-41169D01*
X35586Y-41266D01*
X35756Y-41300D01*
X35896Y-41300D01*
X36067Y-41266D01*
X36212Y-41169D01*
X36309Y-41025D01*
X36342Y-40854D01*
X36342Y-41732D01*
X36329Y-41685D01*
X36231Y-41529D01*
X36080Y-41421D01*
X35900Y-41380D01*
X35840Y-41380D01*
X35840Y-41840D01*
X36326Y-41840D01*
X36352Y-41766D01*
X36352Y-41942D01*
X36326Y-41868D01*
X35840Y-41868D01*
X35840Y-42328D01*
X35900Y-42328D01*
X36080Y-42286D01*
X36231Y-42179D01*
X36329Y-42022D01*
X36352Y-41942D01*
X36352Y-43121D01*
X35812Y-43121D01*
X35812Y-42328D01*
X35812Y-41868D01*
X35812Y-41840D01*
X35812Y-41380D01*
X35752Y-41380D01*
X35572Y-41421D01*
X35421Y-41529D01*
X35323Y-41685D01*
X35301Y-41766D01*
X35326Y-41840D01*
X35812Y-41840D01*
X35812Y-41868D01*
X35326Y-41868D01*
X35301Y-41942D01*
X35323Y-42022D01*
X35421Y-42179D01*
X35572Y-42286D01*
X35752Y-42328D01*
X35812Y-42328D01*
X35812Y-43121D01*
X35136Y-43121D01*
X35097Y-43138D01*
X35067Y-43167D01*
X35050Y-43206D01*
X35050Y-43249D01*
X35050Y-44588D01*
X35067Y-44627D01*
X35097Y-44657D01*
X35136Y-44673D01*
X35178Y-44673D01*
X36517Y-44673D01*
X36556Y-44657D01*
X36586Y-44627D01*
X36602Y-44588D01*
X36602Y-44814D01*
X36280Y-44814D01*
X36280Y-45996D01*
X35839Y-45996D01*
X35024Y-45834D01*
X34344Y-45379D01*
X33890Y-44699D01*
X33728Y-43885D01*
X33728Y-31705D01*
X33890Y-30890D01*
X34344Y-30210D01*
X35024Y-29756D01*
X35839Y-29594D01*
X48594Y-29594D01*
X48594Y-30822D01*
X51060Y-30822D01*
X51060Y-29594D01*
X54318Y-29594D01*
X54582Y-29647D01*
X54796Y-29789D01*
X54939Y-30003D01*
X54992Y-30268D01*
X54992Y-45322D01*
M02*
