%FSLAX34Y34*%
G04 Gerber Fmt 3.4, Leading zero omitted, Abs format*
G04 (created by PCBNEW (2014-03-19 BZR 4756)-product) date Wed 04 Jun 2014 23:43:45 BST*
%MOIN*%
G01*
G70*
G90*
G04 APERTURE LIST*
%ADD10C,0.005906*%
%ADD11C,0.007874*%
%ADD12R,0.015748X0.039370*%
%ADD13R,0.039370X0.015748*%
%ADD14R,0.098425X0.098425*%
%ADD15C,0.019685*%
%ADD16R,0.015700X0.011800*%
%ADD17R,0.045000X0.025000*%
%ADD18R,0.068000X0.068000*%
%ADD19O,0.068000X0.068000*%
%ADD20R,0.080000X0.068000*%
%ADD21O,0.080000X0.068000*%
%ADD22R,0.023600X0.015700*%
%ADD23C,0.055000*%
%ADD24R,0.080000X0.080000*%
%ADD25O,0.080000X0.080000*%
%ADD26R,0.133900X0.133900*%
%ADD27R,0.055000X0.055000*%
%ADD28C,0.035000*%
%ADD29C,0.010000*%
%ADD30C,0.007087*%
G04 APERTURE END LIST*
G54D10*
G54D11*
X62417Y-33902D02*
X62417Y-33587D01*
X62342Y-33587D01*
X62297Y-33602D01*
X62267Y-33632D01*
X62252Y-33662D01*
X62237Y-33722D01*
X62237Y-33767D01*
X62252Y-33827D01*
X62267Y-33857D01*
X62297Y-33887D01*
X62342Y-33902D01*
X62417Y-33902D01*
X62057Y-33722D02*
X62087Y-33707D01*
X62102Y-33692D01*
X62117Y-33662D01*
X62117Y-33647D01*
X62102Y-33617D01*
X62087Y-33602D01*
X62057Y-33587D01*
X61997Y-33587D01*
X61967Y-33602D01*
X61952Y-33617D01*
X61937Y-33647D01*
X61937Y-33662D01*
X61952Y-33692D01*
X61967Y-33707D01*
X61997Y-33722D01*
X62057Y-33722D01*
X62087Y-33737D01*
X62102Y-33752D01*
X62117Y-33782D01*
X62117Y-33842D01*
X62102Y-33872D01*
X62087Y-33887D01*
X62057Y-33902D01*
X61997Y-33902D01*
X61967Y-33887D01*
X61952Y-33872D01*
X61937Y-33842D01*
X61937Y-33782D01*
X61952Y-33752D01*
X61967Y-33737D01*
X61997Y-33722D01*
X62417Y-32721D02*
X62417Y-32406D01*
X62342Y-32406D01*
X62297Y-32421D01*
X62267Y-32451D01*
X62252Y-32481D01*
X62237Y-32541D01*
X62237Y-32586D01*
X62252Y-32646D01*
X62267Y-32676D01*
X62297Y-32706D01*
X62342Y-32721D01*
X62417Y-32721D01*
X62132Y-32406D02*
X61922Y-32406D01*
X62057Y-32721D01*
X62417Y-31540D02*
X62417Y-31225D01*
X62342Y-31225D01*
X62297Y-31240D01*
X62267Y-31270D01*
X62252Y-31300D01*
X62237Y-31360D01*
X62237Y-31405D01*
X62252Y-31465D01*
X62267Y-31495D01*
X62297Y-31525D01*
X62342Y-31540D01*
X62417Y-31540D01*
X61967Y-31225D02*
X62027Y-31225D01*
X62057Y-31240D01*
X62072Y-31255D01*
X62102Y-31300D01*
X62117Y-31360D01*
X62117Y-31480D01*
X62102Y-31510D01*
X62087Y-31525D01*
X62057Y-31540D01*
X61997Y-31540D01*
X61967Y-31525D01*
X61952Y-31510D01*
X61937Y-31480D01*
X61937Y-31405D01*
X61952Y-31375D01*
X61967Y-31360D01*
X61997Y-31345D01*
X62057Y-31345D01*
X62087Y-31360D01*
X62102Y-31375D01*
X62117Y-31405D01*
X61681Y-36706D02*
X61531Y-36706D01*
X61711Y-36796D02*
X61606Y-36481D01*
X61501Y-36796D01*
X61426Y-36481D02*
X61216Y-36481D01*
X61351Y-36796D01*
X61701Y-40544D02*
X61551Y-40544D01*
X61731Y-40634D02*
X61626Y-40319D01*
X61521Y-40634D01*
X61281Y-40319D02*
X61341Y-40319D01*
X61371Y-40334D01*
X61386Y-40349D01*
X61416Y-40394D01*
X61431Y-40454D01*
X61431Y-40574D01*
X61416Y-40604D01*
X61401Y-40619D01*
X61371Y-40634D01*
X61311Y-40634D01*
X61281Y-40619D01*
X61266Y-40604D01*
X61251Y-40574D01*
X61251Y-40499D01*
X61266Y-40469D01*
X61281Y-40454D01*
X61311Y-40439D01*
X61371Y-40439D01*
X61401Y-40454D01*
X61416Y-40469D01*
X61431Y-40499D01*
X61701Y-44422D02*
X61551Y-44422D01*
X61731Y-44512D02*
X61626Y-44197D01*
X61521Y-44512D01*
X61266Y-44197D02*
X61416Y-44197D01*
X61431Y-44347D01*
X61416Y-44332D01*
X61386Y-44317D01*
X61311Y-44317D01*
X61281Y-44332D01*
X61266Y-44347D01*
X61251Y-44377D01*
X61251Y-44452D01*
X61266Y-44482D01*
X61281Y-44497D01*
X61311Y-44512D01*
X61386Y-44512D01*
X61416Y-44497D01*
X61431Y-44482D01*
G54D12*
X52746Y-37893D03*
X52490Y-37893D03*
X52234Y-37893D03*
X51978Y-37893D03*
G54D13*
X51574Y-38297D03*
X51574Y-38553D03*
X51574Y-38809D03*
X51574Y-39064D03*
G54D12*
X51978Y-39468D03*
X52234Y-39468D03*
X52490Y-39468D03*
X52746Y-39468D03*
G54D13*
X53149Y-39064D03*
X53149Y-38809D03*
X53149Y-38553D03*
X53149Y-38297D03*
G54D14*
X52362Y-38681D03*
G54D15*
X52598Y-38444D03*
X52125Y-38444D03*
X52125Y-38917D03*
X52598Y-38917D03*
G54D16*
X52370Y-37110D03*
X52370Y-36874D03*
G54D17*
X53692Y-37051D03*
X53692Y-36451D03*
G54D18*
X56980Y-39740D03*
G54D19*
X57980Y-39740D03*
X56980Y-40740D03*
X57980Y-40740D03*
X56980Y-41740D03*
X57980Y-41740D03*
X56980Y-42740D03*
X57980Y-42740D03*
G54D20*
X46062Y-40377D03*
G54D21*
X46062Y-39377D03*
X46062Y-38377D03*
X46062Y-37377D03*
G54D20*
X44488Y-34622D03*
G54D21*
X44488Y-35622D03*
X44488Y-36622D03*
X44488Y-37622D03*
G54D20*
X44488Y-39740D03*
G54D21*
X44488Y-40740D03*
X44488Y-41740D03*
X44488Y-42740D03*
G54D22*
X52952Y-36732D03*
X52952Y-37086D03*
G54D23*
X62956Y-43370D03*
X62956Y-45370D03*
X59956Y-43370D03*
X59956Y-45370D03*
X62956Y-39511D03*
X62956Y-41511D03*
X59956Y-39511D03*
X59956Y-41511D03*
X62956Y-35653D03*
X62956Y-37653D03*
X59956Y-35653D03*
X59956Y-37653D03*
G54D24*
X56417Y-34893D03*
G54D25*
X56417Y-35893D03*
G54D26*
X46263Y-32574D03*
X58464Y-32578D03*
X58464Y-44783D03*
X46263Y-44779D03*
G54D24*
X44492Y-32681D03*
G54D25*
X44492Y-31681D03*
G54D23*
X48858Y-30885D03*
X54858Y-31885D03*
X54858Y-32885D03*
X54858Y-33885D03*
X54858Y-34885D03*
X54858Y-35885D03*
X54858Y-36885D03*
X54858Y-37885D03*
X54858Y-38885D03*
X54858Y-39885D03*
X54858Y-40885D03*
X54858Y-41885D03*
X54858Y-42885D03*
X54858Y-43885D03*
G54D27*
X54858Y-44885D03*
G54D23*
X48858Y-44885D03*
X48858Y-43885D03*
X48858Y-42885D03*
X48858Y-41885D03*
X48858Y-40885D03*
X48858Y-39885D03*
X48858Y-38885D03*
X48858Y-37885D03*
X48858Y-36885D03*
X48858Y-35885D03*
X48858Y-34885D03*
X48858Y-33885D03*
X48858Y-32885D03*
X48858Y-31885D03*
X54858Y-30885D03*
G54D28*
X53624Y-40156D03*
X52453Y-36469D03*
X51706Y-43632D03*
X53820Y-43650D03*
X50585Y-42483D03*
X52992Y-41254D03*
X52551Y-41114D03*
X52237Y-40787D03*
X51942Y-39952D03*
X51235Y-41182D03*
X53540Y-40754D03*
X53135Y-39454D03*
G54D29*
X52370Y-37110D02*
X52170Y-37110D01*
X52170Y-36173D02*
X52147Y-36196D01*
X52147Y-36196D02*
X52147Y-37087D01*
X52147Y-37087D02*
X52170Y-37110D01*
X48858Y-31885D02*
X52170Y-35198D01*
X52170Y-35198D02*
X52170Y-36173D01*
X52170Y-36173D02*
X53936Y-36173D01*
X53936Y-36173D02*
X54218Y-36456D01*
X54218Y-36456D02*
X54218Y-37801D01*
X54218Y-37801D02*
X53467Y-38553D01*
X52952Y-36732D02*
X52713Y-36732D01*
X52370Y-37110D02*
X52569Y-37110D01*
X52569Y-37110D02*
X52569Y-36876D01*
X52569Y-36876D02*
X52713Y-36732D01*
X53467Y-38553D02*
X53424Y-38553D01*
X53624Y-40156D02*
X53659Y-40122D01*
X53659Y-40122D02*
X53659Y-38745D01*
X53659Y-38745D02*
X53467Y-38553D01*
X53149Y-38553D02*
X53424Y-38553D01*
X52370Y-37110D02*
X52370Y-37290D01*
X52370Y-37290D02*
X52490Y-37410D01*
X52490Y-37410D02*
X52490Y-37893D01*
X54858Y-41885D02*
X52897Y-41885D01*
X52897Y-41885D02*
X51255Y-40243D01*
X51255Y-40243D02*
X51255Y-38151D01*
X51255Y-38151D02*
X51513Y-37893D01*
X51513Y-37893D02*
X51978Y-37893D01*
X57980Y-42279D02*
X55252Y-42279D01*
X55252Y-42279D02*
X54858Y-41885D01*
X52523Y-36540D02*
X52531Y-36532D01*
X52531Y-36532D02*
X53692Y-36532D01*
X52370Y-36694D02*
X52523Y-36540D01*
X52453Y-36469D02*
X52523Y-36540D01*
X53149Y-38297D02*
X53467Y-38297D01*
X53692Y-36532D02*
X53713Y-36532D01*
X53713Y-36532D02*
X54038Y-36858D01*
X54038Y-36858D02*
X54038Y-37725D01*
X54038Y-37725D02*
X53467Y-38297D01*
X46062Y-37377D02*
X46062Y-36916D01*
X46062Y-36916D02*
X45473Y-36327D01*
X45473Y-36327D02*
X45473Y-32662D01*
X45473Y-32662D02*
X44492Y-31681D01*
X52370Y-36874D02*
X52370Y-36694D01*
X53692Y-36451D02*
X53692Y-36532D01*
X44488Y-42740D02*
X44488Y-43201D01*
X48858Y-43885D02*
X45172Y-43885D01*
X45172Y-43885D02*
X44488Y-43201D01*
X44488Y-37622D02*
X44488Y-38083D01*
X44488Y-42740D02*
X44488Y-42279D01*
X44488Y-42279D02*
X44315Y-42279D01*
X44315Y-42279D02*
X43967Y-41931D01*
X43967Y-41931D02*
X43967Y-38604D01*
X43967Y-38604D02*
X44488Y-38083D01*
X57980Y-42740D02*
X57980Y-42279D01*
X56417Y-34893D02*
X57480Y-35956D01*
X57480Y-35956D02*
X57480Y-39908D01*
X57480Y-39908D02*
X57773Y-40201D01*
X57773Y-40201D02*
X58114Y-40201D01*
X58114Y-40201D02*
X58443Y-40529D01*
X58443Y-40529D02*
X58443Y-41959D01*
X58443Y-41959D02*
X58123Y-42279D01*
X58123Y-42279D02*
X57980Y-42279D01*
X62560Y-39907D02*
X62956Y-39511D01*
X62560Y-42974D02*
X62560Y-39907D01*
X62560Y-39907D02*
X60352Y-39907D01*
X60352Y-39907D02*
X59956Y-39511D01*
X62560Y-42974D02*
X61144Y-42974D01*
X61144Y-42974D02*
X60352Y-43766D01*
X62956Y-43370D02*
X62560Y-42974D01*
X60352Y-43766D02*
X59956Y-43370D01*
X51706Y-43632D02*
X53851Y-45777D01*
X53851Y-45777D02*
X60112Y-45777D01*
X60112Y-45777D02*
X60352Y-45537D01*
X60352Y-45537D02*
X60352Y-43766D01*
X48858Y-41885D02*
X50604Y-43632D01*
X50604Y-43632D02*
X51706Y-43632D01*
X62956Y-35653D02*
X63365Y-36062D01*
X63365Y-36062D02*
X63365Y-39102D01*
X63365Y-39102D02*
X62956Y-39511D01*
X48858Y-41885D02*
X48858Y-41445D01*
X48858Y-41445D02*
X46251Y-38838D01*
X46251Y-38838D02*
X46062Y-38838D01*
X46062Y-38377D02*
X46062Y-38838D01*
X52746Y-37893D02*
X52746Y-37575D01*
X52952Y-37186D02*
X52952Y-37369D01*
X52952Y-37369D02*
X52746Y-37575D01*
X52952Y-37186D02*
X53212Y-37186D01*
X53212Y-37186D02*
X53346Y-37051D01*
X53692Y-37051D02*
X53346Y-37051D01*
X52952Y-37086D02*
X52952Y-37186D01*
X54858Y-31885D02*
X57980Y-35007D01*
X57980Y-35007D02*
X57980Y-39509D01*
X57980Y-39509D02*
X58634Y-40163D01*
X58634Y-40163D02*
X58634Y-42749D01*
X58634Y-42749D02*
X58040Y-43343D01*
X58040Y-43343D02*
X54127Y-43343D01*
X54127Y-43343D02*
X53820Y-43650D01*
X57980Y-39740D02*
X57980Y-39509D01*
X56980Y-40740D02*
X56980Y-40279D01*
X54858Y-30885D02*
X54450Y-31293D01*
X54450Y-31293D02*
X54450Y-32054D01*
X54450Y-32054D02*
X54782Y-32385D01*
X54782Y-32385D02*
X54942Y-32385D01*
X54942Y-32385D02*
X55545Y-32988D01*
X55545Y-32988D02*
X55545Y-39170D01*
X55545Y-39170D02*
X56654Y-40279D01*
X56654Y-40279D02*
X56980Y-40279D01*
X56980Y-41740D02*
X56519Y-41740D01*
X54858Y-32885D02*
X54462Y-33281D01*
X54462Y-33281D02*
X54462Y-41053D01*
X54462Y-41053D02*
X54851Y-41442D01*
X54851Y-41442D02*
X56221Y-41442D01*
X56221Y-41442D02*
X56519Y-41740D01*
X57980Y-41740D02*
X57519Y-41740D01*
X57519Y-41740D02*
X57519Y-41624D01*
X57519Y-41624D02*
X57165Y-41271D01*
X57165Y-41271D02*
X55244Y-41271D01*
X55244Y-41271D02*
X54858Y-40885D01*
X48858Y-37885D02*
X50466Y-39493D01*
X50466Y-39493D02*
X50466Y-40859D01*
X50466Y-40859D02*
X51993Y-42385D01*
X51993Y-42385D02*
X55085Y-42385D01*
X55085Y-42385D02*
X55439Y-42740D01*
X55439Y-42740D02*
X56980Y-42740D01*
X44488Y-40740D02*
X44488Y-40279D01*
X48858Y-36885D02*
X47866Y-37877D01*
X47866Y-37877D02*
X45841Y-37877D01*
X45841Y-37877D02*
X45009Y-38709D01*
X45009Y-38709D02*
X45009Y-40166D01*
X45009Y-40166D02*
X44896Y-40279D01*
X44896Y-40279D02*
X44488Y-40279D01*
X48858Y-38885D02*
X49896Y-39923D01*
X49896Y-39923D02*
X49896Y-40531D01*
X49896Y-40531D02*
X53840Y-44476D01*
X53840Y-44476D02*
X55795Y-44476D01*
X55795Y-44476D02*
X56893Y-45573D01*
X56893Y-45573D02*
X59752Y-45573D01*
X59752Y-45573D02*
X59956Y-45370D01*
X48858Y-40885D02*
X48987Y-40885D01*
X48987Y-40885D02*
X50585Y-42483D01*
X52746Y-39786D02*
X52992Y-40032D01*
X52992Y-40032D02*
X52992Y-41254D01*
X52746Y-39468D02*
X52746Y-39786D01*
X52551Y-41114D02*
X52551Y-40434D01*
X52551Y-40434D02*
X52490Y-40373D01*
X52490Y-40373D02*
X52490Y-39468D01*
X52234Y-39468D02*
X52234Y-39786D01*
X52234Y-39786D02*
X52238Y-39790D01*
X52238Y-39790D02*
X52238Y-40787D01*
X52238Y-40787D02*
X52237Y-40787D01*
X51978Y-39468D02*
X51978Y-39786D01*
X51978Y-39786D02*
X51942Y-39822D01*
X51942Y-39822D02*
X51942Y-39952D01*
X51235Y-41182D02*
X51083Y-41029D01*
X51083Y-41029D02*
X51083Y-38082D01*
X51083Y-38082D02*
X51589Y-37575D01*
X51589Y-37575D02*
X52234Y-37575D01*
X52234Y-37893D02*
X52234Y-37575D01*
X53467Y-38809D02*
X53467Y-39895D01*
X53467Y-39895D02*
X53328Y-40034D01*
X53328Y-40034D02*
X53328Y-40543D01*
X53328Y-40543D02*
X53540Y-40754D01*
X53149Y-38809D02*
X53467Y-38809D01*
X53135Y-39454D02*
X53149Y-39441D01*
X53149Y-39441D02*
X53149Y-39064D01*
G54D10*
G36*
X54062Y-37736D02*
X53480Y-38319D01*
X53480Y-38250D01*
X53480Y-38191D01*
X53459Y-38142D01*
X53422Y-38105D01*
X53373Y-38084D01*
X53319Y-38084D01*
X53196Y-38084D01*
X53163Y-38118D01*
X53163Y-38283D01*
X53446Y-38283D01*
X53480Y-38250D01*
X53480Y-38319D01*
X53467Y-38331D01*
X53446Y-38311D01*
X53163Y-38311D01*
X53163Y-38318D01*
X53135Y-38318D01*
X53135Y-38311D01*
X53127Y-38311D01*
X53127Y-38283D01*
X53135Y-38283D01*
X53135Y-38118D01*
X53102Y-38084D01*
X52979Y-38084D01*
X52931Y-38084D01*
X52931Y-38069D01*
X52931Y-37675D01*
X52914Y-37636D01*
X52910Y-37632D01*
X53063Y-37479D01*
X53097Y-37428D01*
X53097Y-37428D01*
X53099Y-37419D01*
X53109Y-37369D01*
X53109Y-37369D01*
X53109Y-37342D01*
X53212Y-37342D01*
X53212Y-37342D01*
X53272Y-37330D01*
X53323Y-37296D01*
X53380Y-37239D01*
X53407Y-37267D01*
X53446Y-37283D01*
X53489Y-37283D01*
X53939Y-37283D01*
X53978Y-37267D01*
X54008Y-37237D01*
X54024Y-37198D01*
X54024Y-37155D01*
X54024Y-36905D01*
X54008Y-36866D01*
X53978Y-36836D01*
X53939Y-36820D01*
X53896Y-36820D01*
X53679Y-36820D01*
X53679Y-36677D01*
X53679Y-36465D01*
X53367Y-36465D01*
X53334Y-36499D01*
X53334Y-36603D01*
X53354Y-36652D01*
X53392Y-36690D01*
X53441Y-36710D01*
X53494Y-36710D01*
X53645Y-36710D01*
X53679Y-36677D01*
X53679Y-36820D01*
X53446Y-36820D01*
X53407Y-36836D01*
X53377Y-36866D01*
X53365Y-36895D01*
X53346Y-36895D01*
X53297Y-36905D01*
X53287Y-36907D01*
X53236Y-36941D01*
X53177Y-37000D01*
X53177Y-36986D01*
X53160Y-36947D01*
X53130Y-36917D01*
X53110Y-36909D01*
X53130Y-36901D01*
X53160Y-36871D01*
X53177Y-36832D01*
X53177Y-36789D01*
X53177Y-36632D01*
X53160Y-36593D01*
X53130Y-36563D01*
X53091Y-36547D01*
X53049Y-36547D01*
X52813Y-36547D01*
X52774Y-36563D01*
X52762Y-36576D01*
X52713Y-36576D01*
X52663Y-36586D01*
X52653Y-36588D01*
X52603Y-36621D01*
X52523Y-36701D01*
X52475Y-36681D01*
X52421Y-36681D01*
X52417Y-36681D01*
X52383Y-36714D01*
X52383Y-36860D01*
X52391Y-36860D01*
X52391Y-36887D01*
X52383Y-36887D01*
X52383Y-36895D01*
X52356Y-36895D01*
X52356Y-36887D01*
X52348Y-36887D01*
X52348Y-36860D01*
X52356Y-36860D01*
X52356Y-36714D01*
X52322Y-36681D01*
X52318Y-36681D01*
X52304Y-36681D01*
X52304Y-36330D01*
X53334Y-36330D01*
X53334Y-36404D01*
X53367Y-36438D01*
X53679Y-36438D01*
X53679Y-36430D01*
X53706Y-36430D01*
X53706Y-36438D01*
X53714Y-36438D01*
X53714Y-36465D01*
X53706Y-36465D01*
X53706Y-36677D01*
X53740Y-36710D01*
X53891Y-36710D01*
X53944Y-36710D01*
X53993Y-36690D01*
X54031Y-36652D01*
X54051Y-36603D01*
X54051Y-36510D01*
X54062Y-36521D01*
X54062Y-37736D01*
X54062Y-37736D01*
G37*
G54D30*
X54062Y-37736D02*
X53480Y-38319D01*
X53480Y-38250D01*
X53480Y-38191D01*
X53459Y-38142D01*
X53422Y-38105D01*
X53373Y-38084D01*
X53319Y-38084D01*
X53196Y-38084D01*
X53163Y-38118D01*
X53163Y-38283D01*
X53446Y-38283D01*
X53480Y-38250D01*
X53480Y-38319D01*
X53467Y-38331D01*
X53446Y-38311D01*
X53163Y-38311D01*
X53163Y-38318D01*
X53135Y-38318D01*
X53135Y-38311D01*
X53127Y-38311D01*
X53127Y-38283D01*
X53135Y-38283D01*
X53135Y-38118D01*
X53102Y-38084D01*
X52979Y-38084D01*
X52931Y-38084D01*
X52931Y-38069D01*
X52931Y-37675D01*
X52914Y-37636D01*
X52910Y-37632D01*
X53063Y-37479D01*
X53097Y-37428D01*
X53097Y-37428D01*
X53099Y-37419D01*
X53109Y-37369D01*
X53109Y-37369D01*
X53109Y-37342D01*
X53212Y-37342D01*
X53212Y-37342D01*
X53272Y-37330D01*
X53323Y-37296D01*
X53380Y-37239D01*
X53407Y-37267D01*
X53446Y-37283D01*
X53489Y-37283D01*
X53939Y-37283D01*
X53978Y-37267D01*
X54008Y-37237D01*
X54024Y-37198D01*
X54024Y-37155D01*
X54024Y-36905D01*
X54008Y-36866D01*
X53978Y-36836D01*
X53939Y-36820D01*
X53896Y-36820D01*
X53679Y-36820D01*
X53679Y-36677D01*
X53679Y-36465D01*
X53367Y-36465D01*
X53334Y-36499D01*
X53334Y-36603D01*
X53354Y-36652D01*
X53392Y-36690D01*
X53441Y-36710D01*
X53494Y-36710D01*
X53645Y-36710D01*
X53679Y-36677D01*
X53679Y-36820D01*
X53446Y-36820D01*
X53407Y-36836D01*
X53377Y-36866D01*
X53365Y-36895D01*
X53346Y-36895D01*
X53297Y-36905D01*
X53287Y-36907D01*
X53236Y-36941D01*
X53177Y-37000D01*
X53177Y-36986D01*
X53160Y-36947D01*
X53130Y-36917D01*
X53110Y-36909D01*
X53130Y-36901D01*
X53160Y-36871D01*
X53177Y-36832D01*
X53177Y-36789D01*
X53177Y-36632D01*
X53160Y-36593D01*
X53130Y-36563D01*
X53091Y-36547D01*
X53049Y-36547D01*
X52813Y-36547D01*
X52774Y-36563D01*
X52762Y-36576D01*
X52713Y-36576D01*
X52663Y-36586D01*
X52653Y-36588D01*
X52603Y-36621D01*
X52523Y-36701D01*
X52475Y-36681D01*
X52421Y-36681D01*
X52417Y-36681D01*
X52383Y-36714D01*
X52383Y-36860D01*
X52391Y-36860D01*
X52391Y-36887D01*
X52383Y-36887D01*
X52383Y-36895D01*
X52356Y-36895D01*
X52356Y-36887D01*
X52348Y-36887D01*
X52348Y-36860D01*
X52356Y-36860D01*
X52356Y-36714D01*
X52322Y-36681D01*
X52318Y-36681D01*
X52304Y-36681D01*
X52304Y-36330D01*
X53334Y-36330D01*
X53334Y-36404D01*
X53367Y-36438D01*
X53679Y-36438D01*
X53679Y-36430D01*
X53706Y-36430D01*
X53706Y-36438D01*
X53714Y-36438D01*
X53714Y-36465D01*
X53706Y-36465D01*
X53706Y-36677D01*
X53740Y-36710D01*
X53891Y-36710D01*
X53944Y-36710D01*
X53993Y-36690D01*
X54031Y-36652D01*
X54051Y-36603D01*
X54051Y-36510D01*
X54062Y-36521D01*
X54062Y-37736D01*
G54D10*
G36*
X58478Y-42684D02*
X58445Y-42717D01*
X58436Y-42726D01*
X58420Y-42726D01*
X58445Y-42652D01*
X58376Y-42480D01*
X58247Y-42348D01*
X58077Y-42276D01*
X58068Y-42274D01*
X57994Y-42299D01*
X57994Y-42726D01*
X58001Y-42726D01*
X58001Y-42753D01*
X57994Y-42753D01*
X57994Y-42761D01*
X57966Y-42761D01*
X57966Y-42753D01*
X57966Y-42726D01*
X57966Y-42299D01*
X57892Y-42274D01*
X57883Y-42276D01*
X57713Y-42348D01*
X57583Y-42480D01*
X57514Y-42652D01*
X57540Y-42726D01*
X57966Y-42726D01*
X57966Y-42753D01*
X57540Y-42753D01*
X57514Y-42827D01*
X57583Y-42999D01*
X57713Y-43131D01*
X57843Y-43187D01*
X57020Y-43187D01*
X57151Y-43161D01*
X57295Y-43064D01*
X57392Y-42919D01*
X57426Y-42748D01*
X57426Y-42731D01*
X57392Y-42560D01*
X57295Y-42415D01*
X57151Y-42319D01*
X56980Y-42285D01*
X56809Y-42319D01*
X56664Y-42415D01*
X56567Y-42560D01*
X56563Y-42583D01*
X55504Y-42583D01*
X55268Y-42347D01*
X55196Y-42275D01*
X55145Y-42241D01*
X55092Y-42230D01*
X55119Y-42166D01*
X54858Y-41905D01*
X54839Y-41924D01*
X54839Y-41885D01*
X54578Y-41624D01*
X54513Y-41652D01*
X54450Y-41801D01*
X54449Y-41964D01*
X54510Y-42115D01*
X54513Y-42119D01*
X54578Y-42147D01*
X54839Y-41885D01*
X54839Y-41924D01*
X54597Y-42166D01*
X54624Y-42229D01*
X52057Y-42229D01*
X51291Y-41463D01*
X51394Y-41420D01*
X51474Y-41341D01*
X51516Y-41238D01*
X51517Y-41126D01*
X51474Y-41022D01*
X51395Y-40943D01*
X51291Y-40900D01*
X51239Y-40900D01*
X51239Y-38146D01*
X51654Y-37732D01*
X51765Y-37732D01*
X51765Y-37846D01*
X51799Y-37879D01*
X51964Y-37879D01*
X51964Y-37872D01*
X51992Y-37872D01*
X51992Y-37879D01*
X52000Y-37879D01*
X52000Y-37907D01*
X51992Y-37907D01*
X51992Y-37915D01*
X51964Y-37915D01*
X51964Y-37907D01*
X51799Y-37907D01*
X51765Y-37940D01*
X51765Y-38112D01*
X51750Y-38112D01*
X51356Y-38112D01*
X51317Y-38128D01*
X51287Y-38158D01*
X51271Y-38197D01*
X51271Y-38239D01*
X51271Y-38397D01*
X51283Y-38425D01*
X51271Y-38453D01*
X51271Y-38495D01*
X51271Y-38653D01*
X51283Y-38681D01*
X51271Y-38709D01*
X51271Y-38751D01*
X51271Y-38908D01*
X51283Y-38937D01*
X51271Y-38965D01*
X51271Y-39007D01*
X51271Y-39164D01*
X51287Y-39203D01*
X51317Y-39233D01*
X51356Y-39250D01*
X51399Y-39250D01*
X51792Y-39250D01*
X51793Y-39249D01*
X51793Y-39250D01*
X51793Y-39292D01*
X51793Y-39686D01*
X51801Y-39706D01*
X51782Y-39714D01*
X51703Y-39793D01*
X51660Y-39896D01*
X51660Y-40008D01*
X51703Y-40111D01*
X51782Y-40191D01*
X51885Y-40233D01*
X51997Y-40234D01*
X52081Y-40199D01*
X52081Y-40547D01*
X52078Y-40549D01*
X51999Y-40628D01*
X51956Y-40731D01*
X51956Y-40843D01*
X51999Y-40946D01*
X52078Y-41026D01*
X52181Y-41069D01*
X52269Y-41069D01*
X52269Y-41170D01*
X52312Y-41273D01*
X52391Y-41352D01*
X52495Y-41395D01*
X52606Y-41395D01*
X52710Y-41353D01*
X52723Y-41340D01*
X52753Y-41413D01*
X52832Y-41492D01*
X52936Y-41535D01*
X53048Y-41535D01*
X53151Y-41492D01*
X53230Y-41413D01*
X53273Y-41310D01*
X53273Y-41198D01*
X53231Y-41095D01*
X53152Y-41015D01*
X53148Y-41014D01*
X53148Y-40032D01*
X53138Y-39982D01*
X53136Y-39972D01*
X53136Y-39972D01*
X53103Y-39922D01*
X53103Y-39922D01*
X52910Y-39729D01*
X52914Y-39725D01*
X52931Y-39686D01*
X52931Y-39647D01*
X52976Y-39693D01*
X53079Y-39736D01*
X53191Y-39736D01*
X53295Y-39693D01*
X53311Y-39677D01*
X53311Y-39830D01*
X53218Y-39923D01*
X53184Y-39974D01*
X53172Y-40034D01*
X53172Y-40543D01*
X53184Y-40603D01*
X53218Y-40653D01*
X53260Y-40695D01*
X53259Y-40698D01*
X53258Y-40810D01*
X53301Y-40914D01*
X53380Y-40993D01*
X53484Y-41036D01*
X53596Y-41036D01*
X53699Y-40993D01*
X53778Y-40914D01*
X53821Y-40811D01*
X53821Y-40699D01*
X53778Y-40595D01*
X53699Y-40516D01*
X53596Y-40473D01*
X53485Y-40473D01*
X53485Y-40403D01*
X53568Y-40438D01*
X53680Y-40438D01*
X53783Y-40395D01*
X53863Y-40316D01*
X53906Y-40213D01*
X53906Y-40101D01*
X53863Y-39997D01*
X53815Y-39950D01*
X53815Y-38745D01*
X53804Y-38685D01*
X53770Y-38634D01*
X53688Y-38553D01*
X54306Y-37935D01*
X54306Y-41053D01*
X54318Y-41113D01*
X54352Y-41163D01*
X54698Y-41509D01*
X54629Y-41537D01*
X54625Y-41540D01*
X54597Y-41605D01*
X54858Y-41866D01*
X54864Y-41860D01*
X54883Y-41880D01*
X54878Y-41885D01*
X55139Y-42147D01*
X55203Y-42119D01*
X55267Y-41969D01*
X55268Y-41807D01*
X55206Y-41656D01*
X55203Y-41652D01*
X55139Y-41624D01*
X55162Y-41601D01*
X55160Y-41598D01*
X56156Y-41598D01*
X56408Y-41850D01*
X56408Y-41850D01*
X56459Y-41884D01*
X56459Y-41884D01*
X56469Y-41886D01*
X56519Y-41896D01*
X56563Y-41896D01*
X56567Y-41919D01*
X56664Y-42064D01*
X56809Y-42161D01*
X56980Y-42195D01*
X57151Y-42161D01*
X57295Y-42064D01*
X57392Y-41919D01*
X57406Y-41847D01*
X57408Y-41850D01*
X57459Y-41884D01*
X57519Y-41896D01*
X57563Y-41896D01*
X57567Y-41919D01*
X57664Y-42064D01*
X57809Y-42161D01*
X57980Y-42195D01*
X58151Y-42161D01*
X58295Y-42064D01*
X58392Y-41919D01*
X58426Y-41748D01*
X58426Y-41731D01*
X58426Y-40748D01*
X58426Y-40731D01*
X58392Y-40560D01*
X58295Y-40415D01*
X58151Y-40319D01*
X57980Y-40285D01*
X57809Y-40319D01*
X57664Y-40415D01*
X57567Y-40560D01*
X57534Y-40731D01*
X57534Y-40748D01*
X57567Y-40919D01*
X57664Y-41064D01*
X57809Y-41161D01*
X57980Y-41195D01*
X58151Y-41161D01*
X58295Y-41064D01*
X58392Y-40919D01*
X58426Y-40748D01*
X58426Y-41731D01*
X58392Y-41560D01*
X58295Y-41415D01*
X58151Y-41319D01*
X57980Y-41285D01*
X57809Y-41319D01*
X57664Y-41415D01*
X57611Y-41495D01*
X57276Y-41160D01*
X57225Y-41127D01*
X57207Y-41123D01*
X57295Y-41064D01*
X57392Y-40919D01*
X57426Y-40748D01*
X57426Y-40731D01*
X57392Y-40560D01*
X57295Y-40415D01*
X57151Y-40319D01*
X57136Y-40316D01*
X57136Y-40279D01*
X57124Y-40219D01*
X57102Y-40186D01*
X57341Y-40186D01*
X57380Y-40170D01*
X57410Y-40140D01*
X57426Y-40101D01*
X57426Y-40059D01*
X57426Y-39379D01*
X57410Y-39339D01*
X57380Y-39310D01*
X57341Y-39293D01*
X57299Y-39293D01*
X56951Y-39293D01*
X56951Y-35320D01*
X56951Y-34940D01*
X56951Y-34846D01*
X56951Y-34467D01*
X56930Y-34417D01*
X56893Y-34380D01*
X56843Y-34359D01*
X56790Y-34359D01*
X56464Y-34359D01*
X56431Y-34393D01*
X56431Y-34879D01*
X56917Y-34879D01*
X56951Y-34846D01*
X56951Y-34940D01*
X56917Y-34907D01*
X56431Y-34907D01*
X56431Y-34915D01*
X56403Y-34915D01*
X56403Y-34907D01*
X56403Y-34879D01*
X56403Y-34393D01*
X56370Y-34359D01*
X56043Y-34359D01*
X55990Y-34359D01*
X55941Y-34380D01*
X55903Y-34417D01*
X55883Y-34467D01*
X55883Y-34846D01*
X55916Y-34879D01*
X56403Y-34879D01*
X56403Y-34907D01*
X55916Y-34907D01*
X55883Y-34940D01*
X55883Y-35320D01*
X55903Y-35369D01*
X55941Y-35407D01*
X55990Y-35427D01*
X56043Y-35427D01*
X56206Y-35427D01*
X56059Y-35525D01*
X55949Y-35690D01*
X55911Y-35883D01*
X55911Y-35903D01*
X55949Y-36097D01*
X56059Y-36261D01*
X56223Y-36371D01*
X56417Y-36409D01*
X56611Y-36371D01*
X56775Y-36261D01*
X56885Y-36097D01*
X56923Y-35903D01*
X56923Y-35883D01*
X56885Y-35690D01*
X56775Y-35525D01*
X56628Y-35427D01*
X56790Y-35427D01*
X56843Y-35427D01*
X56893Y-35407D01*
X56930Y-35369D01*
X56951Y-35320D01*
X56951Y-39293D01*
X56619Y-39293D01*
X56580Y-39310D01*
X56550Y-39339D01*
X56534Y-39379D01*
X56534Y-39421D01*
X56534Y-39937D01*
X55702Y-39105D01*
X55702Y-32988D01*
X55692Y-32940D01*
X57824Y-35072D01*
X57824Y-39316D01*
X57809Y-39319D01*
X57664Y-39415D01*
X57567Y-39560D01*
X57534Y-39731D01*
X57534Y-39748D01*
X57567Y-39919D01*
X57664Y-40064D01*
X57809Y-40161D01*
X57980Y-40195D01*
X58151Y-40161D01*
X58295Y-40064D01*
X58303Y-40053D01*
X58478Y-40228D01*
X58478Y-42684D01*
X58478Y-42684D01*
G37*
G54D30*
X58478Y-42684D02*
X58445Y-42717D01*
X58436Y-42726D01*
X58420Y-42726D01*
X58445Y-42652D01*
X58376Y-42480D01*
X58247Y-42348D01*
X58077Y-42276D01*
X58068Y-42274D01*
X57994Y-42299D01*
X57994Y-42726D01*
X58001Y-42726D01*
X58001Y-42753D01*
X57994Y-42753D01*
X57994Y-42761D01*
X57966Y-42761D01*
X57966Y-42753D01*
X57966Y-42726D01*
X57966Y-42299D01*
X57892Y-42274D01*
X57883Y-42276D01*
X57713Y-42348D01*
X57583Y-42480D01*
X57514Y-42652D01*
X57540Y-42726D01*
X57966Y-42726D01*
X57966Y-42753D01*
X57540Y-42753D01*
X57514Y-42827D01*
X57583Y-42999D01*
X57713Y-43131D01*
X57843Y-43187D01*
X57020Y-43187D01*
X57151Y-43161D01*
X57295Y-43064D01*
X57392Y-42919D01*
X57426Y-42748D01*
X57426Y-42731D01*
X57392Y-42560D01*
X57295Y-42415D01*
X57151Y-42319D01*
X56980Y-42285D01*
X56809Y-42319D01*
X56664Y-42415D01*
X56567Y-42560D01*
X56563Y-42583D01*
X55504Y-42583D01*
X55268Y-42347D01*
X55196Y-42275D01*
X55145Y-42241D01*
X55092Y-42230D01*
X55119Y-42166D01*
X54858Y-41905D01*
X54839Y-41924D01*
X54839Y-41885D01*
X54578Y-41624D01*
X54513Y-41652D01*
X54450Y-41801D01*
X54449Y-41964D01*
X54510Y-42115D01*
X54513Y-42119D01*
X54578Y-42147D01*
X54839Y-41885D01*
X54839Y-41924D01*
X54597Y-42166D01*
X54624Y-42229D01*
X52057Y-42229D01*
X51291Y-41463D01*
X51394Y-41420D01*
X51474Y-41341D01*
X51516Y-41238D01*
X51517Y-41126D01*
X51474Y-41022D01*
X51395Y-40943D01*
X51291Y-40900D01*
X51239Y-40900D01*
X51239Y-38146D01*
X51654Y-37732D01*
X51765Y-37732D01*
X51765Y-37846D01*
X51799Y-37879D01*
X51964Y-37879D01*
X51964Y-37872D01*
X51992Y-37872D01*
X51992Y-37879D01*
X52000Y-37879D01*
X52000Y-37907D01*
X51992Y-37907D01*
X51992Y-37915D01*
X51964Y-37915D01*
X51964Y-37907D01*
X51799Y-37907D01*
X51765Y-37940D01*
X51765Y-38112D01*
X51750Y-38112D01*
X51356Y-38112D01*
X51317Y-38128D01*
X51287Y-38158D01*
X51271Y-38197D01*
X51271Y-38239D01*
X51271Y-38397D01*
X51283Y-38425D01*
X51271Y-38453D01*
X51271Y-38495D01*
X51271Y-38653D01*
X51283Y-38681D01*
X51271Y-38709D01*
X51271Y-38751D01*
X51271Y-38908D01*
X51283Y-38937D01*
X51271Y-38965D01*
X51271Y-39007D01*
X51271Y-39164D01*
X51287Y-39203D01*
X51317Y-39233D01*
X51356Y-39250D01*
X51399Y-39250D01*
X51792Y-39250D01*
X51793Y-39249D01*
X51793Y-39250D01*
X51793Y-39292D01*
X51793Y-39686D01*
X51801Y-39706D01*
X51782Y-39714D01*
X51703Y-39793D01*
X51660Y-39896D01*
X51660Y-40008D01*
X51703Y-40111D01*
X51782Y-40191D01*
X51885Y-40233D01*
X51997Y-40234D01*
X52081Y-40199D01*
X52081Y-40547D01*
X52078Y-40549D01*
X51999Y-40628D01*
X51956Y-40731D01*
X51956Y-40843D01*
X51999Y-40946D01*
X52078Y-41026D01*
X52181Y-41069D01*
X52269Y-41069D01*
X52269Y-41170D01*
X52312Y-41273D01*
X52391Y-41352D01*
X52495Y-41395D01*
X52606Y-41395D01*
X52710Y-41353D01*
X52723Y-41340D01*
X52753Y-41413D01*
X52832Y-41492D01*
X52936Y-41535D01*
X53048Y-41535D01*
X53151Y-41492D01*
X53230Y-41413D01*
X53273Y-41310D01*
X53273Y-41198D01*
X53231Y-41095D01*
X53152Y-41015D01*
X53148Y-41014D01*
X53148Y-40032D01*
X53138Y-39982D01*
X53136Y-39972D01*
X53136Y-39972D01*
X53103Y-39922D01*
X53103Y-39922D01*
X52910Y-39729D01*
X52914Y-39725D01*
X52931Y-39686D01*
X52931Y-39647D01*
X52976Y-39693D01*
X53079Y-39736D01*
X53191Y-39736D01*
X53295Y-39693D01*
X53311Y-39677D01*
X53311Y-39830D01*
X53218Y-39923D01*
X53184Y-39974D01*
X53172Y-40034D01*
X53172Y-40543D01*
X53184Y-40603D01*
X53218Y-40653D01*
X53260Y-40695D01*
X53259Y-40698D01*
X53258Y-40810D01*
X53301Y-40914D01*
X53380Y-40993D01*
X53484Y-41036D01*
X53596Y-41036D01*
X53699Y-40993D01*
X53778Y-40914D01*
X53821Y-40811D01*
X53821Y-40699D01*
X53778Y-40595D01*
X53699Y-40516D01*
X53596Y-40473D01*
X53485Y-40473D01*
X53485Y-40403D01*
X53568Y-40438D01*
X53680Y-40438D01*
X53783Y-40395D01*
X53863Y-40316D01*
X53906Y-40213D01*
X53906Y-40101D01*
X53863Y-39997D01*
X53815Y-39950D01*
X53815Y-38745D01*
X53804Y-38685D01*
X53770Y-38634D01*
X53688Y-38553D01*
X54306Y-37935D01*
X54306Y-41053D01*
X54318Y-41113D01*
X54352Y-41163D01*
X54698Y-41509D01*
X54629Y-41537D01*
X54625Y-41540D01*
X54597Y-41605D01*
X54858Y-41866D01*
X54864Y-41860D01*
X54883Y-41880D01*
X54878Y-41885D01*
X55139Y-42147D01*
X55203Y-42119D01*
X55267Y-41969D01*
X55268Y-41807D01*
X55206Y-41656D01*
X55203Y-41652D01*
X55139Y-41624D01*
X55162Y-41601D01*
X55160Y-41598D01*
X56156Y-41598D01*
X56408Y-41850D01*
X56408Y-41850D01*
X56459Y-41884D01*
X56459Y-41884D01*
X56469Y-41886D01*
X56519Y-41896D01*
X56563Y-41896D01*
X56567Y-41919D01*
X56664Y-42064D01*
X56809Y-42161D01*
X56980Y-42195D01*
X57151Y-42161D01*
X57295Y-42064D01*
X57392Y-41919D01*
X57406Y-41847D01*
X57408Y-41850D01*
X57459Y-41884D01*
X57519Y-41896D01*
X57563Y-41896D01*
X57567Y-41919D01*
X57664Y-42064D01*
X57809Y-42161D01*
X57980Y-42195D01*
X58151Y-42161D01*
X58295Y-42064D01*
X58392Y-41919D01*
X58426Y-41748D01*
X58426Y-41731D01*
X58426Y-40748D01*
X58426Y-40731D01*
X58392Y-40560D01*
X58295Y-40415D01*
X58151Y-40319D01*
X57980Y-40285D01*
X57809Y-40319D01*
X57664Y-40415D01*
X57567Y-40560D01*
X57534Y-40731D01*
X57534Y-40748D01*
X57567Y-40919D01*
X57664Y-41064D01*
X57809Y-41161D01*
X57980Y-41195D01*
X58151Y-41161D01*
X58295Y-41064D01*
X58392Y-40919D01*
X58426Y-40748D01*
X58426Y-41731D01*
X58392Y-41560D01*
X58295Y-41415D01*
X58151Y-41319D01*
X57980Y-41285D01*
X57809Y-41319D01*
X57664Y-41415D01*
X57611Y-41495D01*
X57276Y-41160D01*
X57225Y-41127D01*
X57207Y-41123D01*
X57295Y-41064D01*
X57392Y-40919D01*
X57426Y-40748D01*
X57426Y-40731D01*
X57392Y-40560D01*
X57295Y-40415D01*
X57151Y-40319D01*
X57136Y-40316D01*
X57136Y-40279D01*
X57124Y-40219D01*
X57102Y-40186D01*
X57341Y-40186D01*
X57380Y-40170D01*
X57410Y-40140D01*
X57426Y-40101D01*
X57426Y-40059D01*
X57426Y-39379D01*
X57410Y-39339D01*
X57380Y-39310D01*
X57341Y-39293D01*
X57299Y-39293D01*
X56951Y-39293D01*
X56951Y-35320D01*
X56951Y-34940D01*
X56951Y-34846D01*
X56951Y-34467D01*
X56930Y-34417D01*
X56893Y-34380D01*
X56843Y-34359D01*
X56790Y-34359D01*
X56464Y-34359D01*
X56431Y-34393D01*
X56431Y-34879D01*
X56917Y-34879D01*
X56951Y-34846D01*
X56951Y-34940D01*
X56917Y-34907D01*
X56431Y-34907D01*
X56431Y-34915D01*
X56403Y-34915D01*
X56403Y-34907D01*
X56403Y-34879D01*
X56403Y-34393D01*
X56370Y-34359D01*
X56043Y-34359D01*
X55990Y-34359D01*
X55941Y-34380D01*
X55903Y-34417D01*
X55883Y-34467D01*
X55883Y-34846D01*
X55916Y-34879D01*
X56403Y-34879D01*
X56403Y-34907D01*
X55916Y-34907D01*
X55883Y-34940D01*
X55883Y-35320D01*
X55903Y-35369D01*
X55941Y-35407D01*
X55990Y-35427D01*
X56043Y-35427D01*
X56206Y-35427D01*
X56059Y-35525D01*
X55949Y-35690D01*
X55911Y-35883D01*
X55911Y-35903D01*
X55949Y-36097D01*
X56059Y-36261D01*
X56223Y-36371D01*
X56417Y-36409D01*
X56611Y-36371D01*
X56775Y-36261D01*
X56885Y-36097D01*
X56923Y-35903D01*
X56923Y-35883D01*
X56885Y-35690D01*
X56775Y-35525D01*
X56628Y-35427D01*
X56790Y-35427D01*
X56843Y-35427D01*
X56893Y-35407D01*
X56930Y-35369D01*
X56951Y-35320D01*
X56951Y-39293D01*
X56619Y-39293D01*
X56580Y-39310D01*
X56550Y-39339D01*
X56534Y-39379D01*
X56534Y-39421D01*
X56534Y-39937D01*
X55702Y-39105D01*
X55702Y-32988D01*
X55692Y-32940D01*
X57824Y-35072D01*
X57824Y-39316D01*
X57809Y-39319D01*
X57664Y-39415D01*
X57567Y-39560D01*
X57534Y-39731D01*
X57534Y-39748D01*
X57567Y-39919D01*
X57664Y-40064D01*
X57809Y-40161D01*
X57980Y-40195D01*
X58151Y-40161D01*
X58295Y-40064D01*
X58303Y-40053D01*
X58478Y-40228D01*
X58478Y-42684D01*
G54D10*
G36*
X64051Y-44767D02*
X63878Y-45634D01*
X63522Y-46167D01*
X63522Y-39102D01*
X63522Y-36062D01*
X63512Y-36012D01*
X63510Y-36003D01*
X63510Y-36003D01*
X63476Y-35952D01*
X63476Y-35952D01*
X63313Y-35789D01*
X63337Y-35729D01*
X63338Y-35578D01*
X63280Y-35437D01*
X63172Y-35330D01*
X63032Y-35272D01*
X62881Y-35272D01*
X62740Y-35330D01*
X62638Y-35432D01*
X62638Y-34125D01*
X62638Y-33314D01*
X62638Y-32944D01*
X62638Y-32133D01*
X62638Y-31763D01*
X62638Y-30952D01*
X61731Y-30952D01*
X61731Y-31763D01*
X62638Y-31763D01*
X62638Y-32133D01*
X61731Y-32133D01*
X61731Y-32944D01*
X62638Y-32944D01*
X62638Y-33314D01*
X61731Y-33314D01*
X61731Y-34125D01*
X62638Y-34125D01*
X62638Y-35432D01*
X62633Y-35437D01*
X62575Y-35577D01*
X62575Y-35729D01*
X62633Y-35869D01*
X62740Y-35976D01*
X62880Y-36034D01*
X63032Y-36034D01*
X63092Y-36010D01*
X63209Y-36127D01*
X63209Y-37367D01*
X63172Y-37330D01*
X63032Y-37272D01*
X62881Y-37272D01*
X62740Y-37330D01*
X62633Y-37437D01*
X62575Y-37577D01*
X62575Y-37729D01*
X62633Y-37869D01*
X62740Y-37976D01*
X62880Y-38034D01*
X63032Y-38034D01*
X63172Y-37976D01*
X63209Y-37939D01*
X63209Y-39037D01*
X63092Y-39155D01*
X63032Y-39130D01*
X62881Y-39130D01*
X62740Y-39188D01*
X62633Y-39295D01*
X62575Y-39435D01*
X62575Y-39587D01*
X62600Y-39647D01*
X62495Y-39751D01*
X61887Y-39751D01*
X61887Y-37019D01*
X61887Y-36208D01*
X61026Y-36208D01*
X61026Y-37019D01*
X61887Y-37019D01*
X61887Y-39751D01*
X60417Y-39751D01*
X60313Y-39647D01*
X60337Y-39587D01*
X60338Y-39436D01*
X60338Y-37578D01*
X60338Y-35578D01*
X60280Y-35437D01*
X60172Y-35330D01*
X60032Y-35272D01*
X59881Y-35272D01*
X59740Y-35330D01*
X59633Y-35437D01*
X59575Y-35577D01*
X59575Y-35729D01*
X59633Y-35869D01*
X59740Y-35976D01*
X59880Y-36034D01*
X60032Y-36034D01*
X60172Y-35976D01*
X60279Y-35869D01*
X60337Y-35729D01*
X60338Y-35578D01*
X60338Y-37578D01*
X60280Y-37437D01*
X60172Y-37330D01*
X60032Y-37272D01*
X59881Y-37272D01*
X59740Y-37330D01*
X59633Y-37437D01*
X59575Y-37577D01*
X59575Y-37729D01*
X59633Y-37869D01*
X59740Y-37976D01*
X59880Y-38034D01*
X60032Y-38034D01*
X60172Y-37976D01*
X60279Y-37869D01*
X60337Y-37729D01*
X60338Y-37578D01*
X60338Y-39436D01*
X60280Y-39296D01*
X60172Y-39188D01*
X60032Y-39130D01*
X59881Y-39130D01*
X59740Y-39188D01*
X59633Y-39295D01*
X59575Y-39435D01*
X59575Y-39587D01*
X59633Y-39727D01*
X59740Y-39834D01*
X59880Y-39893D01*
X60032Y-39893D01*
X60092Y-39868D01*
X60242Y-40018D01*
X60242Y-40018D01*
X60292Y-40052D01*
X60292Y-40052D01*
X60302Y-40054D01*
X60352Y-40064D01*
X61045Y-40064D01*
X61045Y-40858D01*
X61907Y-40858D01*
X61907Y-40064D01*
X62404Y-40064D01*
X62404Y-42817D01*
X61144Y-42817D01*
X61084Y-42829D01*
X61034Y-42863D01*
X60352Y-43545D01*
X60313Y-43505D01*
X60337Y-43446D01*
X60338Y-43294D01*
X60338Y-41436D01*
X60280Y-41296D01*
X60172Y-41188D01*
X60032Y-41130D01*
X59881Y-41130D01*
X59740Y-41188D01*
X59633Y-41295D01*
X59575Y-41435D01*
X59575Y-41587D01*
X59633Y-41727D01*
X59740Y-41834D01*
X59880Y-41893D01*
X60032Y-41893D01*
X60172Y-41835D01*
X60279Y-41728D01*
X60337Y-41587D01*
X60338Y-41436D01*
X60338Y-43294D01*
X60280Y-43154D01*
X60172Y-43047D01*
X60032Y-42988D01*
X59881Y-42988D01*
X59740Y-43046D01*
X59633Y-43153D01*
X59575Y-43293D01*
X59575Y-43445D01*
X59633Y-43585D01*
X59740Y-43693D01*
X59880Y-43751D01*
X60032Y-43751D01*
X60092Y-43726D01*
X60196Y-43830D01*
X60196Y-45070D01*
X60172Y-45047D01*
X60032Y-44988D01*
X59881Y-44988D01*
X59740Y-45046D01*
X59633Y-45153D01*
X59575Y-45293D01*
X59575Y-45417D01*
X59240Y-45417D01*
X59240Y-44092D01*
X59240Y-33269D01*
X59240Y-33227D01*
X59240Y-31888D01*
X59224Y-31849D01*
X59194Y-31819D01*
X59155Y-31802D01*
X59112Y-31802D01*
X57773Y-31802D01*
X57734Y-31819D01*
X57704Y-31849D01*
X57688Y-31888D01*
X57688Y-31930D01*
X57688Y-33269D01*
X57704Y-33308D01*
X57734Y-33338D01*
X57773Y-33354D01*
X57816Y-33354D01*
X59155Y-33354D01*
X59194Y-33338D01*
X59224Y-33308D01*
X59240Y-33269D01*
X59240Y-44092D01*
X59224Y-44053D01*
X59194Y-44023D01*
X59155Y-44007D01*
X59112Y-44007D01*
X57773Y-44007D01*
X57734Y-44023D01*
X57704Y-44053D01*
X57688Y-44092D01*
X57688Y-44135D01*
X57688Y-45417D01*
X56957Y-45417D01*
X55906Y-44365D01*
X55855Y-44331D01*
X55795Y-44320D01*
X55240Y-44320D01*
X55240Y-43810D01*
X55182Y-43670D01*
X55075Y-43562D01*
X54934Y-43504D01*
X54783Y-43504D01*
X54643Y-43562D01*
X54535Y-43669D01*
X54477Y-43809D01*
X54477Y-43961D01*
X54535Y-44101D01*
X54642Y-44208D01*
X54782Y-44267D01*
X54934Y-44267D01*
X55074Y-44209D01*
X55181Y-44102D01*
X55239Y-43962D01*
X55240Y-43810D01*
X55240Y-44320D01*
X53905Y-44320D01*
X52127Y-42542D01*
X54692Y-42542D01*
X54643Y-42562D01*
X54535Y-42669D01*
X54477Y-42809D01*
X54477Y-42961D01*
X54535Y-43101D01*
X54620Y-43187D01*
X54127Y-43187D01*
X54077Y-43197D01*
X54067Y-43199D01*
X54016Y-43232D01*
X53879Y-43370D01*
X53876Y-43369D01*
X53764Y-43369D01*
X53660Y-43412D01*
X53581Y-43491D01*
X53538Y-43594D01*
X53538Y-43706D01*
X53581Y-43809D01*
X53660Y-43889D01*
X53763Y-43931D01*
X53875Y-43932D01*
X53979Y-43889D01*
X54058Y-43810D01*
X54101Y-43706D01*
X54101Y-43595D01*
X54100Y-43591D01*
X54192Y-43499D01*
X58040Y-43499D01*
X58040Y-43499D01*
X58100Y-43487D01*
X58151Y-43453D01*
X58745Y-42860D01*
X58745Y-42860D01*
X58767Y-42826D01*
X58779Y-42809D01*
X58779Y-42809D01*
X58790Y-42749D01*
X58790Y-42749D01*
X58790Y-40163D01*
X58779Y-40104D01*
X58745Y-40053D01*
X58426Y-39734D01*
X58426Y-39731D01*
X58392Y-39560D01*
X58295Y-39415D01*
X58151Y-39319D01*
X58136Y-39316D01*
X58136Y-35007D01*
X58124Y-34947D01*
X58124Y-34947D01*
X58113Y-34930D01*
X58090Y-34896D01*
X58090Y-34896D01*
X55215Y-32021D01*
X55239Y-31962D01*
X55240Y-31810D01*
X55182Y-31670D01*
X55075Y-31562D01*
X54934Y-31504D01*
X54783Y-31504D01*
X54643Y-31562D01*
X54607Y-31598D01*
X54607Y-31358D01*
X54723Y-31242D01*
X54782Y-31267D01*
X54934Y-31267D01*
X55074Y-31209D01*
X55181Y-31102D01*
X55239Y-30962D01*
X55240Y-30810D01*
X55182Y-30670D01*
X55075Y-30562D01*
X54934Y-30504D01*
X54783Y-30504D01*
X54643Y-30562D01*
X54535Y-30669D01*
X54477Y-30809D01*
X54477Y-30961D01*
X54502Y-31021D01*
X54340Y-31183D01*
X54306Y-31233D01*
X54294Y-31293D01*
X54294Y-32054D01*
X54306Y-32114D01*
X54340Y-32165D01*
X54671Y-32496D01*
X54671Y-32496D01*
X54721Y-32529D01*
X54643Y-32562D01*
X54535Y-32669D01*
X54477Y-32809D01*
X54477Y-32961D01*
X54502Y-33021D01*
X54352Y-33171D01*
X54318Y-33222D01*
X54306Y-33281D01*
X54306Y-36323D01*
X54046Y-36063D01*
X53995Y-36029D01*
X53936Y-36017D01*
X52326Y-36017D01*
X52326Y-35198D01*
X52314Y-35138D01*
X52281Y-35087D01*
X49214Y-32021D01*
X49239Y-31962D01*
X49239Y-31810D01*
X49239Y-30810D01*
X49181Y-30670D01*
X49074Y-30562D01*
X48934Y-30504D01*
X48782Y-30504D01*
X48642Y-30562D01*
X48535Y-30669D01*
X48477Y-30809D01*
X48476Y-30961D01*
X48534Y-31101D01*
X48641Y-31208D01*
X48782Y-31267D01*
X48933Y-31267D01*
X49073Y-31209D01*
X49181Y-31102D01*
X49239Y-30962D01*
X49239Y-30810D01*
X49239Y-31810D01*
X49181Y-31670D01*
X49074Y-31562D01*
X48934Y-31504D01*
X48782Y-31504D01*
X48642Y-31562D01*
X48535Y-31669D01*
X48477Y-31809D01*
X48476Y-31961D01*
X48534Y-32101D01*
X48641Y-32208D01*
X48782Y-32267D01*
X48933Y-32267D01*
X48993Y-32242D01*
X52014Y-35262D01*
X52014Y-36120D01*
X52003Y-36136D01*
X51991Y-36196D01*
X51991Y-37087D01*
X52003Y-37147D01*
X52037Y-37197D01*
X52060Y-37220D01*
X52110Y-37254D01*
X52170Y-37266D01*
X52213Y-37266D01*
X52213Y-37290D01*
X52225Y-37349D01*
X52259Y-37400D01*
X52289Y-37430D01*
X52234Y-37419D01*
X51589Y-37419D01*
X51529Y-37431D01*
X51478Y-37465D01*
X50972Y-37971D01*
X50938Y-38022D01*
X50926Y-38082D01*
X50926Y-41029D01*
X50938Y-41089D01*
X50957Y-41117D01*
X50954Y-41125D01*
X50954Y-41125D01*
X50622Y-40794D01*
X50622Y-39493D01*
X50612Y-39444D01*
X50610Y-39434D01*
X50610Y-39434D01*
X50576Y-39383D01*
X49214Y-38021D01*
X49239Y-37962D01*
X49239Y-37810D01*
X49181Y-37670D01*
X49074Y-37562D01*
X48934Y-37504D01*
X48782Y-37504D01*
X48642Y-37562D01*
X48535Y-37669D01*
X48477Y-37809D01*
X48476Y-37961D01*
X48534Y-38101D01*
X48641Y-38208D01*
X48782Y-38267D01*
X48933Y-38267D01*
X48993Y-38242D01*
X50310Y-39558D01*
X50310Y-40724D01*
X50052Y-40467D01*
X50052Y-39923D01*
X50040Y-39863D01*
X50006Y-39813D01*
X49214Y-39021D01*
X49239Y-38962D01*
X49239Y-38810D01*
X49181Y-38670D01*
X49074Y-38562D01*
X48934Y-38504D01*
X48782Y-38504D01*
X48642Y-38562D01*
X48535Y-38669D01*
X48477Y-38809D01*
X48476Y-38961D01*
X48534Y-39101D01*
X48641Y-39208D01*
X48782Y-39267D01*
X48933Y-39267D01*
X48993Y-39242D01*
X49739Y-39988D01*
X49739Y-40531D01*
X49751Y-40591D01*
X49785Y-40642D01*
X53730Y-44586D01*
X53730Y-44586D01*
X53780Y-44620D01*
X53780Y-44620D01*
X53790Y-44622D01*
X53840Y-44632D01*
X54477Y-44632D01*
X54477Y-45181D01*
X54493Y-45221D01*
X54523Y-45250D01*
X54562Y-45267D01*
X54604Y-45267D01*
X55154Y-45267D01*
X55193Y-45250D01*
X55223Y-45221D01*
X55240Y-45181D01*
X55240Y-45139D01*
X55240Y-44632D01*
X55730Y-44632D01*
X56718Y-45620D01*
X53916Y-45620D01*
X51986Y-43691D01*
X51988Y-43688D01*
X51988Y-43576D01*
X51945Y-43473D01*
X51866Y-43393D01*
X51763Y-43350D01*
X51651Y-43350D01*
X51547Y-43393D01*
X51468Y-43472D01*
X51467Y-43475D01*
X50669Y-43475D01*
X49214Y-42021D01*
X49239Y-41962D01*
X49239Y-41810D01*
X49181Y-41670D01*
X49074Y-41562D01*
X49014Y-41537D01*
X49014Y-41445D01*
X49004Y-41396D01*
X49002Y-41386D01*
X49002Y-41386D01*
X48968Y-41335D01*
X48968Y-41335D01*
X48900Y-41267D01*
X48933Y-41267D01*
X49073Y-41209D01*
X49081Y-41201D01*
X50305Y-42424D01*
X50304Y-42427D01*
X50304Y-42539D01*
X50347Y-42642D01*
X50426Y-42722D01*
X50529Y-42765D01*
X50641Y-42765D01*
X50744Y-42722D01*
X50823Y-42643D01*
X50866Y-42540D01*
X50866Y-42428D01*
X50824Y-42324D01*
X50745Y-42245D01*
X50641Y-42202D01*
X50529Y-42202D01*
X50526Y-42203D01*
X49239Y-40916D01*
X49239Y-40810D01*
X49239Y-39810D01*
X49181Y-39670D01*
X49074Y-39562D01*
X48934Y-39504D01*
X48782Y-39504D01*
X48642Y-39562D01*
X48535Y-39669D01*
X48477Y-39809D01*
X48476Y-39961D01*
X48534Y-40101D01*
X48641Y-40208D01*
X48782Y-40267D01*
X48933Y-40267D01*
X49073Y-40209D01*
X49181Y-40102D01*
X49239Y-39962D01*
X49239Y-39810D01*
X49239Y-40810D01*
X49181Y-40670D01*
X49074Y-40562D01*
X48934Y-40504D01*
X48782Y-40504D01*
X48642Y-40562D01*
X48535Y-40669D01*
X48477Y-40809D01*
X48477Y-40843D01*
X46375Y-38742D01*
X46448Y-38693D01*
X46545Y-38548D01*
X46579Y-38377D01*
X46545Y-38207D01*
X46448Y-38062D01*
X46406Y-38034D01*
X47866Y-38034D01*
X47866Y-38034D01*
X47925Y-38022D01*
X47976Y-37988D01*
X48722Y-37242D01*
X48782Y-37267D01*
X48933Y-37267D01*
X49073Y-37209D01*
X49181Y-37102D01*
X49239Y-36962D01*
X49239Y-36810D01*
X49239Y-35810D01*
X49239Y-34810D01*
X49239Y-33810D01*
X49239Y-32810D01*
X49181Y-32670D01*
X49074Y-32562D01*
X48934Y-32504D01*
X48782Y-32504D01*
X48642Y-32562D01*
X48535Y-32669D01*
X48477Y-32809D01*
X48476Y-32961D01*
X48534Y-33101D01*
X48641Y-33208D01*
X48782Y-33267D01*
X48933Y-33267D01*
X49073Y-33209D01*
X49181Y-33102D01*
X49239Y-32962D01*
X49239Y-32810D01*
X49239Y-33810D01*
X49181Y-33670D01*
X49074Y-33562D01*
X48934Y-33504D01*
X48782Y-33504D01*
X48642Y-33562D01*
X48535Y-33669D01*
X48477Y-33809D01*
X48476Y-33961D01*
X48534Y-34101D01*
X48641Y-34208D01*
X48782Y-34267D01*
X48933Y-34267D01*
X49073Y-34209D01*
X49181Y-34102D01*
X49239Y-33962D01*
X49239Y-33810D01*
X49239Y-34810D01*
X49181Y-34670D01*
X49074Y-34562D01*
X48934Y-34504D01*
X48782Y-34504D01*
X48642Y-34562D01*
X48535Y-34669D01*
X48477Y-34809D01*
X48476Y-34961D01*
X48534Y-35101D01*
X48641Y-35208D01*
X48782Y-35267D01*
X48933Y-35267D01*
X49073Y-35209D01*
X49181Y-35102D01*
X49239Y-34962D01*
X49239Y-34810D01*
X49239Y-35810D01*
X49181Y-35670D01*
X49074Y-35562D01*
X48934Y-35504D01*
X48782Y-35504D01*
X48642Y-35562D01*
X48535Y-35669D01*
X48477Y-35809D01*
X48476Y-35961D01*
X48534Y-36101D01*
X48641Y-36208D01*
X48782Y-36267D01*
X48933Y-36267D01*
X49073Y-36209D01*
X49181Y-36102D01*
X49239Y-35962D01*
X49239Y-35810D01*
X49239Y-36810D01*
X49181Y-36670D01*
X49074Y-36562D01*
X48934Y-36504D01*
X48782Y-36504D01*
X48642Y-36562D01*
X48535Y-36669D01*
X48477Y-36809D01*
X48476Y-36961D01*
X48501Y-37021D01*
X47801Y-37721D01*
X47039Y-37721D01*
X47039Y-33265D01*
X47039Y-33223D01*
X47039Y-31884D01*
X47023Y-31845D01*
X46993Y-31815D01*
X46954Y-31799D01*
X46912Y-31799D01*
X45573Y-31799D01*
X45534Y-31815D01*
X45504Y-31845D01*
X45487Y-31884D01*
X45487Y-31926D01*
X45487Y-33265D01*
X45504Y-33304D01*
X45534Y-33334D01*
X45573Y-33350D01*
X45615Y-33350D01*
X46954Y-33350D01*
X46993Y-33334D01*
X47023Y-33304D01*
X47039Y-33265D01*
X47039Y-37721D01*
X46441Y-37721D01*
X46467Y-37703D01*
X46566Y-37546D01*
X46588Y-37465D01*
X46588Y-37290D01*
X46566Y-37209D01*
X46467Y-37052D01*
X46317Y-36945D01*
X46136Y-36904D01*
X46076Y-36904D01*
X46076Y-37364D01*
X46563Y-37364D01*
X46588Y-37290D01*
X46588Y-37465D01*
X46563Y-37391D01*
X46076Y-37391D01*
X46076Y-37399D01*
X46049Y-37399D01*
X46049Y-37391D01*
X46049Y-37364D01*
X46049Y-36904D01*
X45989Y-36904D01*
X45808Y-36945D01*
X45658Y-37052D01*
X45559Y-37209D01*
X45537Y-37290D01*
X45562Y-37364D01*
X46049Y-37364D01*
X46049Y-37391D01*
X45562Y-37391D01*
X45537Y-37465D01*
X45559Y-37546D01*
X45658Y-37703D01*
X45739Y-37761D01*
X45730Y-37767D01*
X45017Y-38480D01*
X45017Y-31778D01*
X45017Y-31584D01*
X44939Y-31390D01*
X44794Y-31241D01*
X44603Y-31158D01*
X44589Y-31156D01*
X44505Y-31180D01*
X44505Y-31667D01*
X44992Y-31667D01*
X45017Y-31584D01*
X45017Y-31778D01*
X44992Y-31694D01*
X44505Y-31694D01*
X44505Y-31702D01*
X44478Y-31702D01*
X44478Y-31694D01*
X44478Y-31667D01*
X44478Y-31180D01*
X44395Y-31156D01*
X44380Y-31158D01*
X44189Y-31241D01*
X44044Y-31390D01*
X43967Y-31584D01*
X43991Y-31667D01*
X44478Y-31667D01*
X44478Y-31694D01*
X43991Y-31694D01*
X43967Y-31778D01*
X44044Y-31971D01*
X44189Y-32120D01*
X44314Y-32174D01*
X44070Y-32174D01*
X44031Y-32190D01*
X44002Y-32220D01*
X43985Y-32259D01*
X43985Y-32302D01*
X43985Y-33102D01*
X44002Y-33141D01*
X44031Y-33171D01*
X44070Y-33187D01*
X44113Y-33187D01*
X44913Y-33187D01*
X44952Y-33171D01*
X44982Y-33141D01*
X44998Y-33102D01*
X44998Y-33059D01*
X44998Y-32259D01*
X44982Y-32220D01*
X44952Y-32190D01*
X44913Y-32174D01*
X44870Y-32174D01*
X44669Y-32174D01*
X44794Y-32120D01*
X44939Y-31971D01*
X45017Y-31778D01*
X45017Y-38480D01*
X45013Y-38484D01*
X45013Y-37709D01*
X45013Y-37534D01*
X45004Y-37500D01*
X45004Y-36622D01*
X45004Y-35622D01*
X44994Y-35572D01*
X44994Y-34983D01*
X44994Y-34940D01*
X44994Y-34260D01*
X44978Y-34221D01*
X44948Y-34191D01*
X44909Y-34175D01*
X44867Y-34175D01*
X44067Y-34175D01*
X44027Y-34191D01*
X43998Y-34221D01*
X43981Y-34260D01*
X43981Y-34303D01*
X43981Y-34983D01*
X43998Y-35022D01*
X44027Y-35052D01*
X44067Y-35068D01*
X44109Y-35068D01*
X44909Y-35068D01*
X44948Y-35052D01*
X44978Y-35022D01*
X44994Y-34983D01*
X44994Y-35572D01*
X44970Y-35451D01*
X44873Y-35306D01*
X44728Y-35209D01*
X44558Y-35175D01*
X44418Y-35175D01*
X44247Y-35209D01*
X44102Y-35306D01*
X44005Y-35451D01*
X43971Y-35622D01*
X44005Y-35792D01*
X44102Y-35937D01*
X44247Y-36034D01*
X44418Y-36068D01*
X44558Y-36068D01*
X44728Y-36034D01*
X44873Y-35937D01*
X44970Y-35792D01*
X45004Y-35622D01*
X45004Y-36622D01*
X44970Y-36451D01*
X44873Y-36306D01*
X44728Y-36209D01*
X44558Y-36175D01*
X44418Y-36175D01*
X44247Y-36209D01*
X44102Y-36306D01*
X44005Y-36451D01*
X43971Y-36622D01*
X44005Y-36792D01*
X44102Y-36937D01*
X44247Y-37034D01*
X44418Y-37068D01*
X44558Y-37068D01*
X44728Y-37034D01*
X44873Y-36937D01*
X44970Y-36792D01*
X45004Y-36622D01*
X45004Y-37500D01*
X44991Y-37453D01*
X44893Y-37296D01*
X44742Y-37189D01*
X44561Y-37148D01*
X44501Y-37148D01*
X44501Y-37608D01*
X44988Y-37608D01*
X45013Y-37534D01*
X45013Y-37709D01*
X44988Y-37635D01*
X44501Y-37635D01*
X44501Y-38095D01*
X44561Y-38095D01*
X44742Y-38054D01*
X44893Y-37947D01*
X44991Y-37790D01*
X45013Y-37709D01*
X45013Y-38484D01*
X44898Y-38599D01*
X44864Y-38649D01*
X44852Y-38709D01*
X44852Y-39293D01*
X44474Y-39293D01*
X44474Y-38095D01*
X44474Y-37635D01*
X44474Y-37608D01*
X44474Y-37148D01*
X44414Y-37148D01*
X44234Y-37189D01*
X44083Y-37296D01*
X43985Y-37453D01*
X43962Y-37534D01*
X43988Y-37608D01*
X44474Y-37608D01*
X44474Y-37635D01*
X43988Y-37635D01*
X43962Y-37709D01*
X43985Y-37790D01*
X44083Y-37947D01*
X44234Y-38054D01*
X44414Y-38095D01*
X44474Y-38095D01*
X44474Y-39293D01*
X44067Y-39293D01*
X44027Y-39310D01*
X43998Y-39339D01*
X43981Y-39379D01*
X43981Y-39421D01*
X43981Y-40101D01*
X43998Y-40140D01*
X44027Y-40170D01*
X44067Y-40186D01*
X44109Y-40186D01*
X44365Y-40186D01*
X44343Y-40219D01*
X44331Y-40279D01*
X44331Y-40311D01*
X44247Y-40327D01*
X44102Y-40424D01*
X44005Y-40569D01*
X43971Y-40740D01*
X44005Y-40910D01*
X44102Y-41055D01*
X44247Y-41152D01*
X44418Y-41186D01*
X44558Y-41186D01*
X44728Y-41152D01*
X44873Y-41055D01*
X44970Y-40910D01*
X45004Y-40740D01*
X44970Y-40569D01*
X44880Y-40435D01*
X44896Y-40435D01*
X44896Y-40435D01*
X44956Y-40423D01*
X45007Y-40389D01*
X45119Y-40277D01*
X45119Y-40277D01*
X45153Y-40226D01*
X45165Y-40166D01*
X45165Y-38774D01*
X45549Y-38390D01*
X45580Y-38548D01*
X45677Y-38693D01*
X45822Y-38790D01*
X45906Y-38807D01*
X45906Y-38838D01*
X45918Y-38898D01*
X45946Y-38940D01*
X45822Y-38965D01*
X45677Y-39062D01*
X45580Y-39207D01*
X45546Y-39377D01*
X45580Y-39548D01*
X45677Y-39693D01*
X45822Y-39790D01*
X45993Y-39824D01*
X46132Y-39824D01*
X46303Y-39790D01*
X46448Y-39693D01*
X46545Y-39548D01*
X46577Y-39386D01*
X48701Y-41510D01*
X48701Y-41537D01*
X48642Y-41562D01*
X48535Y-41669D01*
X48477Y-41809D01*
X48476Y-41961D01*
X48534Y-42101D01*
X48641Y-42208D01*
X48782Y-42267D01*
X48933Y-42267D01*
X48993Y-42242D01*
X50494Y-43742D01*
X50544Y-43776D01*
X50604Y-43788D01*
X51467Y-43788D01*
X51468Y-43791D01*
X51547Y-43870D01*
X51650Y-43913D01*
X51762Y-43913D01*
X51765Y-43912D01*
X53741Y-45887D01*
X53741Y-45887D01*
X53791Y-45921D01*
X53791Y-45921D01*
X53801Y-45923D01*
X53851Y-45933D01*
X60112Y-45933D01*
X60112Y-45933D01*
X60172Y-45921D01*
X60223Y-45887D01*
X60463Y-45647D01*
X60463Y-45647D01*
X60497Y-45597D01*
X60509Y-45537D01*
X60509Y-43830D01*
X61209Y-43130D01*
X62495Y-43130D01*
X62600Y-43234D01*
X62575Y-43293D01*
X62575Y-43445D01*
X62633Y-43585D01*
X62740Y-43693D01*
X62880Y-43751D01*
X63032Y-43751D01*
X63172Y-43693D01*
X63279Y-43586D01*
X63337Y-43446D01*
X63338Y-43294D01*
X63280Y-43154D01*
X63172Y-43047D01*
X63032Y-42988D01*
X62881Y-42988D01*
X62821Y-43013D01*
X62716Y-42909D01*
X62716Y-41811D01*
X62740Y-41834D01*
X62880Y-41893D01*
X63032Y-41893D01*
X63172Y-41835D01*
X63279Y-41728D01*
X63337Y-41587D01*
X63338Y-41436D01*
X63280Y-41296D01*
X63172Y-41188D01*
X63032Y-41130D01*
X62881Y-41130D01*
X62740Y-41188D01*
X62716Y-41212D01*
X62716Y-39972D01*
X62821Y-39868D01*
X62880Y-39893D01*
X63032Y-39893D01*
X63172Y-39835D01*
X63279Y-39728D01*
X63337Y-39587D01*
X63338Y-39436D01*
X63313Y-39376D01*
X63476Y-39213D01*
X63476Y-39213D01*
X63510Y-39162D01*
X63510Y-39162D01*
X63512Y-39152D01*
X63522Y-39102D01*
X63522Y-39102D01*
X63522Y-46167D01*
X63394Y-46359D01*
X63338Y-46396D01*
X63338Y-45294D01*
X63280Y-45154D01*
X63172Y-45047D01*
X63032Y-44988D01*
X62881Y-44988D01*
X62740Y-45046D01*
X62633Y-45153D01*
X62575Y-45293D01*
X62575Y-45445D01*
X62633Y-45585D01*
X62740Y-45693D01*
X62880Y-45751D01*
X63032Y-45751D01*
X63172Y-45693D01*
X63279Y-45586D01*
X63337Y-45446D01*
X63338Y-45294D01*
X63338Y-46396D01*
X62669Y-46843D01*
X61907Y-46994D01*
X61907Y-44736D01*
X61907Y-43925D01*
X61045Y-43925D01*
X61045Y-44736D01*
X61907Y-44736D01*
X61907Y-46994D01*
X61802Y-47015D01*
X49267Y-47015D01*
X49267Y-43807D01*
X49239Y-43738D01*
X49239Y-42810D01*
X49181Y-42670D01*
X49074Y-42562D01*
X48934Y-42504D01*
X48782Y-42504D01*
X48642Y-42562D01*
X48535Y-42669D01*
X48477Y-42809D01*
X48476Y-42961D01*
X48534Y-43101D01*
X48641Y-43208D01*
X48782Y-43267D01*
X48933Y-43267D01*
X49073Y-43209D01*
X49181Y-43102D01*
X49239Y-42962D01*
X49239Y-42810D01*
X49239Y-43738D01*
X49206Y-43656D01*
X49203Y-43652D01*
X49138Y-43624D01*
X49119Y-43644D01*
X49119Y-43605D01*
X49092Y-43540D01*
X48942Y-43477D01*
X48779Y-43476D01*
X48628Y-43537D01*
X48624Y-43540D01*
X48597Y-43605D01*
X48858Y-43866D01*
X49119Y-43605D01*
X49119Y-43644D01*
X48877Y-43885D01*
X49138Y-44147D01*
X49203Y-44119D01*
X49266Y-43969D01*
X49267Y-43807D01*
X49267Y-47015D01*
X49239Y-47015D01*
X49239Y-44810D01*
X49181Y-44670D01*
X49119Y-44607D01*
X49119Y-44166D01*
X48858Y-43905D01*
X48838Y-43924D01*
X48838Y-43885D01*
X48577Y-43624D01*
X48513Y-43652D01*
X48449Y-43801D01*
X48448Y-43964D01*
X48510Y-44115D01*
X48513Y-44119D01*
X48577Y-44147D01*
X48838Y-43885D01*
X48838Y-43924D01*
X48597Y-44166D01*
X48624Y-44230D01*
X48774Y-44294D01*
X48937Y-44295D01*
X49087Y-44233D01*
X49092Y-44230D01*
X49119Y-44166D01*
X49119Y-44607D01*
X49074Y-44562D01*
X48934Y-44504D01*
X48782Y-44504D01*
X48642Y-44562D01*
X48535Y-44669D01*
X48477Y-44809D01*
X48476Y-44961D01*
X48534Y-45101D01*
X48641Y-45208D01*
X48782Y-45267D01*
X48933Y-45267D01*
X49073Y-45209D01*
X49181Y-45102D01*
X49239Y-44962D01*
X49239Y-44810D01*
X49239Y-47015D01*
X47039Y-47015D01*
X47039Y-45470D01*
X47039Y-45427D01*
X47039Y-44088D01*
X47023Y-44049D01*
X46993Y-44019D01*
X46954Y-44003D01*
X46912Y-44003D01*
X46569Y-44003D01*
X46569Y-40739D01*
X46569Y-40696D01*
X46569Y-40016D01*
X46553Y-39977D01*
X46523Y-39947D01*
X46484Y-39931D01*
X46441Y-39931D01*
X45641Y-39931D01*
X45602Y-39947D01*
X45572Y-39977D01*
X45556Y-40016D01*
X45556Y-40059D01*
X45556Y-40739D01*
X45572Y-40778D01*
X45602Y-40808D01*
X45641Y-40824D01*
X45684Y-40824D01*
X46484Y-40824D01*
X46523Y-40808D01*
X46553Y-40778D01*
X46569Y-40739D01*
X46569Y-44003D01*
X45573Y-44003D01*
X45534Y-44019D01*
X45504Y-44049D01*
X45487Y-44088D01*
X45487Y-44131D01*
X45487Y-45470D01*
X45504Y-45509D01*
X45534Y-45539D01*
X45573Y-45555D01*
X45615Y-45555D01*
X46954Y-45555D01*
X46993Y-45539D01*
X47023Y-45509D01*
X47039Y-45470D01*
X47039Y-47015D01*
X45013Y-47015D01*
X45013Y-42827D01*
X45013Y-42652D01*
X45004Y-42618D01*
X45004Y-41740D01*
X44970Y-41569D01*
X44873Y-41424D01*
X44728Y-41327D01*
X44558Y-41293D01*
X44418Y-41293D01*
X44247Y-41327D01*
X44102Y-41424D01*
X44005Y-41569D01*
X43971Y-41740D01*
X44005Y-41910D01*
X44102Y-42055D01*
X44247Y-42152D01*
X44418Y-42186D01*
X44558Y-42186D01*
X44728Y-42152D01*
X44873Y-42055D01*
X44970Y-41910D01*
X45004Y-41740D01*
X45004Y-42618D01*
X44991Y-42571D01*
X44893Y-42414D01*
X44742Y-42307D01*
X44561Y-42266D01*
X44501Y-42266D01*
X44501Y-42726D01*
X44988Y-42726D01*
X45013Y-42652D01*
X45013Y-42827D01*
X44988Y-42753D01*
X44501Y-42753D01*
X44501Y-43214D01*
X44561Y-43214D01*
X44742Y-43172D01*
X44893Y-43065D01*
X44991Y-42908D01*
X45013Y-42827D01*
X45013Y-47015D01*
X44474Y-47015D01*
X44474Y-43214D01*
X44474Y-42753D01*
X44474Y-42726D01*
X44474Y-42266D01*
X44414Y-42266D01*
X44234Y-42307D01*
X44083Y-42414D01*
X43985Y-42571D01*
X43962Y-42652D01*
X43988Y-42726D01*
X44474Y-42726D01*
X44474Y-42753D01*
X43988Y-42753D01*
X43962Y-42827D01*
X43985Y-42908D01*
X44083Y-43065D01*
X44234Y-43172D01*
X44414Y-43214D01*
X44474Y-43214D01*
X44474Y-47015D01*
X43913Y-47015D01*
X43046Y-46843D01*
X42322Y-46359D01*
X41837Y-45634D01*
X41665Y-44767D01*
X41665Y-32587D01*
X41837Y-31719D01*
X42322Y-30995D01*
X43046Y-30511D01*
X43913Y-30338D01*
X61802Y-30338D01*
X62669Y-30511D01*
X63394Y-30995D01*
X63878Y-31719D01*
X64051Y-32587D01*
X64051Y-44767D01*
X64051Y-44767D01*
G37*
G54D30*
X64051Y-44767D02*
X63878Y-45634D01*
X63522Y-46167D01*
X63522Y-39102D01*
X63522Y-36062D01*
X63512Y-36012D01*
X63510Y-36003D01*
X63510Y-36003D01*
X63476Y-35952D01*
X63476Y-35952D01*
X63313Y-35789D01*
X63337Y-35729D01*
X63338Y-35578D01*
X63280Y-35437D01*
X63172Y-35330D01*
X63032Y-35272D01*
X62881Y-35272D01*
X62740Y-35330D01*
X62638Y-35432D01*
X62638Y-34125D01*
X62638Y-33314D01*
X62638Y-32944D01*
X62638Y-32133D01*
X62638Y-31763D01*
X62638Y-30952D01*
X61731Y-30952D01*
X61731Y-31763D01*
X62638Y-31763D01*
X62638Y-32133D01*
X61731Y-32133D01*
X61731Y-32944D01*
X62638Y-32944D01*
X62638Y-33314D01*
X61731Y-33314D01*
X61731Y-34125D01*
X62638Y-34125D01*
X62638Y-35432D01*
X62633Y-35437D01*
X62575Y-35577D01*
X62575Y-35729D01*
X62633Y-35869D01*
X62740Y-35976D01*
X62880Y-36034D01*
X63032Y-36034D01*
X63092Y-36010D01*
X63209Y-36127D01*
X63209Y-37367D01*
X63172Y-37330D01*
X63032Y-37272D01*
X62881Y-37272D01*
X62740Y-37330D01*
X62633Y-37437D01*
X62575Y-37577D01*
X62575Y-37729D01*
X62633Y-37869D01*
X62740Y-37976D01*
X62880Y-38034D01*
X63032Y-38034D01*
X63172Y-37976D01*
X63209Y-37939D01*
X63209Y-39037D01*
X63092Y-39155D01*
X63032Y-39130D01*
X62881Y-39130D01*
X62740Y-39188D01*
X62633Y-39295D01*
X62575Y-39435D01*
X62575Y-39587D01*
X62600Y-39647D01*
X62495Y-39751D01*
X61887Y-39751D01*
X61887Y-37019D01*
X61887Y-36208D01*
X61026Y-36208D01*
X61026Y-37019D01*
X61887Y-37019D01*
X61887Y-39751D01*
X60417Y-39751D01*
X60313Y-39647D01*
X60337Y-39587D01*
X60338Y-39436D01*
X60338Y-37578D01*
X60338Y-35578D01*
X60280Y-35437D01*
X60172Y-35330D01*
X60032Y-35272D01*
X59881Y-35272D01*
X59740Y-35330D01*
X59633Y-35437D01*
X59575Y-35577D01*
X59575Y-35729D01*
X59633Y-35869D01*
X59740Y-35976D01*
X59880Y-36034D01*
X60032Y-36034D01*
X60172Y-35976D01*
X60279Y-35869D01*
X60337Y-35729D01*
X60338Y-35578D01*
X60338Y-37578D01*
X60280Y-37437D01*
X60172Y-37330D01*
X60032Y-37272D01*
X59881Y-37272D01*
X59740Y-37330D01*
X59633Y-37437D01*
X59575Y-37577D01*
X59575Y-37729D01*
X59633Y-37869D01*
X59740Y-37976D01*
X59880Y-38034D01*
X60032Y-38034D01*
X60172Y-37976D01*
X60279Y-37869D01*
X60337Y-37729D01*
X60338Y-37578D01*
X60338Y-39436D01*
X60280Y-39296D01*
X60172Y-39188D01*
X60032Y-39130D01*
X59881Y-39130D01*
X59740Y-39188D01*
X59633Y-39295D01*
X59575Y-39435D01*
X59575Y-39587D01*
X59633Y-39727D01*
X59740Y-39834D01*
X59880Y-39893D01*
X60032Y-39893D01*
X60092Y-39868D01*
X60242Y-40018D01*
X60242Y-40018D01*
X60292Y-40052D01*
X60292Y-40052D01*
X60302Y-40054D01*
X60352Y-40064D01*
X61045Y-40064D01*
X61045Y-40858D01*
X61907Y-40858D01*
X61907Y-40064D01*
X62404Y-40064D01*
X62404Y-42817D01*
X61144Y-42817D01*
X61084Y-42829D01*
X61034Y-42863D01*
X60352Y-43545D01*
X60313Y-43505D01*
X60337Y-43446D01*
X60338Y-43294D01*
X60338Y-41436D01*
X60280Y-41296D01*
X60172Y-41188D01*
X60032Y-41130D01*
X59881Y-41130D01*
X59740Y-41188D01*
X59633Y-41295D01*
X59575Y-41435D01*
X59575Y-41587D01*
X59633Y-41727D01*
X59740Y-41834D01*
X59880Y-41893D01*
X60032Y-41893D01*
X60172Y-41835D01*
X60279Y-41728D01*
X60337Y-41587D01*
X60338Y-41436D01*
X60338Y-43294D01*
X60280Y-43154D01*
X60172Y-43047D01*
X60032Y-42988D01*
X59881Y-42988D01*
X59740Y-43046D01*
X59633Y-43153D01*
X59575Y-43293D01*
X59575Y-43445D01*
X59633Y-43585D01*
X59740Y-43693D01*
X59880Y-43751D01*
X60032Y-43751D01*
X60092Y-43726D01*
X60196Y-43830D01*
X60196Y-45070D01*
X60172Y-45047D01*
X60032Y-44988D01*
X59881Y-44988D01*
X59740Y-45046D01*
X59633Y-45153D01*
X59575Y-45293D01*
X59575Y-45417D01*
X59240Y-45417D01*
X59240Y-44092D01*
X59240Y-33269D01*
X59240Y-33227D01*
X59240Y-31888D01*
X59224Y-31849D01*
X59194Y-31819D01*
X59155Y-31802D01*
X59112Y-31802D01*
X57773Y-31802D01*
X57734Y-31819D01*
X57704Y-31849D01*
X57688Y-31888D01*
X57688Y-31930D01*
X57688Y-33269D01*
X57704Y-33308D01*
X57734Y-33338D01*
X57773Y-33354D01*
X57816Y-33354D01*
X59155Y-33354D01*
X59194Y-33338D01*
X59224Y-33308D01*
X59240Y-33269D01*
X59240Y-44092D01*
X59224Y-44053D01*
X59194Y-44023D01*
X59155Y-44007D01*
X59112Y-44007D01*
X57773Y-44007D01*
X57734Y-44023D01*
X57704Y-44053D01*
X57688Y-44092D01*
X57688Y-44135D01*
X57688Y-45417D01*
X56957Y-45417D01*
X55906Y-44365D01*
X55855Y-44331D01*
X55795Y-44320D01*
X55240Y-44320D01*
X55240Y-43810D01*
X55182Y-43670D01*
X55075Y-43562D01*
X54934Y-43504D01*
X54783Y-43504D01*
X54643Y-43562D01*
X54535Y-43669D01*
X54477Y-43809D01*
X54477Y-43961D01*
X54535Y-44101D01*
X54642Y-44208D01*
X54782Y-44267D01*
X54934Y-44267D01*
X55074Y-44209D01*
X55181Y-44102D01*
X55239Y-43962D01*
X55240Y-43810D01*
X55240Y-44320D01*
X53905Y-44320D01*
X52127Y-42542D01*
X54692Y-42542D01*
X54643Y-42562D01*
X54535Y-42669D01*
X54477Y-42809D01*
X54477Y-42961D01*
X54535Y-43101D01*
X54620Y-43187D01*
X54127Y-43187D01*
X54077Y-43197D01*
X54067Y-43199D01*
X54016Y-43232D01*
X53879Y-43370D01*
X53876Y-43369D01*
X53764Y-43369D01*
X53660Y-43412D01*
X53581Y-43491D01*
X53538Y-43594D01*
X53538Y-43706D01*
X53581Y-43809D01*
X53660Y-43889D01*
X53763Y-43931D01*
X53875Y-43932D01*
X53979Y-43889D01*
X54058Y-43810D01*
X54101Y-43706D01*
X54101Y-43595D01*
X54100Y-43591D01*
X54192Y-43499D01*
X58040Y-43499D01*
X58040Y-43499D01*
X58100Y-43487D01*
X58151Y-43453D01*
X58745Y-42860D01*
X58745Y-42860D01*
X58767Y-42826D01*
X58779Y-42809D01*
X58779Y-42809D01*
X58790Y-42749D01*
X58790Y-42749D01*
X58790Y-40163D01*
X58779Y-40104D01*
X58745Y-40053D01*
X58426Y-39734D01*
X58426Y-39731D01*
X58392Y-39560D01*
X58295Y-39415D01*
X58151Y-39319D01*
X58136Y-39316D01*
X58136Y-35007D01*
X58124Y-34947D01*
X58124Y-34947D01*
X58113Y-34930D01*
X58090Y-34896D01*
X58090Y-34896D01*
X55215Y-32021D01*
X55239Y-31962D01*
X55240Y-31810D01*
X55182Y-31670D01*
X55075Y-31562D01*
X54934Y-31504D01*
X54783Y-31504D01*
X54643Y-31562D01*
X54607Y-31598D01*
X54607Y-31358D01*
X54723Y-31242D01*
X54782Y-31267D01*
X54934Y-31267D01*
X55074Y-31209D01*
X55181Y-31102D01*
X55239Y-30962D01*
X55240Y-30810D01*
X55182Y-30670D01*
X55075Y-30562D01*
X54934Y-30504D01*
X54783Y-30504D01*
X54643Y-30562D01*
X54535Y-30669D01*
X54477Y-30809D01*
X54477Y-30961D01*
X54502Y-31021D01*
X54340Y-31183D01*
X54306Y-31233D01*
X54294Y-31293D01*
X54294Y-32054D01*
X54306Y-32114D01*
X54340Y-32165D01*
X54671Y-32496D01*
X54671Y-32496D01*
X54721Y-32529D01*
X54643Y-32562D01*
X54535Y-32669D01*
X54477Y-32809D01*
X54477Y-32961D01*
X54502Y-33021D01*
X54352Y-33171D01*
X54318Y-33222D01*
X54306Y-33281D01*
X54306Y-36323D01*
X54046Y-36063D01*
X53995Y-36029D01*
X53936Y-36017D01*
X52326Y-36017D01*
X52326Y-35198D01*
X52314Y-35138D01*
X52281Y-35087D01*
X49214Y-32021D01*
X49239Y-31962D01*
X49239Y-31810D01*
X49239Y-30810D01*
X49181Y-30670D01*
X49074Y-30562D01*
X48934Y-30504D01*
X48782Y-30504D01*
X48642Y-30562D01*
X48535Y-30669D01*
X48477Y-30809D01*
X48476Y-30961D01*
X48534Y-31101D01*
X48641Y-31208D01*
X48782Y-31267D01*
X48933Y-31267D01*
X49073Y-31209D01*
X49181Y-31102D01*
X49239Y-30962D01*
X49239Y-30810D01*
X49239Y-31810D01*
X49181Y-31670D01*
X49074Y-31562D01*
X48934Y-31504D01*
X48782Y-31504D01*
X48642Y-31562D01*
X48535Y-31669D01*
X48477Y-31809D01*
X48476Y-31961D01*
X48534Y-32101D01*
X48641Y-32208D01*
X48782Y-32267D01*
X48933Y-32267D01*
X48993Y-32242D01*
X52014Y-35262D01*
X52014Y-36120D01*
X52003Y-36136D01*
X51991Y-36196D01*
X51991Y-37087D01*
X52003Y-37147D01*
X52037Y-37197D01*
X52060Y-37220D01*
X52110Y-37254D01*
X52170Y-37266D01*
X52213Y-37266D01*
X52213Y-37290D01*
X52225Y-37349D01*
X52259Y-37400D01*
X52289Y-37430D01*
X52234Y-37419D01*
X51589Y-37419D01*
X51529Y-37431D01*
X51478Y-37465D01*
X50972Y-37971D01*
X50938Y-38022D01*
X50926Y-38082D01*
X50926Y-41029D01*
X50938Y-41089D01*
X50957Y-41117D01*
X50954Y-41125D01*
X50954Y-41125D01*
X50622Y-40794D01*
X50622Y-39493D01*
X50612Y-39444D01*
X50610Y-39434D01*
X50610Y-39434D01*
X50576Y-39383D01*
X49214Y-38021D01*
X49239Y-37962D01*
X49239Y-37810D01*
X49181Y-37670D01*
X49074Y-37562D01*
X48934Y-37504D01*
X48782Y-37504D01*
X48642Y-37562D01*
X48535Y-37669D01*
X48477Y-37809D01*
X48476Y-37961D01*
X48534Y-38101D01*
X48641Y-38208D01*
X48782Y-38267D01*
X48933Y-38267D01*
X48993Y-38242D01*
X50310Y-39558D01*
X50310Y-40724D01*
X50052Y-40467D01*
X50052Y-39923D01*
X50040Y-39863D01*
X50006Y-39813D01*
X49214Y-39021D01*
X49239Y-38962D01*
X49239Y-38810D01*
X49181Y-38670D01*
X49074Y-38562D01*
X48934Y-38504D01*
X48782Y-38504D01*
X48642Y-38562D01*
X48535Y-38669D01*
X48477Y-38809D01*
X48476Y-38961D01*
X48534Y-39101D01*
X48641Y-39208D01*
X48782Y-39267D01*
X48933Y-39267D01*
X48993Y-39242D01*
X49739Y-39988D01*
X49739Y-40531D01*
X49751Y-40591D01*
X49785Y-40642D01*
X53730Y-44586D01*
X53730Y-44586D01*
X53780Y-44620D01*
X53780Y-44620D01*
X53790Y-44622D01*
X53840Y-44632D01*
X54477Y-44632D01*
X54477Y-45181D01*
X54493Y-45221D01*
X54523Y-45250D01*
X54562Y-45267D01*
X54604Y-45267D01*
X55154Y-45267D01*
X55193Y-45250D01*
X55223Y-45221D01*
X55240Y-45181D01*
X55240Y-45139D01*
X55240Y-44632D01*
X55730Y-44632D01*
X56718Y-45620D01*
X53916Y-45620D01*
X51986Y-43691D01*
X51988Y-43688D01*
X51988Y-43576D01*
X51945Y-43473D01*
X51866Y-43393D01*
X51763Y-43350D01*
X51651Y-43350D01*
X51547Y-43393D01*
X51468Y-43472D01*
X51467Y-43475D01*
X50669Y-43475D01*
X49214Y-42021D01*
X49239Y-41962D01*
X49239Y-41810D01*
X49181Y-41670D01*
X49074Y-41562D01*
X49014Y-41537D01*
X49014Y-41445D01*
X49004Y-41396D01*
X49002Y-41386D01*
X49002Y-41386D01*
X48968Y-41335D01*
X48968Y-41335D01*
X48900Y-41267D01*
X48933Y-41267D01*
X49073Y-41209D01*
X49081Y-41201D01*
X50305Y-42424D01*
X50304Y-42427D01*
X50304Y-42539D01*
X50347Y-42642D01*
X50426Y-42722D01*
X50529Y-42765D01*
X50641Y-42765D01*
X50744Y-42722D01*
X50823Y-42643D01*
X50866Y-42540D01*
X50866Y-42428D01*
X50824Y-42324D01*
X50745Y-42245D01*
X50641Y-42202D01*
X50529Y-42202D01*
X50526Y-42203D01*
X49239Y-40916D01*
X49239Y-40810D01*
X49239Y-39810D01*
X49181Y-39670D01*
X49074Y-39562D01*
X48934Y-39504D01*
X48782Y-39504D01*
X48642Y-39562D01*
X48535Y-39669D01*
X48477Y-39809D01*
X48476Y-39961D01*
X48534Y-40101D01*
X48641Y-40208D01*
X48782Y-40267D01*
X48933Y-40267D01*
X49073Y-40209D01*
X49181Y-40102D01*
X49239Y-39962D01*
X49239Y-39810D01*
X49239Y-40810D01*
X49181Y-40670D01*
X49074Y-40562D01*
X48934Y-40504D01*
X48782Y-40504D01*
X48642Y-40562D01*
X48535Y-40669D01*
X48477Y-40809D01*
X48477Y-40843D01*
X46375Y-38742D01*
X46448Y-38693D01*
X46545Y-38548D01*
X46579Y-38377D01*
X46545Y-38207D01*
X46448Y-38062D01*
X46406Y-38034D01*
X47866Y-38034D01*
X47866Y-38034D01*
X47925Y-38022D01*
X47976Y-37988D01*
X48722Y-37242D01*
X48782Y-37267D01*
X48933Y-37267D01*
X49073Y-37209D01*
X49181Y-37102D01*
X49239Y-36962D01*
X49239Y-36810D01*
X49239Y-35810D01*
X49239Y-34810D01*
X49239Y-33810D01*
X49239Y-32810D01*
X49181Y-32670D01*
X49074Y-32562D01*
X48934Y-32504D01*
X48782Y-32504D01*
X48642Y-32562D01*
X48535Y-32669D01*
X48477Y-32809D01*
X48476Y-32961D01*
X48534Y-33101D01*
X48641Y-33208D01*
X48782Y-33267D01*
X48933Y-33267D01*
X49073Y-33209D01*
X49181Y-33102D01*
X49239Y-32962D01*
X49239Y-32810D01*
X49239Y-33810D01*
X49181Y-33670D01*
X49074Y-33562D01*
X48934Y-33504D01*
X48782Y-33504D01*
X48642Y-33562D01*
X48535Y-33669D01*
X48477Y-33809D01*
X48476Y-33961D01*
X48534Y-34101D01*
X48641Y-34208D01*
X48782Y-34267D01*
X48933Y-34267D01*
X49073Y-34209D01*
X49181Y-34102D01*
X49239Y-33962D01*
X49239Y-33810D01*
X49239Y-34810D01*
X49181Y-34670D01*
X49074Y-34562D01*
X48934Y-34504D01*
X48782Y-34504D01*
X48642Y-34562D01*
X48535Y-34669D01*
X48477Y-34809D01*
X48476Y-34961D01*
X48534Y-35101D01*
X48641Y-35208D01*
X48782Y-35267D01*
X48933Y-35267D01*
X49073Y-35209D01*
X49181Y-35102D01*
X49239Y-34962D01*
X49239Y-34810D01*
X49239Y-35810D01*
X49181Y-35670D01*
X49074Y-35562D01*
X48934Y-35504D01*
X48782Y-35504D01*
X48642Y-35562D01*
X48535Y-35669D01*
X48477Y-35809D01*
X48476Y-35961D01*
X48534Y-36101D01*
X48641Y-36208D01*
X48782Y-36267D01*
X48933Y-36267D01*
X49073Y-36209D01*
X49181Y-36102D01*
X49239Y-35962D01*
X49239Y-35810D01*
X49239Y-36810D01*
X49181Y-36670D01*
X49074Y-36562D01*
X48934Y-36504D01*
X48782Y-36504D01*
X48642Y-36562D01*
X48535Y-36669D01*
X48477Y-36809D01*
X48476Y-36961D01*
X48501Y-37021D01*
X47801Y-37721D01*
X47039Y-37721D01*
X47039Y-33265D01*
X47039Y-33223D01*
X47039Y-31884D01*
X47023Y-31845D01*
X46993Y-31815D01*
X46954Y-31799D01*
X46912Y-31799D01*
X45573Y-31799D01*
X45534Y-31815D01*
X45504Y-31845D01*
X45487Y-31884D01*
X45487Y-31926D01*
X45487Y-33265D01*
X45504Y-33304D01*
X45534Y-33334D01*
X45573Y-33350D01*
X45615Y-33350D01*
X46954Y-33350D01*
X46993Y-33334D01*
X47023Y-33304D01*
X47039Y-33265D01*
X47039Y-37721D01*
X46441Y-37721D01*
X46467Y-37703D01*
X46566Y-37546D01*
X46588Y-37465D01*
X46588Y-37290D01*
X46566Y-37209D01*
X46467Y-37052D01*
X46317Y-36945D01*
X46136Y-36904D01*
X46076Y-36904D01*
X46076Y-37364D01*
X46563Y-37364D01*
X46588Y-37290D01*
X46588Y-37465D01*
X46563Y-37391D01*
X46076Y-37391D01*
X46076Y-37399D01*
X46049Y-37399D01*
X46049Y-37391D01*
X46049Y-37364D01*
X46049Y-36904D01*
X45989Y-36904D01*
X45808Y-36945D01*
X45658Y-37052D01*
X45559Y-37209D01*
X45537Y-37290D01*
X45562Y-37364D01*
X46049Y-37364D01*
X46049Y-37391D01*
X45562Y-37391D01*
X45537Y-37465D01*
X45559Y-37546D01*
X45658Y-37703D01*
X45739Y-37761D01*
X45730Y-37767D01*
X45017Y-38480D01*
X45017Y-31778D01*
X45017Y-31584D01*
X44939Y-31390D01*
X44794Y-31241D01*
X44603Y-31158D01*
X44589Y-31156D01*
X44505Y-31180D01*
X44505Y-31667D01*
X44992Y-31667D01*
X45017Y-31584D01*
X45017Y-31778D01*
X44992Y-31694D01*
X44505Y-31694D01*
X44505Y-31702D01*
X44478Y-31702D01*
X44478Y-31694D01*
X44478Y-31667D01*
X44478Y-31180D01*
X44395Y-31156D01*
X44380Y-31158D01*
X44189Y-31241D01*
X44044Y-31390D01*
X43967Y-31584D01*
X43991Y-31667D01*
X44478Y-31667D01*
X44478Y-31694D01*
X43991Y-31694D01*
X43967Y-31778D01*
X44044Y-31971D01*
X44189Y-32120D01*
X44314Y-32174D01*
X44070Y-32174D01*
X44031Y-32190D01*
X44002Y-32220D01*
X43985Y-32259D01*
X43985Y-32302D01*
X43985Y-33102D01*
X44002Y-33141D01*
X44031Y-33171D01*
X44070Y-33187D01*
X44113Y-33187D01*
X44913Y-33187D01*
X44952Y-33171D01*
X44982Y-33141D01*
X44998Y-33102D01*
X44998Y-33059D01*
X44998Y-32259D01*
X44982Y-32220D01*
X44952Y-32190D01*
X44913Y-32174D01*
X44870Y-32174D01*
X44669Y-32174D01*
X44794Y-32120D01*
X44939Y-31971D01*
X45017Y-31778D01*
X45017Y-38480D01*
X45013Y-38484D01*
X45013Y-37709D01*
X45013Y-37534D01*
X45004Y-37500D01*
X45004Y-36622D01*
X45004Y-35622D01*
X44994Y-35572D01*
X44994Y-34983D01*
X44994Y-34940D01*
X44994Y-34260D01*
X44978Y-34221D01*
X44948Y-34191D01*
X44909Y-34175D01*
X44867Y-34175D01*
X44067Y-34175D01*
X44027Y-34191D01*
X43998Y-34221D01*
X43981Y-34260D01*
X43981Y-34303D01*
X43981Y-34983D01*
X43998Y-35022D01*
X44027Y-35052D01*
X44067Y-35068D01*
X44109Y-35068D01*
X44909Y-35068D01*
X44948Y-35052D01*
X44978Y-35022D01*
X44994Y-34983D01*
X44994Y-35572D01*
X44970Y-35451D01*
X44873Y-35306D01*
X44728Y-35209D01*
X44558Y-35175D01*
X44418Y-35175D01*
X44247Y-35209D01*
X44102Y-35306D01*
X44005Y-35451D01*
X43971Y-35622D01*
X44005Y-35792D01*
X44102Y-35937D01*
X44247Y-36034D01*
X44418Y-36068D01*
X44558Y-36068D01*
X44728Y-36034D01*
X44873Y-35937D01*
X44970Y-35792D01*
X45004Y-35622D01*
X45004Y-36622D01*
X44970Y-36451D01*
X44873Y-36306D01*
X44728Y-36209D01*
X44558Y-36175D01*
X44418Y-36175D01*
X44247Y-36209D01*
X44102Y-36306D01*
X44005Y-36451D01*
X43971Y-36622D01*
X44005Y-36792D01*
X44102Y-36937D01*
X44247Y-37034D01*
X44418Y-37068D01*
X44558Y-37068D01*
X44728Y-37034D01*
X44873Y-36937D01*
X44970Y-36792D01*
X45004Y-36622D01*
X45004Y-37500D01*
X44991Y-37453D01*
X44893Y-37296D01*
X44742Y-37189D01*
X44561Y-37148D01*
X44501Y-37148D01*
X44501Y-37608D01*
X44988Y-37608D01*
X45013Y-37534D01*
X45013Y-37709D01*
X44988Y-37635D01*
X44501Y-37635D01*
X44501Y-38095D01*
X44561Y-38095D01*
X44742Y-38054D01*
X44893Y-37947D01*
X44991Y-37790D01*
X45013Y-37709D01*
X45013Y-38484D01*
X44898Y-38599D01*
X44864Y-38649D01*
X44852Y-38709D01*
X44852Y-39293D01*
X44474Y-39293D01*
X44474Y-38095D01*
X44474Y-37635D01*
X44474Y-37608D01*
X44474Y-37148D01*
X44414Y-37148D01*
X44234Y-37189D01*
X44083Y-37296D01*
X43985Y-37453D01*
X43962Y-37534D01*
X43988Y-37608D01*
X44474Y-37608D01*
X44474Y-37635D01*
X43988Y-37635D01*
X43962Y-37709D01*
X43985Y-37790D01*
X44083Y-37947D01*
X44234Y-38054D01*
X44414Y-38095D01*
X44474Y-38095D01*
X44474Y-39293D01*
X44067Y-39293D01*
X44027Y-39310D01*
X43998Y-39339D01*
X43981Y-39379D01*
X43981Y-39421D01*
X43981Y-40101D01*
X43998Y-40140D01*
X44027Y-40170D01*
X44067Y-40186D01*
X44109Y-40186D01*
X44365Y-40186D01*
X44343Y-40219D01*
X44331Y-40279D01*
X44331Y-40311D01*
X44247Y-40327D01*
X44102Y-40424D01*
X44005Y-40569D01*
X43971Y-40740D01*
X44005Y-40910D01*
X44102Y-41055D01*
X44247Y-41152D01*
X44418Y-41186D01*
X44558Y-41186D01*
X44728Y-41152D01*
X44873Y-41055D01*
X44970Y-40910D01*
X45004Y-40740D01*
X44970Y-40569D01*
X44880Y-40435D01*
X44896Y-40435D01*
X44896Y-40435D01*
X44956Y-40423D01*
X45007Y-40389D01*
X45119Y-40277D01*
X45119Y-40277D01*
X45153Y-40226D01*
X45165Y-40166D01*
X45165Y-38774D01*
X45549Y-38390D01*
X45580Y-38548D01*
X45677Y-38693D01*
X45822Y-38790D01*
X45906Y-38807D01*
X45906Y-38838D01*
X45918Y-38898D01*
X45946Y-38940D01*
X45822Y-38965D01*
X45677Y-39062D01*
X45580Y-39207D01*
X45546Y-39377D01*
X45580Y-39548D01*
X45677Y-39693D01*
X45822Y-39790D01*
X45993Y-39824D01*
X46132Y-39824D01*
X46303Y-39790D01*
X46448Y-39693D01*
X46545Y-39548D01*
X46577Y-39386D01*
X48701Y-41510D01*
X48701Y-41537D01*
X48642Y-41562D01*
X48535Y-41669D01*
X48477Y-41809D01*
X48476Y-41961D01*
X48534Y-42101D01*
X48641Y-42208D01*
X48782Y-42267D01*
X48933Y-42267D01*
X48993Y-42242D01*
X50494Y-43742D01*
X50544Y-43776D01*
X50604Y-43788D01*
X51467Y-43788D01*
X51468Y-43791D01*
X51547Y-43870D01*
X51650Y-43913D01*
X51762Y-43913D01*
X51765Y-43912D01*
X53741Y-45887D01*
X53741Y-45887D01*
X53791Y-45921D01*
X53791Y-45921D01*
X53801Y-45923D01*
X53851Y-45933D01*
X60112Y-45933D01*
X60112Y-45933D01*
X60172Y-45921D01*
X60223Y-45887D01*
X60463Y-45647D01*
X60463Y-45647D01*
X60497Y-45597D01*
X60509Y-45537D01*
X60509Y-43830D01*
X61209Y-43130D01*
X62495Y-43130D01*
X62600Y-43234D01*
X62575Y-43293D01*
X62575Y-43445D01*
X62633Y-43585D01*
X62740Y-43693D01*
X62880Y-43751D01*
X63032Y-43751D01*
X63172Y-43693D01*
X63279Y-43586D01*
X63337Y-43446D01*
X63338Y-43294D01*
X63280Y-43154D01*
X63172Y-43047D01*
X63032Y-42988D01*
X62881Y-42988D01*
X62821Y-43013D01*
X62716Y-42909D01*
X62716Y-41811D01*
X62740Y-41834D01*
X62880Y-41893D01*
X63032Y-41893D01*
X63172Y-41835D01*
X63279Y-41728D01*
X63337Y-41587D01*
X63338Y-41436D01*
X63280Y-41296D01*
X63172Y-41188D01*
X63032Y-41130D01*
X62881Y-41130D01*
X62740Y-41188D01*
X62716Y-41212D01*
X62716Y-39972D01*
X62821Y-39868D01*
X62880Y-39893D01*
X63032Y-39893D01*
X63172Y-39835D01*
X63279Y-39728D01*
X63337Y-39587D01*
X63338Y-39436D01*
X63313Y-39376D01*
X63476Y-39213D01*
X63476Y-39213D01*
X63510Y-39162D01*
X63510Y-39162D01*
X63512Y-39152D01*
X63522Y-39102D01*
X63522Y-39102D01*
X63522Y-46167D01*
X63394Y-46359D01*
X63338Y-46396D01*
X63338Y-45294D01*
X63280Y-45154D01*
X63172Y-45047D01*
X63032Y-44988D01*
X62881Y-44988D01*
X62740Y-45046D01*
X62633Y-45153D01*
X62575Y-45293D01*
X62575Y-45445D01*
X62633Y-45585D01*
X62740Y-45693D01*
X62880Y-45751D01*
X63032Y-45751D01*
X63172Y-45693D01*
X63279Y-45586D01*
X63337Y-45446D01*
X63338Y-45294D01*
X63338Y-46396D01*
X62669Y-46843D01*
X61907Y-46994D01*
X61907Y-44736D01*
X61907Y-43925D01*
X61045Y-43925D01*
X61045Y-44736D01*
X61907Y-44736D01*
X61907Y-46994D01*
X61802Y-47015D01*
X49267Y-47015D01*
X49267Y-43807D01*
X49239Y-43738D01*
X49239Y-42810D01*
X49181Y-42670D01*
X49074Y-42562D01*
X48934Y-42504D01*
X48782Y-42504D01*
X48642Y-42562D01*
X48535Y-42669D01*
X48477Y-42809D01*
X48476Y-42961D01*
X48534Y-43101D01*
X48641Y-43208D01*
X48782Y-43267D01*
X48933Y-43267D01*
X49073Y-43209D01*
X49181Y-43102D01*
X49239Y-42962D01*
X49239Y-42810D01*
X49239Y-43738D01*
X49206Y-43656D01*
X49203Y-43652D01*
X49138Y-43624D01*
X49119Y-43644D01*
X49119Y-43605D01*
X49092Y-43540D01*
X48942Y-43477D01*
X48779Y-43476D01*
X48628Y-43537D01*
X48624Y-43540D01*
X48597Y-43605D01*
X48858Y-43866D01*
X49119Y-43605D01*
X49119Y-43644D01*
X48877Y-43885D01*
X49138Y-44147D01*
X49203Y-44119D01*
X49266Y-43969D01*
X49267Y-43807D01*
X49267Y-47015D01*
X49239Y-47015D01*
X49239Y-44810D01*
X49181Y-44670D01*
X49119Y-44607D01*
X49119Y-44166D01*
X48858Y-43905D01*
X48838Y-43924D01*
X48838Y-43885D01*
X48577Y-43624D01*
X48513Y-43652D01*
X48449Y-43801D01*
X48448Y-43964D01*
X48510Y-44115D01*
X48513Y-44119D01*
X48577Y-44147D01*
X48838Y-43885D01*
X48838Y-43924D01*
X48597Y-44166D01*
X48624Y-44230D01*
X48774Y-44294D01*
X48937Y-44295D01*
X49087Y-44233D01*
X49092Y-44230D01*
X49119Y-44166D01*
X49119Y-44607D01*
X49074Y-44562D01*
X48934Y-44504D01*
X48782Y-44504D01*
X48642Y-44562D01*
X48535Y-44669D01*
X48477Y-44809D01*
X48476Y-44961D01*
X48534Y-45101D01*
X48641Y-45208D01*
X48782Y-45267D01*
X48933Y-45267D01*
X49073Y-45209D01*
X49181Y-45102D01*
X49239Y-44962D01*
X49239Y-44810D01*
X49239Y-47015D01*
X47039Y-47015D01*
X47039Y-45470D01*
X47039Y-45427D01*
X47039Y-44088D01*
X47023Y-44049D01*
X46993Y-44019D01*
X46954Y-44003D01*
X46912Y-44003D01*
X46569Y-44003D01*
X46569Y-40739D01*
X46569Y-40696D01*
X46569Y-40016D01*
X46553Y-39977D01*
X46523Y-39947D01*
X46484Y-39931D01*
X46441Y-39931D01*
X45641Y-39931D01*
X45602Y-39947D01*
X45572Y-39977D01*
X45556Y-40016D01*
X45556Y-40059D01*
X45556Y-40739D01*
X45572Y-40778D01*
X45602Y-40808D01*
X45641Y-40824D01*
X45684Y-40824D01*
X46484Y-40824D01*
X46523Y-40808D01*
X46553Y-40778D01*
X46569Y-40739D01*
X46569Y-44003D01*
X45573Y-44003D01*
X45534Y-44019D01*
X45504Y-44049D01*
X45487Y-44088D01*
X45487Y-44131D01*
X45487Y-45470D01*
X45504Y-45509D01*
X45534Y-45539D01*
X45573Y-45555D01*
X45615Y-45555D01*
X46954Y-45555D01*
X46993Y-45539D01*
X47023Y-45509D01*
X47039Y-45470D01*
X47039Y-47015D01*
X45013Y-47015D01*
X45013Y-42827D01*
X45013Y-42652D01*
X45004Y-42618D01*
X45004Y-41740D01*
X44970Y-41569D01*
X44873Y-41424D01*
X44728Y-41327D01*
X44558Y-41293D01*
X44418Y-41293D01*
X44247Y-41327D01*
X44102Y-41424D01*
X44005Y-41569D01*
X43971Y-41740D01*
X44005Y-41910D01*
X44102Y-42055D01*
X44247Y-42152D01*
X44418Y-42186D01*
X44558Y-42186D01*
X44728Y-42152D01*
X44873Y-42055D01*
X44970Y-41910D01*
X45004Y-41740D01*
X45004Y-42618D01*
X44991Y-42571D01*
X44893Y-42414D01*
X44742Y-42307D01*
X44561Y-42266D01*
X44501Y-42266D01*
X44501Y-42726D01*
X44988Y-42726D01*
X45013Y-42652D01*
X45013Y-42827D01*
X44988Y-42753D01*
X44501Y-42753D01*
X44501Y-43214D01*
X44561Y-43214D01*
X44742Y-43172D01*
X44893Y-43065D01*
X44991Y-42908D01*
X45013Y-42827D01*
X45013Y-47015D01*
X44474Y-47015D01*
X44474Y-43214D01*
X44474Y-42753D01*
X44474Y-42726D01*
X44474Y-42266D01*
X44414Y-42266D01*
X44234Y-42307D01*
X44083Y-42414D01*
X43985Y-42571D01*
X43962Y-42652D01*
X43988Y-42726D01*
X44474Y-42726D01*
X44474Y-42753D01*
X43988Y-42753D01*
X43962Y-42827D01*
X43985Y-42908D01*
X44083Y-43065D01*
X44234Y-43172D01*
X44414Y-43214D01*
X44474Y-43214D01*
X44474Y-47015D01*
X43913Y-47015D01*
X43046Y-46843D01*
X42322Y-46359D01*
X41837Y-45634D01*
X41665Y-44767D01*
X41665Y-32587D01*
X41837Y-31719D01*
X42322Y-30995D01*
X43046Y-30511D01*
X43913Y-30338D01*
X61802Y-30338D01*
X62669Y-30511D01*
X63394Y-30995D01*
X63878Y-31719D01*
X64051Y-32587D01*
X64051Y-44767D01*
M02*
