%FSLAX34Y34*%
G04 Gerber Fmt 3.4, Leading zero omitted, Abs format*
G04 (created by PCBNEW (2014-03-19 BZR 4756)-product) date Sun 01 Jun 2014 22:24:43 BST*
%MOIN*%
G01*
G70*
G90*
G04 APERTURE LIST*
%ADD10C,0.005906*%
%ADD11C,0.007874*%
%ADD12C,0.011811*%
%ADD13C,0.019685*%
%ADD14R,0.015700X0.011800*%
%ADD15R,0.011800X0.015700*%
%ADD16R,0.068000X0.068000*%
%ADD17O,0.068000X0.068000*%
%ADD18R,0.080000X0.068000*%
%ADD19O,0.080000X0.068000*%
%ADD20R,0.015700X0.023600*%
%ADD21R,0.023600X0.015700*%
%ADD22C,0.055000*%
%ADD23R,0.055000X0.055000*%
%ADD24R,0.025000X0.045000*%
%ADD25R,0.080000X0.080000*%
%ADD26O,0.080000X0.080000*%
%ADD27R,0.133900X0.133900*%
G04 APERTURE END LIST*
G54D10*
G54D11*
X48815Y-30079D02*
X48815Y-29764D01*
X48995Y-30079D01*
X48995Y-29764D01*
X49265Y-30064D02*
X49235Y-30079D01*
X49175Y-30079D01*
X49145Y-30064D01*
X49130Y-30034D01*
X49130Y-29914D01*
X49145Y-29884D01*
X49175Y-29869D01*
X49235Y-29869D01*
X49265Y-29884D01*
X49280Y-29914D01*
X49280Y-29944D01*
X49130Y-29974D01*
X49415Y-30079D02*
X49415Y-29869D01*
X49415Y-29899D02*
X49430Y-29884D01*
X49460Y-29869D01*
X49505Y-29869D01*
X49535Y-29884D01*
X49550Y-29914D01*
X49550Y-30079D01*
X49550Y-29914D02*
X49565Y-29884D01*
X49595Y-29869D01*
X49640Y-29869D01*
X49670Y-29884D01*
X49685Y-29914D01*
X49685Y-30079D01*
X49970Y-30079D02*
X49970Y-29914D01*
X49955Y-29884D01*
X49925Y-29869D01*
X49865Y-29869D01*
X49835Y-29884D01*
X49970Y-30064D02*
X49940Y-30079D01*
X49865Y-30079D01*
X49835Y-30064D01*
X49820Y-30034D01*
X49820Y-30004D01*
X49835Y-29974D01*
X49865Y-29959D01*
X49940Y-29959D01*
X49970Y-29944D01*
X50524Y-30079D02*
X50344Y-30079D01*
X50434Y-30079D02*
X50434Y-29764D01*
X50404Y-29809D01*
X50374Y-29839D01*
X50344Y-29854D01*
X50629Y-29764D02*
X50839Y-29764D01*
X50704Y-30079D01*
X48815Y-30599D02*
X48815Y-30389D01*
X48815Y-30419D02*
X48830Y-30404D01*
X48860Y-30389D01*
X48905Y-30389D01*
X48935Y-30404D01*
X48950Y-30434D01*
X48950Y-30599D01*
X48950Y-30434D02*
X48965Y-30404D01*
X48995Y-30389D01*
X49040Y-30389D01*
X49070Y-30404D01*
X49085Y-30434D01*
X49085Y-30599D01*
X49280Y-30599D02*
X49250Y-30584D01*
X49235Y-30569D01*
X49220Y-30539D01*
X49220Y-30449D01*
X49235Y-30419D01*
X49250Y-30404D01*
X49280Y-30389D01*
X49325Y-30389D01*
X49355Y-30404D01*
X49370Y-30419D01*
X49385Y-30449D01*
X49385Y-30539D01*
X49370Y-30569D01*
X49355Y-30584D01*
X49325Y-30599D01*
X49280Y-30599D01*
X49655Y-30389D02*
X49655Y-30599D01*
X49520Y-30389D02*
X49520Y-30554D01*
X49535Y-30584D01*
X49565Y-30599D01*
X49610Y-30599D01*
X49640Y-30584D01*
X49655Y-30569D01*
X49805Y-30389D02*
X49805Y-30599D01*
X49805Y-30419D02*
X49820Y-30404D01*
X49850Y-30389D01*
X49895Y-30389D01*
X49925Y-30404D01*
X49940Y-30434D01*
X49940Y-30599D01*
X50044Y-30389D02*
X50164Y-30389D01*
X50089Y-30284D02*
X50089Y-30554D01*
X50104Y-30584D01*
X50134Y-30599D01*
X50164Y-30599D01*
X50269Y-30599D02*
X50269Y-30389D01*
X50269Y-30284D02*
X50254Y-30299D01*
X50269Y-30314D01*
X50284Y-30299D01*
X50269Y-30284D01*
X50269Y-30314D01*
X50419Y-30389D02*
X50419Y-30599D01*
X50419Y-30419D02*
X50434Y-30404D01*
X50464Y-30389D01*
X50509Y-30389D01*
X50539Y-30404D01*
X50554Y-30434D01*
X50554Y-30599D01*
X50839Y-30389D02*
X50839Y-30644D01*
X50824Y-30674D01*
X50809Y-30689D01*
X50779Y-30704D01*
X50734Y-30704D01*
X50704Y-30689D01*
X50839Y-30584D02*
X50809Y-30599D01*
X50749Y-30599D01*
X50719Y-30584D01*
X50704Y-30569D01*
X50689Y-30539D01*
X50689Y-30449D01*
X50704Y-30419D01*
X50719Y-30404D01*
X50749Y-30389D01*
X50809Y-30389D01*
X50839Y-30404D01*
G54D12*
X36895Y-45778D02*
X36557Y-45778D01*
X36726Y-45778D02*
X36726Y-45188D01*
X36670Y-45272D01*
X36614Y-45329D01*
X36557Y-45357D01*
X37260Y-45188D02*
X37317Y-45188D01*
X37373Y-45216D01*
X37401Y-45244D01*
X37429Y-45300D01*
X37457Y-45413D01*
X37457Y-45553D01*
X37429Y-45666D01*
X37401Y-45722D01*
X37373Y-45750D01*
X37317Y-45778D01*
X37260Y-45778D01*
X37204Y-45750D01*
X37176Y-45722D01*
X37148Y-45666D01*
X37120Y-45553D01*
X37120Y-45413D01*
X37148Y-45300D01*
X37176Y-45244D01*
X37204Y-45216D01*
X37260Y-45188D01*
X37626Y-45385D02*
X37851Y-45385D01*
X37710Y-45188D02*
X37710Y-45694D01*
X37739Y-45750D01*
X37795Y-45778D01*
X37851Y-45778D01*
X38132Y-45778D02*
X38076Y-45750D01*
X38048Y-45722D01*
X38020Y-45666D01*
X38020Y-45497D01*
X38048Y-45441D01*
X38076Y-45413D01*
X38132Y-45385D01*
X38217Y-45385D01*
X38273Y-45413D01*
X38301Y-45441D01*
X38329Y-45497D01*
X38329Y-45666D01*
X38301Y-45722D01*
X38273Y-45750D01*
X38217Y-45778D01*
X38132Y-45778D01*
X38526Y-45188D02*
X38920Y-45188D01*
X38667Y-45778D01*
X39145Y-45722D02*
X39173Y-45750D01*
X39145Y-45778D01*
X39116Y-45750D01*
X39145Y-45722D01*
X39145Y-45778D01*
X39679Y-45750D02*
X39623Y-45778D01*
X39510Y-45778D01*
X39454Y-45750D01*
X39426Y-45722D01*
X39398Y-45666D01*
X39398Y-45497D01*
X39426Y-45441D01*
X39454Y-45413D01*
X39510Y-45385D01*
X39623Y-45385D01*
X39679Y-45413D01*
X40016Y-45778D02*
X39960Y-45750D01*
X39932Y-45722D01*
X39904Y-45666D01*
X39904Y-45497D01*
X39932Y-45441D01*
X39960Y-45413D01*
X40016Y-45385D01*
X40101Y-45385D01*
X40157Y-45413D01*
X40185Y-45441D01*
X40213Y-45497D01*
X40213Y-45666D01*
X40185Y-45722D01*
X40157Y-45750D01*
X40101Y-45778D01*
X40016Y-45778D01*
X40466Y-45778D02*
X40466Y-45385D01*
X40466Y-45441D02*
X40494Y-45413D01*
X40551Y-45385D01*
X40635Y-45385D01*
X40691Y-45413D01*
X40719Y-45469D01*
X40719Y-45778D01*
X40719Y-45469D02*
X40748Y-45413D01*
X40804Y-45385D01*
X40888Y-45385D01*
X40944Y-45413D01*
X40973Y-45469D01*
X40973Y-45778D01*
G54D10*
G36*
X41751Y-43149D02*
X41870Y-43149D01*
X41870Y-43779D01*
X41751Y-43779D01*
X41751Y-43149D01*
X41751Y-43149D01*
G37*
G36*
X41978Y-43149D02*
X42096Y-43149D01*
X42096Y-43779D01*
X41978Y-43779D01*
X41978Y-43149D01*
X41978Y-43149D01*
G37*
G36*
X42234Y-43149D02*
X42352Y-43149D01*
X42352Y-43779D01*
X42234Y-43779D01*
X42234Y-43149D01*
X42234Y-43149D01*
G37*
G36*
X42490Y-43149D02*
X42608Y-43149D01*
X42608Y-43779D01*
X42490Y-43779D01*
X42490Y-43149D01*
X42490Y-43149D01*
G37*
G36*
X42746Y-43149D02*
X42864Y-43149D01*
X42864Y-43779D01*
X42746Y-43779D01*
X42746Y-43149D01*
X42746Y-43149D01*
G37*
G36*
X43001Y-43149D02*
X43120Y-43149D01*
X43120Y-43779D01*
X43001Y-43779D01*
X43001Y-43149D01*
X43001Y-43149D01*
G37*
G36*
X44025Y-40709D02*
X44143Y-40709D01*
X44143Y-41339D01*
X44025Y-41339D01*
X44025Y-40709D01*
X44025Y-40709D01*
G37*
G36*
X43769Y-40709D02*
X43887Y-40709D01*
X43887Y-41339D01*
X43769Y-41339D01*
X43769Y-40709D01*
X43769Y-40709D01*
G37*
G36*
X43513Y-40709D02*
X43631Y-40709D01*
X43631Y-41339D01*
X43513Y-41339D01*
X43513Y-40709D01*
X43513Y-40709D01*
G37*
G36*
X43257Y-40709D02*
X43375Y-40709D01*
X43375Y-41339D01*
X43257Y-41339D01*
X43257Y-40709D01*
X43257Y-40709D01*
G37*
G36*
X43257Y-43149D02*
X43375Y-43149D01*
X43375Y-43779D01*
X43257Y-43779D01*
X43257Y-43149D01*
X43257Y-43149D01*
G37*
G36*
X43513Y-43149D02*
X43631Y-43149D01*
X43631Y-43779D01*
X43513Y-43779D01*
X43513Y-43149D01*
X43513Y-43149D01*
G37*
G36*
X43769Y-43149D02*
X43887Y-43149D01*
X43887Y-43779D01*
X43769Y-43779D01*
X43769Y-43149D01*
X43769Y-43149D01*
G37*
G36*
X44025Y-43149D02*
X44143Y-43149D01*
X44143Y-43779D01*
X44025Y-43779D01*
X44025Y-43149D01*
X44025Y-43149D01*
G37*
G36*
X43001Y-40709D02*
X43120Y-40709D01*
X43120Y-41339D01*
X43001Y-41339D01*
X43001Y-40709D01*
X43001Y-40709D01*
G37*
G36*
X42746Y-40709D02*
X42864Y-40709D01*
X42864Y-41339D01*
X42746Y-41339D01*
X42746Y-40709D01*
X42746Y-40709D01*
G37*
G36*
X42490Y-40709D02*
X42608Y-40709D01*
X42608Y-41339D01*
X42490Y-41339D01*
X42490Y-40709D01*
X42490Y-40709D01*
G37*
G36*
X42234Y-40709D02*
X42352Y-40709D01*
X42352Y-41339D01*
X42234Y-41339D01*
X42234Y-40709D01*
X42234Y-40709D01*
G37*
G36*
X41978Y-40709D02*
X42096Y-40709D01*
X42096Y-41339D01*
X41978Y-41339D01*
X41978Y-40709D01*
X41978Y-40709D01*
G37*
G36*
X41722Y-40709D02*
X41840Y-40709D01*
X41840Y-41339D01*
X41722Y-41339D01*
X41722Y-40709D01*
X41722Y-40709D01*
G37*
G54D13*
X43937Y-37559D03*
X43464Y-37559D03*
X43464Y-38031D03*
X43937Y-38031D03*
G54D14*
X43011Y-40275D03*
X43011Y-40039D03*
G54D15*
X42834Y-44311D03*
X43070Y-44311D03*
G54D16*
X48318Y-38854D03*
G54D17*
X49318Y-38854D03*
X48318Y-39854D03*
X49318Y-39854D03*
X48318Y-40854D03*
X49318Y-40854D03*
X48318Y-41854D03*
X49318Y-41854D03*
G54D18*
X37401Y-39492D03*
G54D19*
X37401Y-38492D03*
X37401Y-37492D03*
X37401Y-36492D03*
G54D18*
X35826Y-33736D03*
G54D19*
X35826Y-34736D03*
X35826Y-35736D03*
X35826Y-36736D03*
G54D18*
X35826Y-38854D03*
G54D19*
X35826Y-39854D03*
X35826Y-40854D03*
X35826Y-41854D03*
G54D20*
X52145Y-30511D03*
X51791Y-30511D03*
X52145Y-32874D03*
X51791Y-32874D03*
X52145Y-31692D03*
X51791Y-31692D03*
X41240Y-39881D03*
X41594Y-39881D03*
G54D21*
X41240Y-40866D03*
X41240Y-41220D03*
G54D20*
X45196Y-41889D03*
X44842Y-41889D03*
G54D22*
X54295Y-42484D03*
X54295Y-44484D03*
X51295Y-42484D03*
X51295Y-44484D03*
X54295Y-38625D03*
X54295Y-40625D03*
X51295Y-38625D03*
X51295Y-40625D03*
X54295Y-34767D03*
X54295Y-36767D03*
X51295Y-34767D03*
X51295Y-36767D03*
X46102Y-44035D03*
X40196Y-43035D03*
X40196Y-42035D03*
X40196Y-41035D03*
X40196Y-40035D03*
X40196Y-39035D03*
X40196Y-38035D03*
X40196Y-37035D03*
X40196Y-36035D03*
X40196Y-35035D03*
X40196Y-34035D03*
X40196Y-33035D03*
X40196Y-32035D03*
X40196Y-31035D03*
X40196Y-30035D03*
G54D23*
X46102Y-30035D03*
G54D22*
X46102Y-31035D03*
X46102Y-32035D03*
X46102Y-33035D03*
X46102Y-34035D03*
X46102Y-35035D03*
X46102Y-36035D03*
X46102Y-37035D03*
X46102Y-38035D03*
X46102Y-39035D03*
X46102Y-40035D03*
X46102Y-41035D03*
X46102Y-42035D03*
X46102Y-43035D03*
X40196Y-44035D03*
G54D24*
X53243Y-30511D03*
X53843Y-30511D03*
X53243Y-31692D03*
X53843Y-31692D03*
X53243Y-32874D03*
X53843Y-32874D03*
G54D25*
X47755Y-34007D03*
G54D26*
X47755Y-35007D03*
G54D27*
X35826Y-31692D03*
X49803Y-31692D03*
X49803Y-43897D03*
X35826Y-43897D03*
G54D25*
X37401Y-31917D03*
G54D26*
X37401Y-30917D03*
M02*
