%FSLAX34Y34*%
G04 Gerber Fmt 3.4, Leading zero omitted, Abs format*
G04 (created by PCBNEW (2014-03-19 BZR 4756)-product) date Sun 01 Jun 2014 22:24:43 BST*
%MOIN*%
G01*
G70*
G90*
G04 APERTURE LIST*
%ADD10C,0.005906*%
%ADD11C,0.007874*%
%ADD12R,0.015748X0.039370*%
%ADD13R,0.039370X0.015748*%
%ADD14R,0.098425X0.098425*%
%ADD15C,0.019685*%
%ADD16R,0.015700X0.011800*%
%ADD17R,0.045000X0.025000*%
%ADD18R,0.068000X0.068000*%
%ADD19O,0.068000X0.068000*%
%ADD20R,0.080000X0.068000*%
%ADD21O,0.080000X0.068000*%
%ADD22R,0.023600X0.015700*%
%ADD23C,0.055000*%
%ADD24R,0.055000X0.055000*%
%ADD25R,0.080000X0.080000*%
%ADD26O,0.080000X0.080000*%
%ADD27R,0.133900X0.133900*%
G04 APERTURE END LIST*
G54D10*
G54D11*
X53756Y-33016D02*
X53756Y-32701D01*
X53681Y-32701D01*
X53636Y-32716D01*
X53606Y-32746D01*
X53591Y-32776D01*
X53576Y-32836D01*
X53576Y-32881D01*
X53591Y-32941D01*
X53606Y-32971D01*
X53636Y-33001D01*
X53681Y-33016D01*
X53756Y-33016D01*
X53396Y-32836D02*
X53426Y-32821D01*
X53441Y-32806D01*
X53456Y-32776D01*
X53456Y-32761D01*
X53441Y-32731D01*
X53426Y-32716D01*
X53396Y-32701D01*
X53336Y-32701D01*
X53306Y-32716D01*
X53291Y-32731D01*
X53276Y-32761D01*
X53276Y-32776D01*
X53291Y-32806D01*
X53306Y-32821D01*
X53336Y-32836D01*
X53396Y-32836D01*
X53426Y-32851D01*
X53441Y-32866D01*
X53456Y-32896D01*
X53456Y-32956D01*
X53441Y-32986D01*
X53426Y-33001D01*
X53396Y-33016D01*
X53336Y-33016D01*
X53306Y-33001D01*
X53291Y-32986D01*
X53276Y-32956D01*
X53276Y-32896D01*
X53291Y-32866D01*
X53306Y-32851D01*
X53336Y-32836D01*
X53756Y-31835D02*
X53756Y-31520D01*
X53681Y-31520D01*
X53636Y-31535D01*
X53606Y-31565D01*
X53591Y-31595D01*
X53576Y-31655D01*
X53576Y-31700D01*
X53591Y-31760D01*
X53606Y-31790D01*
X53636Y-31820D01*
X53681Y-31835D01*
X53756Y-31835D01*
X53471Y-31520D02*
X53261Y-31520D01*
X53396Y-31835D01*
X53756Y-30654D02*
X53756Y-30339D01*
X53681Y-30339D01*
X53636Y-30354D01*
X53606Y-30384D01*
X53591Y-30414D01*
X53576Y-30474D01*
X53576Y-30519D01*
X53591Y-30579D01*
X53606Y-30609D01*
X53636Y-30639D01*
X53681Y-30654D01*
X53756Y-30654D01*
X53306Y-30339D02*
X53366Y-30339D01*
X53396Y-30354D01*
X53411Y-30369D01*
X53441Y-30414D01*
X53456Y-30474D01*
X53456Y-30594D01*
X53441Y-30624D01*
X53426Y-30639D01*
X53396Y-30654D01*
X53336Y-30654D01*
X53306Y-30639D01*
X53291Y-30624D01*
X53276Y-30594D01*
X53276Y-30519D01*
X53291Y-30489D01*
X53306Y-30474D01*
X53336Y-30459D01*
X53396Y-30459D01*
X53426Y-30474D01*
X53441Y-30489D01*
X53456Y-30519D01*
X53020Y-35820D02*
X52870Y-35820D01*
X53050Y-35910D02*
X52945Y-35595D01*
X52840Y-35910D01*
X52765Y-35595D02*
X52555Y-35595D01*
X52690Y-35910D01*
X53039Y-39658D02*
X52889Y-39658D01*
X53069Y-39748D02*
X52964Y-39433D01*
X52859Y-39748D01*
X52619Y-39433D02*
X52679Y-39433D01*
X52709Y-39448D01*
X52724Y-39463D01*
X52754Y-39508D01*
X52769Y-39568D01*
X52769Y-39688D01*
X52754Y-39718D01*
X52739Y-39733D01*
X52709Y-39748D01*
X52649Y-39748D01*
X52619Y-39733D01*
X52604Y-39718D01*
X52589Y-39688D01*
X52589Y-39613D01*
X52604Y-39583D01*
X52619Y-39568D01*
X52649Y-39553D01*
X52709Y-39553D01*
X52739Y-39568D01*
X52754Y-39583D01*
X52769Y-39613D01*
X53039Y-43536D02*
X52889Y-43536D01*
X53069Y-43626D02*
X52964Y-43311D01*
X52859Y-43626D01*
X52604Y-43311D02*
X52754Y-43311D01*
X52769Y-43461D01*
X52754Y-43446D01*
X52724Y-43431D01*
X52649Y-43431D01*
X52619Y-43446D01*
X52604Y-43461D01*
X52589Y-43491D01*
X52589Y-43566D01*
X52604Y-43596D01*
X52619Y-43611D01*
X52649Y-43626D01*
X52724Y-43626D01*
X52754Y-43611D01*
X52769Y-43596D01*
G54D12*
X44084Y-37007D03*
X43828Y-37007D03*
X43572Y-37007D03*
X43316Y-37007D03*
G54D13*
X42913Y-37411D03*
X42913Y-37667D03*
X42913Y-37923D03*
X42913Y-38179D03*
G54D12*
X43316Y-38582D03*
X43572Y-38582D03*
X43828Y-38582D03*
X44084Y-38582D03*
G54D13*
X44488Y-38179D03*
X44488Y-37923D03*
X44488Y-37667D03*
X44488Y-37411D03*
G54D14*
X43700Y-37795D03*
G54D15*
X43937Y-37559D03*
X43464Y-37559D03*
X43464Y-38031D03*
X43937Y-38031D03*
G54D16*
X43708Y-36224D03*
X43708Y-35988D03*
G54D17*
X45031Y-36166D03*
X45031Y-35566D03*
G54D18*
X48318Y-38854D03*
G54D19*
X49318Y-38854D03*
X48318Y-39854D03*
X49318Y-39854D03*
X48318Y-40854D03*
X49318Y-40854D03*
X48318Y-41854D03*
X49318Y-41854D03*
G54D20*
X37401Y-39492D03*
G54D21*
X37401Y-38492D03*
X37401Y-37492D03*
X37401Y-36492D03*
G54D20*
X35826Y-33736D03*
G54D21*
X35826Y-34736D03*
X35826Y-35736D03*
X35826Y-36736D03*
G54D20*
X35826Y-38854D03*
G54D21*
X35826Y-39854D03*
X35826Y-40854D03*
X35826Y-41854D03*
G54D22*
X44291Y-35846D03*
X44291Y-36200D03*
G54D23*
X54295Y-42484D03*
X54295Y-44484D03*
X51295Y-42484D03*
X51295Y-44484D03*
X54295Y-38625D03*
X54295Y-40625D03*
X51295Y-38625D03*
X51295Y-40625D03*
X54295Y-34767D03*
X54295Y-36767D03*
X51295Y-34767D03*
X51295Y-36767D03*
X46102Y-44035D03*
X40196Y-43035D03*
X40196Y-42035D03*
X40196Y-41035D03*
X40196Y-40035D03*
X40196Y-39035D03*
X40196Y-38035D03*
X40196Y-37035D03*
X40196Y-36035D03*
X40196Y-35035D03*
X40196Y-34035D03*
X40196Y-33035D03*
X40196Y-32035D03*
X40196Y-31035D03*
X40196Y-30035D03*
G54D24*
X46102Y-30035D03*
G54D23*
X46102Y-31035D03*
X46102Y-32035D03*
X46102Y-33035D03*
X46102Y-34035D03*
X46102Y-35035D03*
X46102Y-36035D03*
X46102Y-37035D03*
X46102Y-38035D03*
X46102Y-39035D03*
X46102Y-40035D03*
X46102Y-41035D03*
X46102Y-42035D03*
X46102Y-43035D03*
X40196Y-44035D03*
G54D25*
X47755Y-34007D03*
G54D26*
X47755Y-35007D03*
G54D27*
X35826Y-31692D03*
X49803Y-31692D03*
X49803Y-43897D03*
X35826Y-43897D03*
G54D25*
X37401Y-31917D03*
G54D26*
X37401Y-30917D03*
M02*
