%FSLAX34Y34*%
G04 Gerber Fmt 3.4, Leading zero omitted, Abs format*
G04 (created by PCBNEW (2014-03-19 BZR 4756)-product) date Wed 04 Jun 2014 23:43:45 BST*
%MOIN*%
G01*
G70*
G90*
G04 APERTURE LIST*
%ADD10C,0.005906*%
%ADD11C,0.007874*%
%ADD12C,0.019685*%
%ADD13R,0.015700X0.011800*%
%ADD14R,0.011800X0.015700*%
%ADD15R,0.068000X0.068000*%
%ADD16O,0.068000X0.068000*%
%ADD17R,0.080000X0.068000*%
%ADD18O,0.080000X0.068000*%
%ADD19R,0.015700X0.023600*%
%ADD20R,0.023600X0.015700*%
%ADD21C,0.055000*%
%ADD22R,0.025000X0.045000*%
%ADD23R,0.080000X0.080000*%
%ADD24O,0.080000X0.080000*%
%ADD25R,0.133900X0.133900*%
%ADD26R,0.055000X0.055000*%
G04 APERTURE END LIST*
G54D10*
G54D11*
X57476Y-30965D02*
X57476Y-30650D01*
X57656Y-30965D01*
X57656Y-30650D01*
X57926Y-30950D02*
X57896Y-30965D01*
X57836Y-30965D01*
X57806Y-30950D01*
X57791Y-30920D01*
X57791Y-30800D01*
X57806Y-30770D01*
X57836Y-30755D01*
X57896Y-30755D01*
X57926Y-30770D01*
X57941Y-30800D01*
X57941Y-30830D01*
X57791Y-30860D01*
X58076Y-30965D02*
X58076Y-30755D01*
X58076Y-30785D02*
X58091Y-30770D01*
X58121Y-30755D01*
X58166Y-30755D01*
X58196Y-30770D01*
X58211Y-30800D01*
X58211Y-30965D01*
X58211Y-30800D02*
X58226Y-30770D01*
X58256Y-30755D01*
X58301Y-30755D01*
X58331Y-30770D01*
X58346Y-30800D01*
X58346Y-30965D01*
X58631Y-30965D02*
X58631Y-30800D01*
X58616Y-30770D01*
X58586Y-30755D01*
X58526Y-30755D01*
X58496Y-30770D01*
X58631Y-30950D02*
X58601Y-30965D01*
X58526Y-30965D01*
X58496Y-30950D01*
X58481Y-30920D01*
X58481Y-30890D01*
X58496Y-30860D01*
X58526Y-30845D01*
X58601Y-30845D01*
X58631Y-30830D01*
X59186Y-30965D02*
X59006Y-30965D01*
X59096Y-30965D02*
X59096Y-30650D01*
X59066Y-30695D01*
X59036Y-30725D01*
X59006Y-30740D01*
X59291Y-30650D02*
X59501Y-30650D01*
X59366Y-30965D01*
X57476Y-31485D02*
X57476Y-31275D01*
X57476Y-31305D02*
X57491Y-31290D01*
X57521Y-31275D01*
X57566Y-31275D01*
X57596Y-31290D01*
X57611Y-31320D01*
X57611Y-31485D01*
X57611Y-31320D02*
X57626Y-31290D01*
X57656Y-31275D01*
X57701Y-31275D01*
X57731Y-31290D01*
X57746Y-31320D01*
X57746Y-31485D01*
X57941Y-31485D02*
X57911Y-31470D01*
X57896Y-31455D01*
X57881Y-31425D01*
X57881Y-31335D01*
X57896Y-31305D01*
X57911Y-31290D01*
X57941Y-31275D01*
X57986Y-31275D01*
X58016Y-31290D01*
X58031Y-31305D01*
X58046Y-31335D01*
X58046Y-31425D01*
X58031Y-31455D01*
X58016Y-31470D01*
X57986Y-31485D01*
X57941Y-31485D01*
X58316Y-31275D02*
X58316Y-31485D01*
X58181Y-31275D02*
X58181Y-31440D01*
X58196Y-31470D01*
X58226Y-31485D01*
X58271Y-31485D01*
X58301Y-31470D01*
X58316Y-31455D01*
X58466Y-31275D02*
X58466Y-31485D01*
X58466Y-31305D02*
X58481Y-31290D01*
X58511Y-31275D01*
X58556Y-31275D01*
X58586Y-31290D01*
X58601Y-31320D01*
X58601Y-31485D01*
X58706Y-31275D02*
X58826Y-31275D01*
X58751Y-31170D02*
X58751Y-31440D01*
X58766Y-31470D01*
X58796Y-31485D01*
X58826Y-31485D01*
X58931Y-31485D02*
X58931Y-31275D01*
X58931Y-31170D02*
X58916Y-31185D01*
X58931Y-31200D01*
X58946Y-31185D01*
X58931Y-31170D01*
X58931Y-31200D01*
X59081Y-31275D02*
X59081Y-31485D01*
X59081Y-31305D02*
X59096Y-31290D01*
X59126Y-31275D01*
X59171Y-31275D01*
X59201Y-31290D01*
X59216Y-31320D01*
X59216Y-31485D01*
X59501Y-31275D02*
X59501Y-31529D01*
X59486Y-31559D01*
X59471Y-31574D01*
X59441Y-31589D01*
X59396Y-31589D01*
X59366Y-31574D01*
X59501Y-31470D02*
X59471Y-31485D01*
X59411Y-31485D01*
X59381Y-31470D01*
X59366Y-31455D01*
X59351Y-31425D01*
X59351Y-31335D01*
X59366Y-31305D01*
X59381Y-31290D01*
X59411Y-31275D01*
X59471Y-31275D01*
X59501Y-31290D01*
X51361Y-46496D02*
X51181Y-46496D01*
X51271Y-46496D02*
X51271Y-46181D01*
X51241Y-46226D01*
X51211Y-46256D01*
X51181Y-46271D01*
X51556Y-46181D02*
X51586Y-46181D01*
X51616Y-46196D01*
X51631Y-46211D01*
X51646Y-46241D01*
X51661Y-46301D01*
X51661Y-46376D01*
X51646Y-46436D01*
X51631Y-46466D01*
X51616Y-46481D01*
X51586Y-46496D01*
X51556Y-46496D01*
X51526Y-46481D01*
X51511Y-46466D01*
X51496Y-46436D01*
X51481Y-46376D01*
X51481Y-46301D01*
X51496Y-46241D01*
X51511Y-46211D01*
X51526Y-46196D01*
X51556Y-46181D01*
X51751Y-46286D02*
X51871Y-46286D01*
X51796Y-46181D02*
X51796Y-46451D01*
X51811Y-46481D01*
X51841Y-46496D01*
X51871Y-46496D01*
X52021Y-46496D02*
X51991Y-46481D01*
X51976Y-46466D01*
X51961Y-46436D01*
X51961Y-46346D01*
X51976Y-46316D01*
X51991Y-46301D01*
X52021Y-46286D01*
X52066Y-46286D01*
X52096Y-46301D01*
X52111Y-46316D01*
X52126Y-46346D01*
X52126Y-46436D01*
X52111Y-46466D01*
X52096Y-46481D01*
X52066Y-46496D01*
X52021Y-46496D01*
X52231Y-46181D02*
X52441Y-46181D01*
X52306Y-46496D01*
X52561Y-46466D02*
X52576Y-46481D01*
X52561Y-46496D01*
X52546Y-46481D01*
X52561Y-46466D01*
X52561Y-46496D01*
X52846Y-46481D02*
X52816Y-46496D01*
X52756Y-46496D01*
X52726Y-46481D01*
X52711Y-46466D01*
X52696Y-46436D01*
X52696Y-46346D01*
X52711Y-46316D01*
X52726Y-46301D01*
X52756Y-46286D01*
X52816Y-46286D01*
X52846Y-46301D01*
X53026Y-46496D02*
X52996Y-46481D01*
X52981Y-46466D01*
X52966Y-46436D01*
X52966Y-46346D01*
X52981Y-46316D01*
X52996Y-46301D01*
X53026Y-46286D01*
X53071Y-46286D01*
X53101Y-46301D01*
X53116Y-46316D01*
X53131Y-46346D01*
X53131Y-46436D01*
X53116Y-46466D01*
X53101Y-46481D01*
X53071Y-46496D01*
X53026Y-46496D01*
X53266Y-46496D02*
X53266Y-46286D01*
X53266Y-46316D02*
X53281Y-46301D01*
X53311Y-46286D01*
X53356Y-46286D01*
X53386Y-46301D01*
X53401Y-46331D01*
X53401Y-46496D01*
X53401Y-46331D02*
X53416Y-46301D01*
X53446Y-46286D01*
X53491Y-46286D01*
X53520Y-46301D01*
X53535Y-46331D01*
X53535Y-46496D01*
G54D10*
G36*
X50413Y-44034D02*
X50531Y-44034D01*
X50531Y-44664D01*
X50413Y-44664D01*
X50413Y-44034D01*
X50413Y-44034D01*
G37*
G36*
X50639Y-44034D02*
X50757Y-44034D01*
X50757Y-44664D01*
X50639Y-44664D01*
X50639Y-44034D01*
X50639Y-44034D01*
G37*
G36*
X50895Y-44034D02*
X51013Y-44034D01*
X51013Y-44664D01*
X50895Y-44664D01*
X50895Y-44034D01*
X50895Y-44034D01*
G37*
G36*
X51151Y-44034D02*
X51269Y-44034D01*
X51269Y-44664D01*
X51151Y-44664D01*
X51151Y-44034D01*
X51151Y-44034D01*
G37*
G36*
X51407Y-44034D02*
X51525Y-44034D01*
X51525Y-44664D01*
X51407Y-44664D01*
X51407Y-44034D01*
X51407Y-44034D01*
G37*
G36*
X51663Y-44034D02*
X51781Y-44034D01*
X51781Y-44664D01*
X51663Y-44664D01*
X51663Y-44034D01*
X51663Y-44034D01*
G37*
G36*
X52687Y-41594D02*
X52805Y-41594D01*
X52805Y-42224D01*
X52687Y-42224D01*
X52687Y-41594D01*
X52687Y-41594D01*
G37*
G36*
X52431Y-41594D02*
X52549Y-41594D01*
X52549Y-42224D01*
X52431Y-42224D01*
X52431Y-41594D01*
X52431Y-41594D01*
G37*
G36*
X52175Y-41594D02*
X52293Y-41594D01*
X52293Y-42224D01*
X52175Y-42224D01*
X52175Y-41594D01*
X52175Y-41594D01*
G37*
G36*
X51919Y-41594D02*
X52037Y-41594D01*
X52037Y-42224D01*
X51919Y-42224D01*
X51919Y-41594D01*
X51919Y-41594D01*
G37*
G36*
X51919Y-44034D02*
X52037Y-44034D01*
X52037Y-44664D01*
X51919Y-44664D01*
X51919Y-44034D01*
X51919Y-44034D01*
G37*
G36*
X52175Y-44034D02*
X52293Y-44034D01*
X52293Y-44664D01*
X52175Y-44664D01*
X52175Y-44034D01*
X52175Y-44034D01*
G37*
G36*
X52431Y-44034D02*
X52549Y-44034D01*
X52549Y-44664D01*
X52431Y-44664D01*
X52431Y-44034D01*
X52431Y-44034D01*
G37*
G36*
X52687Y-44034D02*
X52805Y-44034D01*
X52805Y-44664D01*
X52687Y-44664D01*
X52687Y-44034D01*
X52687Y-44034D01*
G37*
G36*
X51663Y-41594D02*
X51781Y-41594D01*
X51781Y-42224D01*
X51663Y-42224D01*
X51663Y-41594D01*
X51663Y-41594D01*
G37*
G36*
X51407Y-41594D02*
X51525Y-41594D01*
X51525Y-42224D01*
X51407Y-42224D01*
X51407Y-41594D01*
X51407Y-41594D01*
G37*
G36*
X51151Y-41594D02*
X51269Y-41594D01*
X51269Y-42224D01*
X51151Y-42224D01*
X51151Y-41594D01*
X51151Y-41594D01*
G37*
G36*
X50895Y-41594D02*
X51013Y-41594D01*
X51013Y-42224D01*
X50895Y-42224D01*
X50895Y-41594D01*
X50895Y-41594D01*
G37*
G36*
X50639Y-41594D02*
X50757Y-41594D01*
X50757Y-42224D01*
X50639Y-42224D01*
X50639Y-41594D01*
X50639Y-41594D01*
G37*
G36*
X50383Y-41594D02*
X50501Y-41594D01*
X50501Y-42224D01*
X50383Y-42224D01*
X50383Y-41594D01*
X50383Y-41594D01*
G37*
G54D12*
X52598Y-38444D03*
X52125Y-38444D03*
X52125Y-38917D03*
X52598Y-38917D03*
G54D13*
X51673Y-41161D03*
X51673Y-40925D03*
G54D14*
X51496Y-45196D03*
X51732Y-45196D03*
G54D15*
X56980Y-39740D03*
G54D16*
X57980Y-39740D03*
X56980Y-40740D03*
X57980Y-40740D03*
X56980Y-41740D03*
X57980Y-41740D03*
X56980Y-42740D03*
X57980Y-42740D03*
G54D17*
X46062Y-40377D03*
G54D18*
X46062Y-39377D03*
X46062Y-38377D03*
X46062Y-37377D03*
G54D17*
X44488Y-34622D03*
G54D18*
X44488Y-35622D03*
X44488Y-36622D03*
X44488Y-37622D03*
G54D17*
X44488Y-39740D03*
G54D18*
X44488Y-40740D03*
X44488Y-41740D03*
X44488Y-42740D03*
G54D19*
X60806Y-31397D03*
X60452Y-31397D03*
X60806Y-33759D03*
X60452Y-33759D03*
X60806Y-32578D03*
X60452Y-32578D03*
X49901Y-40767D03*
X50255Y-40767D03*
G54D20*
X49901Y-41752D03*
X49901Y-42106D03*
G54D19*
X53858Y-42775D03*
X53504Y-42775D03*
G54D21*
X62956Y-43370D03*
X62956Y-45370D03*
X59956Y-43370D03*
X59956Y-45370D03*
X62956Y-39511D03*
X62956Y-41511D03*
X59956Y-39511D03*
X59956Y-41511D03*
X62956Y-35653D03*
X62956Y-37653D03*
X59956Y-35653D03*
X59956Y-37653D03*
G54D22*
X61904Y-31397D03*
X62504Y-31397D03*
X61904Y-32578D03*
X62504Y-32578D03*
X61904Y-33759D03*
X62504Y-33759D03*
G54D23*
X56417Y-34893D03*
G54D24*
X56417Y-35893D03*
G54D25*
X46263Y-32574D03*
X58464Y-32578D03*
X58464Y-44783D03*
X46263Y-44779D03*
G54D23*
X44492Y-32681D03*
G54D24*
X44492Y-31681D03*
G54D21*
X48858Y-30885D03*
X54858Y-31885D03*
X54858Y-32885D03*
X54858Y-33885D03*
X54858Y-34885D03*
X54858Y-35885D03*
X54858Y-36885D03*
X54858Y-37885D03*
X54858Y-38885D03*
X54858Y-39885D03*
X54858Y-40885D03*
X54858Y-41885D03*
X54858Y-42885D03*
X54858Y-43885D03*
G54D26*
X54858Y-44885D03*
G54D21*
X48858Y-44885D03*
X48858Y-43885D03*
X48858Y-42885D03*
X48858Y-41885D03*
X48858Y-40885D03*
X48858Y-39885D03*
X48858Y-38885D03*
X48858Y-37885D03*
X48858Y-36885D03*
X48858Y-35885D03*
X48858Y-34885D03*
X48858Y-33885D03*
X48858Y-32885D03*
X48858Y-31885D03*
X54858Y-30885D03*
M02*
