%FSLAX34Y34*%
G04 Gerber Fmt 3.4, Leading zero omitted, Abs format*
G04 (created by PCBNEW (2014-03-19 BZR 4756)-product) date Wed 04 Jun 2014 23:43:45 BST*
%MOIN*%
G01*
G70*
G90*
G04 APERTURE LIST*
%ADD10C,0.005906*%
%ADD11C,0.007874*%
%ADD12C,0.003000*%
%ADD13C,0.004500*%
G04 APERTURE END LIST*
G54D10*
G54D11*
X62992Y-33543D02*
X62992Y-33976D01*
X62992Y-33799D02*
X62992Y-33543D01*
X63149Y-33956D02*
X62992Y-33799D01*
X63149Y-33582D02*
X63149Y-33956D01*
X62972Y-33759D02*
X63149Y-33582D01*
X62795Y-33759D02*
X63444Y-33759D01*
X62775Y-32578D02*
X63425Y-32578D01*
X62952Y-32578D02*
X63129Y-32401D01*
X63129Y-32401D02*
X63129Y-32775D01*
X63129Y-32775D02*
X62972Y-32618D01*
X62972Y-32618D02*
X62972Y-32362D01*
X62972Y-32362D02*
X62972Y-32795D01*
X62992Y-31181D02*
X62992Y-31614D01*
X62992Y-31437D02*
X62992Y-31181D01*
X63149Y-31594D02*
X62992Y-31437D01*
X63149Y-31220D02*
X63149Y-31594D01*
X62972Y-31397D02*
X63149Y-31220D01*
X62795Y-31417D02*
X63444Y-31417D01*
X62472Y-36633D02*
G75*
G03X62472Y-36633I-1016J0D01*
G74*
G01*
X62484Y-40511D02*
G75*
G03X62484Y-40511I-988J0D01*
G74*
G01*
X62440Y-44370D02*
G75*
G03X62440Y-44370I-984J0D01*
G74*
G01*
X57516Y-34224D02*
X57771Y-34224D01*
X57801Y-34239D01*
X57816Y-34254D01*
X57831Y-34284D01*
X57831Y-34344D01*
X57816Y-34374D01*
X57801Y-34389D01*
X57771Y-34404D01*
X57516Y-34404D01*
X57816Y-34539D02*
X57831Y-34569D01*
X57831Y-34629D01*
X57816Y-34659D01*
X57786Y-34674D01*
X57771Y-34674D01*
X57741Y-34659D01*
X57726Y-34629D01*
X57726Y-34584D01*
X57711Y-34554D01*
X57681Y-34539D01*
X57666Y-34539D01*
X57636Y-34554D01*
X57621Y-34584D01*
X57621Y-34629D01*
X57636Y-34659D01*
X57816Y-34929D02*
X57831Y-34899D01*
X57831Y-34839D01*
X57816Y-34809D01*
X57786Y-34794D01*
X57666Y-34794D01*
X57636Y-34809D01*
X57621Y-34839D01*
X57621Y-34899D01*
X57636Y-34929D01*
X57666Y-34944D01*
X57696Y-34944D01*
X57726Y-34794D01*
X57831Y-35454D02*
X57666Y-35454D01*
X57636Y-35439D01*
X57621Y-35409D01*
X57621Y-35349D01*
X57636Y-35319D01*
X57816Y-35454D02*
X57831Y-35424D01*
X57831Y-35349D01*
X57816Y-35319D01*
X57786Y-35304D01*
X57756Y-35304D01*
X57726Y-35319D01*
X57711Y-35349D01*
X57711Y-35424D01*
X57696Y-35454D01*
X57831Y-35979D02*
X57516Y-35979D01*
X57816Y-35979D02*
X57831Y-35949D01*
X57831Y-35889D01*
X57816Y-35859D01*
X57801Y-35844D01*
X57771Y-35829D01*
X57681Y-35829D01*
X57651Y-35844D01*
X57636Y-35859D01*
X57621Y-35889D01*
X57621Y-35949D01*
X57636Y-35979D01*
X57831Y-36129D02*
X57621Y-36129D01*
X57516Y-36129D02*
X57531Y-36114D01*
X57546Y-36129D01*
X57531Y-36144D01*
X57516Y-36129D01*
X57546Y-36129D01*
X57831Y-36414D02*
X57666Y-36414D01*
X57636Y-36399D01*
X57621Y-36369D01*
X57621Y-36309D01*
X57636Y-36279D01*
X57816Y-36414D02*
X57831Y-36384D01*
X57831Y-36309D01*
X57816Y-36279D01*
X57786Y-36264D01*
X57756Y-36264D01*
X57726Y-36279D01*
X57711Y-36309D01*
X57711Y-36384D01*
X57696Y-36414D01*
X57831Y-36564D02*
X57621Y-36564D01*
X57651Y-36564D02*
X57636Y-36579D01*
X57621Y-36609D01*
X57621Y-36654D01*
X57636Y-36684D01*
X57666Y-36699D01*
X57831Y-36699D01*
X57666Y-36699D02*
X57636Y-36714D01*
X57621Y-36744D01*
X57621Y-36789D01*
X57636Y-36819D01*
X57666Y-36834D01*
X57831Y-36834D01*
X57816Y-37104D02*
X57831Y-37074D01*
X57831Y-37014D01*
X57816Y-36984D01*
X57786Y-36969D01*
X57666Y-36969D01*
X57636Y-36984D01*
X57621Y-37014D01*
X57621Y-37074D01*
X57636Y-37104D01*
X57666Y-37119D01*
X57696Y-37119D01*
X57726Y-36969D01*
X57621Y-37209D02*
X57621Y-37329D01*
X57516Y-37254D02*
X57786Y-37254D01*
X57816Y-37269D01*
X57831Y-37299D01*
X57831Y-37329D01*
X57831Y-37434D02*
X57621Y-37434D01*
X57681Y-37434D02*
X57651Y-37449D01*
X57636Y-37464D01*
X57621Y-37494D01*
X57621Y-37524D01*
X57831Y-37629D02*
X57621Y-37629D01*
X57516Y-37629D02*
X57531Y-37614D01*
X57546Y-37629D01*
X57531Y-37644D01*
X57516Y-37629D01*
X57546Y-37629D01*
X57816Y-37914D02*
X57831Y-37884D01*
X57831Y-37824D01*
X57816Y-37794D01*
X57801Y-37779D01*
X57771Y-37764D01*
X57681Y-37764D01*
X57651Y-37779D01*
X57636Y-37794D01*
X57621Y-37824D01*
X57621Y-37884D01*
X57636Y-37914D01*
X57831Y-38184D02*
X57666Y-38184D01*
X57636Y-38169D01*
X57621Y-38139D01*
X57621Y-38079D01*
X57636Y-38049D01*
X57816Y-38184D02*
X57831Y-38154D01*
X57831Y-38079D01*
X57816Y-38049D01*
X57786Y-38034D01*
X57756Y-38034D01*
X57726Y-38049D01*
X57711Y-38079D01*
X57711Y-38154D01*
X57696Y-38184D01*
X57831Y-38379D02*
X57816Y-38349D01*
X57786Y-38334D01*
X57516Y-38334D01*
X57831Y-38544D02*
X57816Y-38514D01*
X57786Y-38499D01*
X57516Y-38499D01*
X57621Y-38634D02*
X57831Y-38709D01*
X57621Y-38784D02*
X57831Y-38709D01*
X57906Y-38679D01*
X57921Y-38664D01*
X57936Y-38634D01*
X58351Y-34224D02*
X58141Y-34224D01*
X58171Y-34224D02*
X58156Y-34239D01*
X58141Y-34269D01*
X58141Y-34314D01*
X58156Y-34344D01*
X58186Y-34359D01*
X58351Y-34359D01*
X58186Y-34359D02*
X58156Y-34374D01*
X58141Y-34404D01*
X58141Y-34449D01*
X58156Y-34479D01*
X58186Y-34494D01*
X58351Y-34494D01*
X58351Y-34779D02*
X58186Y-34779D01*
X58156Y-34764D01*
X58141Y-34734D01*
X58141Y-34674D01*
X58156Y-34644D01*
X58336Y-34779D02*
X58351Y-34749D01*
X58351Y-34674D01*
X58336Y-34644D01*
X58306Y-34629D01*
X58276Y-34629D01*
X58246Y-34644D01*
X58231Y-34674D01*
X58231Y-34749D01*
X58216Y-34779D01*
X58141Y-35064D02*
X58396Y-35064D01*
X58426Y-35049D01*
X58441Y-35034D01*
X58456Y-35004D01*
X58456Y-34959D01*
X58441Y-34929D01*
X58336Y-35064D02*
X58351Y-35034D01*
X58351Y-34974D01*
X58336Y-34944D01*
X58321Y-34929D01*
X58291Y-34914D01*
X58201Y-34914D01*
X58171Y-34929D01*
X58156Y-34944D01*
X58141Y-34974D01*
X58141Y-35034D01*
X58156Y-35064D01*
X58141Y-35214D02*
X58351Y-35214D01*
X58171Y-35214D02*
X58156Y-35229D01*
X58141Y-35259D01*
X58141Y-35304D01*
X58156Y-35334D01*
X58186Y-35349D01*
X58351Y-35349D01*
X58336Y-35619D02*
X58351Y-35589D01*
X58351Y-35529D01*
X58336Y-35499D01*
X58306Y-35484D01*
X58186Y-35484D01*
X58156Y-35499D01*
X58141Y-35529D01*
X58141Y-35589D01*
X58156Y-35619D01*
X58186Y-35634D01*
X58216Y-35634D01*
X58246Y-35484D01*
X58141Y-35724D02*
X58141Y-35844D01*
X58036Y-35769D02*
X58306Y-35769D01*
X58336Y-35784D01*
X58351Y-35814D01*
X58351Y-35844D01*
X58351Y-35949D02*
X58141Y-35949D01*
X58036Y-35949D02*
X58051Y-35934D01*
X58066Y-35949D01*
X58051Y-35964D01*
X58036Y-35949D01*
X58066Y-35949D01*
X58336Y-36084D02*
X58351Y-36114D01*
X58351Y-36174D01*
X58336Y-36204D01*
X58306Y-36219D01*
X58291Y-36219D01*
X58261Y-36204D01*
X58246Y-36174D01*
X58246Y-36129D01*
X58231Y-36099D01*
X58201Y-36084D01*
X58186Y-36084D01*
X58156Y-36099D01*
X58141Y-36129D01*
X58141Y-36174D01*
X58156Y-36204D01*
X58336Y-36474D02*
X58351Y-36444D01*
X58351Y-36384D01*
X58336Y-36354D01*
X58306Y-36339D01*
X58186Y-36339D01*
X58156Y-36354D01*
X58141Y-36384D01*
X58141Y-36444D01*
X58156Y-36474D01*
X58186Y-36489D01*
X58216Y-36489D01*
X58246Y-36339D01*
X58351Y-36759D02*
X58036Y-36759D01*
X58336Y-36759D02*
X58351Y-36729D01*
X58351Y-36669D01*
X58336Y-36639D01*
X58321Y-36624D01*
X58291Y-36609D01*
X58201Y-36609D01*
X58171Y-36624D01*
X58156Y-36639D01*
X58141Y-36669D01*
X58141Y-36729D01*
X58156Y-36759D01*
X58036Y-37284D02*
X58036Y-37224D01*
X58051Y-37194D01*
X58066Y-37179D01*
X58111Y-37149D01*
X58171Y-37134D01*
X58291Y-37134D01*
X58321Y-37149D01*
X58336Y-37164D01*
X58351Y-37194D01*
X58351Y-37254D01*
X58336Y-37284D01*
X58321Y-37299D01*
X58291Y-37314D01*
X58216Y-37314D01*
X58186Y-37299D01*
X58171Y-37284D01*
X58156Y-37254D01*
X58156Y-37194D01*
X58171Y-37164D01*
X58186Y-37149D01*
X58216Y-37134D01*
X58351Y-37449D02*
X58141Y-37449D01*
X58171Y-37449D02*
X58156Y-37464D01*
X58141Y-37494D01*
X58141Y-37539D01*
X58156Y-37569D01*
X58186Y-37584D01*
X58351Y-37584D01*
X58186Y-37584D02*
X58156Y-37599D01*
X58141Y-37629D01*
X58141Y-37674D01*
X58156Y-37704D01*
X58186Y-37719D01*
X58351Y-37719D01*
X58351Y-37869D02*
X58141Y-37869D01*
X58171Y-37869D02*
X58156Y-37884D01*
X58141Y-37914D01*
X58141Y-37959D01*
X58156Y-37989D01*
X58186Y-38004D01*
X58351Y-38004D01*
X58186Y-38004D02*
X58156Y-38019D01*
X58141Y-38049D01*
X58141Y-38094D01*
X58156Y-38124D01*
X58186Y-38139D01*
X58351Y-38139D01*
X58870Y-34224D02*
X58660Y-34224D01*
X58690Y-34224D02*
X58675Y-34239D01*
X58660Y-34269D01*
X58660Y-34314D01*
X58675Y-34344D01*
X58705Y-34359D01*
X58870Y-34359D01*
X58705Y-34359D02*
X58675Y-34374D01*
X58660Y-34404D01*
X58660Y-34449D01*
X58675Y-34479D01*
X58705Y-34494D01*
X58870Y-34494D01*
X58870Y-34779D02*
X58705Y-34779D01*
X58675Y-34764D01*
X58660Y-34734D01*
X58660Y-34674D01*
X58675Y-34644D01*
X58855Y-34779D02*
X58870Y-34749D01*
X58870Y-34674D01*
X58855Y-34644D01*
X58825Y-34629D01*
X58795Y-34629D01*
X58765Y-34644D01*
X58750Y-34674D01*
X58750Y-34749D01*
X58735Y-34779D01*
X58660Y-35064D02*
X58915Y-35064D01*
X58945Y-35049D01*
X58960Y-35034D01*
X58975Y-35004D01*
X58975Y-34959D01*
X58960Y-34929D01*
X58855Y-35064D02*
X58870Y-35034D01*
X58870Y-34974D01*
X58855Y-34944D01*
X58840Y-34929D01*
X58810Y-34914D01*
X58720Y-34914D01*
X58690Y-34929D01*
X58675Y-34944D01*
X58660Y-34974D01*
X58660Y-35034D01*
X58675Y-35064D01*
X58660Y-35214D02*
X58870Y-35214D01*
X58690Y-35214D02*
X58675Y-35229D01*
X58660Y-35259D01*
X58660Y-35304D01*
X58675Y-35334D01*
X58705Y-35349D01*
X58870Y-35349D01*
X58855Y-35619D02*
X58870Y-35589D01*
X58870Y-35529D01*
X58855Y-35499D01*
X58825Y-35484D01*
X58705Y-35484D01*
X58675Y-35499D01*
X58660Y-35529D01*
X58660Y-35589D01*
X58675Y-35619D01*
X58705Y-35634D01*
X58735Y-35634D01*
X58765Y-35484D01*
X58660Y-35724D02*
X58660Y-35844D01*
X58555Y-35769D02*
X58825Y-35769D01*
X58855Y-35784D01*
X58870Y-35814D01*
X58870Y-35844D01*
X58870Y-36324D02*
X58555Y-36324D01*
X58855Y-36324D02*
X58870Y-36294D01*
X58870Y-36234D01*
X58855Y-36204D01*
X58840Y-36189D01*
X58810Y-36174D01*
X58720Y-36174D01*
X58690Y-36189D01*
X58675Y-36204D01*
X58660Y-36234D01*
X58660Y-36294D01*
X58675Y-36324D01*
X58870Y-36474D02*
X58660Y-36474D01*
X58555Y-36474D02*
X58570Y-36459D01*
X58585Y-36474D01*
X58570Y-36489D01*
X58555Y-36474D01*
X58585Y-36474D01*
X58870Y-36624D02*
X58660Y-36624D01*
X58720Y-36624D02*
X58690Y-36639D01*
X58675Y-36654D01*
X58660Y-36684D01*
X58660Y-36714D01*
X58855Y-36939D02*
X58870Y-36909D01*
X58870Y-36849D01*
X58855Y-36819D01*
X58825Y-36804D01*
X58705Y-36804D01*
X58675Y-36819D01*
X58660Y-36849D01*
X58660Y-36909D01*
X58675Y-36939D01*
X58705Y-36954D01*
X58735Y-36954D01*
X58765Y-36804D01*
X58855Y-37224D02*
X58870Y-37194D01*
X58870Y-37134D01*
X58855Y-37104D01*
X58840Y-37089D01*
X58810Y-37074D01*
X58720Y-37074D01*
X58690Y-37089D01*
X58675Y-37104D01*
X58660Y-37134D01*
X58660Y-37194D01*
X58675Y-37224D01*
X58660Y-37314D02*
X58660Y-37434D01*
X58555Y-37359D02*
X58825Y-37359D01*
X58855Y-37374D01*
X58870Y-37404D01*
X58870Y-37434D01*
X58870Y-37584D02*
X58855Y-37554D01*
X58825Y-37539D01*
X58555Y-37539D01*
X58660Y-37674D02*
X58870Y-37749D01*
X58660Y-37824D02*
X58870Y-37749D01*
X58945Y-37719D01*
X58960Y-37704D01*
X58975Y-37674D01*
X59390Y-34269D02*
X59375Y-34239D01*
X59360Y-34224D01*
X59330Y-34209D01*
X59240Y-34209D01*
X59210Y-34224D01*
X59195Y-34239D01*
X59180Y-34269D01*
X59180Y-34314D01*
X59195Y-34344D01*
X59210Y-34359D01*
X59240Y-34374D01*
X59330Y-34374D01*
X59360Y-34359D01*
X59375Y-34344D01*
X59390Y-34314D01*
X59390Y-34269D01*
X59180Y-34479D02*
X59390Y-34554D01*
X59180Y-34629D01*
X59375Y-34869D02*
X59390Y-34839D01*
X59390Y-34779D01*
X59375Y-34749D01*
X59345Y-34734D01*
X59225Y-34734D01*
X59195Y-34749D01*
X59180Y-34779D01*
X59180Y-34839D01*
X59195Y-34869D01*
X59225Y-34884D01*
X59255Y-34884D01*
X59285Y-34734D01*
X59390Y-35019D02*
X59180Y-35019D01*
X59240Y-35019D02*
X59210Y-35034D01*
X59195Y-35049D01*
X59180Y-35079D01*
X59180Y-35109D01*
X59375Y-35439D02*
X59390Y-35469D01*
X59390Y-35529D01*
X59375Y-35559D01*
X59345Y-35574D01*
X59330Y-35574D01*
X59300Y-35559D01*
X59285Y-35529D01*
X59285Y-35484D01*
X59270Y-35454D01*
X59240Y-35439D01*
X59225Y-35439D01*
X59195Y-35454D01*
X59180Y-35484D01*
X59180Y-35529D01*
X59195Y-35559D01*
X59375Y-35829D02*
X59390Y-35799D01*
X59390Y-35739D01*
X59375Y-35709D01*
X59345Y-35694D01*
X59225Y-35694D01*
X59195Y-35709D01*
X59180Y-35739D01*
X59180Y-35799D01*
X59195Y-35829D01*
X59225Y-35844D01*
X59255Y-35844D01*
X59285Y-35694D01*
X59180Y-35979D02*
X59390Y-35979D01*
X59210Y-35979D02*
X59195Y-35994D01*
X59180Y-36024D01*
X59180Y-36069D01*
X59195Y-36099D01*
X59225Y-36114D01*
X59390Y-36114D01*
X59375Y-36249D02*
X59390Y-36279D01*
X59390Y-36339D01*
X59375Y-36369D01*
X59345Y-36384D01*
X59330Y-36384D01*
X59300Y-36369D01*
X59285Y-36339D01*
X59285Y-36294D01*
X59270Y-36264D01*
X59240Y-36249D01*
X59225Y-36249D01*
X59195Y-36264D01*
X59180Y-36294D01*
X59180Y-36339D01*
X59195Y-36369D01*
X59390Y-36564D02*
X59375Y-36534D01*
X59360Y-36519D01*
X59330Y-36504D01*
X59240Y-36504D01*
X59210Y-36519D01*
X59195Y-36534D01*
X59180Y-36564D01*
X59180Y-36609D01*
X59195Y-36639D01*
X59210Y-36654D01*
X59240Y-36669D01*
X59330Y-36669D01*
X59360Y-36654D01*
X59375Y-36639D01*
X59390Y-36609D01*
X59390Y-36564D01*
X59390Y-36804D02*
X59180Y-36804D01*
X59240Y-36804D02*
X59210Y-36819D01*
X59195Y-36834D01*
X59180Y-36864D01*
X59180Y-36894D01*
X59360Y-36999D02*
X59375Y-37014D01*
X59390Y-36999D01*
X59375Y-36984D01*
X59360Y-36999D01*
X59390Y-36999D01*
X45308Y-41546D02*
X45308Y-41696D01*
X45398Y-41516D02*
X45083Y-41621D01*
X45398Y-41726D01*
X45113Y-41816D02*
X45098Y-41831D01*
X45083Y-41861D01*
X45083Y-41936D01*
X45098Y-41966D01*
X45113Y-41981D01*
X45143Y-41996D01*
X45173Y-41996D01*
X45218Y-41981D01*
X45398Y-41801D01*
X45398Y-41996D01*
X45308Y-40503D02*
X45308Y-40653D01*
X45398Y-40473D02*
X45083Y-40578D01*
X45398Y-40683D01*
X45083Y-40758D02*
X45083Y-40953D01*
X45203Y-40848D01*
X45203Y-40893D01*
X45218Y-40923D01*
X45233Y-40938D01*
X45263Y-40953D01*
X45338Y-40953D01*
X45368Y-40938D01*
X45383Y-40923D01*
X45398Y-40893D01*
X45398Y-40803D01*
X45383Y-40773D01*
X45368Y-40758D01*
X45398Y-39472D02*
X45083Y-39472D01*
X45083Y-39547D01*
X45098Y-39592D01*
X45128Y-39622D01*
X45158Y-39637D01*
X45218Y-39652D01*
X45263Y-39652D01*
X45323Y-39637D01*
X45353Y-39622D01*
X45383Y-39592D01*
X45398Y-39547D01*
X45398Y-39472D01*
X45083Y-39757D02*
X45083Y-39952D01*
X45203Y-39847D01*
X45203Y-39892D01*
X45218Y-39922D01*
X45233Y-39937D01*
X45263Y-39952D01*
X45338Y-39952D01*
X45368Y-39937D01*
X45383Y-39922D01*
X45398Y-39892D01*
X45398Y-39802D01*
X45383Y-39772D01*
X45368Y-39757D01*
X45308Y-36428D02*
X45308Y-36578D01*
X45398Y-36398D02*
X45083Y-36503D01*
X45398Y-36608D01*
X45113Y-36698D02*
X45098Y-36713D01*
X45083Y-36743D01*
X45083Y-36818D01*
X45098Y-36848D01*
X45113Y-36863D01*
X45143Y-36878D01*
X45173Y-36878D01*
X45218Y-36863D01*
X45398Y-36683D01*
X45398Y-36878D01*
X45308Y-35385D02*
X45308Y-35535D01*
X45398Y-35355D02*
X45083Y-35460D01*
X45398Y-35565D01*
X45398Y-35835D02*
X45398Y-35655D01*
X45398Y-35745D02*
X45083Y-35745D01*
X45128Y-35715D01*
X45158Y-35685D01*
X45173Y-35655D01*
X45308Y-34361D02*
X45308Y-34511D01*
X45398Y-34331D02*
X45083Y-34436D01*
X45398Y-34541D01*
X45083Y-34706D02*
X45083Y-34736D01*
X45098Y-34766D01*
X45113Y-34781D01*
X45143Y-34796D01*
X45203Y-34811D01*
X45278Y-34811D01*
X45338Y-34796D01*
X45368Y-34781D01*
X45383Y-34766D01*
X45398Y-34736D01*
X45398Y-34706D01*
X45383Y-34676D01*
X45368Y-34661D01*
X45338Y-34646D01*
X45278Y-34631D01*
X45203Y-34631D01*
X45143Y-34646D01*
X45113Y-34661D01*
X45098Y-34676D01*
X45083Y-34706D01*
X43550Y-31433D02*
X43580Y-31418D01*
X43625Y-31418D01*
X43670Y-31433D01*
X43700Y-31463D01*
X43715Y-31493D01*
X43730Y-31553D01*
X43730Y-31598D01*
X43715Y-31658D01*
X43700Y-31688D01*
X43670Y-31718D01*
X43625Y-31733D01*
X43595Y-31733D01*
X43550Y-31718D01*
X43535Y-31703D01*
X43535Y-31598D01*
X43595Y-31598D01*
X43401Y-31733D02*
X43401Y-31418D01*
X43221Y-31733D01*
X43221Y-31418D01*
X43071Y-31733D02*
X43071Y-31418D01*
X42996Y-31418D01*
X42951Y-31433D01*
X42921Y-31463D01*
X42906Y-31493D01*
X42891Y-31553D01*
X42891Y-31598D01*
X42906Y-31658D01*
X42921Y-31688D01*
X42951Y-31718D01*
X42996Y-31733D01*
X43071Y-31733D01*
X43504Y-32796D02*
X43309Y-32796D01*
X43414Y-32916D01*
X43369Y-32916D01*
X43339Y-32931D01*
X43324Y-32946D01*
X43309Y-32976D01*
X43309Y-33050D01*
X43324Y-33080D01*
X43339Y-33095D01*
X43369Y-33110D01*
X43459Y-33110D01*
X43489Y-33095D01*
X43504Y-33080D01*
X43219Y-32796D02*
X43114Y-33110D01*
X43009Y-32796D01*
X42934Y-32796D02*
X42739Y-32796D01*
X42844Y-32916D01*
X42799Y-32916D01*
X42769Y-32931D01*
X42754Y-32946D01*
X42739Y-32976D01*
X42739Y-33050D01*
X42754Y-33080D01*
X42769Y-33095D01*
X42799Y-33110D01*
X42889Y-33110D01*
X42919Y-33095D01*
X42934Y-33080D01*
X49765Y-30847D02*
X49765Y-30997D01*
X49855Y-30817D02*
X49540Y-30922D01*
X49855Y-31027D01*
X49840Y-31117D02*
X49855Y-31162D01*
X49855Y-31237D01*
X49840Y-31267D01*
X49825Y-31282D01*
X49795Y-31297D01*
X49765Y-31297D01*
X49735Y-31282D01*
X49720Y-31267D01*
X49705Y-31237D01*
X49690Y-31177D01*
X49675Y-31147D01*
X49660Y-31132D01*
X49630Y-31117D01*
X49600Y-31117D01*
X49570Y-31132D01*
X49555Y-31147D01*
X49540Y-31177D01*
X49540Y-31252D01*
X49555Y-31297D01*
X49540Y-31582D02*
X49540Y-31432D01*
X49690Y-31417D01*
X49675Y-31432D01*
X49660Y-31462D01*
X49660Y-31537D01*
X49675Y-31567D01*
X49690Y-31582D01*
X49720Y-31597D01*
X49795Y-31597D01*
X49825Y-31582D01*
X49840Y-31567D01*
X49855Y-31537D01*
X49855Y-31462D01*
X49840Y-31432D01*
X49825Y-31417D01*
X49540Y-31792D02*
X49540Y-31822D01*
X49555Y-31852D01*
X49570Y-31867D01*
X49600Y-31882D01*
X49660Y-31897D01*
X49735Y-31897D01*
X49795Y-31882D01*
X49825Y-31867D01*
X49840Y-31852D01*
X49855Y-31822D01*
X49855Y-31792D01*
X49840Y-31762D01*
X49825Y-31747D01*
X49795Y-31732D01*
X49735Y-31717D01*
X49660Y-31717D01*
X49600Y-31732D01*
X49570Y-31747D01*
X49555Y-31762D01*
X49540Y-31792D01*
X49540Y-32182D02*
X49540Y-32032D01*
X49690Y-32017D01*
X49675Y-32032D01*
X49660Y-32062D01*
X49660Y-32137D01*
X49675Y-32167D01*
X49690Y-32182D01*
X49720Y-32197D01*
X49795Y-32197D01*
X49825Y-32182D01*
X49840Y-32167D01*
X49855Y-32137D01*
X49855Y-32062D01*
X49840Y-32032D01*
X49825Y-32017D01*
X49540Y-32482D02*
X49540Y-32332D01*
X49690Y-32317D01*
X49675Y-32332D01*
X49660Y-32362D01*
X49660Y-32437D01*
X49675Y-32467D01*
X49690Y-32482D01*
X49720Y-32497D01*
X49795Y-32497D01*
X49825Y-32482D01*
X49840Y-32467D01*
X49855Y-32437D01*
X49855Y-32362D01*
X49840Y-32332D01*
X49825Y-32317D01*
X49765Y-32617D02*
X49765Y-32767D01*
X49855Y-32587D02*
X49540Y-32692D01*
X49855Y-32797D01*
X49855Y-33142D02*
X49540Y-33142D01*
X49660Y-33142D02*
X49645Y-33172D01*
X49645Y-33232D01*
X49660Y-33262D01*
X49675Y-33277D01*
X49705Y-33292D01*
X49795Y-33292D01*
X49825Y-33277D01*
X49840Y-33262D01*
X49855Y-33232D01*
X49855Y-33172D01*
X49840Y-33142D01*
X49855Y-33427D02*
X49645Y-33427D01*
X49705Y-33427D02*
X49675Y-33442D01*
X49660Y-33457D01*
X49645Y-33487D01*
X49645Y-33517D01*
X49840Y-33742D02*
X49855Y-33712D01*
X49855Y-33652D01*
X49840Y-33622D01*
X49810Y-33607D01*
X49690Y-33607D01*
X49660Y-33622D01*
X49645Y-33652D01*
X49645Y-33712D01*
X49660Y-33742D01*
X49690Y-33757D01*
X49720Y-33757D01*
X49750Y-33607D01*
X49855Y-34026D02*
X49690Y-34026D01*
X49660Y-34011D01*
X49645Y-33982D01*
X49645Y-33922D01*
X49660Y-33892D01*
X49840Y-34026D02*
X49855Y-33997D01*
X49855Y-33922D01*
X49840Y-33892D01*
X49810Y-33877D01*
X49780Y-33877D01*
X49750Y-33892D01*
X49735Y-33922D01*
X49735Y-33997D01*
X49720Y-34026D01*
X49855Y-34176D02*
X49540Y-34176D01*
X49735Y-34206D02*
X49855Y-34296D01*
X49645Y-34296D02*
X49765Y-34176D01*
X49855Y-34476D02*
X49840Y-34446D01*
X49825Y-34431D01*
X49795Y-34416D01*
X49705Y-34416D01*
X49675Y-34431D01*
X49660Y-34446D01*
X49645Y-34476D01*
X49645Y-34521D01*
X49660Y-34551D01*
X49675Y-34566D01*
X49705Y-34581D01*
X49795Y-34581D01*
X49825Y-34566D01*
X49840Y-34551D01*
X49855Y-34521D01*
X49855Y-34476D01*
X49645Y-34851D02*
X49855Y-34851D01*
X49645Y-34716D02*
X49810Y-34716D01*
X49840Y-34731D01*
X49855Y-34761D01*
X49855Y-34806D01*
X49840Y-34836D01*
X49825Y-34851D01*
X49645Y-34956D02*
X49645Y-35076D01*
X49540Y-35001D02*
X49810Y-35001D01*
X49840Y-35016D01*
X49855Y-35046D01*
X49855Y-35076D01*
X49855Y-35421D02*
X49540Y-35421D01*
X49660Y-35421D02*
X49645Y-35451D01*
X49645Y-35511D01*
X49660Y-35541D01*
X49675Y-35556D01*
X49705Y-35571D01*
X49795Y-35571D01*
X49825Y-35556D01*
X49840Y-35541D01*
X49855Y-35511D01*
X49855Y-35451D01*
X49840Y-35421D01*
X49855Y-35751D02*
X49840Y-35721D01*
X49825Y-35706D01*
X49795Y-35691D01*
X49705Y-35691D01*
X49675Y-35706D01*
X49660Y-35721D01*
X49645Y-35751D01*
X49645Y-35796D01*
X49660Y-35826D01*
X49675Y-35841D01*
X49705Y-35856D01*
X49795Y-35856D01*
X49825Y-35841D01*
X49840Y-35826D01*
X49855Y-35796D01*
X49855Y-35751D01*
X49855Y-36126D02*
X49690Y-36126D01*
X49660Y-36111D01*
X49645Y-36081D01*
X49645Y-36021D01*
X49660Y-35991D01*
X49840Y-36126D02*
X49855Y-36096D01*
X49855Y-36021D01*
X49840Y-35991D01*
X49810Y-35976D01*
X49780Y-35976D01*
X49750Y-35991D01*
X49735Y-36021D01*
X49735Y-36096D01*
X49720Y-36126D01*
X49855Y-36276D02*
X49645Y-36276D01*
X49705Y-36276D02*
X49675Y-36291D01*
X49660Y-36306D01*
X49645Y-36336D01*
X49645Y-36366D01*
X49855Y-36606D02*
X49540Y-36606D01*
X49840Y-36606D02*
X49855Y-36576D01*
X49855Y-36516D01*
X49840Y-36486D01*
X49825Y-36471D01*
X49795Y-36456D01*
X49705Y-36456D01*
X49675Y-36471D01*
X49660Y-36486D01*
X49645Y-36516D01*
X49645Y-36576D01*
X49660Y-36606D01*
X50164Y-30832D02*
X50374Y-30907D01*
X50164Y-30982D01*
X50059Y-31162D02*
X50059Y-31192D01*
X50074Y-31222D01*
X50089Y-31237D01*
X50119Y-31252D01*
X50179Y-31267D01*
X50254Y-31267D01*
X50314Y-31252D01*
X50344Y-31237D01*
X50359Y-31222D01*
X50374Y-31192D01*
X50374Y-31162D01*
X50359Y-31132D01*
X50344Y-31117D01*
X50314Y-31102D01*
X50254Y-31087D01*
X50179Y-31087D01*
X50119Y-31102D01*
X50089Y-31117D01*
X50074Y-31132D01*
X50059Y-31162D01*
X50344Y-31402D02*
X50359Y-31417D01*
X50374Y-31402D01*
X50359Y-31387D01*
X50344Y-31402D01*
X50374Y-31402D01*
X50089Y-31537D02*
X50074Y-31552D01*
X50059Y-31582D01*
X50059Y-31657D01*
X50074Y-31687D01*
X50089Y-31702D01*
X50119Y-31717D01*
X50149Y-31717D01*
X50194Y-31702D01*
X50374Y-31522D01*
X50374Y-31717D01*
X50894Y-30862D02*
X50579Y-30862D01*
X50579Y-30982D01*
X50594Y-31012D01*
X50609Y-31027D01*
X50639Y-31042D01*
X50684Y-31042D01*
X50714Y-31027D01*
X50729Y-31012D01*
X50744Y-30982D01*
X50744Y-30862D01*
X50894Y-31177D02*
X50684Y-31177D01*
X50579Y-31177D02*
X50594Y-31162D01*
X50609Y-31177D01*
X50594Y-31192D01*
X50579Y-31177D01*
X50609Y-31177D01*
X50684Y-31327D02*
X50894Y-31327D01*
X50714Y-31327D02*
X50699Y-31342D01*
X50684Y-31372D01*
X50684Y-31417D01*
X50699Y-31447D01*
X50729Y-31462D01*
X50894Y-31462D01*
X50894Y-31852D02*
X50579Y-31852D01*
X50804Y-31957D01*
X50579Y-32062D01*
X50894Y-32062D01*
X50894Y-32347D02*
X50729Y-32347D01*
X50699Y-32332D01*
X50684Y-32302D01*
X50684Y-32242D01*
X50699Y-32212D01*
X50879Y-32347D02*
X50894Y-32317D01*
X50894Y-32242D01*
X50879Y-32212D01*
X50849Y-32197D01*
X50819Y-32197D01*
X50789Y-32212D01*
X50774Y-32242D01*
X50774Y-32317D01*
X50759Y-32347D01*
X50684Y-32497D02*
X50999Y-32497D01*
X50699Y-32497D02*
X50684Y-32527D01*
X50684Y-32587D01*
X50699Y-32617D01*
X50714Y-32632D01*
X50744Y-32647D01*
X50834Y-32647D01*
X50864Y-32632D01*
X50879Y-32617D01*
X50894Y-32587D01*
X50894Y-32527D01*
X50879Y-32497D01*
X50684Y-32782D02*
X50999Y-32782D01*
X50699Y-32782D02*
X50684Y-32812D01*
X50684Y-32872D01*
X50699Y-32902D01*
X50714Y-32917D01*
X50744Y-32932D01*
X50834Y-32932D01*
X50864Y-32917D01*
X50879Y-32902D01*
X50894Y-32872D01*
X50894Y-32812D01*
X50879Y-32782D01*
X50894Y-33067D02*
X50684Y-33067D01*
X50579Y-33067D02*
X50594Y-33052D01*
X50609Y-33067D01*
X50594Y-33082D01*
X50579Y-33067D01*
X50609Y-33067D01*
X50684Y-33217D02*
X50894Y-33217D01*
X50714Y-33217D02*
X50699Y-33232D01*
X50684Y-33262D01*
X50684Y-33307D01*
X50699Y-33337D01*
X50729Y-33352D01*
X50894Y-33352D01*
X50684Y-33637D02*
X50939Y-33637D01*
X50969Y-33622D01*
X50984Y-33607D01*
X50999Y-33577D01*
X50999Y-33532D01*
X50984Y-33502D01*
X50879Y-33637D02*
X50894Y-33607D01*
X50894Y-33547D01*
X50879Y-33517D01*
X50864Y-33502D01*
X50834Y-33487D01*
X50744Y-33487D01*
X50714Y-33502D01*
X50699Y-33517D01*
X50684Y-33547D01*
X50684Y-33607D01*
X50699Y-33637D01*
X51414Y-30862D02*
X51099Y-30862D01*
X51414Y-31012D02*
X51099Y-31012D01*
X51414Y-31192D01*
X51099Y-31192D01*
X51099Y-31297D02*
X51099Y-31477D01*
X51414Y-31387D02*
X51099Y-31387D01*
X51384Y-31822D02*
X51399Y-31837D01*
X51414Y-31822D01*
X51399Y-31807D01*
X51384Y-31822D01*
X51414Y-31822D01*
X51219Y-31822D02*
X51234Y-31837D01*
X51249Y-31822D01*
X51234Y-31807D01*
X51219Y-31822D01*
X51249Y-31822D01*
X51414Y-32212D02*
X51099Y-32212D01*
X51099Y-32287D01*
X51114Y-32332D01*
X51144Y-32362D01*
X51174Y-32377D01*
X51234Y-32392D01*
X51279Y-32392D01*
X51339Y-32377D01*
X51369Y-32362D01*
X51399Y-32332D01*
X51414Y-32287D01*
X51414Y-32212D01*
X51129Y-32512D02*
X51114Y-32527D01*
X51099Y-32557D01*
X51099Y-32632D01*
X51114Y-32662D01*
X51129Y-32677D01*
X51159Y-32692D01*
X51189Y-32692D01*
X51234Y-32677D01*
X51414Y-32497D01*
X51414Y-32692D01*
X51918Y-30847D02*
X51933Y-30892D01*
X51933Y-30967D01*
X51918Y-30997D01*
X51903Y-31012D01*
X51873Y-31027D01*
X51843Y-31027D01*
X51813Y-31012D01*
X51798Y-30997D01*
X51783Y-30967D01*
X51768Y-30907D01*
X51753Y-30877D01*
X51738Y-30862D01*
X51708Y-30847D01*
X51678Y-30847D01*
X51648Y-30862D01*
X51633Y-30877D01*
X51618Y-30907D01*
X51618Y-30982D01*
X51633Y-31027D01*
X51918Y-31147D02*
X51933Y-31192D01*
X51933Y-31267D01*
X51918Y-31297D01*
X51903Y-31312D01*
X51873Y-31327D01*
X51843Y-31327D01*
X51813Y-31312D01*
X51798Y-31297D01*
X51783Y-31267D01*
X51768Y-31207D01*
X51753Y-31177D01*
X51738Y-31162D01*
X51708Y-31147D01*
X51678Y-31147D01*
X51648Y-31162D01*
X51633Y-31177D01*
X51618Y-31207D01*
X51618Y-31282D01*
X51633Y-31327D01*
X51903Y-31702D02*
X51918Y-31717D01*
X51933Y-31702D01*
X51918Y-31687D01*
X51903Y-31702D01*
X51933Y-31702D01*
X51738Y-31702D02*
X51753Y-31717D01*
X51768Y-31702D01*
X51753Y-31687D01*
X51738Y-31702D01*
X51768Y-31702D01*
X51933Y-32092D02*
X51618Y-32092D01*
X51618Y-32167D01*
X51633Y-32212D01*
X51663Y-32242D01*
X51693Y-32257D01*
X51753Y-32272D01*
X51798Y-32272D01*
X51858Y-32257D01*
X51888Y-32242D01*
X51918Y-32212D01*
X51933Y-32167D01*
X51933Y-32092D01*
X51933Y-32572D02*
X51933Y-32392D01*
X51933Y-32482D02*
X51618Y-32482D01*
X51663Y-32452D01*
X51693Y-32422D01*
X51708Y-32392D01*
X51618Y-32767D02*
X51618Y-32797D01*
X51633Y-32827D01*
X51648Y-32842D01*
X51678Y-32857D01*
X51738Y-32872D01*
X51813Y-32872D01*
X51873Y-32857D01*
X51903Y-32842D01*
X51918Y-32827D01*
X51933Y-32797D01*
X51933Y-32767D01*
X51918Y-32737D01*
X51903Y-32722D01*
X51873Y-32707D01*
X51813Y-32692D01*
X51738Y-32692D01*
X51678Y-32707D01*
X51648Y-32722D01*
X51633Y-32737D01*
X51618Y-32767D01*
X52453Y-30862D02*
X52138Y-30862D01*
X52363Y-30967D01*
X52138Y-31072D01*
X52453Y-31072D01*
X52138Y-31282D02*
X52138Y-31342D01*
X52153Y-31372D01*
X52183Y-31402D01*
X52243Y-31417D01*
X52348Y-31417D01*
X52408Y-31402D01*
X52438Y-31372D01*
X52453Y-31342D01*
X52453Y-31282D01*
X52438Y-31252D01*
X52408Y-31222D01*
X52348Y-31207D01*
X52243Y-31207D01*
X52183Y-31222D01*
X52153Y-31252D01*
X52138Y-31282D01*
X52438Y-31537D02*
X52453Y-31582D01*
X52453Y-31657D01*
X52438Y-31687D01*
X52423Y-31702D01*
X52393Y-31717D01*
X52363Y-31717D01*
X52333Y-31702D01*
X52318Y-31687D01*
X52303Y-31657D01*
X52288Y-31597D01*
X52273Y-31567D01*
X52258Y-31552D01*
X52228Y-31537D01*
X52198Y-31537D01*
X52168Y-31552D01*
X52153Y-31567D01*
X52138Y-31597D01*
X52138Y-31672D01*
X52153Y-31717D01*
X52453Y-31852D02*
X52138Y-31852D01*
X52423Y-32242D02*
X52438Y-32257D01*
X52453Y-32242D01*
X52438Y-32227D01*
X52423Y-32242D01*
X52453Y-32242D01*
X52258Y-32242D02*
X52273Y-32257D01*
X52288Y-32242D01*
X52273Y-32227D01*
X52258Y-32242D01*
X52288Y-32242D01*
X52453Y-32632D02*
X52138Y-32632D01*
X52138Y-32707D01*
X52153Y-32752D01*
X52183Y-32782D01*
X52213Y-32797D01*
X52273Y-32812D01*
X52318Y-32812D01*
X52378Y-32797D01*
X52408Y-32782D01*
X52438Y-32752D01*
X52453Y-32707D01*
X52453Y-32632D01*
X52453Y-33112D02*
X52453Y-32932D01*
X52453Y-33022D02*
X52138Y-33022D01*
X52183Y-32992D01*
X52213Y-32962D01*
X52228Y-32932D01*
X52453Y-33412D02*
X52453Y-33232D01*
X52453Y-33322D02*
X52138Y-33322D01*
X52183Y-33292D01*
X52213Y-33262D01*
X52228Y-33232D01*
X52973Y-30862D02*
X52658Y-30862D01*
X52883Y-30967D01*
X52658Y-31072D01*
X52973Y-31072D01*
X52973Y-31222D02*
X52658Y-31222D01*
X52958Y-31357D02*
X52973Y-31402D01*
X52973Y-31477D01*
X52958Y-31507D01*
X52943Y-31522D01*
X52913Y-31537D01*
X52883Y-31537D01*
X52853Y-31522D01*
X52838Y-31507D01*
X52823Y-31477D01*
X52808Y-31417D01*
X52793Y-31387D01*
X52778Y-31372D01*
X52748Y-31357D01*
X52718Y-31357D01*
X52688Y-31372D01*
X52673Y-31387D01*
X52658Y-31417D01*
X52658Y-31492D01*
X52673Y-31537D01*
X52658Y-31732D02*
X52658Y-31792D01*
X52673Y-31822D01*
X52703Y-31852D01*
X52763Y-31867D01*
X52868Y-31867D01*
X52928Y-31852D01*
X52958Y-31822D01*
X52973Y-31792D01*
X52973Y-31732D01*
X52958Y-31702D01*
X52928Y-31672D01*
X52868Y-31657D01*
X52763Y-31657D01*
X52703Y-31672D01*
X52673Y-31702D01*
X52658Y-31732D01*
X52943Y-32242D02*
X52958Y-32257D01*
X52973Y-32242D01*
X52958Y-32227D01*
X52943Y-32242D01*
X52973Y-32242D01*
X52778Y-32242D02*
X52793Y-32257D01*
X52808Y-32242D01*
X52793Y-32227D01*
X52778Y-32242D01*
X52808Y-32242D01*
X52973Y-32632D02*
X52658Y-32632D01*
X52658Y-32707D01*
X52673Y-32752D01*
X52703Y-32782D01*
X52733Y-32797D01*
X52793Y-32812D01*
X52838Y-32812D01*
X52898Y-32797D01*
X52928Y-32782D01*
X52958Y-32752D01*
X52973Y-32707D01*
X52973Y-32632D01*
X52973Y-33112D02*
X52973Y-32932D01*
X52973Y-33022D02*
X52658Y-33022D01*
X52703Y-32992D01*
X52733Y-32962D01*
X52748Y-32932D01*
X52688Y-33232D02*
X52673Y-33247D01*
X52658Y-33277D01*
X52658Y-33352D01*
X52673Y-33382D01*
X52688Y-33397D01*
X52718Y-33412D01*
X52748Y-33412D01*
X52793Y-33397D01*
X52973Y-33217D01*
X52973Y-33412D01*
X53477Y-30847D02*
X53492Y-30892D01*
X53492Y-30967D01*
X53477Y-30997D01*
X53462Y-31012D01*
X53432Y-31027D01*
X53402Y-31027D01*
X53372Y-31012D01*
X53357Y-30997D01*
X53342Y-30967D01*
X53327Y-30907D01*
X53312Y-30877D01*
X53297Y-30862D01*
X53267Y-30847D01*
X53237Y-30847D01*
X53207Y-30862D01*
X53192Y-30877D01*
X53177Y-30907D01*
X53177Y-30982D01*
X53192Y-31027D01*
X53462Y-31342D02*
X53477Y-31327D01*
X53492Y-31282D01*
X53492Y-31252D01*
X53477Y-31207D01*
X53447Y-31177D01*
X53417Y-31162D01*
X53357Y-31147D01*
X53312Y-31147D01*
X53252Y-31162D01*
X53222Y-31177D01*
X53192Y-31207D01*
X53177Y-31252D01*
X53177Y-31282D01*
X53192Y-31327D01*
X53207Y-31342D01*
X53492Y-31477D02*
X53177Y-31477D01*
X53492Y-31657D02*
X53312Y-31522D01*
X53177Y-31657D02*
X53357Y-31477D01*
X53462Y-32032D02*
X53477Y-32047D01*
X53492Y-32032D01*
X53477Y-32017D01*
X53462Y-32032D01*
X53492Y-32032D01*
X53297Y-32032D02*
X53312Y-32047D01*
X53327Y-32032D01*
X53312Y-32017D01*
X53297Y-32032D01*
X53327Y-32032D01*
X53492Y-32422D02*
X53177Y-32422D01*
X53177Y-32497D01*
X53192Y-32542D01*
X53222Y-32572D01*
X53252Y-32587D01*
X53312Y-32602D01*
X53357Y-32602D01*
X53417Y-32587D01*
X53447Y-32572D01*
X53477Y-32542D01*
X53492Y-32497D01*
X53492Y-32422D01*
X53492Y-32902D02*
X53492Y-32722D01*
X53492Y-32812D02*
X53177Y-32812D01*
X53222Y-32782D01*
X53252Y-32752D01*
X53267Y-32722D01*
X53177Y-33007D02*
X53177Y-33202D01*
X53297Y-33097D01*
X53297Y-33142D01*
X53312Y-33172D01*
X53327Y-33187D01*
X53357Y-33202D01*
X53432Y-33202D01*
X53462Y-33187D01*
X53477Y-33172D01*
X53492Y-33142D01*
X53492Y-33052D01*
X53477Y-33022D01*
X53462Y-33007D01*
X53847Y-30862D02*
X53847Y-30967D01*
X54012Y-31012D02*
X54012Y-30862D01*
X53697Y-30862D01*
X53697Y-31012D01*
X53802Y-31147D02*
X54012Y-31147D01*
X53832Y-31147D02*
X53817Y-31162D01*
X53802Y-31192D01*
X53802Y-31237D01*
X53817Y-31267D01*
X53847Y-31282D01*
X54012Y-31282D01*
X54012Y-31567D02*
X53847Y-31567D01*
X53817Y-31552D01*
X53802Y-31522D01*
X53802Y-31462D01*
X53817Y-31432D01*
X53997Y-31567D02*
X54012Y-31537D01*
X54012Y-31462D01*
X53997Y-31432D01*
X53967Y-31417D01*
X53937Y-31417D01*
X53907Y-31432D01*
X53892Y-31462D01*
X53892Y-31537D01*
X53877Y-31567D01*
X54012Y-31717D02*
X53697Y-31717D01*
X53817Y-31717D02*
X53802Y-31747D01*
X53802Y-31807D01*
X53817Y-31837D01*
X53832Y-31852D01*
X53862Y-31867D01*
X53952Y-31867D01*
X53982Y-31852D01*
X53997Y-31837D01*
X54012Y-31807D01*
X54012Y-31747D01*
X53997Y-31717D01*
X54012Y-32047D02*
X53997Y-32017D01*
X53967Y-32002D01*
X53697Y-32002D01*
X53997Y-32287D02*
X54012Y-32257D01*
X54012Y-32197D01*
X53997Y-32167D01*
X53967Y-32152D01*
X53847Y-32152D01*
X53817Y-32167D01*
X53802Y-32197D01*
X53802Y-32257D01*
X53817Y-32287D01*
X53847Y-32302D01*
X53877Y-32302D01*
X53907Y-32152D01*
X54012Y-32677D02*
X53697Y-32677D01*
X53802Y-32827D02*
X54012Y-32827D01*
X53832Y-32827D02*
X53817Y-32842D01*
X53802Y-32872D01*
X53802Y-32917D01*
X53817Y-32947D01*
X53847Y-32962D01*
X54012Y-32962D01*
X53802Y-33067D02*
X53802Y-33187D01*
X53697Y-33112D02*
X53967Y-33112D01*
X53997Y-33127D01*
X54012Y-33157D01*
X54012Y-33187D01*
X53997Y-33412D02*
X54012Y-33382D01*
X54012Y-33322D01*
X53997Y-33292D01*
X53967Y-33277D01*
X53847Y-33277D01*
X53817Y-33292D01*
X53802Y-33322D01*
X53802Y-33382D01*
X53817Y-33412D01*
X53847Y-33427D01*
X53877Y-33427D01*
X53907Y-33277D01*
X54012Y-33562D02*
X53802Y-33562D01*
X53862Y-33562D02*
X53832Y-33577D01*
X53817Y-33592D01*
X53802Y-33622D01*
X53802Y-33652D01*
X53802Y-33892D02*
X54012Y-33892D01*
X53802Y-33757D02*
X53967Y-33757D01*
X53997Y-33772D01*
X54012Y-33802D01*
X54012Y-33847D01*
X53997Y-33877D01*
X53982Y-33892D01*
X53802Y-34041D02*
X54117Y-34041D01*
X53817Y-34041D02*
X53802Y-34071D01*
X53802Y-34131D01*
X53817Y-34161D01*
X53832Y-34176D01*
X53862Y-34191D01*
X53952Y-34191D01*
X53982Y-34176D01*
X53997Y-34161D01*
X54012Y-34131D01*
X54012Y-34071D01*
X53997Y-34041D01*
X53802Y-34281D02*
X53802Y-34401D01*
X53697Y-34326D02*
X53967Y-34326D01*
X53997Y-34341D01*
X54012Y-34371D01*
X54012Y-34401D01*
X53982Y-34746D02*
X53997Y-34761D01*
X54012Y-34746D01*
X53997Y-34731D01*
X53982Y-34746D01*
X54012Y-34746D01*
X53817Y-34746D02*
X53832Y-34761D01*
X53847Y-34746D01*
X53832Y-34731D01*
X53817Y-34746D01*
X53847Y-34746D01*
X53922Y-35121D02*
X53922Y-35271D01*
X54012Y-35091D02*
X53697Y-35196D01*
X54012Y-35301D01*
X53727Y-35391D02*
X53712Y-35406D01*
X53697Y-35436D01*
X53697Y-35511D01*
X53712Y-35541D01*
X53727Y-35556D01*
X53757Y-35571D01*
X53787Y-35571D01*
X53832Y-35556D01*
X54012Y-35376D01*
X54012Y-35571D01*
X56229Y-42390D02*
X56244Y-42360D01*
X56244Y-42300D01*
X56229Y-42270D01*
X56199Y-42255D01*
X56079Y-42255D01*
X56049Y-42270D01*
X56034Y-42300D01*
X56034Y-42360D01*
X56049Y-42390D01*
X56079Y-42405D01*
X56109Y-42405D01*
X56139Y-42255D01*
X56034Y-42540D02*
X56244Y-42540D01*
X56064Y-42540D02*
X56049Y-42555D01*
X56034Y-42585D01*
X56034Y-42630D01*
X56049Y-42660D01*
X56079Y-42675D01*
X56244Y-42675D01*
X56274Y-42750D02*
X56274Y-42990D01*
X56244Y-43065D02*
X55929Y-43065D01*
X56244Y-43215D02*
X55929Y-43215D01*
X56244Y-43395D01*
X55929Y-43395D01*
X55929Y-43500D02*
X55929Y-43680D01*
X56244Y-43590D02*
X55929Y-43590D01*
X56342Y-41899D02*
X56297Y-41914D01*
X56222Y-41914D01*
X56192Y-41899D01*
X56177Y-41884D01*
X56162Y-41854D01*
X56162Y-41824D01*
X56177Y-41794D01*
X56192Y-41779D01*
X56222Y-41764D01*
X56282Y-41749D01*
X56312Y-41734D01*
X56327Y-41719D01*
X56342Y-41689D01*
X56342Y-41659D01*
X56327Y-41629D01*
X56312Y-41614D01*
X56282Y-41599D01*
X56207Y-41599D01*
X56162Y-41614D01*
X56042Y-41899D02*
X55997Y-41914D01*
X55922Y-41914D01*
X55892Y-41899D01*
X55877Y-41884D01*
X55862Y-41854D01*
X55862Y-41824D01*
X55877Y-41794D01*
X55892Y-41779D01*
X55922Y-41764D01*
X55982Y-41749D01*
X56012Y-41734D01*
X56027Y-41719D01*
X56042Y-41689D01*
X56042Y-41659D01*
X56027Y-41629D01*
X56012Y-41614D01*
X55982Y-41599D01*
X55907Y-41599D01*
X55862Y-41614D01*
X59295Y-42598D02*
X59325Y-42583D01*
X59370Y-42583D01*
X59415Y-42598D01*
X59445Y-42628D01*
X59460Y-42658D01*
X59475Y-42718D01*
X59475Y-42763D01*
X59460Y-42823D01*
X59445Y-42853D01*
X59415Y-42883D01*
X59370Y-42898D01*
X59340Y-42898D01*
X59295Y-42883D01*
X59280Y-42868D01*
X59280Y-42763D01*
X59340Y-42763D01*
X59145Y-42898D02*
X59145Y-42583D01*
X58965Y-42898D01*
X58965Y-42583D01*
X58815Y-42898D02*
X58815Y-42583D01*
X58740Y-42583D01*
X58695Y-42598D01*
X58665Y-42628D01*
X58650Y-42658D01*
X58635Y-42718D01*
X58635Y-42763D01*
X58650Y-42823D01*
X58665Y-42853D01*
X58695Y-42883D01*
X58740Y-42898D01*
X58815Y-42898D01*
X59340Y-41914D02*
X59340Y-41599D01*
X59190Y-41914D02*
X59190Y-41599D01*
X59010Y-41914D01*
X59010Y-41599D01*
X58905Y-41599D02*
X58725Y-41599D01*
X58815Y-41914D02*
X58815Y-41599D01*
X59460Y-40816D02*
X59415Y-40831D01*
X59340Y-40831D01*
X59310Y-40816D01*
X59295Y-40801D01*
X59280Y-40771D01*
X59280Y-40741D01*
X59295Y-40711D01*
X59310Y-40696D01*
X59340Y-40681D01*
X59400Y-40666D01*
X59430Y-40651D01*
X59445Y-40636D01*
X59460Y-40606D01*
X59460Y-40576D01*
X59445Y-40546D01*
X59430Y-40531D01*
X59400Y-40516D01*
X59325Y-40516D01*
X59280Y-40531D01*
X58965Y-40801D02*
X58980Y-40816D01*
X59025Y-40831D01*
X59055Y-40831D01*
X59100Y-40816D01*
X59130Y-40786D01*
X59145Y-40756D01*
X59160Y-40696D01*
X59160Y-40651D01*
X59145Y-40591D01*
X59130Y-40561D01*
X59100Y-40531D01*
X59055Y-40516D01*
X59025Y-40516D01*
X58980Y-40531D01*
X58965Y-40546D01*
X58830Y-40831D02*
X58830Y-40516D01*
X58650Y-40831D02*
X58785Y-40651D01*
X58650Y-40516D02*
X58830Y-40696D01*
X59550Y-39945D02*
X59550Y-39630D01*
X59445Y-39855D01*
X59340Y-39630D01*
X59340Y-39945D01*
X59130Y-39630D02*
X59070Y-39630D01*
X59040Y-39645D01*
X59010Y-39675D01*
X58995Y-39735D01*
X58995Y-39840D01*
X59010Y-39900D01*
X59040Y-39930D01*
X59070Y-39945D01*
X59130Y-39945D01*
X59160Y-39930D01*
X59190Y-39900D01*
X59205Y-39840D01*
X59205Y-39735D01*
X59190Y-39675D01*
X59160Y-39645D01*
X59130Y-39630D01*
X58875Y-39930D02*
X58830Y-39945D01*
X58755Y-39945D01*
X58725Y-39930D01*
X58710Y-39915D01*
X58695Y-39885D01*
X58695Y-39855D01*
X58710Y-39825D01*
X58725Y-39810D01*
X58755Y-39795D01*
X58815Y-39780D01*
X58845Y-39765D01*
X58860Y-39750D01*
X58875Y-39720D01*
X58875Y-39690D01*
X58860Y-39660D01*
X58845Y-39645D01*
X58815Y-39630D01*
X58740Y-39630D01*
X58695Y-39645D01*
X58560Y-39945D02*
X58560Y-39630D01*
X56400Y-40929D02*
X56400Y-40614D01*
X56295Y-40839D01*
X56190Y-40614D01*
X56190Y-40929D01*
X56040Y-40929D02*
X56040Y-40614D01*
X55905Y-40914D02*
X55860Y-40929D01*
X55785Y-40929D01*
X55755Y-40914D01*
X55740Y-40899D01*
X55725Y-40869D01*
X55725Y-40839D01*
X55740Y-40809D01*
X55755Y-40794D01*
X55785Y-40779D01*
X55845Y-40764D01*
X55875Y-40749D01*
X55890Y-40734D01*
X55905Y-40704D01*
X55905Y-40674D01*
X55890Y-40644D01*
X55875Y-40629D01*
X55845Y-40614D01*
X55770Y-40614D01*
X55725Y-40629D01*
X55530Y-40614D02*
X55470Y-40614D01*
X55440Y-40629D01*
X55410Y-40659D01*
X55395Y-40719D01*
X55395Y-40824D01*
X55410Y-40884D01*
X55440Y-40914D01*
X55470Y-40929D01*
X55530Y-40929D01*
X55560Y-40914D01*
X55590Y-40884D01*
X55605Y-40824D01*
X55605Y-40719D01*
X55590Y-40659D01*
X55560Y-40629D01*
X55530Y-40614D01*
X56162Y-39630D02*
X56312Y-39630D01*
X56327Y-39780D01*
X56312Y-39765D01*
X56282Y-39750D01*
X56207Y-39750D01*
X56177Y-39765D01*
X56162Y-39780D01*
X56147Y-39810D01*
X56147Y-39885D01*
X56162Y-39915D01*
X56177Y-39930D01*
X56207Y-39945D01*
X56282Y-39945D01*
X56312Y-39930D01*
X56327Y-39915D01*
X56057Y-39630D02*
X55952Y-39945D01*
X55847Y-39630D01*
X47484Y-37185D02*
X47514Y-37170D01*
X47559Y-37170D01*
X47604Y-37185D01*
X47634Y-37215D01*
X47649Y-37245D01*
X47664Y-37305D01*
X47664Y-37350D01*
X47649Y-37410D01*
X47634Y-37440D01*
X47604Y-37470D01*
X47559Y-37485D01*
X47529Y-37485D01*
X47484Y-37470D01*
X47469Y-37455D01*
X47469Y-37350D01*
X47529Y-37350D01*
X47334Y-37485D02*
X47334Y-37170D01*
X47154Y-37485D01*
X47154Y-37170D01*
X47004Y-37485D02*
X47004Y-37170D01*
X46929Y-37170D01*
X46884Y-37185D01*
X46854Y-37215D01*
X46839Y-37245D01*
X46824Y-37305D01*
X46824Y-37350D01*
X46839Y-37410D01*
X46854Y-37440D01*
X46884Y-37470D01*
X46929Y-37485D01*
X47004Y-37485D01*
X47304Y-38252D02*
X47454Y-38252D01*
X47469Y-38402D01*
X47454Y-38387D01*
X47424Y-38372D01*
X47349Y-38372D01*
X47319Y-38387D01*
X47304Y-38402D01*
X47289Y-38432D01*
X47289Y-38507D01*
X47304Y-38537D01*
X47319Y-38552D01*
X47349Y-38567D01*
X47424Y-38567D01*
X47454Y-38552D01*
X47469Y-38537D01*
X47199Y-38252D02*
X47094Y-38567D01*
X46989Y-38252D01*
X47626Y-39438D02*
X47581Y-39453D01*
X47506Y-39453D01*
X47476Y-39438D01*
X47461Y-39423D01*
X47446Y-39393D01*
X47446Y-39363D01*
X47461Y-39333D01*
X47476Y-39318D01*
X47506Y-39303D01*
X47566Y-39288D01*
X47596Y-39273D01*
X47611Y-39258D01*
X47626Y-39228D01*
X47626Y-39198D01*
X47611Y-39168D01*
X47596Y-39153D01*
X47566Y-39138D01*
X47491Y-39138D01*
X47446Y-39153D01*
X47311Y-39453D02*
X47311Y-39138D01*
X47236Y-39138D01*
X47191Y-39153D01*
X47161Y-39183D01*
X47146Y-39213D01*
X47131Y-39273D01*
X47131Y-39318D01*
X47146Y-39378D01*
X47161Y-39408D01*
X47191Y-39438D01*
X47236Y-39453D01*
X47311Y-39453D01*
X47011Y-39363D02*
X46861Y-39363D01*
X47041Y-39453D02*
X46936Y-39138D01*
X46831Y-39453D01*
X47619Y-40521D02*
X47574Y-40536D01*
X47499Y-40536D01*
X47469Y-40521D01*
X47454Y-40506D01*
X47439Y-40476D01*
X47439Y-40446D01*
X47454Y-40416D01*
X47469Y-40401D01*
X47499Y-40386D01*
X47559Y-40371D01*
X47589Y-40356D01*
X47604Y-40341D01*
X47619Y-40311D01*
X47619Y-40281D01*
X47604Y-40251D01*
X47589Y-40236D01*
X47559Y-40221D01*
X47484Y-40221D01*
X47439Y-40236D01*
X47124Y-40506D02*
X47139Y-40521D01*
X47184Y-40536D01*
X47214Y-40536D01*
X47259Y-40521D01*
X47289Y-40491D01*
X47304Y-40461D01*
X47319Y-40401D01*
X47319Y-40356D01*
X47304Y-40296D01*
X47289Y-40266D01*
X47259Y-40236D01*
X47214Y-40221D01*
X47184Y-40221D01*
X47139Y-40236D01*
X47124Y-40251D01*
X46839Y-40536D02*
X46989Y-40536D01*
X46989Y-40221D01*
X45005Y-38961D02*
X45005Y-38646D01*
X44855Y-38751D02*
X44855Y-38961D01*
X44855Y-38781D02*
X44840Y-38766D01*
X44810Y-38751D01*
X44765Y-38751D01*
X44735Y-38766D01*
X44720Y-38796D01*
X44720Y-38961D01*
X44570Y-38751D02*
X44570Y-39066D01*
X44570Y-38766D02*
X44540Y-38751D01*
X44480Y-38751D01*
X44450Y-38766D01*
X44435Y-38781D01*
X44420Y-38811D01*
X44420Y-38901D01*
X44435Y-38931D01*
X44450Y-38946D01*
X44480Y-38961D01*
X44540Y-38961D01*
X44570Y-38946D01*
X44150Y-38751D02*
X44150Y-38961D01*
X44285Y-38751D02*
X44285Y-38916D01*
X44270Y-38946D01*
X44240Y-38961D01*
X44195Y-38961D01*
X44165Y-38946D01*
X44150Y-38931D01*
X44045Y-38751D02*
X43925Y-38751D01*
X44000Y-38646D02*
X44000Y-38916D01*
X43985Y-38946D01*
X43955Y-38961D01*
X43925Y-38961D01*
X45224Y-33528D02*
X45164Y-33528D01*
X45134Y-33543D01*
X45104Y-33573D01*
X45089Y-33633D01*
X45089Y-33738D01*
X45104Y-33798D01*
X45134Y-33828D01*
X45164Y-33843D01*
X45224Y-33843D01*
X45254Y-33828D01*
X45284Y-33798D01*
X45299Y-33738D01*
X45299Y-33633D01*
X45284Y-33573D01*
X45254Y-33543D01*
X45224Y-33528D01*
X44819Y-33633D02*
X44819Y-33843D01*
X44954Y-33633D02*
X44954Y-33798D01*
X44939Y-33828D01*
X44909Y-33843D01*
X44864Y-33843D01*
X44834Y-33828D01*
X44819Y-33813D01*
X44714Y-33633D02*
X44594Y-33633D01*
X44669Y-33528D02*
X44669Y-33798D01*
X44654Y-33828D01*
X44624Y-33843D01*
X44594Y-33843D01*
X44489Y-33633D02*
X44489Y-33948D01*
X44489Y-33648D02*
X44459Y-33633D01*
X44399Y-33633D01*
X44369Y-33648D01*
X44354Y-33663D01*
X44339Y-33693D01*
X44339Y-33783D01*
X44354Y-33813D01*
X44369Y-33828D01*
X44399Y-33843D01*
X44459Y-33843D01*
X44489Y-33828D01*
X44069Y-33633D02*
X44069Y-33843D01*
X44204Y-33633D02*
X44204Y-33798D01*
X44189Y-33828D01*
X44159Y-33843D01*
X44114Y-33843D01*
X44084Y-33828D01*
X44069Y-33813D01*
X43964Y-33633D02*
X43844Y-33633D01*
X43919Y-33528D02*
X43919Y-33798D01*
X43904Y-33828D01*
X43874Y-33843D01*
X43844Y-33843D01*
X43725Y-39871D02*
X43680Y-39886D01*
X43605Y-39886D01*
X43575Y-39871D01*
X43560Y-39856D01*
X43545Y-39826D01*
X43545Y-39796D01*
X43560Y-39766D01*
X43575Y-39751D01*
X43605Y-39736D01*
X43665Y-39721D01*
X43695Y-39706D01*
X43710Y-39691D01*
X43725Y-39661D01*
X43725Y-39631D01*
X43710Y-39601D01*
X43695Y-39586D01*
X43665Y-39571D01*
X43590Y-39571D01*
X43545Y-39586D01*
X43455Y-39676D02*
X43335Y-39676D01*
X43410Y-39571D02*
X43410Y-39841D01*
X43395Y-39871D01*
X43365Y-39886D01*
X43335Y-39886D01*
X43110Y-39871D02*
X43140Y-39886D01*
X43200Y-39886D01*
X43230Y-39871D01*
X43245Y-39841D01*
X43245Y-39721D01*
X43230Y-39691D01*
X43200Y-39676D01*
X43140Y-39676D01*
X43110Y-39691D01*
X43095Y-39721D01*
X43095Y-39751D01*
X43245Y-39781D01*
X42960Y-39676D02*
X42960Y-39991D01*
X42960Y-39691D02*
X42930Y-39676D01*
X42870Y-39676D01*
X42840Y-39691D01*
X42825Y-39706D01*
X42810Y-39736D01*
X42810Y-39826D01*
X42825Y-39856D01*
X42840Y-39871D01*
X42870Y-39886D01*
X42930Y-39886D01*
X42960Y-39871D01*
X43601Y-40831D02*
X43601Y-40516D01*
X43526Y-40516D01*
X43481Y-40531D01*
X43451Y-40561D01*
X43436Y-40591D01*
X43421Y-40651D01*
X43421Y-40696D01*
X43436Y-40756D01*
X43451Y-40786D01*
X43481Y-40816D01*
X43526Y-40831D01*
X43601Y-40831D01*
X43286Y-40831D02*
X43286Y-40621D01*
X43286Y-40516D02*
X43301Y-40531D01*
X43286Y-40546D01*
X43271Y-40531D01*
X43286Y-40516D01*
X43286Y-40546D01*
X43136Y-40831D02*
X43136Y-40621D01*
X43136Y-40681D02*
X43121Y-40651D01*
X43106Y-40636D01*
X43076Y-40621D01*
X43046Y-40621D01*
X43654Y-41749D02*
X43549Y-41749D01*
X43504Y-41914D02*
X43654Y-41914D01*
X43654Y-41599D01*
X43504Y-41599D01*
X43369Y-41704D02*
X43369Y-41914D01*
X43369Y-41734D02*
X43354Y-41719D01*
X43324Y-41704D01*
X43279Y-41704D01*
X43249Y-41719D01*
X43234Y-41749D01*
X43234Y-41914D01*
X43586Y-42598D02*
X43616Y-42583D01*
X43661Y-42583D01*
X43706Y-42598D01*
X43736Y-42628D01*
X43751Y-42658D01*
X43766Y-42718D01*
X43766Y-42763D01*
X43751Y-42823D01*
X43736Y-42853D01*
X43706Y-42883D01*
X43661Y-42898D01*
X43631Y-42898D01*
X43586Y-42883D01*
X43571Y-42868D01*
X43571Y-42763D01*
X43631Y-42763D01*
X43436Y-42898D02*
X43436Y-42583D01*
X43256Y-42898D01*
X43256Y-42583D01*
X43106Y-42898D02*
X43106Y-42583D01*
X43031Y-42583D01*
X42986Y-42598D01*
X42956Y-42628D01*
X42941Y-42658D01*
X42926Y-42718D01*
X42926Y-42763D01*
X42941Y-42823D01*
X42956Y-42853D01*
X42986Y-42883D01*
X43031Y-42898D01*
X43106Y-42898D01*
X43547Y-37480D02*
X43577Y-37465D01*
X43622Y-37465D01*
X43667Y-37480D01*
X43697Y-37510D01*
X43712Y-37540D01*
X43727Y-37600D01*
X43727Y-37645D01*
X43712Y-37705D01*
X43697Y-37735D01*
X43667Y-37765D01*
X43622Y-37780D01*
X43592Y-37780D01*
X43547Y-37765D01*
X43532Y-37750D01*
X43532Y-37645D01*
X43592Y-37645D01*
X43397Y-37780D02*
X43397Y-37465D01*
X43217Y-37780D01*
X43217Y-37465D01*
X43067Y-37780D02*
X43067Y-37465D01*
X42992Y-37465D01*
X42947Y-37480D01*
X42917Y-37510D01*
X42902Y-37540D01*
X42887Y-37600D01*
X42887Y-37645D01*
X42902Y-37705D01*
X42917Y-37735D01*
X42947Y-37765D01*
X42992Y-37780D01*
X43067Y-37780D01*
X43615Y-36631D02*
X43510Y-36631D01*
X43465Y-36796D02*
X43615Y-36796D01*
X43615Y-36481D01*
X43465Y-36481D01*
X43330Y-36586D02*
X43330Y-36796D01*
X43330Y-36616D02*
X43315Y-36601D01*
X43285Y-36586D01*
X43240Y-36586D01*
X43210Y-36601D01*
X43195Y-36631D01*
X43195Y-36796D01*
X43562Y-35713D02*
X43562Y-35398D01*
X43487Y-35398D01*
X43442Y-35413D01*
X43412Y-35443D01*
X43397Y-35473D01*
X43382Y-35533D01*
X43382Y-35578D01*
X43397Y-35638D01*
X43412Y-35668D01*
X43442Y-35698D01*
X43487Y-35713D01*
X43562Y-35713D01*
X43247Y-35713D02*
X43247Y-35503D01*
X43247Y-35398D02*
X43262Y-35413D01*
X43247Y-35428D01*
X43232Y-35413D01*
X43247Y-35398D01*
X43247Y-35428D01*
X43097Y-35713D02*
X43097Y-35503D01*
X43097Y-35563D02*
X43082Y-35533D01*
X43067Y-35518D01*
X43037Y-35503D01*
X43007Y-35503D01*
X43764Y-34714D02*
X43719Y-34729D01*
X43644Y-34729D01*
X43614Y-34714D01*
X43599Y-34699D01*
X43584Y-34669D01*
X43584Y-34639D01*
X43599Y-34609D01*
X43614Y-34594D01*
X43644Y-34579D01*
X43704Y-34564D01*
X43734Y-34549D01*
X43749Y-34534D01*
X43764Y-34504D01*
X43764Y-34474D01*
X43749Y-34444D01*
X43734Y-34429D01*
X43704Y-34414D01*
X43629Y-34414D01*
X43584Y-34429D01*
X43494Y-34519D02*
X43374Y-34519D01*
X43449Y-34414D02*
X43449Y-34684D01*
X43434Y-34714D01*
X43404Y-34729D01*
X43374Y-34729D01*
X43149Y-34714D02*
X43179Y-34729D01*
X43239Y-34729D01*
X43269Y-34714D01*
X43284Y-34684D01*
X43284Y-34564D01*
X43269Y-34534D01*
X43239Y-34519D01*
X43179Y-34519D01*
X43149Y-34534D01*
X43134Y-34564D01*
X43134Y-34594D01*
X43284Y-34624D01*
X42999Y-34519D02*
X42999Y-34834D01*
X42999Y-34534D02*
X42969Y-34519D01*
X42909Y-34519D01*
X42879Y-34534D01*
X42864Y-34549D01*
X42849Y-34579D01*
X42849Y-34669D01*
X42864Y-34699D01*
X42879Y-34714D01*
X42909Y-34729D01*
X42969Y-34729D01*
X42999Y-34714D01*
G54D10*
X53070Y-39862D02*
G75*
G02X53543Y-39389I472J0D01*
G74*
G01*
X53543Y-39862D02*
X53543Y-37500D01*
X53543Y-37500D02*
X51181Y-37500D01*
X51181Y-37500D02*
X51181Y-39862D01*
X51181Y-39862D02*
X53543Y-39862D01*
X52163Y-36687D02*
X52576Y-36687D01*
X52576Y-36687D02*
X52576Y-37297D01*
X52576Y-37297D02*
X52163Y-37297D01*
X52163Y-36687D02*
X52163Y-37297D01*
X53338Y-37303D02*
X53338Y-36200D01*
X53338Y-36200D02*
X54047Y-36200D01*
X54047Y-36200D02*
X54047Y-37303D01*
X54047Y-37303D02*
X53338Y-37303D01*
X53198Y-36525D02*
X53198Y-37293D01*
X53198Y-37293D02*
X52706Y-37293D01*
X52706Y-37293D02*
X52706Y-36525D01*
X52706Y-36525D02*
X53198Y-36525D01*
X53685Y-40000D02*
X53685Y-40319D01*
X53667Y-40357D01*
X53648Y-40375D01*
X53610Y-40394D01*
X53535Y-40394D01*
X53498Y-40375D01*
X53479Y-40357D01*
X53460Y-40319D01*
X53460Y-40000D01*
X53310Y-40000D02*
X53067Y-40000D01*
X53198Y-40150D01*
X53142Y-40150D01*
X53104Y-40169D01*
X53085Y-40188D01*
X53067Y-40225D01*
X53067Y-40319D01*
X53085Y-40357D01*
X53104Y-40375D01*
X53142Y-40394D01*
X53254Y-40394D01*
X53292Y-40375D01*
X53310Y-40357D01*
X50853Y-37481D02*
X50853Y-37668D01*
X50965Y-37443D02*
X50571Y-37574D01*
X50965Y-37706D01*
X50946Y-37818D02*
X50965Y-37874D01*
X50965Y-37968D01*
X50946Y-38006D01*
X50928Y-38024D01*
X50890Y-38043D01*
X50853Y-38043D01*
X50815Y-38024D01*
X50796Y-38006D01*
X50778Y-37968D01*
X50759Y-37893D01*
X50740Y-37856D01*
X50721Y-37837D01*
X50684Y-37818D01*
X50646Y-37818D01*
X50609Y-37837D01*
X50590Y-37856D01*
X50571Y-37893D01*
X50571Y-37987D01*
X50590Y-38043D01*
X50571Y-38399D02*
X50571Y-38212D01*
X50759Y-38193D01*
X50740Y-38212D01*
X50721Y-38249D01*
X50721Y-38343D01*
X50740Y-38381D01*
X50759Y-38399D01*
X50796Y-38418D01*
X50890Y-38418D01*
X50928Y-38399D01*
X50946Y-38381D01*
X50965Y-38343D01*
X50965Y-38249D01*
X50946Y-38212D01*
X50928Y-38193D01*
X50571Y-38662D02*
X50571Y-38699D01*
X50590Y-38737D01*
X50609Y-38756D01*
X50646Y-38774D01*
X50721Y-38793D01*
X50815Y-38793D01*
X50890Y-38774D01*
X50928Y-38756D01*
X50946Y-38737D01*
X50965Y-38699D01*
X50965Y-38662D01*
X50946Y-38624D01*
X50928Y-38606D01*
X50890Y-38587D01*
X50815Y-38568D01*
X50721Y-38568D01*
X50646Y-38587D01*
X50609Y-38606D01*
X50590Y-38624D01*
X50571Y-38662D01*
X50571Y-39149D02*
X50571Y-38962D01*
X50759Y-38943D01*
X50740Y-38962D01*
X50721Y-38999D01*
X50721Y-39093D01*
X50740Y-39131D01*
X50759Y-39149D01*
X50796Y-39168D01*
X50890Y-39168D01*
X50928Y-39149D01*
X50946Y-39131D01*
X50965Y-39093D01*
X50965Y-38999D01*
X50946Y-38962D01*
X50928Y-38943D01*
X50571Y-39524D02*
X50571Y-39337D01*
X50759Y-39318D01*
X50740Y-39337D01*
X50721Y-39374D01*
X50721Y-39468D01*
X50740Y-39505D01*
X50759Y-39524D01*
X50796Y-39543D01*
X50890Y-39543D01*
X50928Y-39524D01*
X50946Y-39505D01*
X50965Y-39468D01*
X50965Y-39374D01*
X50946Y-39337D01*
X50928Y-39318D01*
X50853Y-39693D02*
X50853Y-39880D01*
X50965Y-39655D02*
X50571Y-39787D01*
X50965Y-39918D01*
G54D12*
X52401Y-36578D02*
X52407Y-36584D01*
X52424Y-36589D01*
X52436Y-36589D01*
X52453Y-36584D01*
X52464Y-36572D01*
X52470Y-36561D01*
X52476Y-36538D01*
X52476Y-36521D01*
X52470Y-36498D01*
X52464Y-36486D01*
X52453Y-36475D01*
X52436Y-36469D01*
X52424Y-36469D01*
X52407Y-36475D01*
X52401Y-36481D01*
X52361Y-36469D02*
X52287Y-36469D01*
X52327Y-36515D01*
X52310Y-36515D01*
X52299Y-36521D01*
X52293Y-36526D01*
X52287Y-36538D01*
X52287Y-36566D01*
X52293Y-36578D01*
X52299Y-36584D01*
X52310Y-36589D01*
X52344Y-36589D01*
X52356Y-36584D01*
X52361Y-36578D01*
G54D13*
X54335Y-36721D02*
X54344Y-36713D01*
X54354Y-36687D01*
X54354Y-36670D01*
X54344Y-36644D01*
X54325Y-36627D01*
X54306Y-36619D01*
X54268Y-36610D01*
X54239Y-36610D01*
X54201Y-36619D01*
X54182Y-36627D01*
X54163Y-36644D01*
X54154Y-36670D01*
X54154Y-36687D01*
X54163Y-36713D01*
X54173Y-36721D01*
X54220Y-36876D02*
X54354Y-36876D01*
X54144Y-36833D02*
X54287Y-36790D01*
X54287Y-36901D01*
G54D12*
X52972Y-36412D02*
X53012Y-36355D01*
X53041Y-36412D02*
X53041Y-36292D01*
X52995Y-36292D01*
X52984Y-36298D01*
X52978Y-36303D01*
X52972Y-36315D01*
X52972Y-36332D01*
X52978Y-36343D01*
X52984Y-36349D01*
X52995Y-36355D01*
X53041Y-36355D01*
X52932Y-36292D02*
X52852Y-36292D01*
X52904Y-36412D01*
M02*
