M48
INCH,TZ
T1C0.016
T2C0.025
T3C0.032
T4C0.040
T5C0.118
%
G90
G05
T1
X52126Y-38445
X52126Y-38917
X52598Y-38445
X52598Y-38917
T2
X50586Y-42484
X51236Y-41182
X51707Y-43632
X51942Y-39953
X52238Y-40788
X52453Y-36470
X52551Y-41115
X52992Y-41254
X53136Y-39455
X53540Y-40755
X53625Y-40157
X53820Y-43651
T3
X48858Y-30886
X48858Y-31886
X48858Y-32886
X48858Y-33886
X48858Y-34886
X48858Y-35886
X48858Y-36886
X48858Y-37886
X48858Y-38886
X48858Y-39886
X48858Y-40886
X48858Y-41886
X48858Y-42886
X48858Y-43886
X48858Y-44886
X54859Y-30886
X54859Y-31886
X54859Y-32886
X54859Y-33886
X54859Y-34886
X54859Y-35886
X54859Y-36886
X54859Y-37886
X54859Y-38886
X54859Y-39886
X54859Y-40886
X54859Y-41886
X54859Y-42886
X54859Y-43886
X54859Y-44886
X59957Y-35654
X59957Y-37654
X59957Y-39512
X59957Y-41512
X59957Y-43370
X59957Y-45370
X62957Y-35654
X62957Y-37654
X62957Y-39512
X62957Y-41512
X62957Y-43370
X62957Y-45370
T4
X44488Y-34622
X44488Y-35622
X44488Y-36622
X44488Y-37622
X44488Y-39740
X44488Y-40740
X44488Y-41740
X44488Y-42740
X44492Y-31681
X44492Y-32681
X46063Y-37378
X46063Y-38378
X46063Y-39378
X46063Y-40378
X56417Y-34894
X56417Y-35894
X56980Y-39740
X56980Y-40740
X56980Y-41740
X56980Y-42740
X57980Y-39740
X57980Y-40740
X57980Y-41740
X57980Y-42740
T5
X46264Y-32575
X46264Y-44780
X58465Y-32579
X58465Y-44783
T0
M30
