M48
INCH,TZ
T1C0.016
T2C0.025
T3C0.032
T4C0.040
T5C0.118
%
G90
G05
T1
X43465Y-37559
X43465Y-38031
X43937Y-37559
X43937Y-38031
T2
X42705Y-42870
X42959Y-36806
X43473Y-40416
X43996Y-39401
X44017Y-39852
X44144Y-40409
X45009Y-38389
X45228Y-37511
X48008Y-33002
T3
X40196Y-30035
X40196Y-31035
X40196Y-32035
X40196Y-33035
X40196Y-34035
X40196Y-35035
X40196Y-36035
X40196Y-37035
X40196Y-38035
X40196Y-39035
X40196Y-40035
X40196Y-41035
X40196Y-42035
X40196Y-43035
X40196Y-44035
X46102Y-30035
X46102Y-31035
X46102Y-32035
X46102Y-33035
X46102Y-34035
X46102Y-35035
X46102Y-36035
X46102Y-37035
X46102Y-38035
X46102Y-39035
X46102Y-40035
X46102Y-41035
X46102Y-42035
X46102Y-43035
X46102Y-44035
X51295Y-34768
X51295Y-36768
X51295Y-38626
X51295Y-40626
X51295Y-42484
X51295Y-44484
X54295Y-34768
X54295Y-36768
X54295Y-38626
X54295Y-40626
X54295Y-42484
X54295Y-44484
T4
X35827Y-33736
X35827Y-34736
X35827Y-35736
X35827Y-36736
X35827Y-38854
X35827Y-39854
X35827Y-40854
X35827Y-41854
X37402Y-30917
X37402Y-31917
X37402Y-36492
X37402Y-37492
X37402Y-38492
X37402Y-39492
X47756Y-34008
X47756Y-35008
X48319Y-38854
X48319Y-39854
X48319Y-40854
X48319Y-41854
X49319Y-38854
X49319Y-39854
X49319Y-40854
X49319Y-41854
T5
X35827Y-31693
X35827Y-43898
X49803Y-31693
X49803Y-43898
T0
M30
